<svg xmlns="http://www.w3.org/2000/svg" version="1.1" width="128" height="128" data-icon="aperture" viewBox="0 0 128 128">
  <g>
    <path d="M64 0c-19.7 0-37.394 8.9-49.094 23l22.5 39 35.5-61.406c-2.9-.4-5.906-.594-8.906-.594zm11 1l-22.5 39h70.906c-8.2-20.2-26.406-35.2-48.406-39zm-61.406 23.594c-8.5 10.9-13.594 24.506-13.594 39.406 0 7.7 1.406 15.1 3.906 22h45.094l-35.406-61.406zm65.406 17.406l35.406 61.406c8.5-10.9 13.594-24.506 13.594-39.406 0-7.7-1.406-15.1-3.906-22h-45.094zm11.594 24l-35.406 61.406c2.8.4 5.813.594 8.813.594 19.7 0 37.394-8.9 49.094-23l-22.5-39zm-85.906 22c8.2 20.2 26.313 35.2 48.313 39l22.5-39h-70.813z"
    />
  </g>
</svg>