<svg xmlns="http://www.w3.org/2000/svg" version="1.1" width="32" height="32" data-icon="aperture" viewBox="0 0 32 32">
  <g>
    <path d="M16 0c-4.7 0-9.006 2.106-11.906 5.406l5.5 9.594 8.594-14.813c-.7-.1-1.387-.187-2.188-.188zm3.188.313l-5.5 9.688h17.125c-2-4.9-6.325-8.588-11.625-9.688zm-15.781 5.875c-2.1 2.7-3.406 6.113-3.406 9.813 0 1.7.313 3.4.813 5h11.188l-8.594-14.813zm16.594 4.813l8.594 14.813c2.1-2.7 3.406-6.113 3.406-9.813 0-1.7-.313-3.4-.813-5h-11.188zm2.406 6l-8.594 14.813c.7.1 1.488.188 2.188.188 4.7 0 9.006-2.106 11.906-5.406l-5.5-9.594zm-21.219 5c2 4.9 6.325 8.587 11.625 9.688l5.5-9.688h-17.125z"
    />
  </g>
</svg>