<svg xmlns="http://www.w3.org/2000/svg" version="1.1" width="16" height="16" data-icon="aperture" viewBox="0 0 16 16">
  <g>
    <path d="M8 0c-2.2 0-4.194.912-5.594 2.313l2.688 4.688 4-6.906c-.4-.1-.694-.094-1.094-.094zm2.094.313l-2.688 4.688h8c-.9-2.3-2.912-3.987-5.313-4.688zm-8.406 2.781c-1.1 1.3-1.688 3.006-1.688 4.906 0 .7.113 1.4.313 2h5.375l-4-6.906zm8.625 2.906l4 6.906c1.1-1.3 1.688-3.006 1.688-4.906 0-.7-.113-1.4-.313-2h-5.375zm.594 3l-4 6.906c.4.1.694.094 1.094.094 2.2 0 4.194-.912 5.594-2.313l-2.688-4.688zm-10.313 2c.9 2.3 2.913 3.988 5.313 4.688l2.688-4.688h-8z"
    />
  </g>
</svg>