<svg xmlns="http://www.w3.org/2000/svg" version="1.1" width="32" height="32" data-icon="basket" data-container-transform="translate(0 1)" viewBox="0 0 32 32">
  <g transform="translate(0 1)">
    <path d="M15.844-.031a1.5 1.5 0 0 0-1.094.688l-7.5 11a1.508 1.508 0 1 0 2.5 1.688l7.5-11a1.5 1.5 0 0 0-1.25-2.375 1.5 1.5 0 0 0-.156 0zm2.531 2.344c-.066.206-.157.407-.281.594l-1.469 2.156 5.625 8.281a1.508 1.508 0 1 0 2.5-1.688l-6.375-9.344zm-17.875 9.688c-.3 0-.5.2-.5.5v2c0 .3.2.5.5.5h1.719l3.688 14.5c0 .3.294.5.594.5h19c.3 0 .594-.2.594-.5l3.688-14.5h1.719c.3 0 .5-.2.5-.5v-2c0-.3-.2-.5-.5-.5h-5.594c.2.9-.2 1.9-1 2.5-.4.3-.906.5-1.406.5-.8 0-1.5-.4-2-1l-1.406-2h-8.094l-1.406 2c-.5.7-1.3 1-2 1-.5 0-1-.2-1.5-.5-.8-.6-1.2-1.6-1-2.5h-5.594zm6.094 5.969c.188.028.331.212.406.438l2 8c.1.2-.106.494-.406.594h-.094c-.2 0-.4-.206-.5-.406l-2-8c-.1-.3.106-.494.406-.594l.188-.031zm12.781 0l.219.031c.3 0 .506.294.406.594l-1 8c0 .3-.2.406-.5.406h-.094c-.3 0-.506-.294-.406-.594l1-8c0-.225.164-.409.375-.438zm-6.969.031c.3 0 .494.206.594.406l1 8c0 .3-.206.594-.406.594-.3 0-.494-.206-.594-.406l-1-8c0-.3.206-.494.406-.594zm13.188 0c.3.1.506.394.406.594l-2 8c-.1.2-.3.406-.5.406h-.094c-.3-.1-.406-.294-.406-.594l2-8c.1-.3.294-.406.594-.406z"
    />
  </g>
</svg>