<svg xmlns="http://www.w3.org/2000/svg" version="1.1" width="128" height="128" data-icon="basket" data-container-transform="translate(0 9)" viewBox="0 0 128 128">
  <g transform="translate(0 9)">
    <path d="M63.438 0a4 4 0 0 0-2.688 1.688l-30 42a4 4 0 0 0-.219.281 4 4 0 0 0-.219.375l-.031.063c-.77 1.702-.262 3.769 1.313 4.906.7.5 1.513.688 2.313.688 1.2 0 2.481-.587 3.281-1.688l18.656-26 11.406-16a4 4 0 0 0-2.625-6.313h-1.188zm6.688 5.719l-4.906 6.844 25.531 35.75a4 4 0 0 0 2.063 1.688h2.719a4 4 0 0 0 1.719-6.313l-27.125-37.969zm-68.625 36.281c-.8 0-1.5.7-1.5 1.5v5c0 .8.7 1.5 1.5 1.5h5.625l16.063 57.094c.4 1.6 2.113 2.906 3.813 2.906h74c1.7 0 3.412-1.306 3.813-2.906l16.063-57.094h5.625c.8 0 1.5-.7 1.5-1.5v-5c0-.8-.7-1.5-1.5-1.5h-28l.406.5c1.9 2.7 1.294 6.406-1.406 8.406-1.1.7-2.3 1.094-3.5 1.094-1.9 0-3.706-.9-4.906-2.5l-5.281-7.5h-39.625l-5.281 7.5c-1.2 1.6-3.006 2.5-4.906 2.5-1.2 0-2.4-.394-3.5-1.094-2.7-1.9-3.306-5.706-1.406-8.406l.406-.5h-28zm32.5 2c1.1 0 2 .9 2 2s-.9 2-2 2-2-.9-2-2 .9-2 2-2zm60 0c1.1 0 2 .9 2 2s-.9 2-2 2-2-.9-2-2 .9-2 2-2zm-64.094 15.938c.952-.071 1.831.506 2.094 1.469l10 36c.2 1.1-.4 2.2-1.5 2.5-.2 0-.4.094-.5.094-.9 0-1.706-.6-1.906-1.5l-10-36c-.3-1.1.306-2.2 1.406-2.5.137-.038.27-.052.406-.063zm67.875 0c.263-.031.537-.013.813.063 1 .4 1.612 1.5 1.313 2.5l-10 36c-.2.9-1.106 1.5-1.906 1.5-.2 0-.4.006-.5-.094-1.1-.3-1.706-1.4-1.406-2.5l10-36c.225-.825.9-1.375 1.688-1.469zm-45.969.063c1.1-.1 2.087.712 2.188 1.813l4 36c.1 1.1-.712 2.088-1.813 2.188h-.188c-1 0-1.9-.813-2-1.813l-4-36c-.1-1.1.712-2.087 1.813-2.188zm23.969 0c.133-.014.269-.013.406 0 1.1.1 1.912 1.087 1.813 2.188l-4 36c-.1 1-1 1.813-2 1.813h-.188c-1.1-.1-1.912-1.088-1.813-2.188l4-36c.088-.962.852-1.711 1.781-1.813z"
    />
  </g>
</svg>