<svg xmlns="http://www.w3.org/2000/svg" version="1.1" width="16" height="16" data-icon="basket" viewBox="0 0 16 16">
  <g>
    <path d="M7.844 1a1 1 0 0 0-.688.5l-3 5a1 1 0 1 0 1.688 1l3-5a1 1 0 0 0-1-1.5zm1.875 1.938l-.031.063-1.094 1.875 1.563 2.625a1 1 0 1 0 1.688-1l-2.125-3.563zm-9.719 4.063v2h1.25l1.75 7h10l1.75-7h1.25v-2h-3c0 .7-.3 1.287-1 1.688-.3.2-.6.313-1 .313-.7 0-1.287-.3-1.688-1l-.625-1h-1.375l-.625 1c-.4.7-.987 1-1.688 1-.4 0-.7-.113-1-.313-.7-.4-1-.987-1-1.688h-3zm5.5 4c.3 0 .5.2.5.5v2c0 .3-.2.5-.5.5s-.5-.2-.5-.5v-2c0-.3.2-.5.5-.5zm5 0c.3 0 .5.2.5.5v2c0 .3-.2.5-.5.5s-.5-.2-.5-.5v-2c0-.3.2-.5.5-.5z"
    />
  </g>
</svg>