<svg xmlns="http://www.w3.org/2000/svg" version="1.1" width="16" height="16" data-icon="beaker" viewBox="0 0 16 16">
  <g>
    <path d="M4.344 0a.502.502 0 0 0 .156 1h.5v4.344l-4.313 6.469h.031c-.496.447-.719 1.101-.719 1.688 0 .601.278 1.179.719 1.656l-.031.031.063.031c.415.512 1.063.781 1.75.781h11c.601 0 1.179-.278 1.656-.719l.031.031.031-.063h.031c.537-.447.75-1.143.75-1.75 0-.601-.278-1.179-.719-1.656l.031-.031-.063-.063-4.25-6.406v-4.344h.5a.5.5 0 1 0 0-1h-7a.5.5 0 0 0-.094 0 .502.502 0 0 0-.063 0zm1.656 1h4v4.656l.094.125 2.813 4.219h-2.906c0-.6-.4-1-1-1s-1 .4-1 1h-4.906l2.813-4.219.094-.125v-4.656z"
    />
  </g>
</svg>