<svg xmlns="http://www.w3.org/2000/svg" version="1.1" width="128" height="128" data-icon="beaker" viewBox="0 0 128 128">
  <g>
    <path d="M41.813 0a2.002 2.002 0 1 0 .188 4h2v48.094l-41.344 59.063c-1.251 1.773-2.656 3.977-2.656 6.844 0 2.745 1.13 5.227 2.844 7.063 1.839 1.97 4.471 2.938 7.156 2.938h108c2.745 0 5.227-1.13 7.063-2.844 1.935-1.806 2.938-4.392 2.938-7.156 0-2.938-1.426-5.101-2.656-6.844l-41.344-59.063v-48.094h2a2 2 0 1 0 0-4h-44a2 2 0 0 0-.188 0zm6.188 4h32v8h-7a1 1 0 0 0-.094 0 1.001 1.001 0 0 0 .094 2h7v8h-7a1 1 0 0 0-.094 0 1.001 1.001 0 0 0 .094 2h7v8h-7a1 1 0 0 0-.094 0 1.001 1.001 0 0 0 .094 2h7v8h-7a1 1 0 0 0-.094 0 1.001 1.001 0 0 0 .094 2h7v8h-7a1 1 0 0 0-.094 0 1.001 1.001 0 0 0 .094 2h7.469l5.625 8h-7.094a1 1 0 0 0-.094 0 1.001 1.001 0 0 0 .094 2h8.469l5.594 8h-8.063a1 1 0 0 0-.094 0 1.001 1.001 0 0 0 .094 2h9.469l5.594 8h-26.063c.6-.8 1-1.9 1-3 0-2.8-2.2-5-5-5s-5 2.2-5 5c0 1.1.4 2.2 1 3h-38.063l19.688-28.156.375-.5v-49.344zm12 62c-1.105 0-2 .895-2 2s.895 2 2 2 2-.895 2-2-.895-2-2-2zm1 28c1.7 0 3 1.3 3 3s-1.3 3-3 3-3-1.3-3-3 1.3-3 3-3zm8 16c.6 0 1 .4 1 1s-.4 1-1 1-1-.4-1-1 .4-1 1-1z"
    />
  </g>
</svg>