<svg xmlns="http://www.w3.org/2000/svg" version="1.1" width="32" height="32" data-icon="beaker" viewBox="0 0 32 32">
  <g>
    <path d="M9.313 0a1.001 1.001 0 0 0 .188 2h.5v10.188l-9.125 13.969c-.414.621-.875 1.358-.875 2.344 0 .883.237 1.888 1.063 2.563v.031c.614.491 1.452.906 2.438.906h25c.795 0 1.879-.075 2.594-.969.491-.614.906-1.452.906-2.438 0-.958-.401-1.735-.875-2.344l-.031-.063-9.094-13.969v-10.219h.5a1 1 0 1 0 0-2h-13a1 1 0 0 0-.094 0 1.001 1.001 0 0 0-.094 0zm2.688 2h8v2h-1.5a.5.5 0 0 0-.094 0 .502.502 0 1 0 .094 1h1.5v3h-1.5a.5.5 0 0 0-.094 0 .502.502 0 1 0 .094 1h1.5v3h-1.5a.5.5 0 0 0-.094 0 .502.502 0 1 0 .094 1h1.625l.031.031 1.938 2.969h-1.594a.5.5 0 0 0-.094 0 .502.502 0 1 0 .094 1h2.25l1.938 3h-5.875c.2-.3.281-.6.281-1 0-1.1-.9-2-2-2s-2 .9-2 2c0 .4.113.7.313 1h-8.125l4.563-6.938.156-.25v-10.813zm1 21c.6 0 1 .4 1 1s-.4 1-1 1-1-.4-1-1 .4-1 1-1zm2.5 4c.3 0 .5.2.5.5s-.2.5-.5.5-.5-.2-.5-.5.2-.5.5-.5z"
    />
  </g>
</svg>