<svg xmlns="http://www.w3.org/2000/svg" version="1.1" width="16" height="16" data-icon="bell" data-container-transform="translate(1)" viewBox="0 0 16 16">
  <g transform="translate(1)">
    <path d="M7 0c-.552 0-1 .448-1 1l.031.125c-1.74.433-3.031 2.006-3.031 3.875 0 2.1.013 4.012-1.688 5.313-.8.7-1.313 1.688-1.313 2.688h14c0-1-.512-1.988-1.313-2.688-1.7-1.3-1.688-3.213-1.688-5.313 0-1.869-1.291-3.442-3.031-3.875l.031-.125c0-.552-.448-1-1-1zm-2 14c0 1.1.9 2 2 2s2-.9 2-2h-4z"
    />
  </g>
</svg>