<svg xmlns="http://www.w3.org/2000/svg" version="1.1" width="32" height="32" data-icon="bell" data-container-transform="translate(2)" viewBox="0 0 32 32">
  <g transform="translate(2)">
    <path d="M14 0c-1.105 0-2 .895-2 2 0 .447.159.855.406 1.188-3.112.715-5.406 3.466-5.406 6.813v1c0 3.9-.3 7.4-4 10-1.7 1.2-2.8 2.794-3 4.594v1.407h28v-1.406c-.1-1.8-1.2-3.394-3-4.594-3.7-2.6-4-6.1-4-10v-1c0-3.347-2.294-6.098-5.406-6.813.247-.333.406-.741.406-1.188 0-1.105-.895-2-2-2zm-4 28c0 2.2 1.8 4 4 4s4-1.8 4-4h-8z"
    />
  </g>
</svg>