<svg xmlns="http://www.w3.org/2000/svg" version="1.1" width="128" height="128" data-icon="bell" data-container-transform="translate(8)" viewBox="0 0 128 128">
  <g transform="translate(8)">
    <path d="M56 0c-3.314 0-6 2.686-6 6 0 1.689.69 3.222 1.813 4.313-13.507 2.01-23.813 13.609-23.813 27.688v4.094c0 15.6-1.2 29.706-16 39.906-7.4 5.1-12 12.2-12 20v2h112v-2c0-7.8-4.6-14.9-12-20-14.8-10.2-16-24.306-16-39.906v-4.094c0-14.079-10.306-25.678-23.813-27.688 1.123-1.09 1.813-2.624 1.813-4.313 0-3.314-2.686-6-6-6zm-14.813 106c-.8 1.9-1.188 3.9-1.188 6 0 8.8 7.2 16 16 16s16-7.2 16-16c0-2.1-.388-4.1-1.188-6h-29.625z"
    />
  </g>
</svg>