<svg xmlns="http://www.w3.org/2000/svg" version="1.1" width="16" height="16" data-icon="bitcoin-transaction" viewBox="0 0 16 16">
  <g>
    <path d="M3 0v3h-3v1c.6 0 1 .4 1 1v6c0 .6-.4 1-1 1v1h3v3h1v-3h1v3h1v-3c1.7 0 3-1.3 3-3 0-1.2-.688-2.188-1.688-2.688.4-.5.688-1.112.688-1.813 0-1.225-.852-2.208-2-2.438v-3.063h-1v3h-1v-3h-1zm0 4h1.5c.8 0 1.5.7 1.5 1.5s-.7 1.5-1.5 1.5h-1.5v-3zm9 0l-3 2.5 3 2.5v-2h2v-1h-2v-2zm-9 4h2c1.1 0 2 .9 2 2s-.9 2-2 2h-2v-4zm10 0v2h-2v1h2v2l3-2.5-3-2.5z"
    />
  </g>
</svg>