<svg xmlns="http://www.w3.org/2000/svg" version="1.1" width="128" height="128" data-icon="bitcoin" data-container-transform="translate(24)" viewBox="0 0 128 128">
  <g transform="translate(24)">
    <path d="M28 0v16h-28v6h8c3.3 0 6 2.7 6 6v72c0 3.3-2.7 6-6 6h-8v6h28v16h8v-16h8v16h8v-16h1c15-.5 27-12.8 27-28 0-11.4-6.794-21.194-16.594-25.594 5.2-4.4 8.594-11.006 8.594-18.406 0-11.906-8.624-21.705-20-23.625v-16.375h-8v16h-8v-16h-8zm0 22h15c9.4 0 17 7.6 17 17s-7.6 17-17 17h-15v-34zm0 40h16.5c12.2 0 22 9.8 22 22s-9.8 22-22 22h-16.5v-44z"
    />
  </g>
</svg>