<svg xmlns="http://www.w3.org/2000/svg" version="1.1" width="128" height="128" data-icon="bold" data-container-transform="translate(10)" viewBox="0 0 128 128">
  <g transform="translate(10)">
    <path d="M0 0v6h12c3.3 0 6 2.7 6 6v104c0 3.3-2.7 6-6 6h-10v6h70c19.9 0 36-16.1 36-36 0-15-9.213-27.912-22.313-33.313 8.6-5.7 14.313-15.587 14.313-26.688 0-17.7-14.3-32-32-32h-68zm40 6h11c13.8 0 25 11.2 25 25s-11.2 25-25 25h-11v-50zm0 56h16c16.6 0 30 13.4 30 30s-13.4 30-30 30h-16v-60z"
    />
  </g>
</svg>