<svg xmlns="http://www.w3.org/2000/svg" version="1.1" width="128" height="128" data-icon="book" data-container-transform="translate(4)" viewBox="0 0 128 128">
  <g transform="translate(4)">
    <path d="M5 0v.094c-2.8.5-5 2.906-5 5.906v106.688c1.5-1.7 3.6-2.688 6-2.688h.094c-.1-.1-.094-.213-.094-.313v-109.688h-1zm3 0v109.688c0 .1.006.213-.094.313h112.094v-107.188c-.1-1.6-1.4-2.813-3-2.813h-13v52l-6-6-6 6v-52h-84zm-2 112c-3.3 0-6 2.7-6 6v4c0 3.3 2.7 6 6 6h114v-4h-112c-2.2 0-4-1.8-4-4s1.8-4 4-4h112v-4h-114z"
    />
  </g>
</svg>