<svg xmlns="http://www.w3.org/2000/svg" version="1.1" width="128" height="128" data-icon="brain" data-container-transform="translate(3)" viewBox="0 0 128 128">
  <g transform="translate(3)">
    <path d="M51.188 0c-24.1.7-41.394 19.594-48.094 42.594.3 1.9 1.906 3.406 3.906 3.406.6 0 1 .4 1 1s-.4 1-1 1c-2.4 0-4.606 1.212-5.906 3.313-.7 4.2-1.094 8.388-1.094 12.688 0 6.2.506 12.287 1.406 18.188 1 2.3 3.094 3.813 5.594 3.813.6 0 1 .4 1 1s-.4 1-1 1c-1.7 0-3.212 1.088-3.813 2.688 1.7 6.3 4 12.213 7 17.313h.813c1.7 0 3-1.3 3-3v-4c0-2.8 2.2-5 5-5s5 2.2 5 5c0 .6-.4 1-1 1s-1-.4-1-1c0-1.7-1.3-3-3-3s-3 1.3-3 3v4c0 2.6-2 4.7-4.5 5 3.6 5.4 8.1 9.894 13.5 13.094 1.9.6 3.9 1 6 1 1.7 0 3-1.3 3-3v-10c0-.6.4-1 1-1s1 .4 1 1v10c0 2.6-2 4.706-4.5 4.906 3.5 1.2 7.388 1.9 11.688 2h1.3139999999999998c8.6-.3 15.5-7.3 15.5-16v-9c0-2.8-2.2-5-5-5-.6 0-1-.4-1-1s.4-1 1-1c2.8 0 5-2.2 5-5v-18c0-3.9-3.1-7-7-7h-6c-.6 0-1-.4-1-1s.4-1 1-1h6c3.9 0 7-3.1 7-7v-24c0-2.8-2.2-5-5-5-.6 0-1-.4-1-1s.4-1 1-1c2.8 0 5-2.2 5-5v-13c0-4.2-3.3-7.7-7.5-8h-1.314zm18.313 0c-4.2.3-7.5 3.8-7.5 8v13c0 2.8 2.2 5 5 5 .6 0 1 .4 1 1s-.4 1-1 1c-2.8 0-5 2.2-5 5v24c0 3.9 3.1 7 7 7h6c.6 0 1 .4 1 1s-.4 1-1 1h-6c-3.9 0-7 3.1-7 7v18c0 2.8 2.2 5 5 5 .6 0 1 .4 1 1s-.4 1-1 1c-2.8 0-5 2.2-5 5v9c0 8.7 6.9 15.7 15.5 16h1.314c4.2-.1 8.088-.8 11.688-2-2.5-.3-4.5-2.4-4.5-5v-10c0-.6.4-1 1-1s1 .4 1 1v10c0 1.7 1.3 3 3 3 2.1 0 4.1-.3 6-1 5.5-3.1 9.9-7.594 13.5-13.094-2.5-.3-4.5-2.4-4.5-5v-4c0-1.7-1.3-3-3-3s-3 1.3-3 3c0 .6-.4 1-1 1s-1-.4-1-1c0-2.8 2.2-5 5-5s5 2.2 5 5v4c0 1.7 1.3 3 3 3h.688c3.1-5.1 5.4-11.013 7-17.313-.5-1.6-1.981-2.688-3.781-2.688-.6 0-1-.4-1-1s.4-1 1-1c2.5 0 4.594-1.513 5.594-3.813 1-5.9 1.406-12.088 1.406-18.188 0-4.3-.394-8.519-1.094-12.719-1.3-2-3.506-3.281-5.906-3.281-.6 0-1-.4-1-1s.4-1 1-1c2 0 3.606-1.506 3.906-3.406-6.6-22.9-23.9-41.8-48-42.5h-1.3139999999999998zm-20.5 6c2.8 0 5 2.2 5 5 0 .6-.4 1-1 1s-1-.4-1-1c0-1.7-1.3-3-3-3s-3 1.3-3 3c0 .6-.4 1-1 1s-1-.4-1-1c0-2.8 2.2-5 5-5zm24 0c2.8 0 5 2.2 5 5 0 .6-.4 1-1 1s-1-.4-1-1c0-1.7-1.3-3-3-3s-3 1.3-3 3c0 .6-.4 1-1 1s-1-.4-1-1c0-2.8 2.2-5 5-5zm-20 10c.6 0 1 .4 1 1 0 2.8-2.2 5-5 5s-5 2.2-5 5 2.2 5 5 5 5 2.2 5 5c0 .6-.4 1-1 1s-1-.4-1-1c0-1.7-1.3-3-3-3-3.9 0-7-3.1-7-7s3.1-7 7-7c1.7 0 3-1.3 3-3 0-.6.4-1 1-1zm16 0c.6 0 1 .4 1 1 0 1.7 1.3 3 3 3 3.9 0 7 3.1 7 7s-3.1 7-7 7c-1.7 0-3 1.3-3 3 0 .6-.4 1-1 1s-1-.4-1-1c0-2.8 2.2-5 5-5s5-2.2 5-5-2.2-5-5-5-5-2.2-5-5c0-.6.4-1 1-1zm-42 8c2.8 0 5 2.2 5 5 0 .6-.4 1-1 1s-1-.4-1-1c0-1.7-1.3-3-3-3s-3 1.3-3 3c0 .6-.4 1-1 1s-1-.4-1-1c0-2.8 2.2-5 5-5zm68 0c2.8 0 5 2.2 5 5 0 .6-.4 1-1 1s-1-.4-1-1c0-1.7-1.3-3-3-3s-3 1.3-3 3c0 .6-.4 1-1 1s-1-.4-1-1c0-2.8 2.2-5 5-5zm-84 18c2.8 0 5 2.2 5 5s-2.2 5-5 5c-.6 0-1-.4-1-1s.4-1 1-1c1.7 0 3-1.3 3-3s-1.3-3-3-3c-.6 0-1-.4-1-1s.4-1 1-1zm38 0c2.8 0 5 2.2 5 5 0 .6-.4 1-1 1s-1-.4-1-1c0-1.7-1.3-3-3-3-.6 0-1-.4-1-1s.4-1 1-1zm24 0c.6 0 1 .4 1 1s-.4 1-1 1c-1.7 0-3 1.3-3 3 0 .6-.4 1-1 1s-1-.4-1-1c0-2.8 2.2-5 5-5zm38 0c.6 0 1 .4 1 1s-.4 1-1 1c-1.7 0-3 1.3-3 3s1.3 3 3 3c.6 0 1 .4 1 1s-.4 1-1 1c-2.8 0-5-2.2-5-5s2.2-5 5-5zm-88 4c.6 0 1 .4 1 1 0 7.2-5.8 13-13 13-.6 0-1-.4-1-1s.4-1 1-1c6.1 0 11-4.9 11-11 0-.6.4-1 1-1zm76 0c.6 0 1 .4 1 1 0 6.1 4.9 11 11 11 .6 0 1 .4 1 1s-.4 1-1 1c-7.2 0-13-5.8-13-13 0-.6.4-1 1-1zm-46 6c.6 0 1 .4 1 1 0 2.8-2.2 5-5 5h-8c-3.9 0-7 3.1-7 7s3.1 7 7 7c.6 0 1 .4 1 1s-.4 1-1 1c-5 0-9-4-9-9s4-9 9-9h8c1.7 0 3-1.3 3-3 0-.6.4-1 1-1zm16 0c.6 0 1 .4 1 1 0 1.7 1.3 3 3 3h8c5 0 9 4 9 9s-4 9-9 9c-.6 0-1-.4-1-1s.4-1 1-1c3.9 0 7-3.1 7-7s-3.1-7-7-7h-8c-2.8 0-5-2.2-5-5 0-.6.4-1 1-1zm-56 18c2.8 0 5 2.2 5 5 0 .6-.4 1-1 1s-1-.4-1-1c0-1.7-1.3-3-3-3-.6 0-1-.4-1-1s.4-1 1-1zm96 0c.6 0 1 .4 1 1s-.4 1-1 1c-1.7 0-3 1.3-3 3 0 .6-.4 1-1 1s-1-.4-1-1c0-2.8 2.2-5 5-5zm-60 2c2.8 0 5 2.2 5 5s-2.2 5-5 5h-3c-.6 0-1-.4-1-1s.4-1 1-1h3c1.7 0 3-1.3 3-3s-1.3-3-3-3c-.6 0-1-.4-1-1s.4-1 1-1zm24 0c.6 0 1 .4 1 1s-.4 1-1 1c-1.7 0-3 1.3-3 3s1.3 3 3 3h3c.6 0 1 .4 1 1s-.4 1-1 1h-3c-2.8 0-5-2.2-5-5s2.2-5 5-5zm-62 2c.6 0 1 .4 1 1s-.4 1-1 1c-1.7 0-3 1.3-3 3s1.3 3 3 3c2.8 0 5 2.2 5 5s-2.2 5-5 5c-.6 0-1-.4-1-1s.4-1 1-1c1.7 0 3-1.3 3-3s-1.3-3-3-3c-2.8 0-5-2.2-5-5s2.2-5 5-5zm100 0c2.8 0 5 2.2 5 5s-2.2 5-5 5c-1.7 0-3 1.3-3 3s1.3 3 3 3c.6 0 1 .4 1 1s-.4 1-1 1c-2.8 0-5-2.2-5-5s2.2-5 5-5c1.7 0 3-1.3 3-3s-1.3-3-3-3c-.6 0-1-.4-1-1s.4-1 1-1zm-73 6h3c.6 0 1 .4 1 1s-.4 1-1 1h-3c-1.7 0-3 1.3-3 3s1.3 3 3 3c.6 0 1 .4 1 1s-.4 1-1 1c-2.8 0-5-2.2-5-5s2.2-5 5-5zm43 0h3c2.8 0 5 2.2 5 5s-2.2 5-5 5c-.6 0-1-.4-1-1s.4-1 1-1c1.7 0 3-1.3 3-3s-1.3-3-3-3h-3c-.6 0-1-.4-1-1s.4-1 1-1zm-28 10c.6 0 1 .4 1 1s-.4 1-1 1c-2.8 0-5 2.2-5 5v10c0 2.8-2.2 5-5 5s-5-2.2-5-5c0-1.7-1.3-3-3-3-.6 0-1-.4-1-1s.4-1 1-1c2.8 0 5 2.2 5 5 0 1.7 1.3 3 3 3s3-1.3 3-3v-10c0-3.9 3.1-7 7-7zm16 0c3.9 0 7 3.1 7 7v10c0 1.7 1.3 3 3 3s3-1.3 3-3c0-2.8 2.2-5 5-5 .6 0 1 .4 1 1s-.4 1-1 1c-1.7 0-3 1.3-3 3 0 2.8-2.2 5-5 5s-5-2.2-5-5v-10c0-2.8-2.2-5-5-5-.6 0-1-.4-1-1s.4-1 1-1z"
    />
  </g>
</svg>