<svg xmlns="http://www.w3.org/2000/svg" version="1.1" width="32" height="32" data-icon="brain" viewBox="0 0 32 32">
  <g>
    <path d="M13 0c-6.2 0-10.613 4.912-12.313 10.813.3.1.512.188.813.188.3 0 .5.2.5.5s-.2.5-.5.5c-.5 0-.887.194-1.188.594-.2 1.1-.313 2.306-.313 3.406 0 1.5.113 3.006.313 4.406.3.4.688.594 1.188.594.3 0 .5.2.5.5s-.2.5-.5.5-.613.087-.813.188c1.3 5.5 4.412 9.813 10.313 9.813 2.2 0 4-1.8 4-4v-9.5c0-.8-.7-1.5-1.5-1.5h-3c-.3 0-.5-.2-.5-.5s.2-.5.5-.5h3c.8 0 1.5-.7 1.5-1.5v-6c0-.8-.7-1.5-1.5-1.5-.3 0-.5-.2-.5-.5s.2-.5.5-.5c.8 0 1.5-.7 1.5-1.5v-2.5c0-1.1-.9-2-2-2zm5 0c-1.1 0-2 .9-2 2v2.5c0 .8.7 1.5 1.5 1.5.3 0 .5.2.5.5s-.2.5-.5.5c-.8 0-1.5.7-1.5 1.5v6c0 .8.7 1.5 1.5 1.5h3c.3 0 .5.2.5.5s-.2.5-.5.5h-3c-.8 0-1.5.7-1.5 1.5v9.5c0 2.2 1.8 4 4 4 5.9 0 9.012-4.313 10.313-9.813-.2-.1-.512-.188-.813-.188-.3 0-.5-.2-.5-.5s.2-.5.5-.5c.5 0 .887-.194 1.188-.594.2-1.4.313-2.906.313-4.406 0-1.1-.113-2.306-.313-3.406-.3-.4-.688-.594-1.188-.594-.3 0-.5-.2-.5-.5s.2-.5.5-.5.512-.088.813-.188c-1.7-5.9-6.113-10.812-12.313-10.813zm-5.5 2c.3 0 .5.2.5.5 0 .8-.7 1.5-1.5 1.5-1.4 0-2.5 1.1-2.5 2.5s1.1 2.5 2.5 2.5c.3 0 .5.2.5.5s-.2.5-.5.5c-1.9 0-3.5-1.6-3.5-3.5s1.6-3.5 3.5-3.5c.3 0 .5-.2.5-.5s.2-.5.5-.5zm6 0c.3 0 .5.2.5.5s.2.5.5.5c1.9 0 3.5 1.6 3.5 3.5s-1.6 3.5-3.5 3.5c-.3 0-.5-.2-.5-.5s.2-.5.5-.5c1.4 0 2.5-1.1 2.5-2.5s-1.1-2.5-2.5-2.5c-.8 0-1.5-.7-1.5-1.5 0-.3.2-.5.5-.5zm-5 9c.3 0 .5.2.5.5 0 1.4-1.1 2.5-2.5 2.5h-3c-1.4 0-2.5 1.1-2.5 2.5s1.1 2.5 2.5 2.5c.3 0 .5.2.5.5s-.2.5-.5.5c-1.9 0-3.5-1.6-3.5-3.5s1.6-3.5 3.5-3.5h3c.8 0 1.5-.7 1.5-1.5 0-.3.2-.5.5-.5zm4 0c.3 0 .5.2.5.5 0 .8.7 1.5 1.5 1.5h3c1.9 0 3.5 1.6 3.5 3.5s-1.6 3.5-3.5 3.5c-.3 0-.5-.2-.5-.5s.2-.5.5-.5c1.4 0 2.5-1.1 2.5-2.5s-1.1-2.5-2.5-2.5h-3c-1.4 0-2.5-1.1-2.5-2.5 0-.3.2-.5.5-.5zm-6 8c1.4 0 2.5 1.1 2.5 2.5s-1.1 2.5-2.5 2.5h-1.5c-.6 0-1 .4-1 1v1.5c0 .3-.2.5-.5.5s-.5-.2-.5-.5v-1.5c0-1.1.9-2 2-2h1.5c.8 0 1.5-.7 1.5-1.5s-.7-1.5-1.5-1.5c-.3 0-.5-.2-.5-.5s.2-.5.5-.5zm8 0c.3 0 .5.2.5.5s-.2.5-.5.5c-.8 0-1.5.7-1.5 1.5s.7 1.5 1.5 1.5h1.5c1.1 0 2 .9 2 2v1.5c0 .3-.2.5-.5.5s-.5-.2-.5-.5v-1.5c0-.6-.4-1-1-1h-1.5c-1.4 0-2.5-1.1-2.5-2.5s1.1-2.5 2.5-2.5zm-8 7c.8 0 1.5.7 1.5 1.5 0 .3-.2.5-.5.5s-.5-.2-.5-.5-.2-.5-.5-.5-.5.2-.5.5c0 1.4-1.1 2.5-2.5 2.5s-2.5-1.1-2.5-2.5c0-.3.2-.5.5-.5s.5.2.5.5c0 .8.7 1.5 1.5 1.5s1.5-.7 1.5-1.5.7-1.5 1.5-1.5zm8 0c.8 0 1.5.7 1.5 1.5s.7 1.5 1.5 1.5 1.5-.7 1.5-1.5c0-.3.2-.5.5-.5s.5.2.5.5c0 1.4-1.1 2.5-2.5 2.5s-2.5-1.1-2.5-2.5c0-.3-.2-.5-.5-.5s-.5.2-.5.5-.2.5-.5.5-.5-.2-.5-.5c0-.8.7-1.5 1.5-1.5z"
    />
  </g>
</svg>