<svg xmlns="http://www.w3.org/2000/svg" version="1.1" width="16" height="16" data-icon="brain" viewBox="0 0 16 16">
  <g>
    <path d="M6 0c-2.6 0-4.412 1.694-5.313 4.094.2 0 .313.206.313.406 0 .3-.2.5-.5.5h-.094c-.3 1-.406 2-.406 3s.087 2.006.188 2.906c.1.1.213.094.313.094.3 0 .5.2.5.5s-.2.5-.5.5c.6 2.3 1.9 4 4.5 4 1.1 0 2-.9 2-2v-6h-.5c-.3 0-.5-.2-.5-.5s.2-.5.5-.5h.5v-6c0-.6-.4-1-1-1zm3 0c-.6 0-1 .4-1 1v6h.5c.3 0 .5.2.5.5s-.2.5-.5.5h-.5v6c0 1.1.9 2 2 2 2.6 0 3.9-1.7 4.5-4-.3 0-.5-.2-.5-.5s.2-.5.5-.5c.1 0 .213.006.313-.094.1-.9.188-1.906.188-2.906 0-1-.106-2.1-.406-3h-.094c-.3 0-.5-.2-.5-.5 0-.2.113-.406.313-.406-.9-2.4-2.713-4.094-5.313-4.094zm-3.5 1c.3 0 .5.2.5.5s-.2.5-.5.5c-.8 0-1.5.7-1.5 1.5 0 .3-.2.5-.5.5s-.5-.2-.5-.5c0-1.4 1.1-2.5 2.5-2.5zm4 0c1.4 0 2.5 1.1 2.5 2.5 0 .3-.2.5-.5.5s-.5-.2-.5-.5c0-.8-.7-1.5-1.5-1.5-.3 0-.5-.2-.5-.5s.2-.5.5-.5zm-4 3c.3 0 .5.2.5.5 0 .8-.7 1.5-1.5 1.5s-1.5.7-1.5 1.5c0 .3-.2.5-.5.5s-.5-.2-.5-.5c0-1.4 1.1-2.5 2.5-2.5.3 0 .5-.2.5-.5s.2-.5.5-.5zm4 0c.3 0 .5.2.5.5s.2.5.5.5c1.4 0 2.5 1.1 2.5 2.5 0 .3-.2.5-.5.5s-.5-.2-.5-.5c0-.8-.7-1.5-1.5-1.5s-1.5-.7-1.5-1.5c0-.3.2-.5.5-.5zm-5 5c.8 0 1.5.7 1.5 1.5s-.7 1.5-1.5 1.5c-.3 0-.5-.2-.5-.5s.2-.5.5-.5.5-.2.5-.5-.2-.5-.5-.5-.5-.2-.5-.5.2-.5.5-.5zm6 0c.3 0 .5.2.5.5s-.2.5-.5.5-.5.2-.5.5.2.5.5.5.5.2.5.5-.2.5-.5.5c-.8 0-1.5-.7-1.5-1.5s.7-1.5 1.5-1.5zm-7 4c.3 0 .5.2.5.5s.2.5.5.5.5-.2.5-.5.2-.5.5-.5.5.2.5.5c0 .8-.7 1.5-1.5 1.5s-1.5-.7-1.5-1.5c0-.3.2-.5.5-.5zm6 0c.3 0 .5.2.5.5s.2.5.5.5.5-.2.5-.5.2-.5.5-.5.5.2.5.5c0 .8-.7 1.5-1.5 1.5s-1.5-.7-1.5-1.5c0-.3.2-.5.5-.5z"
    />
  </g>
</svg>