<svg xmlns="http://www.w3.org/2000/svg" version="1.1" width="16" height="16" data-icon="briefcase" viewBox="0 0 16 16">
  <g>
    <path d="M5.813.094c-.217 0-.384.103-.5.219-.116.116-.219.283-.219.5v2.188h-5.094v4.5c0 .3.2.5.5.5h5.5c.1-.6.494-1 1.094-1h1.813c.6 0 .994.4 1.094 1h5.5c.3 0 .5-.2.5-.5v-4.5h-5v-2.188c0-.217-.103-.384-.219-.5-.116-.116-.252-.219-.469-.219h-4.5zm.281 1h3.906v1.906h-3.906v-1.906zm1 6.906l-.094.094v.813l.094.094h1.813l.094-.094v-.813l-.094-.094h-1.813zm-7.094.906v6.094h16v-6.094c-.2.1-.3.094-.5.094h-5.5c-.1.6-.494 1-1.094 1h-1.813c-.6 0-.994-.4-1.094-1h-5.5c-.2 0-.3.006-.5-.094z"
    />
  </g>
</svg>