<svg xmlns="http://www.w3.org/2000/svg" version="1.1" width="32" height="32" data-icon="briefcase" data-container-transform="translate(0 2)" viewBox="0 0 32 32">
  <g transform="translate(0 2)">
    <path d="M13 0c-.261 0-.53.093-.719.281-.189.189-.281.458-.281.719v2h-11.5c-.3 0-.5.2-.5.5v7.5c0 .5.7 1 1.5 1h10.5v-.813c0-.7.588-1.188 1.188-1.188h5.5c.7 0 1.219.588 1.219 1.188v.813h10.5c.8 0 1.5-.5 1.5-1v-7.813c-.087-.121-.228-.188-.406-.188h-11.5v-2c0-.261-.093-.53-.281-.719-.189-.189-.458-.281-.719-.281h-6zm0 1h6v2h-6v-2zm.188 10c-.1 0-.188.088-.188.188v2.625c0 .1.088.188.188.188h5.5c.1 0 .219-.088.219-.188v-2.625c0-.1-.119-.188-.219-.188h-5.5zm-13.188 1.594v13.906c0 .3.2.5.5.5h31c.3 0 .5-.2.5-.5v-13.906c-.4.2-.9.406-1.5.406h-10.5v.813c0 .7-.587 1.188-1.188 1.188h-5.5c-.7 0-1.219-.588-1.219-1.188v-.813h-10.594c-.6 0-1.1-.206-1.5-.406z"
    />
  </g>
</svg>