<svg xmlns="http://www.w3.org/2000/svg" version="1.1" width="128" height="128" data-icon="briefcase" data-container-transform="translate(0 10)" viewBox="0 0 128 128">
  <g transform="translate(0 10)">
    <path d="M51 0c-2.72 0-5 2.28-5 5v7h-44.5c-.8 0-1.5.7-1.5 1.5v33.5c0 1.7 1.3 3 3 3h49v-1c0-1.7 1.3-3 3-3h16c1.7 0 3 1.3 3 3v1h51c1.7 0 3-1.3 3-3v-33.5c0-.8-.7-1.5-1.5-1.5h-46.5v-7c0-2.72-2.28-5-5-5h-24zm0 4h24c.68 0 1 .32 1 1v7h-26v-7c0-.68.32-1 1-1zm4 44c-.5 0-1 .5-1 1v4c0 .5.5 1 1 1h16c.5 0 1-.5 1-1v-4c0-.5-.5-1-1-1h-16zm-55 3v55.5c0 .8.7 1.5 1.5 1.5h125c.8 0 1.5-.7 1.5-1.5v-55.5c-.8.6-1.9 1-3 1h-51v1c0 1.7-1.3 3-3 3h-16c-1.7 0-3-1.3-3-3v-1h-49c-1.1 0-2.2-.4-3-1z"
    />
  </g>
</svg>