<svg xmlns="http://www.w3.org/2000/svg" version="1.1" width="128" height="128" data-icon="british-pound" data-container-transform="translate(20)" viewBox="0 0 128 128">
  <g transform="translate(20)">
    <path d="M46 0c-19.748 0-35.906 16.158-35.906 35.906 0 11.526 4.434 21.064 7.25 30.094h-11.344v6h12.906c.084.415.18.836.25 1.25 1.899 11.251.403 22.691-17.406 40.5l-1.75 1.75v12.5h88v-12h-72.063c14.218-16.676 17.07-31.466 15.156-44h16.906v-6h-18.094c-2.856-11.717-7.813-21.136-7.813-30.094 0-13.252 10.655-23.906 23.906-23.906 7.098 0 13.25 2.077 17.406 5.469 4.156 3.392 6.594 7.918 6.594 14.531h12c0-9.886-4.312-18.361-11.031-23.844-6.719-5.483-15.567-8.156-24.969-8.156z"
    />
  </g>
</svg>