<svg xmlns="http://www.w3.org/2000/svg" version="1.1" width="16" height="16" data-icon="british-pound" data-container-transform="translate(2)" viewBox="0 0 16 16">
  <g transform="translate(2)">
    <path d="M5.5 0c-2.461 0-4.5 2.039-4.5 4.5 0 1.413.545 2.514.906 3.5h-1.906v1h2.188c.215 1.163.069 2.306-1.906 4.281l-.281.313v2.406h11v-2h-8.813c1.562-1.843 2.153-3.561 2.031-5h2.781v-1h-3c-.382-1.446-1-2.552-1-3.5 0-1.339 1.161-2.5 2.5-2.5.757 0 1.418.221 1.844.563.425.342.656.768.656 1.438h2c0-1.231-.557-2.317-1.406-3-.85-.683-1.951-1-3.094-1z"
    />
  </g>
</svg>