<svg xmlns="http://www.w3.org/2000/svg" version="1.1" width="32" height="32" data-icon="british-pound" data-container-transform="translate(5)" viewBox="0 0 32 32">
  <g transform="translate(5)">
    <path d="M10 0c-4.96 0-9 4.04-9 9 0 2.315.78 4.241 1.563 6h-2.563v2h3.438c.157.399.3.8.406 1.188.711 2.599.756 4.9-3.25 8.906l-.594.563v4.343999999999999h21v-4h-16.063c3.108-4.002 3.582-7.834 2.75-10.875l-.031-.125h4.344v-2h-5c-.924-2.47-2-4.415-2-6 0-2.84 2.16-5 5-5 3.011 0 5 1.66 5 4.5h4c0-4.96-4.211-8.5-9-8.5z"
    />
  </g>
</svg>