<svg xmlns="http://www.w3.org/2000/svg" version="1.1" width="32" height="32" data-icon="brush" viewBox="0 0 32 32">
  <g>
    <path d="M30.938.375c-.323.055-.731.25-1.125.531l-16.625 12.188c-.7.5-1.475 1.519-1.875 2.219l-.344.656c1.787.35 3.39 1.293 4.531 2.719.421.602.745 1.263 1 1.938l.094-.031c.7-.4 1.719-1.206 2.219-1.906l12.281-16.5c.5-.7.706-1.387.406-1.688-.075-.075-.163-.109-.281-.125-.089-.012-.174-.018-.281 0zm-21.5 18.5c-1.948.135-3.588 1.606-3.938 3.531v.188c-.5 3.5-2.6 6.512-5.5 8.313 1 .5 2.087.8 3.188 1 5.1.7 9.912-2.806 10.813-7.906v-.313c.3-2.3-1.387-4.481-3.688-4.781-.287-.038-.597-.051-.875-.031z"
    />
  </g>
</svg>