<svg xmlns="http://www.w3.org/2000/svg" version="1.1" width="128" height="128" data-icon="brush" data-container-transform="translate(0 1)" viewBox="0 0 128 128">
  <g transform="translate(0 1)">
    <path d="M123.906 2.813c-.7.059-1.594.469-2.406 1.094l-73.188 56.281c-1.3 1-2.813 3.119-3.313 4.719l-4.031 12.094c5.236 1.615 9.462 5.057 12.094 9.469l10.344-5.156c1.4-.7 3.5-2.419 4.5-3.719l56.094-71.094c1.1-1.3 1.506-2.806.906-3.406-.225-.225-.58-.316-1-.281zm-89.531 81.219c-5.468.135-10.494 3.7-12.281 9.063l-.188.719c-3.4 12.2-11.306 22.588-21.906 29.188 1.7.7 3.394 1.313 5.094 1.813 18 4.9 36.694-5.425 42.094-23.125l.313-1c2-7-2.212-14.287-9.313-16.188-1.275-.356-2.551-.5-3.813-.469z"
    />
  </g>
</svg>