<svg xmlns="http://www.w3.org/2000/svg" version="1.1" width="16" height="16" data-icon="brush" viewBox="0 0 16 16">
  <g>
    <path d="M14.875.313c-.238.025-.488.131-.688.281l-5.375 3.813c-.4.3-1.013 1-1.313 1.5l-.094.188c-.046.116-.08.244-.094.375.947.481 1.738 1.271 2.219 2.219.131-.014.259-.047.375-.094l.188-.094c.5-.2 1.2-.813 1.5-1.313l3.813-5.375c.3-.4.394-1.012.094-1.313-.15-.15-.387-.213-.625-.188zm-9.563 7.688c-1.5 0-2.719 1.188-2.719 2.688 0 2-1.087 3.725-2.688 4.625.9.4 1.781.688 2.781.688 2.9 0 5.313-2.412 5.313-5.313 0-1.5-1.188-2.688-2.688-2.688z"
    />
  </g>
</svg>