<svg xmlns="http://www.w3.org/2000/svg" version="1.1" width="32" height="32" data-icon="bug" data-container-transform="translate(1)" viewBox="0 0 32 32">
  <g transform="translate(1)">
    <path d="M7.344 0a.502.502 0 0 0 .156 1c.854 0 1.536.349 2.125.938s1.047 1.412 1.406 2.25c.134.313.241.634.344.938-1.278 1.578-1.762 4.003-.969 5.813l-2.406-.781v-2.9370000000000003l-.219-.125-3-2a.5.5 0 0 0-.375-.094.5.5 0 0 0-.188.906l2.781 1.844v3.125l.344.094 2.906.969c-.517.521-.962 1.153-1.375 1.844l-2.219-.75a.5.5 0 0 0-.25-.031.5.5 0 0 0-.344.25l-2.906 4.844-2.813.938a.5.5 0 1 0 .313.938l3-1a.5.5 0 0 0 .281-.219l2.781-4.656 1.656.563c-.815 1.679-1.315 3.705-1.375 5.906l-3.688 1.469a.5.5 0 0 0-.281.656l2.875 7.719-.75.75a.5.5 0 1 0 .688.688l1-1a.5.5 0 0 0 .125-.531l-2.813-7.531 2.875-1.156c.171 4.422 2.108 8.16 4.781 9.688 1.2-.9 2.188-2.512 2.188-4.313v-12.5c0-.3.2-.5.5-.5s.5.2.5.5v12.5c0 1.8.988 3.413 2.188 4.313 2.673-1.527 4.61-5.265 4.781-9.688l2.875 1.156-2.813 7.531a.5.5 0 0 0 .125.531l1 1a.5.5 0 1 0 .688-.688l-.75-.75 2.875-7.719a.5.5 0 0 0-.281-.656l-3.688-1.469c-.06-2.201-.56-4.227-1.375-5.906l1.656-.563 2.781 4.656a.5.5 0 0 0 .281.219l3 1a.5.5 0 1 0 .313-.938l-2.813-.938-2.906-4.844a.5.5 0 0 0-.531-.25.5.5 0 0 0-.063.031l-2.219.75c-.413-.69-.858-1.323-1.375-1.844l2.906-.969.344-.094v-3.125l2.781-1.844a.5.5 0 0 0-.375-.906.5.5 0 0 0-.188.094l-3 2-.219.125v2.9370000000000003l-2.438.813c.976-2.166.17-5.142-1.656-6.594l.063-.188c.359-.838.817-1.661 1.406-2.25s1.271-.938 2.125-.938a.5.5 0 1 0 0-1c-1.146 0-2.089.526-2.813 1.25-.724.724-1.265 1.651-1.656 2.563v.031c-.471-.213-.98-.344-1.531-.344-.886 0-1.679.326-2.344.844l-.188-.531c-.391-.912-.933-1.839-1.656-2.563-.724-.724-1.667-1.25-2.813-1.25a.5.5 0 0 0-.094 0 .502.502 0 0 0-.063 0z"
    />
  </g>
</svg>