<svg xmlns="http://www.w3.org/2000/svg" version="1.1" width="128" height="128" data-icon="bug" data-container-transform="translate(6)" viewBox="0 0 128 128">
  <g transform="translate(6)">
    <path d="M33.406 0a1.001 1.001 0 0 0 .188 2c3.758 0 6.784 1.628 9.313 4.156 2.528 2.528 4.507 5.961 6 9.438.377.879.715 1.759 1.031 2.625-8.563 4.909-12.6 16.988-7.969 26.063l-11.969-4v-11.281a1 1 0 0 0-.438-.844l-12-8a1 1 0 0 0-.781-.156 1 1 0 0 0-.344 1.844l11.563 7.719v11.438a1 1 0 0 0 .688.938l13.313 4.438c-3.188 2.054-5.995 4.864-8.219 8.5l-8.469-2.813a1 1 0 0 0-.406-.063 1 1 0 0 0-.75.5l-11.813 19.688-11.656 3.875a1 1 0 1 0 .625 1.875l12-4a1 1 0 0 0 .531-.438l11.594-19.313 7.375 2.469c-3.03 5.774-4.813 13.363-4.813 23.031 0 .512.021 1.023.031 1.531l-15.438 6.875a1 1 0 0 0-.531 1.25l11.781 33.375-3.563 3.563a1.016 1.016 0 1 0 1.438 1.438l4-4a1 1 0 0 0 .219-1.063l-11.688-33.125 13.844-6.156c.905 19.296 8.897 35.414 19.719 41.719 4.5-3.7 8.188-9.994 8.188-17.094v-50c0-1.1.9-2 2-2s2 .9 2 2v50c0 7.1 3.688 13.494 8.188 17.094 10.821-6.305 18.814-22.422 19.719-41.719l13.844 6.156-11.688 33.125a1 1 0 0 0 .219 1.063l4 4a1.016 1.016 0 1 0 1.438-1.438l-3.563-3.563 11.781-33.375a1 1 0 0 0-.531-1.25l-15.438-6.875c.01-.508.031-1.019.031-1.531 0-9.668-1.783-17.257-4.813-23.031l7.375-2.469 11.594 19.313a1 1 0 0 0 .531.438l12 4a1 1 0 1 0 .625-1.875l-11.656-3.875-11.813-19.688a1 1 0 0 0-1-.5 1 1 0 0 0-.156.063l-8.469 2.813c-2.224-3.636-5.031-6.446-8.219-8.5l13.313-4.438a1 1 0 0 0 .688-.938v-11.438l11.563-7.719a1 1 0 0 0-.688-1.844 1 1 0 0 0-.438.156l-12 8a1 1 0 0 0-.438.844v11.281l-11.938 4c4.625-9.31.704-21.494-7.938-26.25.298-.806.618-1.621.969-2.438 1.493-3.476 3.472-6.909 6-9.438 2.528-2.528 5.555-4.156 9.313-4.156a1 1 0 1 0 0-2c-4.342 0-7.922 1.922-10.719 4.719-2.797 2.797-4.881 6.47-6.438 10.094-.344.8-.643 1.586-.938 2.375-1.869-.746-3.922-1.188-6.125-1.188-2.321 0-4.467.479-6.438 1.313-.307-.831-.637-1.656-1-2.5-1.557-3.624-3.641-7.297-6.438-10.094-2.797-2.797-6.377-4.719-10.719-4.719a1 1 0 0 0-.094 0 1.001 1.001 0 0 0-.094 0zm1.594 78c.6 0 1 .4 1 1 0 11.1 2.706 21.806 7.406 29.406.3.5.087 1.106-.313 1.406-.2.1-.3.188-.5.188-.4-.1-.706-.2-.906-.5-4.9-7.9-7.688-19-7.688-30.5 0-.6.4-1 1-1zm46 0c.6 0 1 .4 1 1 0 11.4-2.787 22.5-7.688 30.5-.2.3-.506.5-.906.5-.2 0-.4.013-.5-.188-.5-.3-.612-.906-.313-1.406 4.7-7.6 7.406-18.306 7.406-29.406 0-.6.4-1 1-1z"
    />
  </g>
</svg>