<svg xmlns="http://www.w3.org/2000/svg" version="1.1" width="32" height="32" data-icon="bullhorn" data-container-transform="translate(0 1)" viewBox="0 0 32 32">
  <g transform="translate(0 1)">
    <path d="M29 0v22h2.5c.3 0 .5-.2.5-.5v-21c0-.3-.2-.5-.5-.5h-2.5zm-1 .188l-17.5 5.625c-.3.1-.7.188-1 .188h-7c-.3 0-.5.2-.5.5v.5h-1.5c-.3 0-.5.2-.5.5v7c0 .3.2.5.5.5h1.5v.5c0 .3.206.506.406.406h2.594v.094h.406l5.406 13.5c.1.3.387.5.688.5h3c.3 0 .412-.2.313-.5l-4.719-11.688c-.272-.635.215-1.503 1.125-1.438l16.688 5.438.094.031v-21.656z"
    />
  </g>
</svg>