<svg xmlns="http://www.w3.org/2000/svg" version="1.1" width="128" height="128" data-icon="bullhorn" data-container-transform="translate(0 3)" viewBox="0 0 128 128">
  <g transform="translate(0 3)">
    <path d="M120 0v92h6.5c.8 0 1.5-.7 1.5-1.5v-89c0-.8-.7-1.5-1.5-1.5h-6.5zm-2 .094c-.605.087-1.223.232-1.688.406l-70.906 25c-.8.3-2.106.5-2.906.5h-37c-.8 0-1.5.7-1.5 1.5v2.5h-2.5c-.8 0-1.5.7-1.5 1.5v29c0 .8.7 1.5 1.5 1.5h2.5v2.5c0 .8.7 1.5 1.5 1.5h16.094l22 55.094c.2.5.806.906 1.406.906h14c.5 0 .794-.406.594-.906l-16.406-41.094h3.313c.8 0 1.212-.612.813-1.313l-5.188-9.563c1.401-1.405 3.486-2.348 5.625-1.813l68.563 24.188c.464.174 1.082.319 1.688.406v-91.813z"
    />
  </g>
</svg>