<svg xmlns="http://www.w3.org/2000/svg" version="1.1" width="128" height="128" data-icon="calculator" data-container-transform="translate(14)" viewBox="0 0 128 128">
  <g transform="translate(14)">
    <path d="M3 0c-1.7 0-3 1.3-3 3v122c0 1.7 1.3 3 3 3h94c1.7 0 3-1.3 3-3v-122c0-1.7-1.3-3-3-3h-94zm9.5 12h75c.3 0 .5.2.5.5v23c0 .3-.2.5-.5.5h-75c-.3 0-.5-.2-.5-.5v-23c0-.3.2-.5.5-.5zm0 32h75c.3 0 .5.2.5.5v1c0 .3-.2.5-.5.5h-75c-.3 0-.5-.2-.5-.5v-1c0-.3.2-.5.5-.5zm0 8h15c.3 0 .5.2.5.5v3c0 .3-.2.5-.5.5h-15c-.3 0-.5-.2-.5-.5v-3c0-.3.2-.5.5-.5zm20 0h15c.3 0 .5.2.5.5v3c0 .3-.2.5-.5.5h-15c-.3 0-.5-.2-.5-.5v-3c0-.3.2-.5.5-.5zm20 0h15c.3 0 .5.2.5.5v3c0 .3-.2.5-.5.5h-15c-.3 0-.5-.2-.5-.5v-3c0-.3.2-.5.5-.5zm20 0h15c.3 0 .5.2.5.5v3c0 .3-.2.5-.5.5h-15c-.3 0-.5-.2-.5-.5v-3c0-.3.2-.5.5-.5zm-60 8h15c.3 0 .5.2.5.5v15c0 .3-.2.5-.5.5h-15c-.3 0-.5-.2-.5-.5v-15c0-.3.2-.5.5-.5zm20 0h15c.3 0 .5.2.5.5v15c0 .3-.2.5-.5.5h-15c-.3 0-.5-.2-.5-.5v-15c0-.3.2-.5.5-.5zm20 0h15c.3 0 .5.2.5.5v15c0 .3-.2.5-.5.5h-15c-.3 0-.5-.2-.5-.5v-15c0-.3.2-.5.5-.5zm20 0h15c.3 0 .5.2.5.5v15c0 .3-.2.5-.5.5h-15c-.3 0-.5-.2-.5-.5v-15c0-.3.2-.5.5-.5zm-60 20h15c.3 0 .5.2.5.5v15c0 .3-.2.5-.5.5h-15c-.3 0-.5-.2-.5-.5v-15c0-.3.2-.5.5-.5zm20 0h15c.3 0 .5.2.5.5v15c0 .3-.2.5-.5.5h-15c-.3 0-.5-.2-.5-.5v-15c0-.3.2-.5.5-.5zm20 0h15c.3 0 .5.2.5.5v15c0 .3-.2.5-.5.5h-15c-.3 0-.5-.2-.5-.5v-15c0-.3.2-.5.5-.5zm20 0h15c.3 0 .5.2.5.5v35c0 .3-.2.5-.5.5h-15c-.3 0-.5-.2-.5-.5v-35c0-.3.2-.5.5-.5zm-60 20h15c.3 0 .5.2.5.5v15c0 .3-.2.5-.5.5h-15c-.3 0-.5-.2-.5-.5v-15c0-.3.2-.5.5-.5zm20 0h15c.3 0 .5.2.5.5v15c0 .3-.2.5-.5.5h-15c-.3 0-.5-.2-.5-.5v-15c0-.3.2-.5.5-.5zm20 0h15c.3 0 .5.2.5.5v15c0 .3-.2.5-.5.5h-15c-.3 0-.5-.2-.5-.5v-15c0-.3.2-.5.5-.5z"
    />
  </g>
</svg>