<svg xmlns="http://www.w3.org/2000/svg" version="1.1" width="128" height="128" data-icon="calendar" data-container-transform="translate(1 4)" viewBox="0 0 128 128">
  <g transform="translate(1 4)">
    <path d="M1.5 0c-.8 0-1.5.7-1.5 1.5v22.5h126v-22.5c0-.8-.7-1.5-1.5-1.5h-123zm-1.5 26v91c0 1.7 1.3 3 3 3h120c1.7 0 3-1.3 3-3v-91h-126zm40 8h14v14h-14v-14zm16 0h14v14h-14v-14zm16 0h14v14h-14v-14zm16 0h14v14h-14v-14zm16 0h14v14h-14v-14zm-96 16h14v14h-14v-14zm16 0h14v14h-14v-14zm16 0h14v14h-14v-14zm16 0h14v14h-14v-14zm16 0h14v14h-14v-14zm16 0h14v14h-14v-14zm16 0h14v14h-14v-14zm-96 16h14v14h-14v-14zm16 0h14v14h-14v-14zm16 0h14v14h-14v-14zm16 0h14v14h-14v-14zm16 0h14v14h-14v-14zm16 0h14v14h-14v-14zm16 0h14v14h-14v-14zm-96 16h14v14h-14v-14zm16 0h14v14h-14v-14zm16 0h14v14h-14v-14zm16 0h14v14h-14v-14zm16 0h14v14h-14v-14zm16 0h14v14h-14v-14zm16 0h14v14h-14v-14zm-96 16h14v14h-14v-14zm16 0h14v14h-14v-14zm16 0h14v14h-14v-14zm16 0h14v14h-14v-14z"
    />
  </g>
</svg>