<svg xmlns="http://www.w3.org/2000/svg" version="1.1" width="128" height="128" data-icon="camera-rangefinder" data-container-transform="translate(0 24)" viewBox="0 0 128 128">
  <g transform="translate(0 24)">
    <path d="M18 0v2h-2v4h-14.5c-.8 0-1.5.7-1.5 1.5v16.5h62c3.1-1.3 6.5-2 10-2s6.9.7 10 2h46v-20.5c0-.8-.7-1.5-1.5-1.5h-77c-.8 0-1.5.7-1.5 1.5v2.5h-2v-4h-16v4h-2v-4h-2v-2h-8zm78.188 6h19.5c.1 0 .219.088.219.188v13.625h.094c0 .1-.088.188-.188.188h-19.625c-.1 0-.188-.087-.188-.188v-13.625c0-.1.088-.188.188-.188zm-20 2h13.5c.2 0 .313.088.313.188v9.625c0 .1-.088.188-.188.188h-13.625c-.1 0-.188-.087-.188-.188v-9.625c0-.1.088-.188.188-.188zm-41.875 4.094h7.5c.1 0 .188.119.188.219v3.5c0 .1-.087.188-.188.188h-7.5c-.1 0-.219-.088-.219-.188v-3.5c0-.1.119-.219.219-.219zm37.688 11.906c-13.3 0-24 10.7-24 24s10.7 24 24 24 24-10.7 24-24-10.7-24-24-24zm-72 2v50h128v-50h-42.188c7.3 4.6 12.188 12.7 12.188 22 0 14.4-11.6 26-26 26-12.9 0-23.688-9.506-25.688-21.906-1.1 1.2-2.612 1.906-4.313 1.906-3.3 0-6-2.7-6-6s2.7-6 6-6c1.7 0 3.212.706 4.313 1.906 1.2-7.5 5.581-14.006 11.781-17.906h-58.094zm72 0c12.1 0 22 9.9 22 22s-9.9 22-22 22-22-9.9-22-22 9.9-22 22-22zm0 2c-11 0-20 9-20 20s9 20 20 20 20-9 20-20-9-20-20-20zm0 2c.6 0 1 .4 1 1s-.4 1-1 1c-8.8 0-16 7.2-16 16 0 .6-.4 1-1 1s-1-.4-1-1c0-9.9 8.1-18 18-18zm-30 14c-2.2 0-4 1.8-4 4s1.8 4 4 4 4-1.8 4-4-1.8-4-4-4zm-41.844 34c.397 1.184 1.497 2 2.844 2h122c1.347 0 2.447-.816 2.844-2h-127.688z"
    />
  </g>
</svg>