<svg xmlns="http://www.w3.org/2000/svg" version="1.1" width="128" height="128" data-icon="camera-slr" data-container-transform="translate(0 5)" viewBox="0 0 128 128">
  <g transform="translate(0 5)">
    <path d="M72 0v2h-7c-1.7 0-3.806 1.013-4.906 2.313l-12.188 15.375c-1.1 1.3-3.206 2.313-4.906 2.313h-19c-13.3 0-24 10.7-24 24v64h128v-85c0-1.7-1.3-3-3-3h-12c-1.7 0-3.806-1.012-4.906-2.313l-12.188-15.375c-1.1-1.3-3.206-2.313-4.906-2.313h-5v-2h-14zm-52 34c2.2 0 4 1.8 4 4s-1.8 4-4 4-4-1.8-4-4 1.8-4 4-4zm19 2c.6 0 1 .4 1 1v3c0 1.9-1.006 4.413-2.406 5.813l-1.781 1.781c-.9 1-1.813 3.006-1.813 4.406v9c0 .6-.4 1-1 1s-1-.4-1-1v-9c0-.8.2-1.6.5-2.5-.9.3-1.7.5-2.5.5h-24c-.6 0-1-.4-1-1s.4-1 1-1h24c1.4 0 3.406-.813 4.406-1.813l1.781-1.781c.9-1 1.813-3.006 1.813-4.406v-3c0-.6.4-1 1-1zm39 4c15.1 0 27.688 11.212 29.688 25.813 1.1-1.1 2.612-1.813 4.313-1.813 3.3 0 6 2.7 6 6s-2.7 6-6 6c-1.7 0-3.213-.713-4.313-1.813-2 14.6-14.588 25.813-29.688 25.813-16.5 0-30-13.5-30-30s13.5-30 30-30zm0 4c-14.4 0-26 11.6-26 26s11.6 26 26 26 26-11.6 26-26-11.6-26-26-26zm0 2.406c13 0 23.594 10.594 23.594 23.594 0 13-10.594 23.594-23.594 23.594-13 0-23.594-10.594-23.594-23.594 0-13 10.594-23.594 23.594-23.594zm0 1.594c-12.1 0-22 9.9-22 22s9.9 22 22 22 22-9.9 22-22-9.9-22-22-22zm0 3c.6 0 1 .4 1 1s-.4 1-1 1c-9.4 0-17 7.6-17 17 0 .6-.4 1-1 1s-1-.4-1-1c0-10.5 8.5-19 19-19zm34 15c-2.209 0-4 1.791-4 4s1.791 4 4 4 4-1.791 4-4-1.791-4-4-4zm-112 46v3c0 1.7 1.3 3 3 3h122c1.7 0 3-1.3 3-3v-3h-128z"
    />
  </g>
</svg>