<svg xmlns="http://www.w3.org/2000/svg" version="1.1" width="32" height="32" data-icon="camera-rangefinder" data-container-transform="translate(0 6)" viewBox="0 0 32 32">
  <g transform="translate(0 6)">
    <path d="M3 0v1h-2c-.6 0-1 .4-1 1v17c0 .6.4 1 1 1h30c.6 0 1-.4 1-1v-18c0-.6-.4-1-1-1h-18c-.6 0-1 .2-1 .5v.5h-1v-1h-4v1h-1v-1h-3zm21.094 1h4.813l.094.094v3.813l-.094.094h-4.813l-.094-.094v-3.813l.094-.094zm-6 1h3.813l.094.094v1.813l-.094.094h-3.813l-.094-.094v-1.813l.094-.094zm-.094 4c3.3 0 6 2.7 6 6s-2.7 6-6 6c-3 0-5.406-2.2-5.906-5h-1.094c-.6 0-1-.4-1-1s.4-1 1-1h1.094c.5-2.8 2.906-5 5.906-5zm0 1c-2.8 0-5 2.2-5 5s2.2 5 5 5 5-2.2 5-5-2.2-5-5-5zm0 1c.3 0 .5.2.5.5s-.2.5-.5.5c-1.7 0-3 1.3-3 3 0 .3-.2.5-.5.5s-.5-.2-.5-.5c0-2.2 1.8-4 4-4z"
    />
  </g>
</svg>