<svg xmlns="http://www.w3.org/2000/svg" version="1.1" width="32" height="32" data-icon="camera-slr" data-container-transform="translate(0 1)" viewBox="0 0 32 32">
  <g transform="translate(0 1)">
    <path d="M15.5 0c-.3 0-.613.206-.813.406l-3.375 5.188c-.2.2-.512.406-.813.406h-4.5c-3.3 0-6 2.7-6 6v17.5c0 .3.2.5.5.5h31c.3 0 .5-.2.5-.5v-23c0-.3-.2-.5-.5-.5h-4c-.3 0-.613-.206-.813-.406l-3.375-5.188c-.2-.2-.512-.406-.813-.406h-7zm-10.5 10c.6 0 1 .4 1 1s-.4 1-1 1-1-.4-1-1 .4-1 1-1zm14 0c4.1 0 7.406 3.1 7.906 7h.094c.6 0 1 .4 1 1s-.4 1-1 1c-.6 3.9-3.9 7-8 7-4.4 0-8-3.6-8-8s3.6-8 8-8zm0 2c-3.3 0-6 2.7-6 6s2.7 6 6 6 6-2.7 6-6-2.7-6-6-6zm0 1c.3 0 .5.2.5.5s-.2.5-.5.5c-2.2 0-4 1.8-4 4 0 .3-.2.5-.5.5s-.5-.2-.5-.5c0-2.8 2.2-5 5-5z"
    />
  </g>
</svg>