<svg xmlns="http://www.w3.org/2000/svg" version="1.1" width="16" height="16" data-icon="camera-slr" viewBox="0 0 16 16">
  <g>
    <path d="M7.188 0c-.1 0-.281.087-.281.188l-1.813 2.625c0 .1-.181.188-.281.188h-1.813c-1.7 0-3 1.3-3 3v8.813c0 .1.087.188.188.188h15.5c.1 0 .219-.088.219-.188v-11.625c.1-.1.006-.188-.094-.188h-2.5c-.2 0-.406-.087-.406-.188l-1.719-2.625c-.1-.1-.275-.187-.375-.188h-3.625zm1.813 5c2.2 0 4 1.8 4 4s-1.8 4-4 4-4-1.8-4-4 1.8-4 4-4zm0 1c-1.657 0-3 1.343-3 3s1.343 3 3 3 3-1.343 3-3-1.343-3-3-3z"
    />
  </g>
</svg>