<svg xmlns="http://www.w3.org/2000/svg" version="1.1" width="16" height="16" data-icon="camera-rangefinder" data-container-transform="translate(0 3)" viewBox="0 0 16 16">
  <g transform="translate(0 3)">
    <path d="M1 0v1h-1v9h16v-10h-10v1h-3v-1h-2zm9.094 1h.813l.094.094v.813l-.094.094h-.813l-.094-.094v-.813l.094-.094zm2 0h1.813l.094.094v.813l-.094.094h-1.813l-.094-.094v-.813l.094-.094zm-3.094 2c1.7 0 3 1.3 3 3s-1.3 3-3 3c-1.3 0-2.412-.9-2.813-2h-1.188c-.6 0-1-.4-1-1s.4-1 1-1h1.188c.4-1.1 1.513-2 2.813-2zm0 1c-1.105 0-2 .895-2 2s.895 2 2 2 2-.895 2-2-.895-2-2-2z"
    />
  </g>
</svg>