<svg xmlns="http://www.w3.org/2000/svg" version="1.1" width="16" height="16" data-icon="cart" data-container-transform="translate(0 1)" viewBox="0 0 16 16">
  <g transform="translate(0 1)">
    <path d="M0 0v1h2.531l.781 3.625.5 3.344-.594 3.063c-.698.128-1.219.734-1.219 1.469 0 .828.672 1.5 1.5 1.5.69 0 1.263-.459 1.438-1.094h7.125c.175.635.747 1.094 1.438 1.094.828 0 1.5-.672 1.5-1.5s-.672-1.5-1.5-1.5c-.621 0-1.147.368-1.375.906h-7.25c-.133-.314-.359-.557-.656-.719l.438-2.188h9.844c.3 0 .5-.2.5-.5l.906-6c.1-.3-.106-.5-.406-.5h-11.688l-.313-1.406h-.031c-.027-.123-.073-.221-.125-.281l-.188-.188c-.13-.078-.252-.125-.469-.125h-2.688z"
    />
  </g>
</svg>