<svg xmlns="http://www.w3.org/2000/svg" version="1.1" width="128" height="128" data-icon="cart" data-container-transform="translate(0 11)" viewBox="0 0 128 128">
  <g transform="translate(0 11)">
    <path d="M3 0c-1.657 0-3 1.343-3 3s1.343 3 3 3c1.301 0 2.397-.842 2.813-2h7.688l18.375 63.781v.094l-.031.063-8.031 19.344c1.449-.772 3.093-1.196 4.844-1.25l6.813-16.438h.031l.031-.125c.272-.588.376-1.085.375-1.563h77.188c1.6 0 3.294-1.306 3.594-2.906l10.719-50.094c.3-1.6-.706-2.906-2.406-2.906h-105.063l-2.813-9.781v-.063h-.031c-.374-1.345-1.629-2.156-2.906-2.156h-11.188zm26 88c-4.971 0-9 4.029-9 9s4.029 9 9 9 9-4.029 9-9-4.029-9-9-9zm74 0c-4.971 0-9 4.029-9 9s4.029 9 9 9 9-4.029 9-9-4.029-9-9-9zm-65.5 2c.953 1.157 1.645 2.513 2.063 4h52.875c.418-1.487 1.109-2.843 2.063-4h-57z"
    />
  </g>
</svg>