<svg xmlns="http://www.w3.org/2000/svg" version="1.1" width="32" height="32" data-icon="cart" data-container-transform="translate(0 2)" viewBox="0 0 32 32">
  <g transform="translate(0 2)">
    <path d="M1 0c-.552 0-1 .448-1 1s.448 1 1 1 1-.448 1-1h2l.094.031v.031l.031.063 4.281 16.375v.031c-.005.268-.044.571-.094.719l-1.438 3.813c.206-.039.409-.063.625-.063.162 0 .312.009.469.031l1.313-3.469c.084-.251.116-.493.125-.719.179.092.381.156.594.156h18c.6 0 1.087-.5 1.188-1l2.625-13c.1-.6-.212-1-.813-1h-25c-.138 0-.24.023-.344.063l-.563-2.188h-.063c-.044-.251-.138-.489-.313-.625-.21-.163-.458-.25-.719-.25h-3zm6.5 23c-1.381 0-2.5 1.119-2.5 2.5s1.119 2.5 2.5 2.5 2.5-1.119 2.5-2.5-1.119-2.5-2.5-2.5zm19 0c-1.381 0-2.5 1.119-2.5 2.5s1.119 2.5 2.5 2.5 2.5-1.119 2.5-2.5-1.119-2.5-2.5-2.5zm-15.875 1c.155.314.29.645.344 1h11.969c.054-.355.188-.686.344-1h-12.656z"
    />
  </g>
</svg>