<svg xmlns="http://www.w3.org/2000/svg" version="1.1" width="32" height="32" data-icon="cloudy" viewBox="0 0 32 32">
  <g>
    <path d="M10 0c-3.107 0-5.885 1.403-7.719 3.625v.031c-.401.488-.759 1.003-1.063 1.563v.031c-.149.276-.315.553-.438.844v.031c-.499 1.189-.781 2.504-.781 3.875 0 .345.028.695.063 1.031.023.22.057.44.094.656l.063.313c.056.273.11.548.188.813l.156.469v.063l.219.563.094.188c.332.742.756 1.43 1.25 2.063.381-.284.675-.466 1.063-.563 1-5 5.412-8.594 10.813-8.594 2.2 0 4.206.588 5.906 1.688-.041-.311-.088-.605-.156-.906l-.094-.313-.156-.563c-.196-.618-.442-1.191-.75-1.75-.145-.262-.302-.503-.469-.75-.142-.211-.28-.426-.438-.625l-.219-.25c-.178-.21-.368-.399-.563-.594-.147-.147-.281-.3-.438-.438-.367-.325-.744-.606-1.156-.875l-.25-.156c-.17-.104-.355-.188-.531-.281l-.25-.156c-.196-.097-.391-.197-.594-.281-.22-.091-.46-.174-.688-.25l-.281-.094-.125-.031c-.25-.071-.493-.104-.75-.156l-.125-.031c-.271-.051-.565-.096-.844-.125-.336-.034-.686-.063-1.031-.063zm4 9c-4.7 0-8.6 3.4-9 8-2.9.9-5 3.8-5 7 0 3.5 2.6 6.5 6 7h21c2.8 0 5-2.2 5-5s-2.2-5-5-5c-.4-2-2.1-3.506-4-3.906-.5-4.5-4.3-8.094-9-8.094z"
    />
  </g>
</svg>