<svg xmlns="http://www.w3.org/2000/svg" version="1.1" width="128" height="128" data-icon="cloudy" data-container-transform="translate(0 7)" viewBox="0 0 128 128">
  <g transform="translate(0 7)">
    <path d="M42 0c-1.397 0-2.763.086-4.125.219-19.857 2.018-35.639 17.8-37.656 37.656-.064.655-.123 1.305-.156 1.969v.188c-.03.654-.063 1.307-.063 1.969v.188c.003.661.029 1.315.063 1.969.073 1.432.194 2.86.406 4.25.862 5.639 2.88 10.896 5.75 15.563 2.968-2.643 6.349-4.688 10.094-5.969 3-19.2 19.888-34 39.688-34 10.557 0 20.234 4.076 27.406 10.813-3.035-17.619-17.056-31.499-34.75-34.313l-.25-.031-.469-.063c-.554-.076-1.096-.133-1.656-.188l-.219-.031c-1.279-.123-2.565-.182-3.875-.188h-.188zm14 28c-18.8 0-34.4 14.6-36 33-11.6 3-20 13.5-20 26 0 14.6 11.6 26.5 26 27h84c9.9 0 18-8.1 18-18s-8.1-18-18-18c-.7 0-1.3-.1-2 0-.9-8.4-7.6-15.1-16-16-1-19-16.8-34-36-34z"
    />
  </g>
</svg>