<svg xmlns="http://www.w3.org/2000/svg" version="1.1" width="32" height="32" data-icon="cog" viewBox="0 0 32 32">
  <g>
    <path d="M14 0l-1.313 4c-1 .3-1.975.688-2.875 1.188l-3.719-1.875-2.781 2.781 1.875 3.719c-.5.9-.888 1.875-1.188 2.875l-4 1.313v4l4 1.313c.3 1 .688 1.975 1.188 2.875l-1.781 3.719 2.781 2.781 3.719-1.875c.9.5 1.906.887 2.906 1.188l1.281 4h4l1.313-4c1-.3 2.006-.688 2.906-1.188l3.688 1.781 2.813-2.781-1.906-3.719c.5-.9.887-1.906 1.188-2.906l3.906-1.188v-4l-4-1.313c-.3-1-.688-1.975-1.188-2.875l1.781-3.719-2.781-2.781-3.719 1.875c-.9-.5-1.906-.888-2.906-1.188l-1.188-4h-4zm2 9c3.9 0 7 3.1 7 7s-3.1 7-7 7-7-3.1-7-7 3.1-7 7-7z"
    />
  </g>
</svg>