<svg xmlns="http://www.w3.org/2000/svg" version="1.1" width="128" height="128" data-icon="credit-card" data-container-transform="translate(0 24)" viewBox="0 0 128 128">
  <g transform="translate(0 24)">
    <path d="M3 0c-1.7 0-3 1.3-3 3v74c0 1.7 1.3 3 3 3h122c1.7 0 3-1.3 3-3v-74c0-1.7-1.3-3-3-3h-122zm-1 8h124v14h-124v-14zm6.5 22h83c.3 0 .5.2.5.5v11c0 .3-.2.5-.5.5h-83c-.3 0-.5-.2-.5-.5v-11c0-.3.2-.5.5-.5zm88 0h23c.3 0 .5.2.5.5v11c0 .3-.2.5-.5.5h-23c-.3 0-.5-.2-.5-.5v-11c0-.3.2-.5.5-.5zm-88 28h21c.3 0 .5.2.5.5v13c0 .3-.2.5-.5.5h-21c-.3 0-.5-.2-.5-.5v-13c0-.3.2-.5.5-.5z"
    />
  </g>
</svg>