<svg xmlns="http://www.w3.org/2000/svg" version="1.1" width="32" height="32" data-icon="credit-card" data-container-transform="translate(0 6)" viewBox="0 0 32 32">
  <g transform="translate(0 6)">
    <path d="M1 0c-.6 0-1 .4-1 1v18c0 .6.4 1 1 1h30c.6 0 1-.4 1-1v-18c0-.6-.4-1-1-1h-30zm0 3h30v3h-30v-3zm2.188 6h19.5c.2 0 .313.088.313.188v1.625c0 .1-.087.188-.188.188h-19.625c-.1 0-.188-.088-.188-.188v-1.625c0-.1.087-.188.188-.188zm21 0h3.5c.2 0 .313.088.313.188v1.625c0 .1-.087.188-.188.188h-3.5c-.1 0-.219-.088-.219-.188v-1.625c-.1-.1-.006-.188.094-.188zm-21 5h4.5c.2 0 .313.088.313.188v2.625c0 .1-.088.188-.188.188h-4.625c-.1 0-.188-.087-.188-.188v-2.5c0-.2.087-.313.188-.313z"
    />
  </g>
</svg>