<svg xmlns="http://www.w3.org/2000/svg" version="1.1" width="16" height="16" data-icon="dashboard" viewBox="0 0 16 16">
  <g>
    <path d="M8 0c-4.43 0-8 3.57-8 8 0 2.959 1.609 5.509 4 6.875l.25.125h7.5l.25-.125c2.391-1.366 4-3.916 4-6.875 0-4.43-3.57-8-8-8zm0 2c3.37 0 6 2.63 6 6 0 2.176-1.154 3.95-2.875 5h-6.25c-1.721-1.05-2.875-2.824-2.875-5 0-3.37 2.63-6 6-6zm-4 2s2.188 4.094 2.688 4.594 1.406.5 1.906 0 .5-1.406 0-1.906-4.594-2.688-4.594-2.688zm4 0l.531 1.063c.625.106 1.152.38 1.656.813.566.485.813 1.225.813 2.125 0 .867-.326 1.547-.875 2.188a.5.5 0 1 0 .75.625c.651-.76 1.125-1.679 1.125-2.813 0-1.1-.354-2.16-1.188-2.875-.76-.651-1.679-1.125-2.813-1.125zm-4 4c0 1.133.474 2.053 1.125 2.813a.5.5 0 1 0 .75-.625c-.432-.504-.707-1.031-.813-1.656l-1.063-.531z"
    />
  </g>
</svg>