<svg xmlns="http://www.w3.org/2000/svg" version="1.1" width="32" height="32" data-icon="dashboard" data-container-transform="translate(0 1)" viewBox="0 0 32 32">
  <g transform="translate(0 1)">
    <path d="M16 0c-8.813 0-16 7.188-16 16 0 6.045 3.323 11.168 8.281 13.813l.344.188h14.75l.344-.188c4.958-2.644 8.281-7.767 8.281-13.813 0-8.813-7.188-16-16-16zm0 3c7.188 0 13 5.813 13 13 0 4.841-2.582 8.809-6.469 11h-13.063c-3.887-2.191-6.469-6.159-6.469-11 0-7.188 5.813-13 13-13zm0 3c-1.752 0-3.402.475-4.844 1.281l1 .625c1.173-.566 2.473-.906 3.844-.906 2.459 0 4.734 1.046 6.344 2.656l.063.063c1.575 1.606 2.594 3.853 2.594 6.281 0 2.459-1.046 4.734-2.656 6.344a.508.508 0 0 0 .719.719c1.79-1.79 2.938-4.321 2.938-7.063 0-2.741-1.147-5.272-2.938-7.063-1.79-1.79-4.321-2.938-7.063-2.938zm-9 1s6.406 10.188 7.406 11.188 2.681 1 3.781 0 1-2.781 0-3.781-11.188-7.406-11.188-7.406zm.313 4.125c-.819 1.451-1.313 3.108-1.313 4.875 0 2.741 1.147 5.272 2.938 7.063a.508.508 0 0 0 .719-.719c-1.61-1.61-2.656-3.885-2.656-6.344 0-1.388.326-2.722.906-3.906l-.594-.969z"
    />
  </g>
</svg>