<svg xmlns="http://www.w3.org/2000/svg" version="1.1" width="128" height="128" data-icon="dashboard" data-container-transform="translate(0 3)" viewBox="0 0 128 128">
  <g transform="translate(0 3)">
    <path d="M64 0c-4.36 0-8.723.423-12.906 1.281-4.17.855-8.208 2.126-12.031 3.719-3.882 1.617-7.482 3.638-10.844 5.844-3.459 2.27-6.688 4.938-9.563 7.813-2.875 2.875-5.543 6.104-7.813 9.563-2.206 3.361-4.226 6.962-5.844 10.844-1.593 3.823-2.863 7.861-3.719 12.031-.858 4.183-1.281 8.546-1.281 12.906 0 4.36.423 8.723 1.281 12.906.855 4.17 2.126 8.208 3.719 12.031 1.617 3.882 3.638 7.482 5.844 10.844l.031.063.031.031c2.308 3.357 4.84 6.559 7.75 9.469 2.864 2.864 6.087 5.517 9.531 7.781l.031.031c2.56 1.704 5.224 3.187 8 4.469l.813.375h53.844l.813-.375c2.83-1.306 5.567-2.882 8-4.469l.031-.031.063-.031c3.357-2.308 6.528-4.84 9.438-7.75l.25-.25c2.761-2.79 5.306-5.918 7.5-9.25l.031.031c2.372-3.451 4.313-7.114 5.906-10.938 1.585-3.803 2.832-7.822 3.688-11.969l.031-.063c.845-4.119 1.375-8.481 1.375-12.906 0-4.36-.423-8.723-1.281-12.906-.855-4.17-2.126-8.208-3.719-12.031-1.617-3.882-3.638-7.482-5.844-10.844-2.27-3.459-4.938-6.688-7.813-9.563-2.849-2.849-6.046-5.494-9.469-7.75l-.094-.063c-3.423-2.343-7.055-4.265-10.844-5.844-3.823-1.593-7.861-2.863-12.031-3.719-4.183-.858-8.546-1.281-12.906-1.281zm0 8c3.84 0 7.665.383 11.281 1.125l.188.031c3.566.745 7.087 1.867 10.406 3.25 3.377 1.407 6.519 3.066 9.469 5.094l.031.031h.031c2.941 1.93 5.725 4.287 8.25 6.813 2.525 2.525 4.882 5.309 6.813 8.25 1.994 3.039 3.742 6.213 5.125 9.531 1.407 3.377 2.537 6.964 3.281 10.594.742 3.617 1.125 7.441 1.125 11.281 0 3.775-.464 7.6-1.219 11.281-.745 3.63-1.874 7.217-3.281 10.594s-3.066 6.519-5.094 9.469l-.031.031-.031.031c-1.93 2.941-4.256 5.725-6.781 8.25-2.465 2.465-5.243 4.708-8.25 6.781l-.094.063c-1.94 1.26-4.125 2.474-6.25 3.5h-50.063c-2.166-1.039-4.264-2.186-6.281-3.531h-.031c-2.941-1.93-5.725-4.287-8.25-6.813-2.475-2.475-4.732-5.23-6.813-8.25l-.031-.063c-1.979-3.021-3.72-6.172-5.094-9.469-1.407-3.377-2.537-6.964-3.281-10.594-.742-3.617-1.125-7.441-1.125-11.281 0-3.84.383-7.665 1.125-11.281.745-3.63 1.874-7.217 3.281-10.594 1.383-3.318 3.131-6.493 5.125-9.531 1.93-2.941 4.287-5.725 6.813-8.25 2.525-2.525 5.309-4.882 8.25-6.813 3.039-1.994 6.213-3.742 9.531-5.125 3.377-1.407 6.964-2.537 10.594-3.281 3.617-.742 7.441-1.125 11.281-1.125zm0 9.688c-6.289 0-12.355 1.365-17.875 3.656-3.972 1.649-7.595 3.855-10.875 6.5 1.256.808 1.972 1.242 3.531 2.25 2.711-2.032 5.682-3.706 8.875-5.031 5.08-2.109 10.633-3.375 16.344-3.375 5.733 0 11.358 1.166 16.281 3.344h.031l.031.031c5.031 2.088 9.469 5.106 13.281 8.906l.063.031c3.823 3.823 6.872 8.323 8.969 13.375 2.109 5.08 3.344 10.601 3.344 16.313 0 5.733-1.166 11.389-3.344 16.313v.031c-2.097 5.052-5.146 9.521-8.969 13.344a2 2 0 1 0 2.813 2.844c4.17-4.17 7.541-9.088 9.844-14.625v-.031c2.414-5.47 3.656-11.619 3.656-17.875 0-6.289-1.365-12.324-3.656-17.844l-.063-.125c-2.301-5.494-5.637-10.387-9.781-14.531-4.167-4.167-9.062-7.51-14.594-9.813h-.031c-5.47-2.414-11.619-3.688-17.875-3.688zm-36 10.313s25.006 39.194 28.906 43.094c3.9 3.9 10.194 3.9 14.094 0 4-3.9 3.994-10.288.094-14.188-3.9-3.9-43.094-28.906-43.094-28.906zm-.125 7.313c-2.5 3.214-4.573 6.749-6.219 10.469-2.422 5.476-3.656 11.64-3.656 17.906 0 6.256 1.253 12.327 3.656 17.875v.031c2.302 5.537 5.673 10.455 9.844 14.625a2 2 0 1 0 2.813-2.844c-3.823-3.823-6.872-8.291-8.969-13.344v-.031c-2.189-5.044-3.344-10.579-3.344-16.313 0-5.733 1.166-11.358 3.344-16.281 1.338-3.026 2.943-5.891 4.844-8.531-1.028-1.589-1.489-2.282-2.313-3.563zm36.125 26.688c1.1 0 2 .9 2 2s-.9 2-2 2-2-.9-2-2 .9-2 2-2z"
    />
  </g>
</svg>