<svg xmlns="http://www.w3.org/2000/svg" version="1.1" width="128" height="128" data-icon="delete" data-container-transform="translate(0 28)" viewBox="0 0 128 128">
  <g transform="translate(0 28)">
    <path d="M25.406 0c-.7 0-1.819.588-2.219 1.188l-22.375 33.625c-.5.7-.5 1.8 0 2.5l22.281 33.5c.5.7 1.512 1.188 2.313 1.188h101c.8 0 1.5-.7 1.5-1.5v-69c0-.8-.7-1.5-1.5-1.5h-101zm33.594 15.313l15 15 15-15 5.688 5.688-15 15 15 15-5.688 5.688-15-15-15 15-5.688-5.688 15-15-15-15 5.688-5.688z"
    />
  </g>
</svg>