<svg xmlns="http://www.w3.org/2000/svg" version="1.1" width="128" height="128" data-icon="dial" data-container-transform="translate(0 13)" viewBox="0 0 128 128">
  <g transform="translate(0 13)">
    <path d="M63.781-.031a2 2 0 0 0-1.781 2.031v4a2 2 0 1 0 4 0v-4a2 2 0 0 0-2.031-2.031 2 2 0 0 0-.188 0zm23.875 4.688a2 2 0 0 0-.219.031 2 2 0 0 0-1.594 1.25l-1.5 3.719a2.005 2.005 0 1 0 3.719 1.5l1.5-3.719a2 2 0 0 0-1.906-2.781zm-47.563.031a2 2 0 0 0-1.656 2.75l1.5 3.719a2.005 2.005 0 1 0 3.719-1.5l-1.5-3.719a2 2 0 0 0-2.063-1.25zm67.719 13.469a2 2 0 0 0-.25.031 2 2 0 0 0-1.188.594l-2.781 2.813a2 2 0 1 0 2.813 2.813l2.813-2.781a2 2 0 0 0-1.406-3.469zm-87.844.031a2 2 0 0 0-1.188 3.438l2.813 2.781a2 2 0 1 0 2.813-2.813l-2.781-2.813a2 2 0 0 0-1.656-.594zm42.031 7.875c-20.063 1.034-36 17.617-36 37.938 0 20.987 17.013 38 38 38s38-17.013 38-38c0-20.32-15.937-36.904-36-37.938v33.938c0 1.1-.9 2-2 2s-2-.9-2-2v-33.938zm-55.5 12.219a2 2 0 0 0-.563 3.875l3.719 1.5a2.005 2.005 0 1 0 1.5-3.719l-3.719-1.5a2 2 0 0 0-.75-.156 2 2 0 0 0-.188 0zm114.781 0a2 2 0 0 0-.719.156l-3.719 1.5a2.005 2.005 0 1 0 1.5 3.719l3.719-1.5a2 2 0 0 0-.781-3.875zm-119.469 23.719a2.002 2.002 0 1 0 .188 4h4a2 2 0 1 0 0-4h-4a2 2 0 0 0-.188 0zm120 0a2.002 2.002 0 1 0 .188 4h4a2 2 0 1 0 0-4h-4a2 2 0 0 0-.188 0z"
    />
  </g>
</svg>