<svg xmlns="http://www.w3.org/2000/svg" version="1.1" width="128" height="128" data-icon="dollar" data-container-transform="translate(23)" viewBox="0 0 128 128">
  <g transform="translate(23)">
    <path d="M38 0v8.063c-15.027.672-24.334 6.371-29.063 13.281-5.037 7.361-4.938 15.306-4.938 17.656 0 10.636 5.906 18.542 13.313 22.844 6.323 3.673 13.566 5.522 20.688 7.156v38.938c-9.793-.438-16.046-3.034-19.875-6.438-4.206-3.739-6.125-8.75-6.125-15.5h-12c0 9.25 3.081 18.239 10.125 24.5 6.512 5.788 15.864 8.987 27.875 9.438v8.063h8v-8.125c14.549-.758 23.845-4.875 29.344-10.969 6.106-6.767 6.656-14.962 6.656-19.906 0-10.636-5.906-18.542-13.313-22.844-6.916-4.017-14.937-5.87-22.688-7.625v-38.344c7.592.612 12.271 2.642 15.063 5.219 3.36 3.102 4.938 7.594 4.938 14.594h12c0-9-2.423-17.508-8.813-23.406-5.499-5.076-13.251-7.782-23.188-8.438v-8.156h-8zm0 20.094v36.563c-5.798-1.45-11.021-3.058-14.688-5.188-4.968-2.886-7.313-5.604-7.313-12.469 0-2.35.1-6.911 2.813-10.875 2.512-3.67 7.241-7.482 19.188-8.031zm8 50.781c6.58 1.578 12.609 3.288 16.688 5.656 4.968 2.886 7.313 5.604 7.313 12.469 0 4.056-.45 8.36-3.594 11.844-2.781 3.082-8.397 6.328-20.406 7.031v-37z"
    />
  </g>
</svg>