<svg xmlns="http://www.w3.org/2000/svg" version="1.1" width="32" height="32" data-icon="dollar" data-container-transform="translate(6)" viewBox="0 0 32 32">
  <g transform="translate(6)">
    <path d="M9 0v2.531c-3.585.218-5.891 1.601-7 3.375-1.21 1.935-1 4.115-1 4.281 0 2.642 1.527 4.747 3.344 5.813 1.482.869 3.091 1.325 4.656 1.688v7.781c-1.806-.136-2.999-.639-3.719-1.25-.847-.719-1.281-1.652-1.281-3.219h-4c0 2.433.884 4.75 2.688 6.281 1.597 1.356 3.753 2.046 6.313 2.188v2.531h2v-2.531c3.604-.208 6.03-1.526 7.375-3.188 1.467-1.813 1.625-3.741 1.625-4.594 0-2.642-1.527-4.715-3.344-5.781-1.798-1.055-3.798-1.486-5.656-1.906v-7.469c1.715.125 2.601.578 3.094 1.094.582.609.906 1.642.906 3.375h4c0-2.267-.463-4.484-2.031-6.125-1.389-1.454-3.431-2.193-5.969-2.344v-2.531h-2zm-.125 6.531h.125v7c-1.077-.285-2.022-.596-2.656-.969-.996-.584-1.344-.967-1.344-2.375 0-.833-.04-1.491.375-2.156.364-.582 1.094-1.325 3.5-1.5zm2.125 11.594c1.498.357 2.831.734 3.656 1.219.996.584 1.344.936 1.344 2.344 0 .247-.092 1.25-.75 2.063-.586.724-1.662 1.549-4.25 1.719v-7.344z"
    />
  </g>
</svg>