<svg xmlns="http://www.w3.org/2000/svg" version="1.1" width="128" height="128" data-icon="ellipses" data-container-transform="translate(1 47)" viewBox="0 0 128 128">
  <g transform="translate(1 47)">
    <path d="M1.5 0c-.8 0-1.5.7-1.5 1.5v31c0 .8.7 1.5 1.5 1.5h31c.8 0 1.5-.7 1.5-1.5v-31c0-.8-.7-1.5-1.5-1.5h-31zm46 0c-.8 0-1.5.7-1.5 1.5v31c0 .8.7 1.5 1.5 1.5h31c.8 0 1.5-.7 1.5-1.5v-31c0-.8-.7-1.5-1.5-1.5h-31zm46 0c-.8 0-1.5.7-1.5 1.5v31c0 .8.7 1.5 1.5 1.5h31c.8 0 1.5-.7 1.5-1.5v-31c0-.8-.7-1.5-1.5-1.5h-31z"
    />
  </g>
</svg>