<svg xmlns="http://www.w3.org/2000/svg" version="1.1" width="16" height="16" data-icon="euro" data-container-transform="translate(-2)" viewBox="0 0 16 16">
  <g transform="translate(-2)">
    <path d="M11 0c-3.711 0-6.822 2.563-7.719 6h-2.781l-.5 2h3.0010000000000003c0 .342.021.669.063 1h-2.594l-.469 2h3.594c1.195 2.919 4.066 5 7.406 5 1.457 0 2.821-.408 4-1.094v-2.438c-1.061.949-2.457 1.531-4 1.531-2.231 0-4.154-1.203-5.188-3h6.5l.688-2h-7.906c-.054-.324-.094-.661-.094-1h8.313l.688-2h-8.656c.821-2.334 3.034-4 5.656-4 1.479 0 2.831.526 3.875 1.406l.656-2c-1.288-.887-2.855-1.406-4.531-1.406z"
    />
  </g>
</svg>