<svg xmlns="http://www.w3.org/2000/svg" version="1.1" width="128" height="128" data-icon="euro" data-container-transform="translate(-12)" viewBox="0 0 128 128">
  <g transform="translate(-12)">
    <path d="M88 0c-32.539 0-59.508 24.505-63.469 56h-16.531l-2 8h18c0 2.711.201 5.376.531 8h-16.531l-2 8h20.031c7.132 27.555 32.237 48 61.969 48 11.644 0 22.577-3.153 32-8.625v-14.375c-8.82 6.89-19.923 11-32 11-23.162 0-42.728-15.1-49.469-36h62.813l2.656-7.969v-.031h-67.406c-.4-2.603-.594-5.283-.594-8h70.688l2.656-8h-72.75c3.835-24.949 25.373-44 51.406-44 12.41 0 23.703 3.665 32.563 10.344l3.813-11.5c-10.386-6.932-22.942-10.844-36.375-10.844z"
    />
  </g>
</svg>