<svg xmlns="http://www.w3.org/2000/svg" version="1.1" width="16" height="16" data-icon="eye" data-container-transform="translate(0 2)" viewBox="0 0 16 16">
  <g transform="translate(0 2)">
    <path d="M8.094 0c-5.1 0-8.094 6-8.094 6s2.994 6 8.094 6c4.9 0 7.906-6 7.906-6s-3.006-6-7.906-6zm-.094 2c2.2 0 4 1.8 4 4s-1.8 4-4 4-4-1.8-4-4 1.8-4 4-4zm0 2c-1.1 0-2 .9-2 2s.9 2 2 2 2-.9 2-2c0-.2.006-.394-.094-.594-.2.4-.506.594-.906.594-.6 0-1-.4-1-1 0-.4.194-.706.594-.906-.2-.1-.394-.094-.594-.094z"
    />
  </g>
</svg>