<svg xmlns="http://www.w3.org/2000/svg" version="1.1" width="128" height="128" data-icon="eye" data-container-transform="translate(0 26)" viewBox="0 0 128 128">
  <g transform="translate(0 26)">
    <path d="M64.5 0c-40.5 0-64.5 38-64.5 38s24 38 64.5 38c39.5 0 63.5-38 63.5-38s-24-38-63.5-38zm-.5 14c13.3 0 24 10.7 24 24s-10.7 24-24 24-24-10.7-24-24 10.7-24 24-24zm0 12c-6.6 0-12 5.4-12 12s5.4 12 12 12 12-5.4 12-12c0-1.9-.388-3.587-1.188-5.188-.7.8-1.713 1.188-2.813 1.188-2.2 0-4-1.8-4-4 0-1.1.388-2.113 1.188-2.813-1.6-.8-3.287-1.188-5.188-1.188z"
    />
  </g>
</svg>