<svg xmlns="http://www.w3.org/2000/svg" version="1.1" width="32" height="32" data-icon="eye" data-container-transform="translate(0 6)" viewBox="0 0 32 32">
  <g transform="translate(0 6)">
    <path d="M16.094 0c-10.1 0-16.094 10-16.094 10s5.994 10 16.094 10c9.9 0 15.906-10 15.906-10s-6.006-10-15.906-10zm-.094 3c3.9 0 7 3.1 7 7s-3.1 7-7 7-7-3.1-7-7 3.1-7 7-7zm0 3c-2.2 0-4 1.8-4 4s1.8 4 4 4 4-1.8 4-4c0-.6-.113-1.094-.313-1.594-.3.4-.688.594-1.188.594-.8 0-1.5-.7-1.5-1.5 0-.5.194-.888.594-1.188-.5-.2-.994-.313-1.594-.313z"
    />
  </g>
</svg>