<svg xmlns="http://www.w3.org/2000/svg" version="1.1" width="32" height="32" data-icon="eyedropper" viewBox="0 0 32 32">
  <g>
    <path d="M28.5-.063c-.887 0-1.8.362-2.5 1.063l-5 5-2.031-2-2 1.969 1.844 1.813-18.375 18.563c-.318.318-.531.728-.531 1.25v3.406c0 .261.093.53.281.719.189.189.458.281.719.281h3.406c.522 0 .932-.213 1.25-.531l18.469-18.469 1.938 1.938 1.969-1.969-2.063-2.063 5.031-5c1.4-1.3 1.4-3.506 0-4.906-.65-.7-1.519-1.063-2.406-1.063zm-8.969 8.563l3.781 3.781-15.438 15.438-3.625-3.781 15.281-15.438z"
    />
  </g>
</svg>