<svg xmlns="http://www.w3.org/2000/svg" version="1.1" width="128" height="128" data-icon="eyedropper" viewBox="0 0 128 128">
  <g>
    <path d="M117.25.063c-2.725 0-5.463 1.025-7.563 3.125l-19.188 19.219-8.438-8.438-4.031 4.031 6.625 6.625-82.969 82.969c-1.15 1.15-1.688 2.367-1.688 4v12.906c0 1.967 1.533 3.5 3.5 3.5h12.906c1.641 0 2.929-.616 4-1.688l82.938-83 6.719 6.719 4.031-4.031-8.469-8.5 19.188-19.188c4.2-4.2 4.2-10.925 0-15.125-2.1-2.1-4.838-3.125-7.563-3.125zm-29.781 27.375l13.063 13.063-69 69.031-13.063-13.063 69-69.031z"
    />
  </g>
</svg>