<svg xmlns="http://www.w3.org/2000/svg" version="1.1" width="32" height="32" data-icon="firefly" viewBox="0 0 32 32">
  <g>
    <path d="M8.031 0a.502.502 0 0 0 .156 1c1.194 0 2.118.446 2.875 1.156.757.71 1.324 1.691 1.75 2.688.323.754.551 1.476.719 2.125-.324.421-.531.948-.531 1.531v1.313s-4.494-2.225-9.094-4.125c-3.3-1.3-3.906-.194-3.906.906-.096 7.208 5.554 7.402 13.094 7.406l.031 1c-2.619-.001-5.05-.029-7.125-.406-1.7.7-3 1.706-3 2.906 0 3.347 4.834 3.445 10.219-.469.269 5.26.875 10.969 2.281 10.969 1.401 0 2.01-5.663 2.281-10.906 5.385 3.858 10.219 3.763 10.219.5 0-1.3-1.294-2.3-3.094-3-2.159.375-4.664.405-7.031.406l.031-1c6.693-.005 13.189-.23 13.094-7.406 0-1.1-.606-2.206-3.906-.906-4.6 1.9-9.094 4.313-9.094 4.313v-1.5c0-.583-.207-1.11-.531-1.531.168-.649.396-1.371.719-2.125.426-.996.993-1.978 1.75-2.688.757-.71 1.681-1.156 2.875-1.156a.5.5 0 1 0 0-1c-1.456 0-2.66.591-3.563 1.438-.902.846-1.539 1.952-2 3.031-.268.627-.462 1.242-.625 1.813-.34-.171-.712-.281-1.125-.281-.413 0-.785.11-1.125.281-.163-.57-.357-1.185-.625-1.813-.461-1.079-1.098-2.185-2-3.031-.902-.846-2.107-1.438-3.563-1.438a.5.5 0 0 0-.094 0 .502.502 0 0 0-.063 0zm2.313 26a.502.502 0 0 0 .156 1h1a.5.5 0 1 0 0-1h-1a.5.5 0 0 0-.094 0 .502.502 0 0 0-.063 0zm9 0a.502.502 0 0 0 .156 1h1a.5.5 0 1 0 0-1h-1a.5.5 0 0 0-.094 0 .502.502 0 0 0-.063 0zm-7 3a.5.5 0 0 0-.188.156l-1 1a.5.5 0 1 0 .688.688l1-1a.5.5 0 0 0-.438-.844.5.5 0 0 0-.063 0zm6 0a.5.5 0 0 0-.188.844l1 1a.5.5 0 1 0 .688-.688l-1-1a.5.5 0 0 0-.438-.156.5.5 0 0 0-.063 0zm-3 1a.5.5 0 0 0-.344.5v1a.5.5 0 1 0 1 0v-1a.5.5 0 0 0-.594-.5.5.5 0 0 0-.063 0z"
    />
  </g>
</svg>