<svg xmlns="http://www.w3.org/2000/svg" version="1.1" width="128" height="128" data-icon="firefly" data-container-transform="translate(1)" viewBox="0 0 128 128">
  <g transform="translate(1)">
    <path d="M39.813 0a1.001 1.001 0 0 0 .188 2c4.987 0 8.512 1.911 11.188 4.844 2.676 2.933 4.439 6.926 5.563 10.969.728 2.619 1.18 5.207 1.469 7.563-2.536 1.585-4.219 4.391-4.219 7.625 0 .625.014 2.342.031 4.844l-.031-.156s-20.013-8.988-38.313-16.188c-13.2-5.2-15.588-.994-15.688 3.406-.488 29.068 32.251 29.109 54.281 29.094l.063 2h-1.656c-7.2 0-16.3-.006-25-1.406-6.8 2.9-11.688 6.7-11.688 11.5 0 12.836 18.05 13.675 38.688-.156.938 21.715 3.147 46.063 8.313 46.063 5.163 0 7.374-24.324 8.313-46.031 20.666 13.791 38.688 12.949 38.688.125 0-4.8-4.912-8.6-11.813-11.5-8.7 1.4-17.7 1.406-25 1.406h-1.531l.063-2c22.119.015 54.769-.023 54.281-29.094-.1-4.4-2.487-8.606-15.688-3.406-18.3 7.2-38.313 17-38.313 17l-.031.313c.023-2.929.031-5.124.031-5.813 0-3.234-1.683-6.04-4.219-7.625.289-2.356.741-4.943 1.469-7.563 1.124-4.043 2.887-8.036 5.563-10.969 2.676-2.933 6.2-4.844 11.188-4.844a1 1 0 1 0 0-2c-5.513 0-9.701 2.226-12.688 5.5s-4.824 7.549-6 11.781c-.69 2.484-1.136 4.928-1.438 7.188-.903-.301-1.866-.469-2.875-.469s-1.972.167-2.875.469c-.302-2.26-.747-4.703-1.438-7.188-1.176-4.232-3.013-8.508-6-11.781-2.987-3.274-7.175-5.5-12.688-5.5a1 1 0 0 0-.094 0 1.001 1.001 0 0 0-.094 0zm5 108a1.001 1.001 0 0 0 .188 2h6a1 1 0 1 0 0-2h-6a1 1 0 0 0-.094 0 1.001 1.001 0 0 0-.094 0zm30 0a1.001 1.001 0 0 0 .188 2h6a1 1 0 1 0 0-2h-6a1 1 0 0 0-.094 0 1.001 1.001 0 0 0-.094 0zm-3.906 7.969a1 1 0 0 0-.125.031 1 1 0 0 0-.5 1.719l4 4a1.016 1.016 0 1 0 1.438-1.438l-4-4a1 1 0 0 0-.813-.313zm-16.031.031a1 1 0 0 0-.594.281l-4 4a1.016 1.016 0 1 0 1.438 1.438l4-4a1 1 0 0 0-.844-1.719zm8.031 3.969a1 1 0 0 0-.125.031 1 1 0 0 0-.781 1v6a1 1 0 1 0 2 0v-6a1 1 0 0 0-1.094-1.031z"
    />
  </g>
</svg>