<svg xmlns="http://www.w3.org/2000/svg" version="1.1" width="16" height="16" data-icon="firefly" viewBox="0 0 16 16">
  <g>
    <path d="M3.344 0a.502.502 0 0 0 .156 1c.492 0 .86.192 1.188.5.327.308.58.728.781 1.188.402.92.531 1.875.531 1.875a.504.504 0 0 0 0 .063v.375s-1.894-1.1-4.094-2c-1.6-.6-1.906-.1-1.906.5-.088 3.165 3.752 3.472 6.063 3.5l.063 1c-1.164-.014-2.639-.129-3.938-.5-.7.3-1.188.813-1.188 1.313 0 1.688 2.459 1.658 5.156-.406.166 2.242.513 4.594 1.344 4.594.882 0 1.225-2.329 1.375-4.563 2.683 1.968 5.125 2.055 5.125.375 0-.5-.488-1.013-1.188-1.313-1.287.368-2.747.484-3.906.5l.063-1c2.315-.03 6.119-.35 6.031-3.5 0-.6-.306-1.1-1.906-.5-2.2.9-4.094 2-4.094 2v-.438s.129-.955.531-1.875c.201-.46.454-.88.781-1.188.327-.308.696-.5 1.188-.5a.5.5 0 1 0 0-1c-.758 0-1.405.308-1.875.75s-.795 1.022-1.031 1.563c-.139.319-.228.62-.313.906-.232-.151-.496-.219-.781-.219-.285 0-.549.068-.781.219-.084-.287-.173-.587-.313-.906-.236-.54-.562-1.12-1.031-1.563-.47-.442-1.117-.75-1.875-.75a.5.5 0 0 0-.094 0 .502.502 0 0 0-.063 0zm1.156 12c-.276 0-.5.224-.5.5s.224.5.5.5.5-.224.5-.5-.224-.5-.5-.5zm6 0c-.276 0-.5.224-.5.5s.224.5.5.5.5-.224.5-.5-.224-.5-.5-.5zm-5 2c-.276 0-.5.224-.5.5s.224.5.5.5.5-.224.5-.5-.224-.5-.5-.5zm4 0c-.276 0-.5.224-.5.5s.224.5.5.5.5-.224.5-.5-.224-.5-.5-.5zm-2 1c-.276 0-.5.224-.5.5s.224.5.5.5.5-.224.5-.5-.224-.5-.5-.5z"
    />
  </g>
</svg>