<svg xmlns="http://www.w3.org/2000/svg" version="1.1" width="16" height="16" data-icon="fork" data-container-transform="translate(3)" viewBox="0 0 16 16">
  <g transform="translate(3)">
    <path d="M2 0c-1.105 0-2 .895-2 2s.895 2 2 2 2-.895 2-2-.895-2-2-2zm6 2c-1.105 0-2 .895-2 2s.895 2 2 2 2-.895 2-2-.895-2-2-2zm-7 2.813v6.375c.306-.109.646-.188 1-.188.477 0 .919.097 1.313.281.224-.288.529-.531.875-.594l2-.406c1.583-.288 2.813-1.636 2.813-3.281v-.188c-.306.109-.646.188-1 .188-.353 0-.689-.052-1-.156v.156c0 .555-.57 1.2-1.188 1.313l-2 .406c-.292.053-.55.161-.813.281v-4.156c-.311.104-.647.156-1 .156-.354 0-.694-.079-1-.188zm1 7.188c-1.105 0-2 .895-2 2s.895 2 2 2 2-.895 2-2-.895-2-2-2z"
    />
  </g>
</svg>