<svg xmlns="http://www.w3.org/2000/svg" version="1.1" width="32" height="32" data-icon="fork" data-container-transform="translate(7)" viewBox="0 0 32 32">
  <g transform="translate(7)">
    <path d="M3.5 0c-1.933 0-3.5 1.567-3.5 3.5s1.567 3.5 3.5 3.5 3.5-1.567 3.5-3.5-1.567-3.5-3.5-3.5zm11 5c-1.933 0-3.5 1.567-3.5 3.5s1.567 3.5 3.5 3.5 3.5-1.567 3.5-3.5-1.567-3.5-3.5-3.5zm-12.5 2.719v16.563c.476-.176.975-.281 1.5-.281.534 0 1.027.114 1.5.281v-1.094c0-.2.417-.885.906-1.063l.031-.031h.031l7.281-3 .031-.031c.854-.353 1.488-.953 1.969-1.656.489-.716.844-1.541.844-2.5v-2.219c-.502.198-1.035.313-1.594.313-.499 0-.959-.103-1.406-.25v2.156c0 .141-.101.503-.313.813-.211.309-.501.544-.625.594h-.031l-7.125 2.906v-11.5c-.473.168-.966.281-1.5.281-.525 0-1.024-.105-1.5-.281zm1.5 17.281c-1.933 0-3.5 1.567-3.5 3.5s1.567 3.5 3.5 3.5 3.5-1.567 3.5-3.5-1.567-3.5-3.5-3.5z"
    />
  </g>
</svg>