<svg xmlns="http://www.w3.org/2000/svg" version="1.1" width="128" height="128" data-icon="fork" data-container-transform="translate(33)" viewBox="0 0 128 128">
  <g transform="translate(33)">
    <path d="M12 0c-6.627 0-12 5.373-12 12s5.373 12 12 12 12-5.373 12-12-5.373-12-12-12zm-4 25.406v77.282c1.27-.374 2.611-.594 4-.594 1.389 0 2.731.213 4 .594v-4.688c0-2.4 2.699-6.478 4.938-7.406l23.313-9.813c5.87-2.495 9.75-8.381 9.75-14.781v-12.594c-1.27.374-2.611.594-4 .594-1.389 0-2.731-.213-4-.594v12.594c0 2.393-2.716 6.484-4.844 7.406h-.031l-23.25 9.813h-.031c-.643.268-1.251.593-1.844.938v-58.75c-1.269.381-2.611.594-4 .594-1.389 0-2.73-.219-4-.594zm42 2.594c-6.627 0-12 5.373-12 12s5.373 12 12 12 12-5.373 12-12-5.373-12-12-12zm-38 76c-6.627 0-12 5.373-12 12s5.373 12 12 12 12-5.373 12-12-5.373-12-12-12z"
    />
  </g>
</svg>