<svg xmlns="http://www.w3.org/2000/svg" version="1.1" width="16" height="16" data-icon="globe" viewBox="0 0 16 16">
  <g>
    <path d="M8 0c-4.412 0-8 3.588-8 8s3.588 8 8 8 8-3.588 8-8-3.588-8-8-8zm.844 1.063c.636.076 1.241.234 1.813.469-.058.153-.184.281-.344.281-.2 0-.406.175-.406.375s-.206.612-.406.813l-.313.313c-.2.2-.175.281.125.281.2 0 .575.006.875-.094.2 0 .325.112.125.313l-.219.188c-.2.2-.281.606-.281.906v.188c0 .3.3.412.5.313l1.5-.594c.3-.1.581-.425.781-.625l.313-.188c.2-.2.281-.206.281.094 0 .2.213.612.313.813l.188.094c.2.2.206.406-.094.406s-.406.206-.406.406c0 .2-.175.5-.375.5s-.406-.206-.406-.406c0-.2-.206-.319-.406-.219l-.188.125c-.3 0-.713.181-.813.281-.2.1-.488.3-.688.5l-.219.219-.688.688-.094.094c-.2.2-.406.606-.406.906v.813c-.1.2.106.488.406.688l.875.406c.2.1.706.188.906.188h.906c.3 0 .613.213.813.313l.188.188c.2.2.2.519 0 .719l-.313.188c-.2.2-.375.613-.375.813v.719c-1.186.925-2.688 1.469-4.313 1.469-1.318 0-2.542-.369-3.594-1h.5c.3 0 .681-.206.781-.406l.219-.188c.2-.2.406-.606.406-.906v-.688c0-.3-.2-.5-.5-.5h-.813c-.3 0-.588-.206-.688-.406l-.406-.906c-.2-.1-.513-.313-.813-.313h-.688c-.3 0-.5-.2-.5-.5v-.781c0-.2.206-.406.406-.406.2 0 .581.206.781.406l.219.188c.2.2.281.206.281-.094 0-.2-.181-.612-.281-.813l-.219-.188c-.2-.2-.381-.612-.281-.813.1-.2 0-.575 0-.875 0-.3.081-.406.281-.406s.406-.206.406-.406c.1-.2.394-.406.594-.406h.5c.3 0 .713-.206.813-.406l.281-.188c.2-.2.106-.494-.094-.594l-.688-.406c-.2-.1-.406-.388-.406-.688 0-.2.206-.325.406-.125l.094.219c.2.2.487.2.688 0l.219-.219c.2-.2.406-.481.406-.781l.031-.188c.195-.047.393-.094.594-.125.093.077.156.198.156.313 0 .3-.081.581-.281.781l-.219.219c-.2.2-.206.406.094.406s.612-.206.813-.406l.188-.219c.1-.2.425-.488.625-.688l.531-.438z"
    />
  </g>
</svg>