<svg xmlns="http://www.w3.org/2000/svg" version="1.1" width="128" height="128" data-icon="globe" viewBox="0 0 128 128">
  <g>
    <path d="M64 0c-35.323 0-64 28.677-64 64s28.677 64 64 64 64-28.677 64-64-28.677-64-64-64zm8.563 4.625c4.885.696 9.569 1.984 14 3.781-.039.059-.063.125-.063.188 0 .5.406 1.406.906 1.906s.094.5-.906 0-2.713-.906-3.813-.906-1.875.806-1.875 1.906c0 1.1.375 2.313.875 2.813s.5 1.375 0 1.875.025 1.813 1.125 2.813c1.1 1 2.281 1.506 2.781.906s.906-.094.906.906.406 2.281.906 2.781.5.906 0 .906-1.694 1.1-2.594 2.5l-.406.594c-.9 1.4-2.094 2.5-2.594 2.5s-.5.406 0 .906 1.375.994 1.875 1.094c.5.1 1.406 1.006 1.906 1.906.5.9-.394 1.688-2.094 1.688h-1.5c-1.7 0-2.594 1.313-2.094 2.813.5 1.5.5 2.813 0 2.813s-.5.775 0 1.875 1.781 1.906 2.781 1.906c1 0 1.906.119 1.906.219s1.106-.625 2.406-1.625l.813-.594c1.3-1 2.375-2.594 2.375-3.594s-.094-2.306-.094-2.906c0-.6.494-1.006 1.094-.906.6.1 1.5-.275 2-.875s1.719-.5 2.719 0l3.688 1.875c1 .5 1.906 1.813 1.906 2.813 0 1 .406 1.813.906 1.813s1.006-.813.906-1.813c-.1-1-.525-2.313-1.125-2.813s-1.781-1.275-2.781-1.875c-1-.6-2.219-1.406-2.719-1.906s-.594-.994-.094-1.094c.5-.1 2.013.694 3.313 1.594l.688.5c1.3 1 2.906 2.188 3.406 2.688s1 1.313 1 1.813.494.906 1.094.906c.6 0 1-.813 1-1.813s.813-1 1.813 0 2.306 1.406 2.906.906c.6-.5 1.375-.094 1.875.906s.813 2.694.813 3.594c0 .9-1.313 1.406-2.813.906-1.5-.5-3.181-.413-3.781.188-.6.6-.5 1.406 0 1.906s.094.906-.906.906-2.313-.4-2.813-1-1.275-.5-1.875 0c-.6.5-1.406.5-1.906 0s-.906-1.806-.906-2.906-.4-1.906-1-1.906-1.412.406-1.813.906c-.4.5-1.681.906-2.781.906s-2.306.5-2.906 1l-1.906 1.781c-.5.5-1.781 1.112-2.781 1.313-1 .2-1.906.606-1.906.906 0 .3-.806 1-1.906 1.5-1.1.5-1.906 1.781-1.906 2.781 0 1-.594 3.406-1.594 4.406-1 1-2.487 3.094-3.188 4.594l-1.125 2.094c-.7 1.5-1.281 3.125-1.281 3.625s.406 1.781.906 2.781c.5 1 .5 2.713 0 3.813s-.906 2.281-.906 2.781.406 1.406.906 1.906.875 1.406.875 1.906.406 1.406.906 1.906 1.813 1.406 2.813 1.906c1 .5 1.906 1.375 1.906 1.875s1.1 1.725 2.5 2.625l.594.375c1.4.9 3.306.813 4.406-.188 1.1-1 2.681-1.906 3.781-1.906s3.006-.688 4.406-1.688l.594-.406c1.4-.9 2.906-1.188 3.406-.688s1.813.875 2.813.875c1 0 1.875.806 1.875 1.906 0 1.1-.375 2.313-.875 2.813s-.125 1.781.875 2.781c1 1 1.906 2.313 1.906 2.813s-.406 1.406-.906 1.906-.875 1.406-.875 1.906-.719 2.075-1.719 3.375l-.406.625c-.9 1.4-.7 3.275.5 4.375h-.281c-.3 0-2.219 3.125-2.219 3.125-.238.387-.326.732-.344 1.063-10.165 7.915-22.949 12.625-36.844 12.625-9.326 0-18.161-2.117-26.031-5.906.283-.114.491-.272.625-.406.5-.5.906-1.375.906-1.875s1.313-.906 2.813-.906c1.5 0 3.181-.806 3.781-1.906.6-1.1.906-2.688.906-3.688s.806-2.313 1.906-2.813c1.1-.5 1.906-1.906 1.906-2.906 0-1-.806-2.281-1.906-2.781-1.1-.5-2.313-1.406-2.813-1.906s-2.181-1.313-3.781-1.813-4-1.481-5.5-2.281l-2.219-1.125c-1.5-.8-2.688-1.781-2.688-2.281 0-.5-.406-1.406-.906-1.906s-1.406-1.813-1.906-2.813c-.5-1-2.106-2.6-3.406-3.5l-.594-.375c-1.4-.9-3.081-2.912-3.781-4.313l-1.125-2.094c-.7-1.5-2.188-2.719-3.188-2.719s-2.594-1.1-3.594-2.5l-.406-.594c-.9-1.4-2.094-2.094-2.594-1.594-.5.5-1.306.5-1.906 0-.6-.5-.906-2.306-.906-3.906v-1.5c0-1.7-.406-3.406-.906-3.906s-.5-1.781 0-2.781c.5-1 .906-2.712.906-3.813 0-1.1-.406-1.506-.906-.906s-.675-.4-.375-2l.875-5.375.125-.5c.232-.668.464-1.343.719-2l.031-.063c.182-.291.357-.438.531-.438.5 0 .906.375.906.875s.406.906.906.906.588 1.306.188 2.906l-.188 1.5c-.4 1.6-.019 2.906.781 2.906h.406c.4 0 1.313-4.594 1.313-4.594.3-1.6 1.694-3.7 3.094-4.5l.5-.313c1.4-.9 2.5-2.094 2.5-2.594s.406-1 .906-1 .906-.406.906-.906.375-1.406.875-1.906 1.406-.5 1.906 0 .906.5.906 0 .406-1.406.906-1.906 1.406-.875 1.906-.875.875.375.875.875.406.906.906.906 1.813-.406 2.813-.906c1-.5 1.906-1.375 1.906-1.875s-.406-.906-.906-.906-.906-.406-.906-.906v-1.906c0-.5.406-.5.906 0s1.781.5 2.781 0c1-.5 1.506-.5.906 0s-.906 1.406-.906 1.906.406 1.406.906 1.906 1.406.906 1.906.906.906-.806.906-1.906c0-1.1-.406-1.906-.906-1.906s-.5-.406 0-.906 1.406-1.781 1.906-2.781c.5-1 .5-1.906 0-1.906s-.906-.406-.906-.906.406-1.406.906-1.906.906-1.406.906-1.906-.906-.5-1.906 0c-1 .5-1.406.125-.906-.875.5-1 .5-1.906 0-1.906s-1.806.4-2.906 1-1.9 1.406-2 1.906c-.1.5-1.1 1.6-2.5 2.5l-.281.188c-1.4.9-2 .913-1.5-.188.5-1.1.875-2.313.875-2.813s1.1-1.694 2.5-2.594l.625-.406c1.4-.9 3.781-1.688 5.281-1.688 1.5 0 2.813.375 2.813.875s.406.906.906.906 2.075-.688 3.375-1.688l.625-.406c1.4-.9 2.875-2.094 3.375-2.594s.5-.906 0-.906-.688-.313-.688-.813c0-.5.806-1.375 1.906-1.875 1.1-.5 2.281-.5 2.781 0s.5 1.375 0 1.875-1.694 2.106-2.594 3.406l-.406.594c-.9 1.4-1.688 2.906-1.688 3.406s.406 1.406.906 1.906 1.406.906 1.906.906 1.375-.406 1.875-.906 2.106-1.694 3.406-2.594l.594-.406c1.4-.9 3.306-1.688 4.406-1.688 1.1 0 1.906-.306 1.906-.906 0-.6.406-1.313.906-1.813s.906-1.781.906-2.781c0-1 1.281-1.906 2.781-1.906 1.5 0 3.213-.406 3.813-.906.15-.125.191-.258.156-.375zm-3.656 8.781c-1.7 0-3.406.5-3.906 1s-.094 1.406.906 1.906 2.281.375 2.781-.125.906-1.694.906-2.594v-.188h-.688zm8.281 6.219c-.338 0-.7.125-1 .375-.6.5.1 1.694 1.5 2.594l.813.5c1.3 1 2 3 1.5 4.5s.194 1.994 1.594 1.094l.594-.375c1.4-.9 2.125-2.125 1.625-2.625l-1.906-1.875-1.906-1.906-1.906-1.906c-.25-.25-.569-.375-.906-.375zm-.188 3.688c-.338 0-.656.125-.906.375-.5.5-.906 1.813-.906 2.813 0 1 .806 1 1.906 0 1.1-1 1.506-2.313.906-2.813-.3-.25-.662-.375-1-.375zm-67.094 30.563c-.183.038-.313.25-.313.625 0 1.1.406 2.406.906 2.906s1.406.906 1.906.906.181-1.1-.719-2.5l-.5-.719c-.5-.875-.977-1.281-1.281-1.219zm-5.719 5.531c.164 1.049.428 2.048.719 2.688.5 1.1.906 3.119.906 4.719s.375 3.181.875 3.781c.5.6 1.406 1.813 1.906 2.813.5 1 .5 2.306 0 2.906-.5.6-.906 1.375-.906 1.875v2.813c0 .78-.056 2.057-.156 3.344-2.289-6.356-3.531-13.195-3.531-20.344 0-1.549.072-3.074.188-4.594zm10.125.906c-.5 0-1.506.375-1.906.875-.5.5 0 1.406 1 1.906s1.906.094 1.906-.906-.5-1.875-1-1.875zm5.094 5.031c-.239.005-.406.531-.406 1.469 0 1.5.406 2.781.906 2.781s.906-.406.906-.906-.406-1.781-.906-2.781c-.188-.375-.356-.565-.5-.563z"
    />
  </g>
</svg>