<svg xmlns="http://www.w3.org/2000/svg" version="1.1" width="32" height="32" data-icon="globe" viewBox="0 0 32 32">
  <g>
    <path d="M16 0c-8.825 0-16 7.175-16 16s7.175 16 16 16 16-7.175 16-16-7.175-16-16-16zm0 2c1.74 0 3.402.328 4.938.906h-.75c-.2 0-.3.2 0 .5s.5.706.5.906c0 .2.2.5.5.5s.406.381.406.781v.406c0 .4-.2.513-.5.313l-1-.906c-.3-.2-.7-.5-1-.5-.3 0-.5.2-.5.5v.906c0 .2.2.5.5.5h.906c.2 0 .5.2.5.5s.2.675.5.875c.3.2.3.706 0 .906-.3.2-.706.5-.906.5-.2 0-.406.2-.406.5s.2.706.5.906c.3.2.7.206 1-.094l.813-.906c.3-.3.5-.7.5-1 0-.3.2-.5.5-.5s.794.206 1.094.406l.5.281c.4.2.719.613.719.813 0 .2.2.2.5 0s.181-.613-.219-.813l-.594-.281c-.4-.2-.488-.313-.188-.313s.7.2 1 .5c.3.3.675.3.875 0 .2-.3.5-.3.5 0s.2.5.5.5.706.2.906.5c.2.3.2.7 0 1-.2.3-.7.506-1 .406-.3-.1-.706.2-.906.5-.2.3-.675.5-.875.5-.2 0-.5-.2-.5-.5s-.319-.412-.719-.313l-2.281.625c-.4.1-.919.394-1.219.594-.3.2-.706.706-.906.906l-.875.875c-.2.2-.5.706-.5.906 0 .2-.2.706-.5.906-.3.2-.3.706 0 .906.3.2.5.788.5 1.188v.313c0 .4.2.981.5 1.281l1.781 1.813c.3.3.7.3 1 0 .3-.3.706-.5.906-.5.2 0 .706-.2.906-.5.2-.3.788-.294 1.188-.094l.5.281c.4.2.719.512.719.813v1.5939999999999999c0 .4-.113 1.006-.313 1.406l-.313.5c-.117.235-.17.521-.219.813-2.491 2.289-5.811 3.688-9.469 3.688-2.136 0-4.16-.492-5.969-1.344.296-.199.68-.469.969-.469.3 0 .5-.2.5-.5s.2-.675.5-.875c.3-.2.506-.706.406-.906-.1-.2-.2-.706-.5-.906-.3-.2-.706-.506-.906-.406-.2.1-.794-.206-1.094-.406l-1.719-1.188c-.3-.2-.594-.606-.594-.906 0-.3-.2-.706-.5-.906l-1-.875c-.3-.2-.706-.706-.906-.906l-1-1-.781-.813c-.3-.3-.7-.5-1-.5-.15 0-.288-.081-.375-.219-.018-.29-.031-.58-.031-.875v-.344c.122-.145.34-.19.594-.063l.594.313 1.125.094c.3 0 .175-.294-.125-.594l-1.688-1.719c-.089-.089-.181-.184-.25-.313.163-.859.407-1.705.719-2.5l.031.219v.406c0 .4.2.512.5.313.3-.2.5-.7.5-1 0-.3.2-.5.5-.5s.5-.2.5-.5.2-.7.5-1l.813-.813c.3-.3.7-.294 1-.094.3.2.388.594.688.594.3 0 .5-.2.5-.5s-.2-.706-.5-.906c-.3-.2-.088-.5.313-.5h.375c.4 0 .925-.287 1.125-.688l.188-.5c.2-.4.106-.894-.094-1.094-.2-.2-.7-.3-1 0-.3.3-.706.5-.906.5-.107 0-.147-.094-.125-.219.64-.456 1.317-.843 2.031-1.188.3.3.706.5.906.5.2 0 .675-.2.875-.5.192-.288.477-.668.5-.875.247-.07.498-.131.75-.188.012.112-.025.269-.125.469l-.313.5c-.2.4-.313.894-.313 1.094 0 .2.2.5.5.5s.706-.2.906-.5c.2-.3.794-.712 1.094-.813l.5-.281c.5-.3.813-.706.813-.906v-.406z"
    />
  </g>
</svg>