<svg xmlns="http://www.w3.org/2000/svg" version="1.1" width="32" height="32" data-icon="hard-drive" data-container-transform="translate(4)" viewBox="0 0 32 32">
  <g transform="translate(4)">
    <path d="M1 0c-.6 0-1 .4-1 1v22c0 .6.4 1 1 1h22c.6 0 1-.4 1-1v-22c0-.6-.4-1-1-1h-22zm11 4c4.4 0 8 3.6 8 8s-3.6 8-8 8c-1.5 0-2.8-.394-4-1.094-.8 1.2-1.513 2.081-1.813 2.281-.4.5-1.088.813-1.688.813-.7 0-1.313-.288-1.813-.688-.5-.5-.688-1.113-.688-1.813s.288-1.313.688-1.813c.2-.2 1.206-.881 2.406-1.781-.7-1.1-1.094-2.506-1.094-3.906 0-4.4 3.6-8 8-8zm0 5c-1.662 0-3 1.338-3 3 0 .411.094.654.094.688h1c0-.367-.094-.499-.094-.688 0-1.138.862-2 2-2s2 .862 2 2-.862 2-2 2c-.2 0-.448-.052-.469-.063l-.469.906c.379.189.738.156.938.156 1.662 0 3-1.338 3-3s-1.338-3-3-3zm-1 4s-6.994 4.9-7.594 5.5c-.6.6-.6 1.494 0 2.094.6.6 1.494.6 2.094 0 .6-.6 5.5-7.594 5.5-7.594zm-11 12.813v5.188c0 .6.4 1 1 1h22c.6 0 1-.4 1-1v-5.188c-.3.1-.6.188-1 .188h-22c-.4 0-.7-.087-1-.188zm3 1.188h1v4h-1v-4zm2 0h1v4h-1v-4zm2 0h1v4h-1v-4zm2 0h1v4h-1v-4zm11 1c.6 0 1 .4 1 1s-.4 1-1 1-1-.4-1-1 .4-1 1-1z"
    />
  </g>
</svg>