<svg xmlns="http://www.w3.org/2000/svg" version="1.1" width="16" height="16" data-icon="hard-drive" data-container-transform="translate(1)" viewBox="0 0 16 16">
  <g transform="translate(1)">
    <path d="M.5 0c-.3 0-.5.2-.5.5v10c0 .3.2.5.5.5h12c.3 0 .5-.2.5-.5v-10c0-.3-.2-.5-.5-.5h-12zm6 2c1.9 0 3.5 1.6 3.5 3.5s-1.6 3.5-3.5 3.5c-.3 0-.487.006-.688-.094-.2.2-.306.4-.406.5-.4.4-.906.594-1.406.594-.5 0-1.006-.194-1.406-.594-.4-.4-.594-.906-.594-1.406 0-.5.194-1.006.594-1.406.1-.1.3-.206.5-.406-.1-.2-.094-.388-.094-.688 0-1.9 1.6-3.5 3.5-3.5zm0 3c-.3 0-.5.2-.5.5s.2.5.5.5.5-.2.5-.5-.2-.5-.5-.5zm-.5 1s-2.288.912-2.688 1.313c-.4.4-.4.975 0 1.375s.975.4 1.375 0 1.313-2.688 1.313-2.688zm-6 5.906v3.594c0 .3.2.5.5.5h12c.3 0 .5-.2.5-.5v-3.594c-.2.1-.3.094-.5.094h-12c-.2 0-.3.006-.5-.094zm2 1.094h1v2h-1v-2zm2 0h1v2h-1v-2zm6 0c.6 0 1 .4 1 1s-.4 1-1 1-1-.4-1-1 .4-1 1-1z"
    />
  </g>
</svg>