<svg xmlns="http://www.w3.org/2000/svg" version="1.1" width="128" height="128" data-icon="hard-drive" data-container-transform="translate(15)" viewBox="0 0 128 128">
  <g transform="translate(15)">
    <path d="M8 0c-4.4 0-8 3.6-8 8v88c0 2.2 1.8 4 4 4h90c2.2 0 4-1.8 4-4v-88c0-4.4-3.6-8-8-8h-82zm42 14c19.9 0 36 16.1 36 36s-16.1 36-36 36c-6.4 0-12.3-1.694-17.5-4.594-1.5 2.5-2.788 4.481-3.688 5.281-2.1 2.2-4.913 3.313-7.813 3.313-2.9 0-5.713-1.088-7.813-3.188-4.3-4.3-4.3-11.325 0-15.625.9-.9 2.813-2.188 5.313-3.688-2.8-5.2-4.5-11.1-4.5-17.5 0-19.9 16.1-36 36-36zm0 4c-8.871 0-16.817 3.629-22.594 9.406a1 1 0 1 0 1.406 1.406c5.423-5.423 12.859-8.813 21.188-8.813a1 1 0 1 0 0-2zm0 18c-7.737 0-14 6.263-14 14 0 2.567.655 4.947 1.844 7l1.719-1c-1.011-1.747-1.563-3.767-1.563-6 0-6.663 5.337-12 12-12s12 5.337 12 12-5.337 12-12 12c-2.233 0-4.253-.551-6-1.563l-1 1.719c2.053 1.189 4.433 1.844 7 1.844 7.737 0 14-6.263 14-14s-6.263-14-14-14zm0 10c-2.209 0-4 1.791-4 4s1.791 4 4 4 4-1.791 4-4-1.791-4-4-4zm-6 10s-25.806 13.094-29.406 16.594c-3.5 3.5-3.5 9.219 0 12.719s9.219 3.5 12.719 0 16.688-29.313 16.688-29.313zm-23 21c1.1 0 2 .9 2 2s-.9 2-2 2-2-.9-2-2 .9-2 2-2zm-21 25.906v17.094c0 4.4 3.6 8 8 8h82c4.4 0 8-3.6 8-8v-17.094c-1.2.7-2.5 1.094-4 1.094h-90c-1.5 0-2.8-.394-4-1.094zm12 7.094h2v12h-2v-12zm4 0h2v12h-2v-12zm4 0h2v12h-2v-12zm4 0h2v12h-2v-12zm4 0h2v12h-2v-12zm4 0h2v12h-2v-12zm4 0h2v12h-2v-12zm52 4c1.1 0 2 .9 2 2s-.9 2-2 2-2-.9-2-2 .9-2 2-2z"
    />
  </g>
</svg>