<svg xmlns="http://www.w3.org/2000/svg" version="1.1" width="128" height="128" data-icon="headphones" data-container-transform="translate(6 2)" viewBox="0 0 128 128">
  <g transform="translate(6 2)">
    <path d="M58 0c-24.6 0-45.5 15.9-53 38h-1l-2.031-9.219a1 1 0 0 0-1.188-.781 1 1 0 0 0-.75 1.219l1.969 8.969v17.813c0 1.467.815 2.741 2 3.438v.563c0 2.343.495 5.813 1.25 8.094v.031l3.594 11.375v.031c.64 1.919 1.156 5.42 1.156 7.469v5.688c-4.648 1.657-8 6.114-8 11.313 0 5.916 4.347 10.85 10 11.813v6.688c0 .8.7 1.5 1.5 1.5h9c.8 0 1.5-.7 1.5-1.5v-37c0-.8-.7-1.5-1.5-1.5h-9c-.8 0-1.5.7-1.5 1.5v1.5c0-2.343-.495-5.813-1.25-8.094v-.031l-3.594-11.375v-.031c-.64-1.919-1.156-5.42-1.156-7.469 2.2 0 4-1.8 4-4 0-26.5 21.5-48 48-48s48 21.5 48 48c0 2.2 1.8 4 4 4 0 2.048-.516 5.549-1.156 7.469v.031l-3.594 11.375v.031c-.755 2.281-1.25 5.751-1.25 8.094v-1.5c0-.8-.7-1.5-1.5-1.5h-9c-.8 0-1.5.7-1.5 1.5v37c0 .8.7 1.5 1.5 1.5h9c.8 0 1.5-.7 1.5-1.5v-6.688c5.653-.963 10-5.896 10-11.813 0-5.198-3.352-9.655-8-11.313v-5.688c0-2.048.516-5.549 1.156-7.469v-.031l3.594-11.375v-.031c.755-2.281 1.25-5.751 1.25-8.094v-.563c1.185-.696 2-1.971 2-3.438v-17.813l1.969-8.969a1 1 0 0 0-1.156-1.219 1 1 0 0 0-.781.781l-2.031 9.219h-1c-7.5-22.1-28.4-38-53-38z"
    />
  </g>
</svg>