<svg xmlns="http://www.w3.org/2000/svg" version="1.1" width="32" height="32" data-icon="headphones" data-container-transform="translate(1)" viewBox="0 0 32 32">
  <g transform="translate(1)">
    <path d="M14.5 0c-8.006 0-14.5 6.494-14.5 14.5a1.5 1.5 0 0 0 1 1.438v.563c0 1.161.18 2.751.531 3.688.268.714.469 1.946.469 2.313v1.063c-1.185.696-2 1.971-2 3.438 0 1.855 1.279 3.397 3 3.844v.656c0 .3.2.5.5.5h2c.3 0 .5-.2.5-.5v-9c0-.3-.2-.5-.5-.5h-2c-.3 0-.5.2-.5.5 0-.633-.199-1.802-.531-2.688-.249-.663-.469-2.273-.469-3.313v-.563a1.5 1.5 0 0 0 1-1.438c0-6.394 5.106-11.5 11.5-11.5s11.5 5.106 11.5 11.5a1.5 1.5 0 0 0 1 1.438v.563c0 1.039-.22 2.649-.469 3.313-.332.886-.531 2.054-.531 2.688 0-.3-.2-.5-.5-.5h-2c-.3 0-.5.2-.5.5v9c0 .3.2.5.5.5h2c.3 0 .5-.2.5-.5v-.656c1.721-.447 3-1.988 3-3.844 0-1.467-.815-2.741-2-3.438v-1.063c0-.367.201-1.598.469-2.313.351-.937.531-2.527.531-3.688v-.563a1.5 1.5 0 0 0 1-1.438c0-8.006-6.494-14.5-14.5-14.5z"
    />
  </g>
</svg>