<svg xmlns="http://www.w3.org/2000/svg" version="1.1" width="16" height="16" data-icon="headphones" data-container-transform="translate(1)" viewBox="0 0 16 16">
  <g transform="translate(1)">
    <path d="M7 0c-3.845 0-7 3.155-7 7a1 1 0 0 0 1 1v4.094c-.566.218-1 .783-1 1.406 0 .8.7 1.5 1.5 1.5h.5v.813c0 .1.087.188.188.188h1.625c.1 0 .188-.113.188-.313v-4.5c0-.1-.112-.188-.313-.188h-1.5c-.1 0-.188.113-.188.313v-4.156a1 1 0 0 0 0-.156c0-2.755 2.245-5 5-5s5 2.245 5 5a1 1 0 0 0 0 .094v4.219c0-.1-.088-.219-.188-.219h-1.5c-.1 0-.219.119-.219.219v4.5c0 .1.119.188.219.188h1.5c.1 0 .188-.088.188-.188v-.813h.5c.8 0 1.5-.7 1.5-1.5 0-.623-.434-1.188-1-1.406v-4.094a1 1 0 0 0 1-1c0-3.845-3.155-7-7-7z"
    />
  </g>
</svg>