<svg xmlns="http://www.w3.org/2000/svg" version="1.1" width="16" height="16" data-icon="heart" data-container-transform="translate(0 1)" viewBox="0 0 16 16">
  <g transform="translate(0 1)">
    <path d="M4 0c-1.1 0-2.112.388-2.813 1.188-.8.7-1.188 1.712-1.188 2.813 0 1.1.388 2.112 1.188 2.813l6.813 6.875 6.813-6.781c.8-.8 1.188-1.806 1.188-2.906s-.387-2.112-1.188-2.813c-.7-.8-1.713-1.188-2.813-1.188s-2.113.388-2.813 1.188c-.8.7-1.088 1.513-1.188 1.813-.1-.3-.388-1.113-1.188-1.813-.7-.8-1.713-1.188-2.813-1.188z"
    />
  </g>
</svg>