<svg xmlns="http://www.w3.org/2000/svg" version="1.1" width="32" height="32" data-icon="home" viewBox="0 0 32 32">
  <g>
    <path d="M15.938.156c-.125 0-.244.056-.344.156l-15.188 14.375c-.2.1-.206.313.094.313h2c.3 0 .706-.213.906-.313l12.281-11.375c.2-.2.519-.2.719 0l12.188 11.281c.2.1.606.313.906.313h2c.2 0 .294-.113.094-.313l-15.281-14.281c-.1-.1-.25-.156-.375-.156zm.125 5c-.125 0-.275.056-.375.156l-10.281 9.375c-.2.1-.406.512-.406.813v13.5h9v-6h4v6h9v-13.5c0-.3-.206-.713-.406-.813l-5.094-4.688-5.281-4.813h-.031l-.125-.031z"
    />
  </g>
</svg>