<svg xmlns="http://www.w3.org/2000/svg" version="1.1" width="32" height="32" data-icon="infinity" data-container-transform="translate(0 8)" viewBox="0 0 32 32">
  <g transform="translate(0 8)">
    <path d="M6.5 0c-2.069 0-3.823 1.035-4.906 2.469-1.083 1.434-1.594 3.231-1.594 5.031 0 1.8.511 3.598 1.594 5.031 1.083 1.434 2.838 2.469 4.906 2.469 3.735 0 6.689-2.777 9.531-5.5 2.86 2.727 5.855 5.5 9.656 5.5 2.105 0 3.857-1.045 4.875-2.5 1.018-1.455 1.438-3.25 1.438-5v-.062c-.058-1.733-.49-3.495-1.5-4.938-1.01-1.443-2.744-2.5-4.813-2.5-3.801 0-6.796 2.773-9.656 5.5-2.842-2.723-5.797-5.5-9.531-5.5zm0 3c2.002 0 4.55 2.054 7.219 4.5-2.669 2.446-5.217 4.5-7.219 4.5-1.131 0-1.883-.465-2.5-1.281-.617-.816-1-2.019-1-3.219 0-1.2.383-2.402 1-3.219.617-.816 1.369-1.281 2.5-1.281zm19.188 0c1.131 0 1.779.443 2.344 1.25.555.793.916 2.006.969 3.25v.063c-.012 1.227-.36 2.407-.906 3.188-.557.795-1.211 1.25-2.406 1.25-2.111 0-4.67-2.056-7.344-4.5 2.673-2.444 5.232-4.5 7.344-4.5z"
    />
  </g>
</svg>