<svg xmlns="http://www.w3.org/2000/svg" version="1.1" width="16" height="16" data-icon="infinity" data-container-transform="translate(0 4)" viewBox="0 0 16 16">
  <g transform="translate(0 4)">
    <path d="M3.188 0c-4.333 0-4.333 8 0 8 1.083 0 2.029-.506 2.906-1.125.642-.453 1.24-1.014 1.844-1.563.608.553 1.197 1.106 1.844 1.563.877.619 1.823 1.125 2.906 1.125 4.333 0 4.333-8 0-8-1.083 0-2.029.506-2.906 1.125-.646.456-1.236 1.01-1.844 1.563-.604-.549-1.202-1.11-1.844-1.563-.877-.619-1.823-1.125-2.906-1.125zm0 2c.417 0 1.034.244 1.75.75.448.317.975.809 1.469 1.25-.494.441-1.02.933-1.469 1.25-.716.506-1.333.75-1.75.75-1.667 0-1.667-4 0-4zm9.5 0c1.667 0 1.667 4 0 4-.417 0-1.034-.244-1.75-.75-.446-.315-.946-.812-1.438-1.25.492-.438.991-.935 1.438-1.25.716-.506 1.333-.75 1.75-.75z"
    />
  </g>
</svg>