<svg xmlns="http://www.w3.org/2000/svg" version="1.1" width="128" height="128" data-icon="infinity" data-container-transform="translate(0 35)" viewBox="0 0 128 128">
  <g transform="translate(0 35)">
    <path d="M25 0c-7.863 0-14.379 4.023-18.594 9.594-4.215 5.571-6.406 12.669-6.406 19.719 0 7.049 2.197 14.009 6.438 19.438 4.24 5.429 10.761 9.25 18.563 9.25 14.768 0 27.071-11.743 39.063-23.406 12.059 11.677 24.712 23.406 39.938 23.406 7.883 0 14.264-3.864 18.219-9.344 3.954-5.48 5.781-12.423 5.781-19.344 0-6.92-1.791-13.974-5.719-19.594-3.928-5.619-10.338-9.719-18.281-9.719-15.207 0-27.848 11.812-39.938 23.531-12.024-11.705-24.313-23.531-39.063-23.531zm0 8c10.008 0 21.387 9.747 33.219 21.063-11.783 11.256-23.141 20.938-33.219 20.938-5.298 0-9.265-2.335-12.25-6.156-2.985-3.821-4.75-9.181-4.75-14.531 0-5.351 1.771-10.927 4.781-14.906 3.01-3.979 6.982-6.406 12.219-6.406zm79 0c5.357 0 8.971 2.351 11.719 6.281 2.747 3.931 4.281 9.552 4.281 15.031 0 5.48-1.529 10.886-4.25 14.656-2.721 3.77-6.333 6.031-11.75 6.031-10.722 0-22.297-9.7-34.094-20.938 11.844-11.299 23.435-21.063 34.094-21.063z"
    />
  </g>
</svg>