<svg xmlns="http://www.w3.org/2000/svg" version="1.1" width="128" height="128" data-icon="iphone" data-container-transform="translate(33)" viewBox="0 0 128 128">
  <g transform="translate(33)">
    <path d="M9 0c-5 0-9 4-9 9v110c0 5 4 9 9 9h44c5 0 9-4 9-9v-110c0-5-4-9-9-9h-44zm22 4.094c.5 0 .906.406.906.906s-.406.906-.906.906-.906-.406-.906-.906.406-.906.906-.906zm-4 5.906h8c.6 0 1 .4 1 1s-.4 1-1 1h-8c-.6 0-1-.4-1-1s.4-1 1-1zm-4.094.188c.5 0 .906.406.906.906s-.406.906-.906.906-.906-.406-.906-.906.406-.906.906-.906zm-18.906 7.813h54v92h-54v-92zm27 96c2.8 0 5 2.2 5 5s-2.2 5-5 5-5-2.2-5-5 2.2-5 5-5zm-1.5 2c-.8 0-1.5.7-1.5 1.5v3c0 .8.7 1.5 1.5 1.5h3c.8 0 1.5-.7 1.5-1.5v-3c0-.8-.7-1.5-1.5-1.5h-3zm0 1h3c.3 0 .5.2.5.5v3c0 .3-.2.5-.5.5h-3c-.3 0-.5-.2-.5-.5v-3c0-.3.2-.5.5-.5z"
    />
  </g>
</svg>