<svg xmlns="http://www.w3.org/2000/svg" version="1.1" width="32" height="32" data-icon="keyboard" data-container-transform="translate(0 8)" viewBox="0 0 32 32">
  <g transform="translate(0 8)">
    <path d="M.5 0c-.3 0-.5.2-.5.5v14c0 .3.2.5.5.5h30c.3 0 .5-.2.5-.5v-14c0-.3-.2-.5-.5-.5h-30zm1.688 2h1.5c.2 0 .313.112.313.313v1.5c0 .1-.087.188-.188.188h-1.625c-.1 0-.188-.087-.188-.188v-1.5c0-.2.087-.313.188-.313zm3 0h1.5c.2 0 .313.112.313.313v1.5c0 .1-.088.188-.188.188h-1.625c-.1 0-.188-.087-.188-.188v-1.5c0-.2.088-.313.188-.313zm3 0h1.5c.2 0 .313.112.313.313v1.5c0 .1-.088.188-.188.188h-1.625c-.1 0-.188-.087-.188-.188v-1.5c0-.2.088-.313.188-.313zm3 0h1.5c.2 0 .313.112.313.313v1.5c0 .1-.088.188-.188.188h-1.5c-.2 0-.313-.087-.313-.188v-1.5c0-.2.088-.313.188-.313zm3 0h1.5c.2 0 .313.112.313.313v1.5c0 .1-.088.188-.188.188h-1.5c-.2 0-.313-.087-.313-.188v-1.5c0-.2.088-.313.188-.313zm3 0h1.5c.2 0 .313.112.313.313v1.5c0 .1-.087.188-.188.188h-1.5c-.2 0-.313-.087-.313-.188v-1.5c0-.2.087-.313.188-.313zm3 0h1.5c.2 0 .313.112.313.313v1.5c0 .1-.087.188-.188.188h-1.5c-.2 0-.313-.087-.313-.188v-1.5c0-.2.087-.313.188-.313zm3 0h1.5c.2 0 .313.112.313.313v1.5c0 .1-.087.188-.188.188h-1.5c-.2 0-.313-.087-.313-.188v-1.5c0-.2.087-.313.188-.313zm3 0h2.5c.2 0 .313.112.313.313v1.5c0 .1-.087.188-.188.188h-2.5c-.2 0-.313-.087-.313-.188v-1.5c0-.2.087-.313.188-.313zm-24 3h2.5c.2 0 .313.088.313.188v1.5c0 .2-.088.313-.188.313h-2.625c-.1 0-.188-.088-.188-.188v-1.625c0-.1.087-.188.188-.188zm4 0h1.5c.2 0 .313.088.313.188v1.5c0 .2-.088.313-.188.313h-1.625c-.1 0-.188-.088-.188-.188v-1.625c0-.1.088-.188.188-.188zm3 0h1.5c.2 0 .313.088.313.188v1.5c0 .2-.088.313-.188.313h-1.625c-.1 0-.188-.088-.188-.188v-1.625c0-.1.088-.188.188-.188zm3 0h1.5c.2 0 .313.088.313.188v1.5c0 .2-.088.313-.188.313h-1.5c-.2 0-.313-.088-.313-.188v-1.625c0-.1.088-.188.188-.188zm3 0h1.5c.2 0 .313.088.313.188v1.5c0 .2-.087.313-.188.313h-1.5c-.2 0-.313-.088-.313-.188v-1.625c0-.1.088-.188.188-.188zm3 0h1.5c.2 0 .313.088.313.188v1.5c0 .2-.087.313-.188.313h-1.5c-.2 0-.313-.088-.313-.188v-1.625c0-.1.087-.188.188-.188zm3 0h1.5c.2 0 .313.088.313.188v1.5c0 .2-.087.313-.188.313h-1.5c-.2 0-.313-.088-.313-.188v-1.625c0-.1.087-.188.188-.188zm3 0h1.5c.2 0 .313.088.313.188v1.5c0 .2-.087.313-.188.313h-1.5c-.2 0-.313-.088-.313-.188v-1.625c0-.1.087-.188.188-.188zm3 0h1.5c.2 0 .313.088.313.188v1.625c0 .1-.087.188-.188.188h-1.5c-.2 0-.313-.088-.313-.188v-1.625c0-.1.087-.188.188-.188zm-25 3h3.5c.2 0 .313.088.313.188v1.5c0 .2-.088.313-.188.313h-3.625c-.1 0-.188-.088-.188-.188v-1.625c0-.1.087-.188.188-.188zm5 0h1.5c.2 0 .313.088.313.188v1.5c0 .2-.088.313-.188.313h-1.625c-.1 0-.188-.088-.188-.188v-1.625c0-.1.088-.188.188-.188zm3 0h1.5c.2 0 .313.088.313.188v1.5c0 .1-.088.219-.188.219h-1.5c-.2.1-.313.006-.313-.094v-1.625c0-.1.088-.188.188-.188zm3 0h1.5c.2 0 .313.088.313.188v1.5c0 .1-.088.219-.188.219h-1.5c-.2.1-.313.006-.313-.094v-1.625c0-.1.088-.188.188-.188zm3 0h1.5c.2 0 .313.088.313.188v1.5c0 .1-.087.219-.188.219h-1.5c-.2.1-.313.006-.313-.094v-1.625c0-.1.087-.188.188-.188zm3 0h1.5c.2 0 .313.088.313.188v1.5c0 .1-.087.219-.188.219h-1.5c-.2.1-.313.006-.313-.094v-1.625c0-.1.087-.188.188-.188zm3 0h1.5c.2 0 .313.088.313.188v1.5c0 .2-.087.313-.188.313h-1.5c-.2 0-.313-.088-.313-.188v-1.625c0-.1.087-.188.188-.188zm3 0h3.5c.2 0 .313.088.313.188v1.625c0 .1-.087.188-.188.188h-3.5c-.2 0-.313-.088-.313-.188v-1.625c0-.1.087-.188.188-.188zm-23 3h1.5c.2 0 .313.088.313.188v1.625c0 .1-.087.188-.188.188h-1.625c-.1 0-.188-.088-.188-.188v-1.5c0-.2.087-.313.188-.313zm3 0h1.5c.2 0 .313.088.313.188v1.625c0 .1-.088.188-.188.188h-1.625c-.1 0-.188-.088-.188-.188v-1.5c0-.2.088-.313.188-.313zm3 0h14.5c.1 0 .219.088.219.188v1.625h.094c0 .1-.087.188-.188.188h-14.625c-.1 0-.188-.088-.188-.188v-1.5c0-.2.088-.313.188-.313zm16.125.094h1.5c.1 0 .188.119.188.219v1.5c0 .1-.087.188-.188.188h-1.5c-.1 0-.219-.088-.219-.188v-1.5c0-.1.119-.219.219-.219zm3 0h1.5c.1 0 .188.119.188.219v1.5c0 .1-.087.188-.188.188h-1.5c-.1 0-.219-.088-.219-.188v-1.5c0-.1.119-.219.219-.219z"
    />
  </g>
</svg>