<svg xmlns="http://www.w3.org/2000/svg" version="1.1" width="128" height="128" data-icon="keyboard" data-container-transform="translate(1 39)" viewBox="0 0 128 128">
  <g transform="translate(1 39)">
    <path d="M1.5 0c-.8 0-1.5.7-1.5 1.5v47c0 .8.7 1.5 1.5 1.5h123c.8 0 1.5-.7 1.5-1.5v-47c0-.8-.7-1.5-1.5-1.5h-123zm5 6h5c.3 0 .5.2.5.5v5c0 .3-.2.5-.5.5h-5c-.3 0-.5-.2-.5-.5v-5c0-.3.2-.5.5-.5zm8 0h5c.3 0 .5.2.5.5v5c0 .3-.2.5-.5.5h-5c-.3 0-.5-.2-.5-.5v-5c0-.3.2-.5.5-.5zm8 0h5c.3 0 .5.2.5.5v5c0 .3-.2.5-.5.5h-5c-.3 0-.5-.2-.5-.5v-5c0-.3.2-.5.5-.5zm8 0h5c.3 0 .5.2.5.5v5c0 .3-.2.5-.5.5h-5c-.3 0-.5-.2-.5-.5v-5c0-.3.2-.5.5-.5zm8 0h5c.3 0 .5.2.5.5v5c0 .3-.2.5-.5.5h-5c-.3 0-.5-.2-.5-.5v-5c0-.3.2-.5.5-.5zm8 0h5c.3 0 .5.2.5.5v5c0 .3-.2.5-.5.5h-5c-.3 0-.5-.2-.5-.5v-5c0-.3.2-.5.5-.5zm8 0h5c.3 0 .5.2.5.5v5c0 .3-.2.5-.5.5h-5c-.3 0-.5-.2-.5-.5v-5c0-.3.2-.5.5-.5zm8 0h5c.3 0 .5.2.5.5v5c0 .3-.2.5-.5.5h-5c-.3 0-.5-.2-.5-.5v-5c0-.3.2-.5.5-.5zm8 0h5c.3 0 .5.2.5.5v5c0 .3-.2.5-.5.5h-5c-.3 0-.5-.2-.5-.5v-5c0-.3.2-.5.5-.5zm8 0h5c.3 0 .5.2.5.5v5c0 .3-.2.5-.5.5h-5c-.3 0-.5-.2-.5-.5v-5c0-.3.2-.5.5-.5zm8 0h5c.3 0 .5.2.5.5v5c0 .3-.2.5-.5.5h-5c-.3 0-.5-.2-.5-.5v-5c0-.3.2-.5.5-.5zm8 0h5c.3 0 .5.2.5.5v5c0 .3-.2.5-.5.5h-5c-.3 0-.5-.2-.5-.5v-5c0-.3.2-.5.5-.5zm8 0h5c.3 0 .5.2.5.5v5c0 .3-.2.5-.5.5h-5c-.3 0-.5-.2-.5-.5v-5c0-.3.2-.5.5-.5zm8 0h9c.3 0 .5.2.5.5v5c0 .3-.2.5-.5.5h-9c-.3 0-.5-.2-.5-.5v-5c0-.3.2-.5.5-.5zm-104 8h9c.3 0 .5.2.5.5v5c0 .3-.2.5-.5.5h-9c-.3 0-.5-.2-.5-.5v-5c0-.3.2-.5.5-.5zm12 0h5c.3 0 .5.2.5.5v5c0 .3-.2.5-.5.5h-5c-.3 0-.5-.2-.5-.5v-5c0-.3.2-.5.5-.5zm8 0h5c.3 0 .5.2.5.5v5c0 .3-.2.5-.5.5h-5c-.3 0-.5-.2-.5-.5v-5c0-.3.2-.5.5-.5zm8 0h5c.3 0 .5.2.5.5v5c0 .3-.2.5-.5.5h-5c-.3 0-.5-.2-.5-.5v-5c0-.3.2-.5.5-.5zm8 0h5c.3 0 .5.2.5.5v5c0 .3-.2.5-.5.5h-5c-.3 0-.5-.2-.5-.5v-5c0-.3.2-.5.5-.5zm8 0h5c.3 0 .5.2.5.5v5c0 .3-.2.5-.5.5h-5c-.3 0-.5-.2-.5-.5v-5c0-.3.2-.5.5-.5zm8 0h5c.3 0 .5.2.5.5v5c0 .3-.2.5-.5.5h-5c-.3 0-.5-.2-.5-.5v-5c0-.3.2-.5.5-.5zm8 0h5c.3 0 .5.2.5.5v5c0 .3-.2.5-.5.5h-5c-.3 0-.5-.2-.5-.5v-5c0-.3.2-.5.5-.5zm8 0h5c.3 0 .5.2.5.5v5c0 .3-.2.5-.5.5h-5c-.3 0-.5-.2-.5-.5v-5c0-.3.2-.5.5-.5zm8 0h5c.3 0 .5.2.5.5v5c0 .3-.2.5-.5.5h-5c-.3 0-.5-.2-.5-.5v-5c0-.3.2-.5.5-.5zm8 0h5c.3 0 .5.2.5.5v5c0 .3-.2.5-.5.5h-5c-.3 0-.5-.2-.5-.5v-5c0-.3.2-.5.5-.5zm8 0h5c.3 0 .5.2.5.5v5c0 .3-.2.5-.5.5h-5c-.3 0-.5-.2-.5-.5v-5c0-.3.2-.5.5-.5zm8 0h5c.3 0 .5.2.5.5v5c0 .3-.2.5-.5.5h-5c-.3 0-.5-.2-.5-.5v-5c0-.3.2-.5.5-.5zm8 0h5c.3 0 .5.2.5.5v5c0 .3-.2.5-.5.5h-5c-.3 0-.5-.2-.5-.5v-5c0-.3.2-.5.5-.5zm-108 8h11c.3 0 .5.2.5.5v5c0 .3-.2.5-.5.5h-11c-.3 0-.5-.2-.5-.5v-5c0-.3.2-.5.5-.5zm14 0h5c.3 0 .5.2.5.5v5c0 .3-.2.5-.5.5h-5c-.3 0-.5-.2-.5-.5v-5c0-.3.2-.5.5-.5zm8 0h5c.3 0 .5.2.5.5v5c0 .3-.2.5-.5.5h-5c-.3 0-.5-.2-.5-.5v-5c0-.3.2-.5.5-.5zm8 0h5c.3 0 .5.2.5.5v5c0 .3-.2.5-.5.5h-5c-.3 0-.5-.2-.5-.5v-5c0-.3.2-.5.5-.5zm8 0h5c.3 0 .5.2.5.5v5c0 .3-.2.5-.5.5h-5c-.3 0-.5-.2-.5-.5v-5c0-.3.2-.5.5-.5zm8 0h5c.3 0 .5.2.5.5v5c0 .3-.2.5-.5.5h-5c-.3 0-.5-.2-.5-.5v-5c0-.3.2-.5.5-.5zm8 0h5c.3 0 .5.2.5.5v5c0 .3-.2.5-.5.5h-5c-.3 0-.5-.2-.5-.5v-5c0-.3.2-.5.5-.5zm8 0h5c.3 0 .5.2.5.5v5c0 .3-.2.5-.5.5h-5c-.3 0-.5-.2-.5-.5v-5c0-.3.2-.5.5-.5zm8 0h5c.3 0 .5.2.5.5v5c0 .3-.2.5-.5.5h-5c-.3 0-.5-.2-.5-.5v-5c0-.3.2-.5.5-.5zm8 0h5c.3 0 .5.2.5.5v5c0 .3-.2.5-.5.5h-5c-.3 0-.5-.2-.5-.5v-5c0-.3.2-.5.5-.5zm8 0h5c.3 0 .5.2.5.5v5c0 .3-.2.5-.5.5h-5c-.3 0-.5-.2-.5-.5v-5c0-.3.2-.5.5-.5zm8 0h5c.3 0 .5.2.5.5v5c0 .3-.2.5-.5.5h-5c-.3 0-.5-.2-.5-.5v-5c0-.3.2-.5.5-.5zm8 0h11c.3 0 .5.2.5.5v5c0 .3-.2.5-.5.5h-11c-.3 0-.5-.2-.5-.5v-5c0-.3.2-.5.5-.5zm-102 8h15c.3 0 .5.2.5.5v5c0 .3-.2.5-.5.5h-15c-.3 0-.5-.2-.5-.5v-5c0-.3.2-.5.5-.5zm18 0h5c.3 0 .5.2.5.5v5c0 .3-.2.5-.5.5h-5c-.3 0-.5-.2-.5-.5v-5c0-.3.2-.5.5-.5zm8 0h5c.3 0 .5.2.5.5v5c0 .3-.2.5-.5.5h-5c-.3 0-.5-.2-.5-.5v-5c0-.3.2-.5.5-.5zm8 0h5c.3 0 .5.2.5.5v5c0 .3-.2.5-.5.5h-5c-.3 0-.5-.2-.5-.5v-5c0-.3.2-.5.5-.5zm8 0h5c.3 0 .5.2.5.5v5c0 .3-.2.5-.5.5h-5c-.3 0-.5-.2-.5-.5v-5c0-.3.2-.5.5-.5zm8 0h5c.3 0 .5.2.5.5v5c0 .3-.2.5-.5.5h-5c-.3 0-.5-.2-.5-.5v-5c0-.3.2-.5.5-.5zm8 0h5c.3 0 .5.2.5.5v5c0 .3-.2.5-.5.5h-5c-.3 0-.5-.2-.5-.5v-5c0-.3.2-.5.5-.5zm8 0h5c.3 0 .5.2.5.5v5c0 .3-.2.5-.5.5h-5c-.3 0-.5-.2-.5-.5v-5c0-.3.2-.5.5-.5zm8 0h5c.3 0 .5.2.5.5v5c0 .3-.2.5-.5.5h-5c-.3 0-.5-.2-.5-.5v-5c0-.3.2-.5.5-.5zm8 0h5c.3 0 .5.2.5.5v5c0 .3-.2.5-.5.5h-5c-.3 0-.5-.2-.5-.5v-5c0-.3.2-.5.5-.5zm8 0h5c.3 0 .5.2.5.5v5c0 .3-.2.5-.5.5h-5c-.3 0-.5-.2-.5-.5v-5c0-.3.2-.5.5-.5zm8 0h15c.3 0 .5.2.5.5v5c0 .3-.2.5-.5.5h-15c-.3 0-.5-.2-.5-.5v-5c0-.3.2-.5.5-.5zm-98 8h5c.3 0 .5.2.5.5v5c0 .3-.2.5-.5.5h-5c-.3 0-.5-.2-.5-.5v-5c0-.3.2-.5.5-.5zm8 0h5c.3 0 .5.2.5.5v5c0 .3-.2.5-.5.5h-5c-.3 0-.5-.2-.5-.5v-5c0-.3.2-.5.5-.5zm8 0h5c.3 0 .5.2.5.5v5c0 .3-.2.5-.5.5h-5c-.3 0-.5-.2-.5-.5v-5c0-.3.2-.5.5-.5zm8 0h5c.3 0 .5.2.5.5v5c0 .3-.2.5-.5.5h-5c-.3 0-.5-.2-.5-.5v-5c0-.3.2-.5.5-.5zm8 0h41c.3 0 .5.2.5.5v5c0 .3-.2.5-.5.5h-41c-.3 0-.5-.2-.5-.5v-5c0-.3.2-.5.5-.5zm44 0h5c.3 0 .5.2.5.5v5c0 .3-.2.5-.5.5h-5c-.3 0-.5-.2-.5-.5v-5c0-.3.2-.5.5-.5zm8 0h5c.3 0 .5.2.5.5v5c0 .3-.2.5-.5.5h-5c-.3 0-.5-.2-.5-.5v-5c0-.3.2-.5.5-.5zm15.813.094h5.5c.1 0 .188.119.188.219v1.5c0 .1-.088.188-.188.188h-5.5c-.1 0-.219-.087-.219-.188v-1.5c0-.1.119-.219.219-.219zm-8 4h5.5c.1 0 .188.119.188.219v1.5c0 .1-.088.188-.188.188h-5.5c-.1 0-.219-.087-.219-.188v-1.5c0-.1.119-.219.219-.219zm8 0h5.5c.1 0 .188.119.188.219v1.5c0 .1-.088.188-.188.188h-5.5c-.1 0-.219-.087-.219-.188v-1.5c0-.1.119-.219.219-.219zm8 0h5.5c.1 0 .188.119.188.219v1.5c0 .1-.088.188-.188.188h-5.5c-.1 0-.219-.087-.219-.188v-1.5c0-.1.119-.219.219-.219z"
    />
  </g>
</svg>