<svg xmlns="http://www.w3.org/2000/svg" version="1.1" width="128" height="128" data-icon="laptop" data-container-transform="translate(0 25)" viewBox="0 0 128 128">
  <g transform="translate(0 25)">
    <path d="M11.5 0c-1.967 0-3.5 1.533-3.5 3.5v67c0 .543.133 1.046.344 1.5h-8.344v4.5c0 .8.7 1.5 1.5 1.5h125c.8 0 1.5-.7 1.5-1.5v-4.5h-8.344c.211-.454.344-.957.344-1.5v-67c0-1.967-1.533-3.5-3.5-3.5h-105zm.5 4h104v66h-104v-66zm46 68h12c0 1.1-.9 2-2 2h-8c-.138 0-.276-.004-.406-.031-.39-.08-.728-.291-1-.563-.091-.091-.178-.175-.25-.281-.216-.319-.344-.713-.344-1.125zm61 2c.6 0 1 .4 1 1s-.4 1-1 1-1-.4-1-1 .4-1 1-1z"
    />
  </g>
</svg>