<svg xmlns="http://www.w3.org/2000/svg" version="1.1" width="32" height="32" data-icon="laptop" data-container-transform="translate(0 6)" viewBox="0 0 32 32">
  <g transform="translate(0 6)">
    <path d="M4.5 0c-.372 0-.773.148-1.063.438-.29.29-.438.69-.438 1.063v16c0 .164.037.337.094.5h-3.094v1.5c0 .3.2.5.5.5h31c.3 0 .5-.2.5-.5v-1.5h-3.094c.057-.163.094-.336.094-.5v-16c0-.372-.148-.773-.438-1.063-.29-.29-.69-.438-1.063-.438h-23zm.5 2h22v15h-22v-15zm9 16h4v.5c0 .3-.2.5-.5.5h-3c-.225 0-.398-.098-.469-.281l-.031-.219v-.5z"
    />
  </g>
</svg>