<svg xmlns="http://www.w3.org/2000/svg" version="1.1" width="128" height="128" data-icon="lightning" data-container-transform="translate(0 1)" viewBox="0 0 128 128">
  <g transform="translate(0 1)">
    <path d="M56 0c-18.8 0-34.4 14.6-36 33-11.6 3-20 13.5-20 26 0 13.981 10.64 25.486 24.188 26.875l13.719-19.875h35.781l-16 16h17.313l-4.813 4h39.813c9.9 0 18-8.1 18-18s-8.1-18-18-18c-.7 0-1.3-.1-2 0-.9-8.4-7.6-15.1-16-16-1-19-16.8-34-36-34zm-16 70l-18 26h15l-21 30 48-40h-16l16-16h-24z"
    />
  </g>
</svg>