<svg xmlns="http://www.w3.org/2000/svg" version="1.1" width="128" height="128" data-icon="lightbulb" data-container-transform="translate(32)" viewBox="0 0 128 128">
  <g transform="translate(32)">
    <path d="M29.75.063a4 4 0 0 0-1.406.406l-26 11.906a4 4 0 1 0 3.313 7.25l26-11.875a4 4 0 0 0-1.5-7.688 4 4 0 0 0-.406 0zm29.969 1.906a4 4 0 0 0-1.406.406l-56 26a4 4 0 1 0 3.375 7.25l56-26a4 4 0 0 0-1.563-7.656 4 4 0 0 0-.406 0zm0 16a4 4 0 0 0-1.406.406l-56 26a4 4 0 1 0 3.375 7.25l56-26a4 4 0 0 0-1.563-7.656 4 4 0 0 0-.406 0zm0 16a4 4 0 0 0-1.406.406l-56 26a4 4 0 1 0 3.375 7.25l56-26a4 4 0 0 0-1.563-7.656 4 4 0 0 0-.406 0zm.063 16a4 4 0 0 0-1.438.375l-20 9a4 4 0 0 0-2.344 3.656v18.813a4 4 0 0 0 0 .094h-8a4 4 0 0 0 0-.094v-13.813a4 4 0 0 0-4.063-4.063 4 4 0 0 0-3.938 4.063v13.813a4 4 0 0 0 0 .094h-5c-1.7 0-2.8 1.4-2.5 3l1 6.094c.3 1.7 1.8 3 3.5 3h12.125l-13.5 2.531a2.004 2.004 0 1 0 .75 3.938l32-6a2.006 2.006 0 0 0 1.031-.469h-2.406c1.7 0 3.2-1.3 3.5-3l1-6.094c.3-1.7-.8-3-2.5-3h-5a4 4 0 0 0 0-.094v-16.219l17.656-7.938a4 4 0 0 0 2.344-2.75v-1.844a4 4 0 0 0-3.813-3.094 4 4 0 0 0-.406 0zm-11.688 50a2.006 2.006 0 0 0-.313.031 2 2 0 0 0-.156.031l-32 6a2.004 2.004 0 1 0 .75 3.938l32-6a2.006 2.006 0 0 0-.281-4zm0 10a2.006 2.006 0 0 0-.313.031 2 2 0 0 0-.156.031l-32 6a2.004 2.004 0 1 0 .75 3.938l32-6a2.006 2.006 0 0 0-.281-4zm-3.969 10a2.002 2.002 0 0 0-.313.031 2 2 0 0 0-.156.031l-23.781 4a2 2 0 1 0 .656 3.938l23.813-4a2.002 2.002 0 0 0-.219-4z"
    />
  </g>
</svg>