<svg xmlns="http://www.w3.org/2000/svg" version="1.1" width="16" height="16" data-icon="lightbulb" data-container-transform="translate(3)" viewBox="0 0 16 16">
  <g transform="translate(3)">
    <path d="M7.063-.063a1.003 1.003 0 0 0-.25.063 1 1 0 0 0-.25.094l-6 3a1.006 1.006 0 0 0 .875 1.813l6-3a1.003 1.003 0 0 0-.375-1.969zm2 3a1.003 1.003 0 0 0-.25.063 1 1 0 0 0-.25.094l-8 4a1.006 1.006 0 0 0 .875 1.813l8-4a1.003 1.003 0 0 0-.375-1.969zm-1 4a1.003 1.003 0 0 0-.25.063 1 1 0 0 0-.25.094l-2 1a1 1 0 0 0-.563.906v1.313a1 1 0 0 0-1.219-.813 1 1 0 0 0-.781 1v.5a1 1 0 0 0 0 .094h-1.5c-.3 0-.413.206-.313.406l.625 1.094c.1.2.388.406.688.406h5c.3 0 .588-.206.688-.406l.625-1.094c.1-.2-.012-.406-.313-.406h-1.5a1 1 0 0 0 0-.094v-1.375l1.438-.719a1.003 1.003 0 0 0-.375-1.969zm-5.063 7.063c0 1.1.9 2 2 2s2-.9 2-2h-4z"
    />
  </g>
</svg>