<svg xmlns="http://www.w3.org/2000/svg" version="1.1" width="128" height="128" data-icon="list" data-container-transform="translate(2 20)" viewBox="0 0 128 128">
  <g transform="translate(2 20)">
    <path d="M1.5 0c-.8 0-1.5.7-1.5 1.5v5c0 .8.7 1.5 1.5 1.5h5c.8 0 1.5-.7 1.5-1.5v-5c0-.8-.7-1.5-1.5-1.5h-5zm14.5 0v8h108v-8h-108zm-14.5 26c-.8 0-1.5.7-1.5 1.5v5c0 .8.7 1.5 1.5 1.5h5c.8 0 1.5-.7 1.5-1.5v-5c0-.8-.7-1.5-1.5-1.5h-5zm14.5 0v8h88v-8h-88zm-14.5 28c-.8 0-1.5.7-1.5 1.5v5c0 .8.7 1.5 1.5 1.5h5c.8 0 1.5-.7 1.5-1.5v-5c0-.8-.7-1.5-1.5-1.5h-5zm14.5 0v8h108v-8h-108zm-14.5 26c-.8 0-1.5.7-1.5 1.5v5c0 .8.7 1.5 1.5 1.5h5c.8 0 1.5-.7 1.5-1.5v-5c0-.8-.7-1.5-1.5-1.5h-5zm14.5 0v8h104v-8h-104z"
    />
  </g>
</svg>