<svg xmlns="http://www.w3.org/2000/svg" version="1.1" width="32" height="32" data-icon="loop-circular" data-container-transform="translate(0 3)" viewBox="0 0 32 32">
  <g transform="translate(0 3)">
    <path d="M16 .063c-.482-.002-.956.01-1.438.063-1.274.138-2.539.468-3.75 1h-.031c-4.748 2.047-7.781 6.784-7.781 11.875h-3l4.5 6 4.5-6h-3c0-3.9 2.363-7.566 6-9.125 3.721-1.644 8.171-.767 11.031 2.094l2.125-2.125c-2.454-2.454-5.785-3.767-9.156-3.781zm11.5 6.938l-4.5 6h3c0 3.9-2.363 7.566-6 9.125-3.721 1.644-8.171.767-11.031-2.094l-2.125 2.125c3.732 3.732 9.471 4.858 14.344 2.719h.031c4.748-2.047 7.781-6.784 7.781-11.875h3l-4.5-6z"
    />
  </g>
</svg>