<svg xmlns="http://www.w3.org/2000/svg" version="1.1" width="128" height="128" data-icon="loop" data-container-transform="translate(8 28)" viewBox="0 0 128 128">
  <g transform="translate(8 28)">
    <path d="M64.594.594c-.347.065-.594.406-.594.906v8.5h-57c-3.739 0-7 3.261-7 7v38c0 3.739 3.261 7 7 7h9v-8h-8v-36h56v8.5c0 .8.612 1.188 1.313.688l21.375-12.5c.7-.4.7-1 0-1.5l-21.375-12.375c-.263-.188-.511-.258-.719-.219zm31.406 9.406v8h8v36h-56v-8.406c0-.8-.612-1.188-1.313-.688l-21.375 12.281c-.7.5-.7 1.125 0 1.625l21.375 12.5c.7.4 1.313.081 1.313-.719v-8.594h57c3.739 0 7-3.261 7-7v-38c0-3.739-3.261-7-7-7h-9z"
    />
  </g>
</svg>