<svg xmlns="http://www.w3.org/2000/svg" version="1.1" width="16" height="16" data-icon="loop" data-container-transform="translate(0 1)" viewBox="0 0 16 16">
  <g transform="translate(0 1)">
    <path d="M9 0v2h-7.5c-.372 0-.773.148-1.063.438-.29.29-.438.69-.438 1.063v7c0 .372.148.773.438 1.063.29.29.69.438 1.063.438h1.5v-2h-1v-6h7v2l3-3-3-3zm4 2v2h1v6h-7v-2l-3 3 3 3v-2h7.5c.372 0 .773-.148 1.063-.438.29-.29.438-.69.438-1.063v-7c0-.372-.148-.773-.438-1.063-.29-.29-.69-.438-1.063-.438h-1.5z"
    />
  </g>
</svg>