<svg xmlns="http://www.w3.org/2000/svg" version="1.1" width="16" height="16" data-icon="loop-square" data-container-transform="translate(0 2)" viewBox="0 0 16 16">
  <g transform="translate(0 2)">
    <path d="M3.5 0c-.372 0-.773.148-1.063.438-.29.29-.438.69-.438 1.063v2.5h2v-2h8v2h-2l3 3 3-3h-2v-2.5c0-.372-.148-.773-.438-1.063-.29-.29-.69-.438-1.063-.438h-9zm-.5 5l-3 3h2v2.5c0 .372.148.773.438 1.063.29.29.69.438 1.063.438h9c.372 0 .773-.148 1.063-.438.29-.29.438-.69.438-1.063v-2.5h-2v2h-8v-2h2l-3-3z"
    />
  </g>
</svg>