<svg xmlns="http://www.w3.org/2000/svg" version="1.1" width="128" height="128" data-icon="loop-square" data-container-transform="translate(0 16)" viewBox="0 0 128 128">
  <g transform="translate(0 16)">
    <path d="M18.5 0c-4.633 0-8.5 3.867-8.5 8.5v27.5h8v-27.5c0-.367.133-.5.5-.5h91c.367 0 .5.133.5.5v21.5h-8.406c-.8 0-1.188.613-.688 1.313l12.5 21.375c.3.7.906.7 1.406 0l12.5-21.375c.4-.7.081-1.313-.719-1.313h-8.594v-21.5c0-4.633-3.867-8.5-8.5-8.5h-91zm-4.5 42.781c-.275 0-.563.181-.813.531l-12.375 21.375c-.5.7-.113 1.313.688 1.313h8.5v21.5c0 4.633 3.867 8.5 8.5 8.5h91c4.633 0 8.5-3.867 8.5-8.5v-27.5h-8v27.5c0 .367-.133.5-.5.5h-91c-.367 0-.5-.133-.5-.5v-21.5h8.5c.8 0 1.188-.612.688-1.313l-12.375-21.375c-.25-.35-.537-.531-.813-.531z"
    />
  </g>
</svg>