<svg xmlns="http://www.w3.org/2000/svg" version="1.1" width="128" height="128" data-icon="loop-circular" data-container-transform="translate(0 10)" viewBox="0 0 128 128">
  <g transform="translate(0 10)">
    <path d="M64.5 0c-.927-.012-1.853-.005-2.781.031-4.939.191-9.87 1.095-14.656 2.688h-.031c-12.319 4.009-22.843 12.511-29.438 23.625l-.031.031c-4.952 8.342-7.553 17.963-7.563 27.625h-10l14 24 14-24h-10c.016-8.243 2.229-16.482 6.438-23.563 5.6-9.455 14.644-16.733 25.094-20.125h.031v-.031c16.221-5.407 34.817-.966 47.031 11.156l5.625-5.688c-10.115-10.039-23.814-15.57-37.719-15.75zm49.5 30l-14 24h10c-.033 8.212-2.245 16.415-6.438 23.469-5.6 9.455-14.644 16.733-25.094 20.125h-.031c-16.331 5.413-34.893.982-47-11.125l-5.656 5.656c14.286 14.286 35.895 19.435 55.156 13.063h.031c12.333-4.014 22.876-12.523 29.469-23.656 4.947-8.324 7.542-17.895 7.563-27.531h10l-14-24z"
    />
  </g>
</svg>