<svg xmlns="http://www.w3.org/2000/svg" version="1.1" width="32" height="32" data-icon="loop-square" data-container-transform="translate(0 4)" viewBox="0 0 32 32">
  <g transform="translate(0 4)">
    <path d="M6 0c-1.675 0-3 1.325-3 3v5h3v-5h20v5h-2.5c-.3 0-.387.206-.188.406l3.875 5.188c.2.2.425.2.625 0l3.875-5.188c.2-.2.113-.406-.188-.406h-2.5v-5c0-1.675-1.325-3-3-3h-20zm-1.5 10.25c-.1 0-.213.056-.313.156l-3.875 5.188c-.2.2-.112.406.188.406h2.5v5c0 1.675 1.325 3 3 3h20c1.675 0 3-1.325 3-3v-5h-3v5h-20v-5h2.5c.3 0 .387-.206.188-.406l-3.875-5.188c-.1-.1-.213-.156-.313-.156z"
    />
  </g>
</svg>