<svg xmlns="http://www.w3.org/2000/svg" version="1.1" width="16" height="16" data-icon="loop-circular" data-container-transform="translate(0 2)" viewBox="0 0 16 16">
  <g transform="translate(0 2)">
    <path d="M7.813.094c-2.975.149-5.813 2.472-5.813 5.906h-2l3 3 3-3h-2c0-3.567 4.37-5.304 6.781-2.813l1.438-1.375c-.897-.927-1.999-1.467-3.125-1.656-.422-.071-.856-.084-1.281-.063zm5.188 2.906l-3 3h2c0 3.567-4.37 5.304-6.781 2.813l-1.438 1.375c3.589 3.709 10.219 1.046 10.219-4.188h2l-3-3z"
    />
  </g>
</svg>