<svg xmlns="http://www.w3.org/2000/svg" version="1.1" width="32" height="32" data-icon="loop" data-container-transform="translate(1 4)" viewBox="0 0 32 32">
  <g transform="translate(1 4)">
    <path d="M17.125.219c-.075.037-.125.131-.125.281v2.5h-14.5c-.633 0-1.303.241-1.781.719s-.719 1.148-.719 1.781v12c0 .633.241 1.303.719 1.781s1.148.719 1.781.719h2.5v-3h-2v-11h14v2.5c0 .3.206.387.406.188l5.188-3.875c.2-.2.2-.425 0-.625l-5.188-3.875c-.1-.1-.206-.131-.281-.094zm7.875 2.781v3h2v11h-14v-2.5c0-.3-.206-.387-.406-.188l-5.188 3.875c-.2.2-.2.425 0 .625l5.188 3.875c.2.2.406.113.406-.188v-2.5h14.5c.633 0 1.303-.241 1.781-.719s.719-1.148.719-1.781v-12c0-.633-.241-1.303-.719-1.781s-1.148-.719-1.781-.719h-2.5z"
    />
  </g>
</svg>