<svg xmlns="http://www.w3.org/2000/svg" version="1.1" width="128" height="128" data-icon="magic-wand" viewBox="0 0 128 128">
  <g>
    <path d="M74.906-.031a1 1 0 0 0-.125.031 1 1 0 0 0-.5 1.719l14 14a1.016 1.016 0 1 0 1.438-1.438l-14-14a1 1 0 0 0-.813-.313zm26 0a1 1 0 0 0-.125.031 1 1 0 0 0-.781 1v10a1 1 0 1 0 2 0v-10a1 1 0 0 0-1.094-1.031zm25.969.031a1 1 0 0 0-.594.281l-14 14a1.016 1.016 0 1 0 1.438 1.438l14-14a1 1 0 0 0-.844-1.719zm-37.875 2c-.552 0-1 .448-1 1s.448 1 1 1 1-.448 1-1-.448-1-1-1zm16 0c-.552 0-1 .448-1 1s.448 1 1 1 1-.448 1-1-.448-1-1-1zm12 0c-.552 0-1 .448-1 1s.448 1 1 1 1-.448 1-1-.448-1-1-1zm-42 6c-.552 0-1 .448-1 1s.448 1 1 1 1-.448 1-1-.448-1-1-1zm18 0c-.552 0-1 .448-1 1s.448 1 1 1 1-.448 1-1-.448-1-1-1zm16 0c-.552 0-1 .448-1 1s.448 1 1 1 1-.448 1-1-.448-1-1-1zm-12 2c-.552 0-1 .448-1 1s.448 1 1 1 1-.448 1-1-.448-1-1-1zm28 0c-.552 0-1 .448-1 1s.448 1 1 1 1-.448 1-1-.448-1-1-1zm-23 6.656c-.388 0-.794.137-1.094.438l-9.906 9.906c-.6.6-.6 1.494 0 2.094l7.906 7.906c.6.6 1.494.6 2.094 0l9.906-9.906c.6-.6.6-1.494 0-2.094l-7.906-7.906c-.25-.3-.612-.438-1-.438zm-19 1.344c-.552 0-1 .448-1 1s.448 1 1 1 1-.448 1-1-.448-1-1-1zm36 0c-.552 0-1 .448-1 1s.448 1 1 1 1-.448 1-1-.448-1-1-1zm-40 4c-.552 0-1 .448-1 1s.448 1 1 1 1-.448 1-1-.448-1-1-1zm44 0c-.552 0-1 .448-1 1s.448 1 1 1 1-.448 1-1-.448-1-1-1zm-48.188 4a1.001 1.001 0 0 0 .188 2h10a1 1 0 1 0 0-2h-10a1 1 0 0 0-.094 0 1.001 1.001 0 0 0-.094 0zm42 0a1.001 1.001 0 0 0 .188 2h10a1 1 0 1 0 0-2h-10a1 1 0 0 0-.094 0 1.001 1.001 0 0 0-.094 0zm6.188 4c-.552 0-1 .448-1 1s.448 1 1 1 1-.448 1-1-.448-1-1-1zm-35 .656c-.388 0-.75.137-1 .438l-85.906 85.906c-.6.6-.6 1.494 0 2.094l7.906 7.906c.6.6 1.494.6 2.094 0l85.906-85.906c.6-.6.6-1.494 0-2.094l-7.906-7.906c-.3-.3-.706-.438-1.094-.438zm29 3.344c-.552 0-1 .448-1 1s.448 1 1 1 1-.448 1-1-.448-1-1-1zm-4.094 3.969a1 1 0 0 0-.125.031 1 1 0 0 0-.5 1.719l14 14a1.016 1.016 0 1 0 1.438-1.438l-14-14a1 1 0 0 0-.813-.313zm12.094.031c-.552 0-1 .448-1 1s.448 1 1 1 1-.448 1-1-.448-1-1-1zm-24.094 3.969a1 1 0 0 0-.125.031 1 1 0 0 0-.781 1v10a1 1 0 1 0 2 0v-10a1 1 0 0 0-1.094-1.031zm8.094.031c-.552 0-1 .448-1 1s.448 1 1 1 1-.448 1-1-.448-1-1-1zm-2 6c-.552 0-1 .448-1 1s.448 1 1 1 1-.448 1-1-.448-1-1-1zm8 4c-.552 0-1 .448-1 1s.448 1 1 1 1-.448 1-1-.448-1-1-1z"
    />
  </g>
</svg>