<svg xmlns="http://www.w3.org/2000/svg" version="1.1" width="32" height="32" data-icon="magic-wand" viewBox="0 0 32 32">
  <g>
    <path d="M16.844 0a.5.5 0 0 0-.188.844l4 4a.5.5 0 1 0 .688-.688l-4-4a.5.5 0 0 0-.438-.156.5.5 0 0 0-.063 0zm7.5 0a.5.5 0 0 0-.344.5v2a.5.5 0 1 0 1 0v-2a.5.5 0 0 0-.594-.5.5.5 0 0 0-.063 0zm7 0a.5.5 0 0 0-.188.156l-4 4a.5.5 0 1 0 .688.688l4-4a.5.5 0 0 0-.438-.844.5.5 0 0 0-.063 0zm-7.344 5.25c-.137 0-.306.056-.406.156l-2.281 2.281c-.2.2-.2.519 0 .719l2.281 2.281c.2.2.519.2.719 0l2.281-2.281c.2-.2.2-.519 0-.719l-2.281-2.281c-.05-.1-.175-.156-.313-.156zm-7.656 1.75a.502.502 0 0 0 .156 1h2a.5.5 0 1 0 0-1h-2a.5.5 0 0 0-.094 0 .502.502 0 0 0-.063 0zm13 0a.502.502 0 0 0 .156 1h2a.5.5 0 1 0 0-1h-2a.5.5 0 0 0-.094 0 .502.502 0 0 0-.063 0zm-9.344 2.25c-.15 0-.306.056-.406.156l-19.188 19.188c-.2.2-.2.519 0 .719l2.281 2.281c.2.2.519.2.719 0l19.281-19.188c.2-.2.2-.519 0-.719l-2.281-2.281c-.1-.1-.256-.156-.406-.156zm7.344 1.75a.5.5 0 0 0-.188.844l4 4a.5.5 0 1 0 .688-.688l-4-4a.5.5 0 0 0-.438-.156.5.5 0 0 0-.063 0zm-3 2a.5.5 0 0 0-.344.5v2a.5.5 0 1 0 1 0v-2a.5.5 0 0 0-.594-.5.5.5 0 0 0-.063 0z"
    />
  </g>
</svg>