<svg xmlns="http://www.w3.org/2000/svg" version="1.1" width="32" height="32" data-icon="map" viewBox="0 0 32 32">
  <g>
    <path d="M2 0c-.483 0-1.047.172-1.438.563-.391.391-.563.954-.563 1.438v28c0 .483.172 1.047.563 1.438.391.391.954.563 1.438.563h28c.483 0 1.047-.172 1.438-.563.391-.391.563-.954.563-1.438v-28c0-.483-.172-1.047-.563-1.438-.391-.391-.954-.563-1.438-.563h-28zm1 3h8.313l3 3-2.656 2.656a.507.507 0 1 0 .688.688l2.656-2.656 9.813 9.813-12.5 12.5h-9.313v-26zm9.688 0h4.625l-2.313 2.313-2.313-2.313zm6 0h10.313v9.313l-3.5 3.5-9.813-9.813 3-3zm-6.688 10c-2.2 0-4 1.8-4 4 0 3 4 8 4 8s4-5 4-8c0-2.2-1.8-4-4-4zm17 .688v5.594l-2.813-2.781 2.813-2.813zm-17 1.313c1.1 0 2 .9 2 2s-.9 2-2 2-2-.9-2-2 .9-2 2-2zm13.5 2.188l3.5 3.531v8.281h-15.313l11.813-11.813z"
    />
  </g>
</svg>