<svg xmlns="http://www.w3.org/2000/svg" version="1.1" width="16" height="16" data-icon="map" viewBox="0 0 16 16">
  <g>
    <path d="M1.188 0c-.383 0-.649.149-.844.344-.195.195-.344.46-.344.844v13.625c0 .383.149.649.344.844.195.195.46.344.844.344h13.625c.383 0 .74-.205.938-.469.197-.263.25-.577.25-.844v-13.5c0-.383-.205-.74-.469-.938-.263-.198-.577-.25-.844-.25h-13.5zm.813 2h3.313l6.5 6.5-5.5 5.5h-4.313v-12zm4.688 0h7.313v4.313l-1.5 1.5-5.813-5.813zm-.688 4c-1.1 0-2 .9-2 2 0 1.5 2 4 2 4s2-2.5 2-4c0-1.1-.9-2-2-2zm0 1c.6 0 1 .4 1 1s-.4 1-1 1-1-.4-1-1 .4-1 1-1zm8 .688v1.625l-.813-.813.813-.813zm-1.5 1.5l1.5 1.5v3.313h-6.313l4.813-4.813z"
    />
  </g>
</svg>