<svg xmlns="http://www.w3.org/2000/svg" version="1.1" width="128" height="128" data-icon="medal" data-container-transform="translate(2)" viewBox="0 0 128 128">
  <g transform="translate(2)">
    <path d="M16 0l3.406 6h85.188l3.406-6h-92zm-1.875.25c-.488.162-.963.406-1.313.656l-4.25 3 42.438 74.281c2.134-.879 4.373-1.518 6.719-1.875l-19.656-34.313h-.063l-14.094-24.688-9.781-17.063zm95.75 0l-9.563 16.688c-.023.115-.054.251-.125.375l-33.844 59c2.324.358 4.541 1.004 6.656 1.875l42.438-74.25-4.25-3.031c-.35-.25-.825-.494-1.313-.656zm-104.594 5.969l-4.094 2.875c-.7.5-.9 1.519-.5 2.219l41.531 72.688h.188c1.6-1.5 3.194-2.806 5.094-3.906l-42.219-73.875zm113.406.031l-42.188 73.844c1.8 1.1 3.5 2.406 5 3.906h.344l41.469-72.594c.4-.7.2-1.719-.5-2.219l-4.125-2.938zm-97 3.75l3.438 6h73.75l3.438-6h-80.625zm40.313 70c-13.255 0-24 10.745-24 24s10.745 24 24 24 24-10.745 24-24-10.745-24-24-24z"
    />
  </g>
</svg>