<svg xmlns="http://www.w3.org/2000/svg" version="1.1" width="32" height="32" data-icon="medal" viewBox="0 0 32 32">
  <g>
    <path d="M5 0l3 5h16l3-5h-22zm-1 .063c-.163.05-.306.15-.406.25l-3.188 2.375c-.2.2-.294.519-.094.719l9.781 16.25c1.125-1.246 2.635-2.117 4.313-2.469l-4.313-7.188h-.094l-5.969-9.938h-.031zm23.969 0l-5.969 9.938h-.094l-4.313 7.188c1.677.352 3.188 1.223 4.313 2.469l9.781-16.25c.1-.2.106-.619-.094-.719l-3.188-2.375c-.106-.106-.264-.2-.438-.25zm-11.969 18.938c-3.314 0-6 2.686-6 6s2.686 6 6 6 6-2.686 6-6-2.686-6-6-6z"
    />
  </g>
</svg>