<svg xmlns="http://www.w3.org/2000/svg" version="1.1" width="128" height="128" data-icon="microphone" data-container-transform="translate(33)" viewBox="0 0 128 128">
  <g transform="translate(33)">
    <path d="M31 0c-9.3 0-17 7.7-17 17v37h1c1.3 0 2.413.8 2.813 2h8.281c.5-2.3 2.506-4 4.906-4s4.406 1.7 4.906 4h8.281c.4-1.2 1.513-2 2.813-2h1v-37c0-9.4-7.7-17-17-17zm-4 4c.6 0 1 .4 1 1s-.4 1-1 1-1-.4-1-1 .4-1 1-1zm4 0c.6 0 1 .4 1 1s-.4 1-1 1-1-.4-1-1 .4-1 1-1zm4 0c.6 0 1 .4 1 1s-.4 1-1 1-1-.4-1-1 .4-1 1-1zm-12 4c.6 0 1 .4 1 1s-.4 1-1 1-1-.4-1-1 .4-1 1-1zm4 0c.6 0 1 .4 1 1s-.4 1-1 1-1-.4-1-1 .4-1 1-1zm4 0c.6 0 1 .4 1 1s-.4 1-1 1-1-.4-1-1 .4-1 1-1zm4 0c.6 0 1 .4 1 1s-.4 1-1 1-1-.4-1-1 .4-1 1-1zm4 0c.6 0 1 .4 1 1s-.4 1-1 1-1-.4-1-1 .4-1 1-1zm-20 4c.6 0 1 .4 1 1s-.4 1-1 1-1-.4-1-1 .4-1 1-1zm4 0c.6 0 1 .4 1 1s-.4 1-1 1-1-.4-1-1 .4-1 1-1zm4 0c.6 0 1 .4 1 1s-.4 1-1 1-1-.4-1-1 .4-1 1-1zm4 0c.6 0 1 .4 1 1s-.4 1-1 1-1-.4-1-1 .4-1 1-1zm4 0c.6 0 1 .4 1 1s-.4 1-1 1-1-.4-1-1 .4-1 1-1zm4 0c.6 0 1 .4 1 1s-.4 1-1 1-1-.4-1-1 .4-1 1-1zm4 0c.6 0 1 .4 1 1s-.4 1-1 1-1-.4-1-1 .4-1 1-1zm-24 4c.6 0 1 .4 1 1s-.4 1-1 1-1-.4-1-1 .4-1 1-1zm4 0c.6 0 1 .4 1 1s-.4 1-1 1-1-.4-1-1 .4-1 1-1zm4 0c.6 0 1 .4 1 1s-.4 1-1 1-1-.4-1-1 .4-1 1-1zm4 0c.6 0 1 .4 1 1s-.4 1-1 1-1-.4-1-1 .4-1 1-1zm4 0c.6 0 1 .4 1 1s-.4 1-1 1-1-.4-1-1 .4-1 1-1zm4 0c.6 0 1 .4 1 1s-.4 1-1 1-1-.4-1-1 .4-1 1-1zm4 0c.6 0 1 .4 1 1s-.4 1-1 1-1-.4-1-1 .4-1 1-1zm-24 4c.6 0 1 .4 1 1s-.4 1-1 1-1-.4-1-1 .4-1 1-1zm4 0c.6 0 1 .4 1 1s-.4 1-1 1-1-.4-1-1 .4-1 1-1zm4 0c.6 0 1 .4 1 1s-.4 1-1 1-1-.4-1-1 .4-1 1-1zm4 0c.6 0 1 .4 1 1s-.4 1-1 1-1-.4-1-1 .4-1 1-1zm4 0c.6 0 1 .4 1 1s-.4 1-1 1-1-.4-1-1 .4-1 1-1zm4 0c.6 0 1 .4 1 1s-.4 1-1 1-1-.4-1-1 .4-1 1-1zm4 0c.6 0 1 .4 1 1s-.4 1-1 1-1-.4-1-1 .4-1 1-1zm-24 4c.6 0 1 .4 1 1s-.4 1-1 1-1-.4-1-1 .4-1 1-1zm4 0c.6 0 1 .4 1 1s-.4 1-1 1-1-.4-1-1 .4-1 1-1zm4 0c.6 0 1 .4 1 1s-.4 1-1 1-1-.4-1-1 .4-1 1-1zm4 0c.6 0 1 .4 1 1s-.4 1-1 1-1-.4-1-1 .4-1 1-1zm4 0c.6 0 1 .4 1 1s-.4 1-1 1-1-.4-1-1 .4-1 1-1zm4 0c.6 0 1 .4 1 1s-.4 1-1 1-1-.4-1-1 .4-1 1-1zm4 0c.6 0 1 .4 1 1s-.4 1-1 1-1-.4-1-1 .4-1 1-1zm-24 4c.6 0 1 .4 1 1s-.4 1-1 1-1-.4-1-1 .4-1 1-1zm4 0c.6 0 1 .4 1 1s-.4 1-1 1-1-.4-1-1 .4-1 1-1zm4 0c.6 0 1 .4 1 1s-.4 1-1 1-1-.4-1-1 .4-1 1-1zm4 0c.6 0 1 .4 1 1s-.4 1-1 1-1-.4-1-1 .4-1 1-1zm4 0c.6 0 1 .4 1 1s-.4 1-1 1-1-.4-1-1 .4-1 1-1zm4 0c.6 0 1 .4 1 1s-.4 1-1 1-1-.4-1-1 .4-1 1-1zm4 0c.6 0 1 .4 1 1s-.4 1-1 1-1-.4-1-1 .4-1 1-1zm-24 4c.6 0 1 .4 1 1s-.4 1-1 1-1-.4-1-1 .4-1 1-1zm4 0c.6 0 1 .4 1 1s-.4 1-1 1-1-.4-1-1 .4-1 1-1zm4 0c.6 0 1 .4 1 1s-.4 1-1 1-1-.4-1-1 .4-1 1-1zm4 0c.6 0 1 .4 1 1s-.4 1-1 1-1-.4-1-1 .4-1 1-1zm4 0c.6 0 1 .4 1 1s-.4 1-1 1-1-.4-1-1 .4-1 1-1zm4 0c.6 0 1 .4 1 1s-.4 1-1 1-1-.4-1-1 .4-1 1-1zm4 0c.6 0 1 .4 1 1s-.4 1-1 1-1-.4-1-1 .4-1 1-1zm-24 4c.6 0 1 .4 1 1s-.4 1-1 1-1-.4-1-1 .4-1 1-1zm4 0c.6 0 1 .4 1 1s-.4 1-1 1-1-.4-1-1 .4-1 1-1zm4 0c.6 0 1 .4 1 1s-.4 1-1 1-1-.4-1-1 .4-1 1-1zm4 0c.6 0 1 .4 1 1s-.4 1-1 1-1-.4-1-1 .4-1 1-1zm4 0c.6 0 1 .4 1 1s-.4 1-1 1-1-.4-1-1 .4-1 1-1zm4 0c.6 0 1 .4 1 1s-.4 1-1 1-1-.4-1-1 .4-1 1-1zm4 0c.6 0 1 .4 1 1s-.4 1-1 1-1-.4-1-1 .4-1 1-1zm-24 4c.6 0 1 .4 1 1s-.4 1-1 1-1-.4-1-1 .4-1 1-1zm4 0c.6 0 1 .4 1 1s-.4 1-1 1-1-.4-1-1 .4-1 1-1zm4 0c.6 0 1 .4 1 1s-.4 1-1 1-1-.4-1-1 .4-1 1-1zm4 0c.6 0 1 .4 1 1s-.4 1-1 1-1-.4-1-1 .4-1 1-1zm4 0c.6 0 1 .4 1 1s-.4 1-1 1-1-.4-1-1 .4-1 1-1zm4 0c.6 0 1 .4 1 1s-.4 1-1 1-1-.4-1-1 .4-1 1-1zm4 0c.6 0 1 .4 1 1s-.4 1-1 1-1-.4-1-1 .4-1 1-1zm-24 4c.6 0 1 .4 1 1s-.4 1-1 1-1-.4-1-1 .4-1 1-1zm4 0c.6 0 1 .4 1 1s-.4 1-1 1-1-.4-1-1 .4-1 1-1zm4 0c.6 0 1 .4 1 1s-.4 1-1 1-1-.4-1-1 .4-1 1-1zm4 0c.6 0 1 .4 1 1s-.4 1-1 1-1-.4-1-1 .4-1 1-1zm4 0c.6 0 1 .4 1 1s-.4 1-1 1-1-.4-1-1 .4-1 1-1zm4 0c.6 0 1 .4 1 1s-.4 1-1 1-1-.4-1-1 .4-1 1-1zm4 0c.6 0 1 .4 1 1s-.4 1-1 1-1-.4-1-1 .4-1 1-1zm-24 4c.6 0 1 .4 1 1s-.4 1-1 1-1-.4-1-1 .4-1 1-1zm4 0c.6 0 1 .4 1 1s-.4 1-1 1-1-.4-1-1 .4-1 1-1zm4 0c.6 0 1 .4 1 1s-.4 1-1 1-1-.4-1-1 .4-1 1-1zm4 0c.6 0 1 .4 1 1s-.4 1-1 1-1-.4-1-1 .4-1 1-1zm4 0c.6 0 1 .4 1 1s-.4 1-1 1-1-.4-1-1 .4-1 1-1zm4 0c.6 0 1 .4 1 1s-.4 1-1 1-1-.4-1-1 .4-1 1-1zm4 0c.6 0 1 .4 1 1s-.4 1-1 1-1-.4-1-1 .4-1 1-1zm-35 6v2h-1c-.6 0-1 .4-1 1s.4 1 1 1h1v2h2v12.5c0 10.8 9 19.5 20 19.5v2h-2v28c0 1.1-.9 2-2 2h-22c-2.2 0-4 1.8-4 4h62c0-2.2-1.8-4-4-4h-22c-1.1 0-2-.9-2-2v-28h-2v-2c11 0 20-8.7 20-19.5v-12.5h2v-2h1c.6 0 1-.4 1-1s-.4-1-1-1h-1v-2h-4v2h-3c-.6 0-1 .4-1 1s.4 1 1 1h3v14.5c0 9.6-8.1 17.5-18 17.5h-2c-9.9 0-18-7.9-18-17.5v-14.5h3c.6 0 1-.4 1-1s-.4-1-1-1h-3v-2h-4zm23 0c-1.657 0-3 1.343-3 3s1.343 3 3 3 3-1.343 3-3-1.343-3-3-3zm-13.188 4c-.4 1.2-1.512 2-2.813 2h-1v11c0 9.3 7.7 17 17 17s17-7.7 17-17v-11h-1c-1.3 0-2.413-.8-2.813-2h-8.281c-.5 2.3-2.506 4-4.906 4s-4.406-1.7-4.906-4h-8.281zm13.188 22c.6 0 1 .4 1 1s-.4 1-1 1-1-.4-1-1 .4-1 1-1z"
    />
  </g>
</svg>