<svg xmlns="http://www.w3.org/2000/svg" version="1.1" width="32" height="32" data-icon="microphone" data-container-transform="translate(8)" viewBox="0 0 32 32">
  <g transform="translate(8)">
    <path d="M8 0c-2.8 0-5 2.2-5 5v10h10v-10c0-2.8-2.2-5-5-5zm0 2c.6 0 1 .4 1 1s-.4 1-1 1-1-.4-1-1 .4-1 1-1zm-2 4c.6 0 1 .4 1 1s-.4 1-1 1-1-.4-1-1 .4-1 1-1zm4 0c.6 0 1 .4 1 1s-.4 1-1 1-1-.4-1-1 .4-1 1-1zm-4 4c.6 0 1 .4 1 1s-.4 1-1 1-1-.4-1-1 .4-1 1-1zm4 0c.6 0 1 .4 1 1s-.4 1-1 1-1-.4-1-1 .4-1 1-1zm5.344 4a.5.5 0 0 0-.344.5v2.5c0 3.824-3.176 7-7 7s-7-3.176-7-7v-1.594a.5.5 0 1 0-1 0v1.594c0 4.037 3.086 7.435 7 7.938v5.063h-4c-1.1 0-2 .9-2 2h14c0-1.1-.9-2-2-2h-4v-5.063c3.914-.502 7-3.9 7-7.938v-2.5a.5.5 0 0 0-.594-.5.5.5 0 0 0-.063 0zm-12.344 2v1c0 2.8 2.2 5 5 5s5-2.2 5-5v-1h-10z"
    />
  </g>
</svg>