<svg xmlns="http://www.w3.org/2000/svg" version="1.1" width="128" height="128" data-icon="monitor" data-container-transform="translate(0 9)" viewBox="0 0 128 128">
  <g transform="translate(0 9)">
    <path d="M1.813 0a2 2 0 0 0-1.813 2v80a2 2 0 0 0 2 2h124a2 2 0 0 0 2-2v-80a2 2 0 0 0-2-2h-124a2 2 0 0 0-.188 0zm2.188 4h120v76h-120v-76zm50 82l-1.5 16c-.3 2.2-2.3 4-4.5 4h-8c-2.2 0-4 1.8-4 4h56c0-2.2-1.8-4-4-4h-7.906c-2.2 0-4.294-1.8-4.594-4l-1.5-16h-4c0 3.3-2.7 6-6 6s-6-2.7-6-6h-4z"
    />
  </g>
</svg>