<svg xmlns="http://www.w3.org/2000/svg" version="1.1" width="32" height="32" data-icon="move" viewBox="0 0 32 32">
  <g>
    <path d="M15.5.25c-.1 0-.213.056-.313.156l-3.875 5.188c-.2.2-.113.406.188.406h2.5v8h-8v-2.5c0-.3-.206-.387-.406-.188l-5.188 3.875c-.2.2-.2.425 0 .625l5.188 3.875c.2.2.406.113.406-.188v-2.5h8v8h-2.5c-.3 0-.387.206-.188.406l3.875 5.188c.2.2.425.2.625 0l3.875-5.188c.2-.2.113-.406-.188-.406h-2.5v-8h8v2.5c0 .3.206.387.406.188l5.188-3.875c.2-.2.2-.425 0-.625l-5.188-3.875c-.2-.2-.406-.113-.406.188v2.5h-8v-8h2.5c.3 0 .387-.206.188-.406l-3.875-5.188c-.1-.1-.213-.156-.313-.156z"
    />
  </g>
</svg>