<svg xmlns="http://www.w3.org/2000/svg" version="1.1" width="32" height="32" data-icon="paperclip" data-container-transform="translate(1)" viewBox="0 0 32 32">
  <g transform="translate(1)">
    <path d="M23.938-.094c-1.286 0-2.547.516-3.531 1.5h-.031l-18.281 18.688c-2.689 2.689-2.696 7.126-.031 9.906l.094.063c2.698 2.72 7.101 2.597 9.844-.031v-.031l10.5-10.5.719-.688-1.406-1.438-.719.719-10.5 10.469c-2.03 1.945-5.153 2.024-7.063.031-1.935-2.019-1.942-5.183-.031-7.094l18.313-18.688c1.232-1.232 3.05-1.232 4.281 0 1.232 1.232 1.232 3.05 0 4.281l-18.406 18.594c-.446.446-.929.446-1.375 0-.446-.446-.446-.929 0-1.375l.094-.094 10.406-10.406.688-.719-1.406-1.406-.688.719-10.5 10.5c-1.154 1.154-1.154 3.034 0 4.188s3.034 1.154 4.188 0h.031l18.375-18.594c1.968-1.968 1.968-5.125 0-7.094-.984-.984-2.276-1.5-3.563-1.5z"
    />
  </g>
</svg>