<svg xmlns="http://www.w3.org/2000/svg" version="1.1" width="16" height="16" data-icon="paperclip" data-container-transform="translate(1)" viewBox="0 0 16 16">
  <g transform="translate(1)">
    <path d="M10.906.094c-.757-.011-1.479.273-2.031.875l-.031-.031-7.5 7.406c-1.784 1.784-1.784 4.622 0 6.406 1.784 1.784 4.622 1.784 6.406 0l4.5-4.5.344-.344-.688-.719-.375.344-4.5 4.5c-1.416 1.416-3.553 1.416-4.969 0-1.416-1.416-1.416-3.553 0-4.969l7.5-7.406v-.031c.692-.769 1.996-.704 2.813.031.781.703.78 1.97-.031 2.781l-7.5 7.406c-.223.223-.464.223-.688 0-.223-.223-.223-.464 0-.688l4.5-4.5.344-.344-.688-.719-.375.344-4.5 4.5c-.577.577-.577 1.548 0 2.125s1.548.577 2.125 0l7.5-7.406c1.189-1.189 1.188-3.122-.031-4.219-.592-.533-1.36-.832-2.125-.844z"
    />
  </g>
</svg>