<svg xmlns="http://www.w3.org/2000/svg" version="1.1" width="128" height="128" data-icon="paperclip" data-container-transform="translate(5)" viewBox="0 0 128 128">
  <g transform="translate(5)">
    <path d="M97.688.063c-4.862 0-9.695 1.861-13.375 5.531h-.031l-76.406 76.281c-10.543 10.543-10.562 27.707 0 38.156l.25.219c10.555 10.189 27.496 10.222 37.875-.25h.031l40.5-40.469 2.125-2.125-4.25-4.25-2.125 2.125-40.5 40.5c-8.143 8.231-21.398 8.17-29.656 0-8.238-8.151-8.257-21.4 0-29.656l76.406-76.313c5.037-5.037 13.307-5.037 18.344 0 5.037 5.037 5.037 13.338 0 18.375l-76.406 76.281c-1.937 1.937-5.126 1.937-7.063 0-1.93-1.93-1.917-5.093 0-7.031v-.031l40.625-40.469 2.125-2.125-4.25-4.25-2.125 2.125-40.594 40.5c-4.263 4.263-4.263 11.268 0 15.531s11.268 4.263 15.531 0l76.406-76.281v-.031c7.363-7.363 7.363-19.449 0-26.813-3.682-3.682-8.568-5.531-13.438-5.531z"
    />
  </g>
</svg>