<svg xmlns="http://www.w3.org/2000/svg" version="1.1" width="128" height="128" data-icon="pencil" viewBox="0 0 128 128">
  <g>
    <path d="M112 1.188c-.674 0-1.341.266-1.906.75l-6.094 6.125 15.969 15.969.125-.125 5.813-5.813c1.05-.962 1.162-2.536.375-3.719l-.125-.125-12.5-12.531h-.031c-.499-.337-1.063-.531-1.625-.531zm-10 8.813l-1.969 2 15.969 15.969 2-1.969-16-16zm-4 4l-82.313 82.313c.1.1.219.175.219.375l1.781 5.5 5.5 1.813c.3.1.525.294.625.594l1.781 5.5 5.5 1.813c.2.1.306.088.406.188l82.5-82.094-7.313-7.313-77 77c-.2.2-.488.313-.688.313-.2 0-.488-.112-.688-.313-.4-.4-.4-.975 0-1.375l77-77-7.313-7.313zm-83.5 84.406l-8.5 17.594 6.313 6.313 17.594-8.5-5.219-1.906c-.3-.1-.494-.294-.594-.594l-1.781-5.5-5.5-1.813c-.3-.1-.525-.294-.625-.594l-1.688-5zm-9.906 20.188l-4.594 9.406 9.406-4.594-4.813-4.813z"
    />
  </g>
</svg>