<svg xmlns="http://www.w3.org/2000/svg" version="1.1" width="32" height="32" data-icon="people" data-container-transform="translate(0 8)" viewBox="0 0 32 32">
  <g transform="translate(0 8)">
    <path d="M16 0c-2.2 0-4 1.7-4 4.5s1.8 5.5 4 5.5 4-2.7 4-5.5-1.8-4.5-4-4.5zm-9 1c-1.9 0-3.5 1.688-3.5 4.188s1.6 4.813 3.5 4.813 3.5-2.313 3.5-4.813c0-2.4-1.6-4.188-3.5-4.188zm18 0c-1.9 0-3.5 1.688-3.5 4.188s1.6 4.813 3.5 4.813 3.5-2.313 3.5-4.813c0-2.4-1.6-4.188-3.5-4.188zm-21.5 8c-1.9 0-3.5 1.6-3.5 3.5v1c0 .3.2.5.5.5h6c.3 0 .5-.2.5-.5v-.5c0-.5.112-1.094.313-1.594.1-.3.1-.506 0-.406h-.219c-1.2 0-2.294-.594-3.094-1.594l-.406-.406h-.094zm8.5 0c-2.2 0-4 1.8-4 4v1.5c0 .3.2.5.5.5h15c.3 0 .5-.2.5-.5v-1.5c0-2.2-1.8-4-4-4h-.188c-.1 0-.4.206-.5.406-.8 1-1.919 1.594-3.219 1.594-1.3 0-2.387-.594-3.188-1.594-.3-.2-.519-.406-.719-.406h-.188zm16.406 0l-.406.406c-.8 1-1.894 1.594-3.094 1.594h-.219c-.1 0-.1.206 0 .406.2.5.313.994.313 1.594v.5c0 .3.2.5.5.5h6c.3 0 .5-.2.5-.5v-1c0-1.9-1.594-3.5-3.594-3.5z"
    />
  </g>
</svg>