<svg xmlns="http://www.w3.org/2000/svg" version="1.1" width="128" height="128" data-icon="people" data-container-transform="translate(0 35)" viewBox="0 0 128 128">
  <g transform="translate(0 35)">
    <path d="M64 0c-8.8 0-16 8-16 19s7.2 21 16 21 16-10 16-21-7.2-19-16-19zm-36 10c-6.6 0-12 5.7-12 14s5.4 16 12 16 12-7.7 12-16-5.4-14-12-14zm72 0c-6.6 0-12 5.606-12 13.906s5.4 16.094 12 16.094 12-7.794 12-16.094-5.4-13.906-12-13.906zm-52 26c-8.8 0-16 7.2-16 16v4.5c0 .8.7 1.5 1.5 1.5h61c.8 0 1.5-.7 1.5-1.5v-4.5c0-8.8-7.2-16-16-16h-2.5c-.8 0-1.9.494-2.5 1.094-3.1 3.1-6.9 4.906-11 4.906s-7.9-1.806-11-4.906c-.6-.6-1.7-1.094-2.5-1.094h-2.5zm-34 2c-7.7 0-14 6.3-14 14v2.5c0 .8.7 1.5 1.5 1.5h27c.8 0 1.5-.7 1.5-1.5v-2.5c0-4.5 1.706-8.712 4.406-11.813.5-.6.481-.587-.219-.188-1.9 1.3-3.981 2-6.281 2-2.8 0-5.394-1.1-7.594-3-.6-.5-1.825-1-2.625-1h-3.688zm96.094 0c-.8 0-1.994.5-2.594 1-2.2 1.9-4.794 3-7.594 3-2.3 0-4.5-.788-6.5-2.188-.7-.5-.694-.506-.094.094 2.9 3.2 4.594 7.4 4.594 12v2.5c0 .8.7 1.5 1.5 1.5h27c.8 0 1.5-.7 1.5-1.5v-2.406c0-7.7-6.3-14-14-14h-3.813z"
    />
  </g>
</svg>