<svg xmlns="http://www.w3.org/2000/svg" version="1.1" width="128" height="128" data-icon="power-standby" data-container-transform="translate(8 1)" viewBox="0 0 128 128">
  <g transform="translate(8 1)">
    <path d="M52 0v40h8v-40h-8zm-12.531 16.469c-1.781.524-3.481 1.087-5.281 1.875h-.031l-.063.031c-1.5.7-3.065 1.416-4.688 2.281-1.687.9-3.163 1.881-4.563 2.781l-.188.125c-1.511.986-2.915 2.058-4.25 3.188-1.377 1.165-2.659 2.346-3.938 3.625-1.279 1.279-2.46 2.56-3.625 3.938-1.177 1.391-2.293 2.851-3.313 4.438l-.219.344c-.87 1.369-1.734 2.785-2.5 4.125-.912 1.596-1.65 3.219-2.375 4.875l-.031.094-.063.094c-.6 1.6-1.205 3.286-1.75 5.031-.494 1.579-1.021 3.373-1.375 5.281l-.063.219h.031c-.438 1.939-.685 3.79-.875 5.406-.22 1.872-.313 3.833-.313 5.781 0 1.948.118 3.822.219 5.531v.219c.218 1.962.544 3.737.844 5.438l.031.125v.094c.408 1.734.846 3.421 1.375 5.219.524 1.781 1.087 3.481 1.875 5.281v.031l.031.063c.7 1.5 1.416 3.065 2.281 4.688l.063.094c.884 1.644 1.838 3.098 2.719 4.469 1.012 1.574 2.114 3.025 3.281 4.406l.031.031c1.165 1.377 2.346 2.659 3.625 3.938 1.268 1.268 2.542 2.438 3.906 3.594l.031.031c1.391 1.177 2.851 2.293 4.438 3.313 1.371.881 2.825 1.835 4.469 2.719l.094.063c1.45.827 3.082 1.699 4.969 2.406 1.562.586 3.207 1.214 4.906 1.75l.125.031c1.579.494 3.373.99 5.281 1.344v.031l.219.031c1.939.438 3.79.654 5.406.844 1.872.22 3.833.313 5.781.313 1.938 0 3.888-.095 5.75-.313h.031c1.807-.201 3.646-.409 5.625-.875 1.734-.408 3.421-.846 5.219-1.375h.031c1.732-.51 3.527-1.058 5.344-1.906 1.5-.7 3.065-1.416 4.688-2.281 1.687-.9 3.162-1.881 4.563-2.781 1.586-1.02 3.046-2.135 4.438-3.313 1.377-1.165 2.659-2.346 3.938-3.625 1.279-1.279 2.46-2.56 3.625-3.938l.031-.031c1.167-1.381 2.27-2.833 3.281-4.406.881-1.371 1.835-2.825 2.719-4.469l.063-.094c.827-1.45 1.699-3.082 2.406-4.969.6-1.6 1.236-3.286 1.781-5.031.559-1.79.975-3.581 1.375-5.281v-.031c.471-2.012.678-3.921.875-5.594.22-1.872.313-3.833.313-5.781 0-1.938-.095-3.888-.313-5.75v-.031c-.218-1.949-.545-3.716-.844-5.406l-.031-.125v-.094c-.396-1.681-.825-3.448-1.375-5.219v-.063h-.031c-.507-1.721-1.033-3.508-1.875-5.313-.7-1.5-1.416-3.065-2.281-4.688-.881-1.652-1.835-3.094-2.719-4.469l-.063-.094c-1.012-1.574-2.114-3.025-3.281-4.406l-.031-.031c-1.165-1.377-2.346-2.659-3.625-3.938-1.279-1.279-2.56-2.46-3.938-3.625-1.391-1.177-2.851-2.293-4.438-3.313-1.473-.947-3.015-1.888-4.469-2.719-1.596-.912-3.219-1.65-4.875-2.375l-.094-.063-.094-.031c-1.6-.6-3.286-1.236-5.031-1.781l-2.375 7.656c1.384.433 2.859.963 4.375 1.531l.219.094c1.447.638 2.764 1.285 3.906 1.938 1.347.769 2.798 1.616 4.125 2.469 1.214.78 2.385 1.665 3.594 2.688 1.223 1.035 2.316 2.066 3.438 3.188 1.121 1.121 2.153 2.215 3.188 3.438 1.023 1.209 1.907 2.38 2.688 3.594.9 1.4 1.737 2.719 2.438 4.031l.031.063c.722 1.359 1.373 2.772 2.063 4.25.548 1.174 1.012 2.559 1.5 4.219v.062c.441 1.41.819 3.019 1.219 4.719.285 1.618.545 3.184.719 4.75.18 1.528.281 3.192.281 4.844 0 1.652-.101 3.315-.281 4.844-.202 1.718-.395 3.373-.719 4.75-.4 1.7-.778 3.309-1.219 4.719-.455 1.455-1.025 2.994-1.625 4.594-.478 1.275-1.178 2.577-1.938 3.906v.063l-.031.031c-.7 1.313-1.537 2.631-2.438 4.031-.78 1.214-1.665 2.385-2.688 3.594-1.035 1.223-2.066 2.316-3.188 3.438l-.063.063c-1.1 1.097-2.175 2.11-3.375 3.125-1.209 1.023-2.38 1.907-3.594 2.688-1.4.9-2.719 1.737-4.031 2.438-1.378.735-2.813 1.394-4.313 2.094-1.174.548-2.559 1.012-4.219 1.5-1.602.471-3.115.827-4.781 1.219-1.411.332-2.966.521-4.75.719-1.528.18-3.192.281-4.844.281-1.652 0-3.315-.101-4.844-.281-1.718-.202-3.373-.395-4.75-.719h-.094l-.125-.031c-1.4-.247-2.945-.702-4.5-1.188-1.455-.455-2.994-1.025-4.594-1.625-1.275-.478-2.577-1.178-3.906-1.938h-.063l-.031-.031c-1.313-.7-2.631-1.537-4.031-2.438-1.214-.78-2.385-1.665-3.594-2.688-1.223-1.035-2.316-2.066-3.438-3.188-1.121-1.121-2.153-2.215-3.188-3.438-1.013-1.197-1.882-2.362-2.656-3.563l-.031-.031c-.9-1.4-1.737-2.719-2.438-4.031-.72-1.35-1.378-2.752-2.063-4.219l-.031-.094c-.592-1.366-1.034-2.635-1.5-4.219-.471-1.602-.827-3.115-1.219-4.781-.285-1.618-.545-3.184-.719-4.75-.095-1.62-.188-3.263-.188-4.844 0-1.652.101-3.315.281-4.844.202-1.718.395-3.373.719-4.75l.031-.094v-.125c.237-1.341.663-2.825 1.125-4.313l.063-.188c.433-1.384.963-2.859 1.531-4.375l.063-.125.031-.094c.638-1.447 1.285-2.764 1.938-3.906l.094-.188c.744-1.296 1.559-2.668 2.375-3.938.78-1.214 1.696-2.385 2.719-3.594.986-1.165 1.941-2.214 3-3.281l.156-.156c1.121-1.121 2.246-2.153 3.469-3.188 1.209-1.023 2.349-1.907 3.563-2.688 1.4-.9 2.719-1.737 4.031-2.438l.156-.063c1.305-.69 2.648-1.34 4.063-2l.094-.031c1.366-.592 2.635-1.034 4.219-1.5l-2.25-7.656z"
    />
  </g>
</svg>