<svg xmlns="http://www.w3.org/2000/svg" version="1.1" width="32" height="32" data-icon="power-standby" data-container-transform="translate(2)" viewBox="0 0 32 32">
  <g transform="translate(2)">
    <path d="M12 0v12h3v-12h-3zm-3.781 5.031c-1.59.682-3.053 1.678-4.281 2.906-1.196 1.196-2.248 2.588-2.938 4.313-.664 1.66-1 3.374-1 5.25s.34 3.667 1.031 5.281c.682 1.59 1.678 3.053 2.906 4.281 1.196 1.196 2.588 2.248 4.313 2.938 1.66.664 3.374 1 5.25 1s3.667-.34 5.281-1.031c1.59-.682 3.053-1.678 4.281-2.906 1.229-1.229 2.225-2.691 2.906-4.281h.031v-.031c.664-1.66 1-3.374 1-5.25s-.34-3.667-1.031-5.281c-.682-1.59-1.678-3.053-2.906-4.281-1.261-1.261-2.711-2.137-4.188-2.875l-1.344 2.688c1.323.662 2.467 1.373 3.406 2.313.971.971 1.763 2.134 2.281 3.344.508 1.186.781 2.57.781 4.094 0 1.501-.261 2.775-.781 4.094-.518 1.21-1.31 2.372-2.281 3.344-.971.971-2.134 1.763-3.344 2.281-1.186.508-2.57.781-4.094.781-1.524 0-2.816-.245-4.156-.781-1.276-.51-2.278-1.278-3.281-2.281-.971-.971-1.763-2.134-2.281-3.344-.508-1.186-.781-2.57-.781-4.094 0-1.524.245-2.816.781-4.156.51-1.276 1.278-2.278 2.281-3.281.971-.971 2.134-1.763 3.344-2.281l-1.188-2.75z"
    />
  </g>
</svg>