<svg xmlns="http://www.w3.org/2000/svg" version="1.1" width="32" height="32" data-icon="rainy" data-container-transform="translate(0 2)" viewBox="0 0 32 32">
  <g transform="translate(0 2)">
    <path d="M14 0c-4.7 0-8.6 3.4-9 8-2.9.9-5 3.8-5 7 0 3.5 2.6 6.5 6 7h1v-.5c0-1.4 1.1-2.5 2.5-2.5.2 0 .4-.006.5.094.2-1.2 1.2-2.094 2.5-2.094s2.2.894 2.5 2.094c.2 0 .4-.094.5-.094.1 0 .4-.006.5.094.2-1.2 1.2-2.094 2.5-2.094s2.2.894 2.5 2.094c.2 0 .4-.094.5-.094 1.4 0 2.5 1.1 2.5 2.5v.5h3c2.8 0 5-2.2 5-5s-2.2-5-5-5c-.4-2-2.1-3.506-4-3.906-.5-4.5-4.3-8.094-9-8.094zm-1.656 19a.5.5 0 0 0-.344.5v8a.5.5 0 1 0 1 0v-8a.5.5 0 0 0-.594-.5.5.5 0 0 0-.063 0zm6 0a.5.5 0 0 0-.344.5v8a.5.5 0 1 0 1 0v-8a.5.5 0 0 0-.594-.5.5.5 0 0 0-.063 0zm-9 2a.5.5 0 0 0-.344.5v5a.5.5 0 1 0 1 0v-5a.5.5 0 0 0-.594-.5.5.5 0 0 0-.063 0zm6 0a.5.5 0 0 0-.344.5v5a.5.5 0 1 0 1 0v-5a.5.5 0 0 0-.594-.5.5.5 0 0 0-.063 0zm6 0a.5.5 0 0 0-.344.5v5a.5.5 0 1 0 1 0v-5a.5.5 0 0 0-.594-.5.5.5 0 0 0-.063 0z"
    />
  </g>
</svg>