<svg xmlns="http://www.w3.org/2000/svg" version="1.1" width="128" height="128" data-icon="rainy" data-container-transform="translate(0 7)" viewBox="0 0 128 128">
  <g transform="translate(0 7)">
    <path d="M56 0c-18.8 0-34.4 14.6-36 33-11.6 3-20 13.5-20 26 0 14.6 11.6 26.5 26 27h4v-2c0-4.4 3.6-8 8-8 1.5 0 2.8.394 4 1.094v-1.094c0-4.4 3.6-8 8-8s8 3.6 8 8v1.094c1.2-.7 2.5-1.094 4-1.094s2.8.394 4 1.094v-1.094c0-4.4 3.6-8 8-8s8 3.6 8 8v.313c.6-.2 1.3-.313 2-.313 4.4 0 8 3.6 8 8v2h18c9.9 0 18-8.1 18-18s-8.1-18-18-18c-.7 0-1.3-.1-2 0-.9-8.4-7.6-15.1-16-16-1-19-16.8-34-36-34zm-6.219 73.969a2 2 0 0 0-1.781 2.031v36a2 2 0 1 0 4 0v-36a2 2 0 0 0-2.031-2.031 2 2 0 0 0-.188 0zm24 0a2 2 0 0 0-1.781 2.031v36a2 2 0 1 0 4 0v-36a2 2 0 0 0-2.031-2.031 2 2 0 0 0-.188 0zm-36 8a2 2 0 0 0-1.781 2.031v22a2 2 0 1 0 4 0v-22a2 2 0 0 0-2.031-2.031 2 2 0 0 0-.188 0zm24 0a2 2 0 0 0-1.781 2.031v24a2 2 0 1 0 4 0v-24a2 2 0 0 0-2.031-2.031 2 2 0 0 0-.188 0zm22 0a2 2 0 0 0-1.781 2.031v22a2 2 0 1 0 4 0v-22a2 2 0 0 0-2.031-2.031 2 2 0 0 0-.188 0z"
    />
  </g>
</svg>