<svg xmlns="http://www.w3.org/2000/svg" version="1.1" width="128" height="128" data-icon="random" data-container-transform="translate(0 15)" viewBox="0 0 128 128">
  <g transform="translate(0 15)">
    <path d="M104.594 4.625c-.347.061-.594.375-.594.875v8.5h-13c-3.112 0-5.716 1.06-7.938 3.281l-22.906 22.906 5.656 5.656 22.906-22.906c.179-.179 1.993-.938 2.281-.938h13v8.5c0 .8.612 1.188 1.313.688l21.375-12.5c.7-.4.7-1 0-1.5l-21.375-12.375c-.263-.15-.511-.224-.719-.188zm-104.594 9.375v8h21c.288 0 2.103.759 2.281.938l59.781 59.781c2.221 2.221 4.826 3.281 7.938 3.281h13v8.406c0 .8.612 1.188 1.313.688l21.375-12.5c.7-.3.7-.906 0-1.406l-21.375-12.5c-.7-.4-1.313-.081-1.313.719v8.594h-13c-.288 0-2.103-.759-2.281-.938l-59.781-59.781c-2.221-2.221-4.826-3.281-7.938-3.281h-21zm46.188 40.188l-22.906 22.875c-.179.179-1.993.938-2.281.938h-21v8h21c3.096 0 5.692-1.051 7.906-3.25l.031-.031 22.875-22.906-5.625-5.625z"
    />
  </g>
</svg>