<svg xmlns="http://www.w3.org/2000/svg" version="1.1" width="16" height="16" data-icon="random" data-container-transform="translate(0 1)" viewBox="0 0 16 16">
  <g transform="translate(0 1)">
    <path d="M13 0v2h-2c-.744 0-1.158.252-1.594.688l-1.375 1.344 1.406 1.406 1.375-1.344c-.036.036.332-.094.188-.094h2v2l3-3-3-3zm-13 2v2h2c-.144 0 .223.129.188.094l7.219 7.219c.436.436.849.688 1.594.688h2v2l2-2 1-1-1-1-2-2v2h-2c.144 0-.223-.129-.188-.094l-.063-.063-7.156-7.156c-.436-.436-.849-.688-1.594-.688h-2zm3.531 6.531l-1.438 1.438-.094.031h-2v2h2c.372 0 .645-.092.875-.188.23-.096.339-.121.625-.406l1.438-1.469-1.406-1.406z"
    />
  </g>
</svg>