<svg xmlns="http://www.w3.org/2000/svg" version="1.1" width="32" height="32" data-icon="reload" viewBox="0 0 32 32">
  <g>
    <path d="M16.563 0c-.565-.023-1.12-.006-1.688.031-1.513.099-3.033.415-4.5.969-5.447 2.001-9.472 7.036-10.25 12.813-.771 5.839 1.748 11.753 6.594 15.188l.031.031c4.885 3.532 11.465 3.846 16.75 1.094 5.198-2.765 8.5-8.259 8.5-14.125h-3c0 4.734-2.705 9.234-6.906 11.469-4.302 2.241-9.714 1.97-13.625-.875v-.031c-3.931-2.769-6.002-7.629-5.375-12.375.622-4.623 3.96-8.776 8.313-10.375h.031c4.734-1.786 10.127-.533 13.719 2.969l2.094-2.156c-2.893-2.821-6.735-4.461-10.688-4.625zm12.281 3.188l-.156.125-5.281 5.281c-.2.2-.206.406.094.406l6 .906c.3.1.5-.1.5-.5l-.906-6c0-.15-.109-.266-.25-.219z"
    />
  </g>
</svg>