<svg xmlns="http://www.w3.org/2000/svg" version="1.1" width="128" height="128" data-icon="reload" viewBox="0 0 128 128">
  <g>
    <path d="M63.281-.031c-4.749.038-9.521.628-14.219 1.75-23.393 5.661-42.113 24.456-47.469 47.969v.031c-5.434 23.603 3.299 48.79 22.281 64.063v.031h.031c19.246 15.597 46.464 18.58 68.688 7.469 21.474-10.79 35.406-33.229 35.406-57.281h-8c0 20.947-12.274 40.715-31 50.125-19.369 9.684-43.34 7.058-60.094-6.531-16.585-13.324-24.248-35.52-19.5-56.094 4.653-20.474 21.134-37.064 41.531-42 18.276-4.364 37.979.962 51.656 13.875l-7.594 7.625c-.6.6-.394 1.206.406 1.406l25.094 5.281c.8.1 1.294-.481 1.094-1.281l-5.406-24.906c-.2-.8-.775-1.006-1.375-.406l-6.594 6.625c-11.664-11.091-27.098-17.336-42.906-17.719-.677-.016-1.353-.037-2.031-.031z"
    />
  </g>
</svg>