<svg xmlns="http://www.w3.org/2000/svg" version="1.1" width="16" height="16" data-icon="reload" viewBox="0 0 16 16">
  <g>
    <path d="M16 0l-2.344 2.344c-1.369-1.338-3.159-2.095-4.969-2.25-1.838-.157-3.694.28-5.25 1.375l-.156.125c-2.953 2.192-4.054 6.13-2.594 9.5 1.49 3.553 5.367 5.485 9.125 4.688 3.575-.807 6.188-4.102 6.188-7.781h-2c0 2.711-1.983 5.208-4.594 5.813h-.031c-2.832.586-5.738-.863-6.844-3.5-1.113-2.568-.291-5.553 2.031-7.188 2.271-1.598 5.605-1.348 7.656.656l-2.219 2.219h6v-6z"
    />
  </g>
</svg>