<svg xmlns="http://www.w3.org/2000/svg" version="1.1" width="128" height="128" data-icon="screwdriver" viewBox="0 0 128 128">
  <g>
    <path d="M124 0l-14.094 8.094-2 8-54.906 54.906-5-5-2 2v2l-2 2h-4l-36 36c-2.5 2.1-4 5.194-4 8.594 0 6.3 5.112 11.313 11.313 11.313 3.5.1 6.587-1.506 8.688-3.906l36-36v-4l2-2h2l2-2-5-5 54.906-54.906 8-2 8.094-14.094-4-4zm-83 76c.25 0 .487.112.688.313.4.4.4.975 0 1.375l-34 34c-.4.4-.975.4-1.375 0-.2-.2-.313-.388-.313-.688 0-.3.112-.487.313-.688l34-34c.2-.2.438-.313.688-.313zm4 6c.25 0 .487.112.688.313.4.4.4.975 0 1.375l-34 34c-.4.4-.975.4-1.375 0-.2-.2-.313-.487-.313-.688 0-.2.113-.487.313-.688l34-34c.2-.2.438-.313.688-.313zm6 4c.25 0 .487.112.688.313.4.4.4.975 0 1.375l-34 34c-.4.4-.975.4-1.375 0-.2-.2-.313-.487-.313-.688 0-.2.113-.487.313-.688l34-34c.2-.2.438-.313.688-.313z"
    />
  </g>
</svg>