<svg xmlns="http://www.w3.org/2000/svg" version="1.1" width="32" height="32" data-icon="settings" data-container-transform="translate(2)" viewBox="0 0 32 32">
  <g transform="translate(2)">
    <path d="M3.156 0a1.5 1.5 0 0 0-1.156 1.5v3.781c.476-.176.975-.281 1.5-.281.534 0 1.027.114 1.5.281v-3.781a1.5 1.5 0 0 0-1.219-1.5h-.625zm10 0a1.5 1.5 0 0 0-1.156 1.5v17.781c.473-.168.966-.281 1.5-.281s1.027.114 1.5.281v-17.781a1.5 1.5 0 0 0-1.219-1.5h-.625zm10 0a1.5 1.5 0 0 0-1.156 1.5v3.781c.473-.168.966-.281 1.5-.281.525 0 1.024.105 1.5.281v-3.781a1.5 1.5 0 0 0-1.219-1.5h-.625zm-19.656 6c-1.9 0-3.5 1.6-3.5 3.5s1.6 3.5 3.5 3.5 3.5-1.6 3.5-3.5-1.6-3.5-3.5-3.5zm20 0c-1.9 0-3.5 1.6-3.5 3.5s1.6 3.5 3.5 3.5 3.5-1.6 3.5-3.5-1.6-3.5-3.5-3.5zm-21.5 7.719v16.781a1.5 1.5 0 0 0 1.219 1.5h.594a1.5 1.5 0 0 0 1.188-1.5v-16.781c-.473.168-.966.281-1.5.281-.525 0-1.024-.105-1.5-.281zm20 0v16.781a1.5 1.5 0 0 0 1.219 1.5h.594a1.5 1.5 0 0 0 1.188-1.5v-16.781c-.476.176-.975.281-1.5.281-.534 0-1.027-.114-1.5-.281zm-8.5 6.281c-1.9 0-3.5 1.6-3.5 3.5s1.6 3.5 3.5 3.5 3.5-1.6 3.5-3.5-1.6-3.5-3.5-3.5zm-1.5 7.719v2.781a1.5 1.5 0 0 0 1.219 1.5h.594a1.5 1.5 0 0 0 1.188-1.5v-2.781c-.473.168-.966.281-1.5.281s-1.027-.114-1.5-.281z"
    />
  </g>
</svg>