<svg xmlns="http://www.w3.org/2000/svg" version="1.1" width="16" height="16" data-icon="settings" viewBox="0 0 16 16">
  <g>
    <path d="M1.781 0a1 1 0 0 0-.781 1v1.188c.306-.109.646-.188 1-.188.353 0 .689.052 1 .156v-1.156a1 1 0 0 0-.688-1h-.531zm6 0a1 1 0 0 0-.781 1v7.156c.311-.104.647-.156 1-.156s.689.052 1 .156v-7.156a1 1 0 0 0-.688-1h-.531zm6 0a1 1 0 0 0-.781 1v1.156c.311-.104.647-.156 1-.156.354 0 .694.079 1 .188v-1.188a1 1 0 0 0-.688-1h-.531zm-11.781 3c-1.105 0-2 .895-2 2s.895 2 2 2 2-.895 2-2-.895-2-2-2zm12 0c-1.105 0-2 .895-2 2s.895 2 2 2 2-.895 2-2-.895-2-2-2zm-13 4.813v7.188a1 1 0 0 0 .813 1h.406a1 1 0 0 0 .781-1v-7.156c-.311.104-.647.156-1 .156-.354 0-.694-.079-1-.188zm14 0c-.306.109-.646.188-1 .188-.353 0-.689-.052-1-.156v7.156a1 1 0 0 0 .813 1h.406a1 1 0 0 0 .781-1v-7.188zm-7 1.188c-1.105 0-2 .895-2 2s.895 2 2 2 2-.895 2-2-.895-2-2-2zm-1 4.844v1.156a1 1 0 0 0 .813 1h.406a1 1 0 0 0 .781-1v-1.156c-.311.104-.647.156-1 .156s-.689-.052-1-.156z"
    />
  </g>
</svg>