<svg xmlns="http://www.w3.org/2000/svg" version="1.1" width="128" height="128" data-icon="settings" data-container-transform="translate(9)" viewBox="0 0 128 128">
  <g transform="translate(9)">
    <path d="M13.344 0a4 4 0 0 0-3.344 4v18.5c1.281-.329 2.622-.5 4-.5 1.382 0 2.719.198 4 .531v-18.531a4 4 0 0 0-3.25-4h-1.406zm40 0a4 4 0 0 0-3.344 4v74.531c1.281-.333 2.618-.531 4-.531 1.382 0 2.719.198 4 .531v-74.531a4 4 0 0 0-3.25-4h-1.406zm40 0a4 4 0 0 0-3.344 4v22.313c1.279-.324 2.616-.5 4-.5 1.377 0 2.721.172 4 .5v-22.313a4 4 0 0 0-3.25-4h-1.406zm-79.344 24c-7.7 0-14 6.3-14 14s6.3 14 14 14 14-6.3 14-14-6.3-14-14-14zm80 4c-7.7 0-14 6.3-14 14s6.3 14 14 14 14-6.3 14-14-6.3-14-14-14zm-76 25.469c-1.281.333-2.618.531-4 .531-1.378 0-2.719-.171-4-.5v70.5a4 4 0 0 0 3.25 4h1.406a4 4 0 0 0 3.344-4v-70.531zm72 4.219v66.313a4 4 0 0 0 3.25 4h1.406a4 4 0 0 0 3.344-4v-66.313c-1.281.325-2.621.5-4 .5-1.384 0-2.721-.176-4-.5zm-36 22.313c-7.7 0-14 6.3-14 14s6.3 14 14 14 14-6.3 14-14-6.3-14-14-14zm-4 29.469v14.531a4 4 0 0 0 3.25 4h1.406a4 4 0 0 0 3.344-4v-14.531c-1.281.333-2.618.531-4 .531-1.382 0-2.719-.198-4-.531z"
    />
  </g>
</svg>