<svg xmlns="http://www.w3.org/2000/svg" version="1.1" width="128" height="128" data-icon="shield" viewBox="0 0 128 128">
  <g>
    <path d="M64 .031l-1.094.313-60 17.125-2.906.813v3.031c0 39.292 10.985 65.979 24.469 82.844 13.484 16.865 28.97 24.031 39.531 24.031 10.554 0 26.046-7.146 39.531-24s24.469-43.534 24.469-82.875v-3.031l-2.906-.813-60-17.125-1.094-.313zm0 8.313l55.906 15.969c-.557 36.11-10.724 60.001-22.625 74.875-12.24 15.296-26.735 21-33.281 21-6.538 0-21.04-5.721-33.281-21.031-11.903-14.887-22.069-38.78-22.625-74.844l55.906-15.969zm0 4.156v103.688c5 0 17.787-4.1 30.188-19.5 9.3-11.7 20.619-33.075 21.719-69.375l-51.906-14.813z"
    />
  </g>
</svg>