<svg xmlns="http://www.w3.org/2000/svg" version="1.1" width="128" height="128" data-icon="sun" viewBox="0 0 128 128">
  <g>
    <path d="M63.781-.031a2 2 0 0 0-1.781 2.031v20a2 2 0 1 0 4 0v-20a2 2 0 0 0-2.031-2.031 2 2 0 0 0-.188 0zm21.594 10.281a2 2 0 0 0-.219.031 2 2 0 0 0-1.594 1.25l-3.813 9.219a2 2 0 1 0 3.688 1.5l3.813-9.188a2 2 0 0 0-1.875-2.813zm-43 .031a2 2 0 0 0-1.625 2.781l3.813 9.188a2 2 0 1 0 3.688-1.5l-3.813-9.219a2 2 0 0 0-2.063-1.25zm65.438 7.875a2 2 0 0 0-.25.031 2 2 0 0 0-1.188.594l-14.094 14.094a2.011 2.011 0 0 0 2.844 2.844l14.094-14.094a2 2 0 0 0-1.406-3.469zm-87.844.031a2 2 0 0 0-1.188 3.438l14.094 14.094a2.011 2.011 0 0 0 2.844-2.844l-14.094-14.094a2 2 0 0 0-1.656-.594zm44.031 11.813c-18.7 0-34 15.3-34 34s15.3 34 34 34 34-15.3 34-34-15.3-34-34-34zm51.656 10.563a2 2 0 0 0-.188.031 2 2 0 0 0-.531.156l-9.188 3.813a2 2 0 1 0 1.5 3.688l9.219-3.813a2 2 0 0 0-.813-3.875zm-103.563.031a2 2 0 0 0-.563 3.844l9.219 3.813a2 2 0 1 0 1.5-3.688l-9.188-3.813a2 2 0 0 0-.969-.156zm-10.281 21.406a2.002 2.002 0 1 0 .188 4h20a2 2 0 1 0 0-4h-20a2 2 0 0 0-.188 0zm104 0a2.002 2.002 0 1 0 .188 4h20a2 2 0 1 0 0-4h-20a2 2 0 0 0-.188 0zm-84.375 17.563a2 2 0 0 0-.188.031 2 2 0 0 0-.5.156l-9.219 3.813a2 2 0 1 0 1.531 3.688l9.188-3.813a2 2 0 0 0-.813-3.875zm84.844.031a2 2 0 0 0-.531 3.844l9.188 3.813a2 2 0 1 0 1.531-3.688l-9.219-3.813a2 2 0 0 0-.969-.156zm-71.969 12.063a2 2 0 0 0-.25.031 2 2 0 0 0-1.188.594l-14.094 14.094a2.011 2.011 0 0 0 2.844 2.844l14.094-14.094a2 2 0 0 0-1.406-3.469zm59.156.031a2 2 0 0 0-1.188 3.438l14.094 14.094a2.011 2.011 0 0 0 2.844-2.844l-14.094-14.094a2 2 0 0 0-1.656-.594zm-29.688 12.281a2 2 0 0 0-1.781 2.031v20a2 2 0 1 0 4 0v-20a2 2 0 0 0-2.031-2.031 2 2 0 0 0-.188 0zm-17.594.5a2 2 0 0 0-1.625 1.281l-3.813 9.188a2 2 0 1 0 3.688 1.531l3.813-9.219a2 2 0 0 0-1.875-2.781 2 2 0 0 0-.188 0zm35.188 0a2 2 0 0 0-1.625 2.781l3.813 9.219a2 2 0 1 0 3.688-1.531l-3.813-9.188a2 2 0 0 0-1.875-1.281 2 2 0 0 0-.188 0z"
    />
  </g>
</svg>