<svg xmlns="http://www.w3.org/2000/svg" version="1.1" width="32" height="32" data-icon="sun" viewBox="0 0 32 32">
  <g>
    <path d="M15.906-.031a1 1 0 0 0-.125.031 1 1 0 0 0-.781 1v3a1 1 0 1 0 2 0v-3a1 1 0 0 0-1.094-1.031zm-10.625 4.406a1 1 0 0 0-.594 1.719l2.094 2.125a1.016 1.016 0 1 0 1.438-1.438l-2.125-2.094a1 1 0 0 0-.719-.313 1 1 0 0 0-.094 0zm21.219 0a1 1 0 0 0-.594.313l-2.125 2.094a1.016 1.016 0 1 0 1.438 1.438l2.094-2.125a1 1 0 0 0-.719-1.719 1 1 0 0 0-.094 0zm-10.5 3.625c-4.4 0-8 3.6-8 8s3.6 8 8 8 8-3.6 8-8-3.6-8-8-8zm-15.188 7a1.001 1.001 0 0 0 .188 2h3a1 1 0 1 0 0-2h-3a1 1 0 0 0-.094 0 1.001 1.001 0 0 0-.094 0zm27 0a1.001 1.001 0 0 0 .188 2h3a1 1 0 1 0 0-2h-3a1 1 0 0 0-.094 0 1.001 1.001 0 0 0-.094 0zm-3.406 8.469a1 1 0 0 0-.125.031 1 1 0 0 0-.5 1.719l2.125 2.094a1 1 0 1 0 1.406-1.406l-2.094-2.125a1 1 0 0 0-.813-.313zm-17.031.031a1 1 0 0 0-.594.281l-2.094 2.125a1 1 0 1 0 1.406 1.406l2.125-2.094a1 1 0 0 0-.844-1.719zm8.531 3.469a1 1 0 0 0-.125.031 1 1 0 0 0-.781 1v3a1 1 0 1 0 2 0v-3a1 1 0 0 0-1.094-1.031z"
    />
  </g>
</svg>