<svg xmlns="http://www.w3.org/2000/svg" version="1.1" width="32" height="32" data-icon="tags" data-container-transform="translate(0 3)" viewBox="0 0 32 32">
  <g transform="translate(0 3)">
    <path d="M.5 0c-.3 0-.5.2-.5.5v9c0 .3.206.713.406.813l16.281 15.281c.2.2.519.2.719 0l9.281-9.281c.131-.131.165-.308.125-.469l-16.563-15.594c-.215-.103-.506-.25-.75-.25h-9zm11.5 0l17 16-8.5 8.5 1.188 1.094c.15.15.384.2.563.125l.156-.125 9.281-9.281c.131-.131.165-.308.125-.469l-16.563-15.594c-.215-.103-.506-.25-.75-.25h-2.5zm-6 4c1.1 0 2 .9 2 2s-.9 2-2 2-2-.9-2-2 .9-2 2-2z"
    />
  </g>
</svg>