<svg xmlns="http://www.w3.org/2000/svg" version="1.1" width="128" height="128" data-icon="tags" data-container-transform="translate(4 13)" viewBox="0 0 128 128">
  <g transform="translate(4 13)">
    <path d="M1.5 0c-.8 0-1.5.7-1.5 1.5v33c0 .8.494 2 1.094 2.5l32.906 31 32.906 31 .25.188c.483.316 1.092.338 1.594.063l.094-.063 34.406-34.438c.268-.479.251-1.037-.063-1.5l-.031-.063-66.063-62.188-.125-.094c-.628-.468-1.717-.906-2.469-.906h-33zm38.5 0l68 64-30.188 30.188 5.094 4.813c.496.496 1.253.575 1.844.25l.094-.063 34.406-34.438c.268-.479.251-1.037-.063-1.5l-.031-.063-66.063-62.188-.156-.125c-.633-.526-1.697-.875-2.438-.875h-10.5zm-18 16c3.3 0 6 2.7 6 6s-2.7 6-6 6-6-2.7-6-6 2.7-6 6-6z"
    />
  </g>
</svg>