<svg xmlns="http://www.w3.org/2000/svg" version="1.1" width="128" height="128" data-icon="task" data-container-transform="translate(0 34)" viewBox="0 0 128 128">
  <g transform="translate(0 34)">
    <path d="M58.781 1.281l-31.063 30.969-12.969-13.156-5.688 5.625 15.781 16 2.844 2.844 2.844-2.844 33.906-33.781-5.656-5.656zm-55.281 2.719c-1.967 0-3.5 1.533-3.5 3.5v49c0 1.967 1.533 3.5 3.5 3.5h49c1.967 0 3.5-1.533 3.5-3.5v-36.406l-4 4v31.906h-48v-48h43.188l4-4h-47.688zm64.5 12v4h60v-4h-60zm0 12v4h50v-4h-50zm0 12v4h54v-4h-54z"
    />
  </g>
</svg>