<svg xmlns="http://www.w3.org/2000/svg" version="1.1" width="128" height="128" data-icon="thermometer" data-container-transform="translate(42)" viewBox="0 0 128 128">
  <g transform="translate(42)">
    <path d="M22 0c-4.945 0-9 4.055-9 9v77.063c-7.611 3.411-13 10.991-13 19.938 0 12.14 9.86 22 22 22s22-9.86 22-22c0-8.946-5.389-16.527-13-19.938v-10.875a1 1 0 0 0 0-.406v-11.594a1 1 0 0 0 0-.406v-11.594a1 1 0 0 0 0-.406v-11.594a1 1 0 0 0 0-.406v-11.594a1 1 0 0 0 0-.406v-11.594a1 1 0 0 0 0-.406v-5.781c0-4.945-4.055-9-9-9zm0 2c3.855 0 7 3.145 7 7v5h-1a1 1 0 0 0-.094 0 1.001 1.001 0 0 0 .094 2h1v10h-1a1 1 0 0 0-.094 0 1.001 1.001 0 0 0 .094 2h1v10h-1a1 1 0 0 0-.094 0 1.001 1.001 0 0 0 .094 2h1v10h-1a1 1 0 0 0-.094 0 1.001 1.001 0 0 0 .094 2h1v10h-1a1 1 0 0 0-.094 0 1.001 1.001 0 0 0 .094 2h1v10h-1a1 1 0 0 0-.094 0 1.001 1.001 0 0 0 .094 2h1v11.282l.625.25c7.231 2.95 12.375 10.078 12.375 18.469 0 11.06-8.94 20-20 20s-20-8.94-20-20c0-8.391 5.144-15.519 12.375-18.469l.625-.25v-78.282c0-3.855 3.145-7 7-7zm-.031 3.938a3 3 0 0 0-.313.031 3 3 0 0 0-2.656 3.031v81.281c-7.398 1.408-13 7.911-13 15.719 0 8.837 7.163 16 16 16s16-7.163 16-16c0-7.808-5.602-14.311-13-15.719v-81.281a3 3 0 0 0-3.031-3.063z"
    />
  </g>
</svg>