<svg xmlns="http://www.w3.org/2000/svg" version="1.1" width="16" height="16" data-icon="thermometer" data-container-transform="translate(4)" viewBox="0 0 16 16">
  <g transform="translate(4)">
    <path d="M4 0c-1.662 0-3 1.338-3 3v6.469c-.594.684-1 1.576-1 2.531 0 2.181 1.819 4 4 4s4-1.819 4-4c0-1.029-.421-1.872-1-2.531v-6.469c0-1.662-1.338-3-3-3zm0 1c1.138 0 2 .862 2 2v6.813000000000001l.156.156c.521.521.844 1.165.844 2.031 0 1.619-1.381 3-3 3s-3-1.381-3-3c0-.752.342-1.529.844-2.031l.156-.156v-6.813000000000001c0-1.138.862-2 2-2zm-.094.969a1 1 0 0 0-.125.031 1 1 0 0 0-.781 1v7.281c-.597.346-1 .979-1 1.719 0 1.105.895 2 2 2s2-.895 2-2c0-.74-.403-1.373-1-1.719v-7.281a1 1 0 0 0-1.094-1.031z"
    />
  </g>
</svg>