<svg xmlns="http://www.w3.org/2000/svg" version="1.1" width="32" height="32" data-icon="thermometer" data-container-transform="translate(9)" viewBox="0 0 32 32">
  <g transform="translate(9)">
    <path d="M7 0c-2.181 0-4 1.819-4 4v15.313c-1.785 1.301-3 3.325-3 5.688 0 3.869 3.131 7 7 7s7-3.131 7-7c0-2.362-1.215-4.386-3-5.688v-15.313c0-2.181-1.819-4-4-4zm0 1c1.619 0 3 1.381 3 3v15.781l.219.125c1.672 1.115 2.781 2.968 2.781 5.094 0 3.331-2.669 6-6 6s-6-2.669-6-6c0-2.126 1.109-3.979 2.781-5.094l.219-.125v-15.781c0-1.619 1.381-3 3-3zm-.094 1.969a1 1 0 0 0-.125.031 1 1 0 0 0-.781 1v17.156c-1.724.445-3 1.981-3 3.844 0 2.209 1.791 4 4 4s4-1.791 4-4c0-1.863-1.276-3.399-3-3.844v-17.156a1 1 0 0 0-1.094-1.031z"
    />
  </g>
</svg>