<svg xmlns="http://www.w3.org/2000/svg" version="1.1" width="128" height="128" data-icon="timer" data-container-transform="translate(6)" viewBox="0 0 128 128">
  <g transform="translate(6)">
    <path d="M48 0v2h20v-2h-20zm4 4v8.313c-29.183 3.004-52 27.723-52 57.688 0 31.985 26.015 58 58 58s58-26.015 58-58c0-29.965-22.817-54.683-52-57.688v-8.313h-12zm6 16c27.662 0 50 22.338 50 50s-22.338 50-50 50-50-22.338-50-50 22.338-50 50-50zm32 20s-34.487 21.212-37.688 24.313c-3.1 3.1-3.1 8.181 0 11.281 3.1 3.1 8.181 3.1 11.281 0 3.2-3.1 26.406-35.594 26.406-35.594zm-32 26c2.2 0 4 1.8 4 4s-1.8 4-4 4-4-1.8-4-4 1.8-4 4-4z"
    />
  </g>
</svg>