<svg xmlns="http://www.w3.org/2000/svg" version="1.1" width="16" height="16" data-icon="timer" data-container-transform="translate(1)" viewBox="0 0 16 16">
  <g transform="translate(1)">
    <path d="M5 0v1h1v1.094c-3.383.489-6 3.392-6 6.906 0 3.854 3.146 7 7 7s7-3.146 7-7c0-1.502-.47-2.889-1.281-4.031l-1.313 1.688c.371.7.594 1.492.594 2.344 0 2.773-2.227 5-5 5s-5-2.227-5-5 2.227-5 5-5c.867 0 1.666.241 2.375.625l1.688-1.313c-.893-.643-1.929-1.056-3.063-1.219v-1.094h1v-1h-4zm8 3l-6.688 5.313c-.4.4-.4.975 0 1.375s.975.4 1.375 0l5.313-6.688z"
    />
  </g>
</svg>