<svg xmlns="http://www.w3.org/2000/svg" version="1.1" width="128" height="128" data-icon="tint" data-container-transform="translate(16)" viewBox="0 0 128 128">
  <g transform="translate(16)">
    <path d="M48 0s-48 43.4-48 80c0 32 22.8 48 48 48s48-16 48-48c0-36.6-48-80-48-80zm-35.094 84.938c1.881.03 3.556 1.325 3.906 3.25 1.8 9.5 6.8 16.313 15 20.313 2.5 1.2 5.194 2.088 8.094 2.688 2.1.4 3.5 2.519 3 4.719-.4 1.9-2.106 3.188-3.906 3.188-.3 0-.513.006-.813-.094-3.6-.7-6.9-1.813-10-3.313-10.4-5-17.081-14-19.281-26-.4-2.2.988-4.287 3.188-4.688.275-.05.544-.067.813-.063z"
    />
  </g>
</svg>