<svg xmlns="http://www.w3.org/2000/svg" version="1.1" width="128" height="128" data-icon="tools" viewBox="0 0 128 128">
  <g>
    <path d="M4 0l-4 4 8.094 14.094 8 2 54.906 54.906-5 5 2 2h2l2 2v4l36 36c2.1 2.5 5.194 4 8.594 4 6.3 0 11.313-5.112 11.313-11.313.1-3.5-1.506-6.588-3.906-8.688l-36-36h-4l-2-2v-2l-2-2-5 5-54.906-54.906-2-8-14.094-8.094zm64 0c28 12.1 19.9 24.1 16 28l-21.406 21.406c-.247.128-.481.294-.688.5-.558.558-1.382 1.194-2.25 1.75l8.563 8.563c.263-.425.531-.849.813-1.219l.219-.25 22.75-22.75c5.9-5.9 7.9-6.1 12-2s0 6 4 10l3 3 .594.594c.2.2.519.2.719 0l15.281-15.281c.2-.1.2-.519 0-.719l-1.281-1.281-2.406-2.406-10-4-6-12c-11.9-11.9-15.906-11.906-39.906-11.906zm-19.75 56.281c-.9.561-1.744 1.212-2.344 1.813l-43.813 43.813c-1.2 1.2-1.481 3.281-.781 4.781l9.281 18.625c.7 1.5 2.1 1.588 3 .188l4.719-7.094c.9-1.4 2.581-3.394 3.781-4.594l39.719-39.719c.613-.613 1.255-1.484 1.813-2.406l-15.375-15.406zm38.75 19.719c.25 0 .487.112.688.313l34 34c.4.4.4.975 0 1.375-.2.2-.487.313-.688.313-.2 0-.487-.112-.688-.313l-34-34c-.4-.4-.4-.975 0-1.375.2-.2.438-.313.688-.313zm-4 6c.25 0 .487.112.688.313l34 34c.4.4.4.975 0 1.375-.2.2-.487.313-.688.313-.2 0-.487-.112-.688-.313l-34-34c-.4-.4-.4-.975 0-1.375.2-.2.438-.313.688-.313zm-6 4c.25 0 .487.112.688.313l34 34c.4.4.4.975 0 1.375-.2.2-.487.313-.688.313-.2 0-.487-.112-.688-.313l-34-34c-.4-.4-.4-.975 0-1.375.2-.2.438-.313.688-.313z"
    />
  </g>
</svg>