<svg xmlns="http://www.w3.org/2000/svg" version="1.1" width="32" height="32" data-icon="tools" viewBox="0 0 32 32">
  <g>
    <path d="M1 0l-1 1 2 3 2 1 14 14-1 1 1 1v1l9 9c.5.6 1.288 1 2.188 1 1.6 0 2.813-1.313 2.813-2.813 0-.9-.4-1.688-1-2.188l-9-9h-1l-1-1-1 1-14-14-1-2-3-2zm16 0c7 3 5 6 4 7l-5.5 5.5 2.063 2.063.25-.25.094-.188v-.031l5.094-5.094c1-1 2-1 3 0l1 2 1 1 4-4-1-1-2-1-1-2-1-1c-2.625-2.625-3.717-2.959-7.969-3h-2.031zm-5.5 14.5l-11.094 11.094c-.2.2-.294.613-.094.813l2.594 5.094c.1.2.3.3.5 0l1.5-2.188.594-.813 10-10-4-4z"
    />
  </g>
</svg>