<svg xmlns="http://www.w3.org/2000/svg" version="1.1" width="128" height="128" data-icon="trash" data-container-transform="translate(10)" viewBox="0 0 128 128">
  <g transform="translate(10)">
    <path d="M44 0c-2.21 0-4 1.79-4 4v4h-18c-1.1 0-2 .9-2 2h-16c-2.2 0-4 1.8-4 4v4h108v-4c0-2.2-1.8-4-4-4h-16.001c0-1.1-.9-2-2-2h-18v-4c0-2.21-1.79-4-4-4h-20zm0 2h20c1.19 0 2 .81 2 2v4h-24v-4c0-1.19.81-2 2-2zm-36 18v105c0 1.7 1.3 3 3 3h86c1.7 0 3-1.3 3-3v-105h-12v93c0 1.1-.9 2-2 2s-2-.9-2-2v-93h-12v93c0 1.1-.9 2-2 2s-2-.9-2-2v-93h-12v93c0 1.1-.9 2-2 2s-2-.9-2-2v-93h-12v93c0 1.1-.9 2-2 2s-2-.9-2-2v-93h-12v93c0 1.1-.9 2-2 2s-2-.9-2-2v-93h-12z"
    />
  </g>
</svg>