<svg xmlns="http://www.w3.org/2000/svg" version="1.1" width="16" height="16" data-icon="trash" viewBox="0 0 16 16">
  <g>
    <path d="M5.688.094c-.217 0-.353.103-.469.219-.116.116-.219.283-.219.5v1.188h-3c-1.1 0-2 .9-2 2h15c0-1.1-.9-2-2-2h-3.094v-1.188c0-.217-.103-.384-.219-.5-.116-.116-.283-.219-.5-.219h-3.5zm.313 1h2.906v.906h-2.906v-.906zm-4 3.906v10.5c0 .3.2.5.5.5h10c.3 0 .5-.2.5-.5v-10.5h-2v8.5c0 .3-.2.5-.5.5s-.5-.2-.5-.5v-8.5h-2v8.5c0 .3-.2.5-.5.5s-.5-.2-.5-.5v-8.5h-2v8.5c0 .3-.2.5-.5.5s-.5-.2-.5-.5v-8.5h-2z"
    />
  </g>
</svg>