<svg xmlns="http://www.w3.org/2000/svg" version="1.1" width="32" height="32" data-icon="trash" data-container-transform="translate(1)" viewBox="0 0 32 32">
  <g transform="translate(1)">
    <path d="M12 0c-.261 0-.53.093-.719.281-.189.189-.281.458-.281.719v1h-4c-.6 0-1 .4-1 1h-3c-1.7 0-3 1.3-3 3h29c0-1.7-1.3-3-3-3h-3c0-.6-.4-1-1-1h-4v-1c0-.261-.093-.53-.281-.719-.189-.189-.458-.281-.719-.281h-5zm0 1h5v1h-5v-1zm-9 6v24c0 .6.4 1 1 1h21c.6 0 1-.4 1-1v-24h-3v21.5c0 .3-.2.5-.5.5s-.5-.2-.5-.5v-21.5h-3v21.5c0 .3-.2.5-.5.5s-.5-.2-.5-.5v-21.5h-3v21.5c0 .3-.2.5-.5.5s-.5-.2-.5-.5v-21.5h-3v21.5c0 .3-.2.5-.5.5s-.5-.2-.5-.5v-21.5h-3v21.5c0 .3-.2.5-.5.5s-.5-.2-.5-.5v-21.5h-3z"
    />
  </g>
</svg>