<svg xmlns="http://www.w3.org/2000/svg" version="1.1" width="16" height="16" data-icon="wifi" data-container-transform="translate(0 3)" viewBox="0 0 16 16">
  <g transform="translate(0 3)">
    <path d="M8 0c-2.767 0-5.232 1.122-7.094 2.875l1.375 1.469c1.538-1.447 3.485-2.344 5.719-2.344 2.233 0 4.181.896 5.719 2.344l1.375-1.469c-1.862-1.753-4.327-2.875-7.094-2.875zm0 4c-1.686 0-3.162.724-4.219 1.781l1.438 1.438c.743-.743 1.667-1.219 2.781-1.219s2.038.476 2.781 1.219l1.438-1.438c-1.057-1.057-2.533-1.781-4.219-1.781zm0 4c-.6 0-1.106.194-1.406.594l1.406 1.406 1.406-1.406c-.3-.4-.806-.594-1.406-.594z"
    />
  </g>
</svg>