<svg xmlns="http://www.w3.org/2000/svg" version="1.1" width="32" height="32" data-icon="wifi" data-container-transform="translate(0 5)" viewBox="0 0 32 32">
  <g transform="translate(0 5)">
    <path d="M16 0c-6.29 0-11.954 2.468-16.031 6.438l2.063 2.125c3.523-3.43 8.459-5.563 13.969-5.563s10.446 2.132 13.969 5.563l2.063-2.125c-4.077-3.97-9.741-6.438-16.031-6.438zm0 6c-4.49 0-8.668 1.762-11.656 4.75l2.125 2.125c2.412-2.412 5.821-3.875 9.531-3.875 3.71 0 7.148 1.456 9.563 3.781l2.063-2.156c-2.985-2.874-7.135-4.625-11.625-4.625zm0 6c-2.735 0-5.28 1.155-7.063 2.938l2.125 2.125c1.217-1.217 3.072-2.063 4.938-2.063 1.865 0 3.72.845 4.938 2.063l2.125-2.125c-1.783-1.783-4.328-2.938-7.063-2.938zm0 6c-1.1 0-2.113.488-2.813 1.188l2.813 2.813 2.813-2.813c-.7-.8-1.712-1.188-2.813-1.188z"
    />
  </g>
</svg>