<svg xmlns="http://www.w3.org/2000/svg" version="1.1" width="128" height="128" data-icon="wifi" data-container-transform="translate(0 20)" viewBox="0 0 128 128">
  <g transform="translate(0 20)">
    <path d="M64 0c-24.28 0-46.299 9.862-62.219 25.781l5.656 5.656c14.48-14.48 34.443-23.438 56.563-23.438 22.12 0 42.082 8.957 56.563 23.438l5.656-5.656c-15.92-15.92-37.938-25.781-62.219-25.781zm0 24c-17.676 0-33.723 7.148-45.25 18.781l5.688 5.625c10.073-10.167 24.039-16.406 39.563-16.406 15.524 0 29.489 6.24 39.563 16.406l5.688-5.625c-11.527-11.633-27.574-18.781-45.25-18.781zm0 24c-10.977 0-21.002 4.456-28.313 11.656l5.625 5.688c5.889-5.8 13.865-9.344 22.688-9.344 8.823 0 16.798 3.544 22.688 9.344l5.625-5.688c-7.311-7.2-17.335-11.656-28.313-11.656zm0 24c-4.4 0-8.413 1.787-11.313 4.688l11.313 11.313 11.313-11.313c-2.9-2.9-6.912-4.688-11.313-4.688z"
    />
  </g>
</svg>