<svg xmlns="http://www.w3.org/2000/svg" version="1.1" width="32" height="32" data-icon="wrench" viewBox="0 0 32 32">
  <g>
    <path d="M24.5 0c-4.1 0-7.5 3.4-7.5 7.5 0 2.2-.913 4.1-2.313 5.5l-13.781 13.906c-1.2 1.2-1.2 3.087 0 4.188.6.6 1.294.906 2.094.906.8 0 1.494-.306 2.094-.906l13.906-13.781c1.4-1.4 3.3-2.313 5.5-2.313 4.1 0 7.5-3.4 7.5-7.5 0-.8-.113-1.487-.313-2.188l-3.688 3.688h-5v-5l3.688-3.688c-.7-.2-1.387-.313-2.188-.313zm-21.5 27.5c.8 0 1.5.7 1.5 1.5s-.7 1.5-1.5 1.5-1.5-.7-1.5-1.5.7-1.5 1.5-1.5z"
    />
  </g>
</svg>