<svg xmlns="http://www.w3.org/2000/svg" version="1.1" width="128" height="128" data-icon="wrench" viewBox="0 0 128 128">
  <g>
    <path d="M103 0c-13.5 0-24.5 10.6-25 24 0 8.8-3.606 16.794-9.406 22.594l-66 66c-3.5 3.5-3.5 9.219 0 12.719 1.8 1.8 4.106 2.594 6.406 2.594s4.606-.894 6.406-2.594l66-66c5.8-5.7 13.794-9.313 22.594-9.313 13.4-.5 24-11.5 24-25 0-1.6-.206-3.094-.406-4.594l-9.594 9.594h-20v-20l9.594-9.594c-1.5-.3-2.994-.406-4.594-.406zm-94 114c2.8 0 5 2.2 5 5s-2.2 5-5 5-5-2.2-5-5 2.2-5 5-5z"
    />
  </g>
</svg>