<svg version="1.1" xmlns="http://www.w3.org/2000/svg" data-icon="euro" width="128" height="128" class="iconic iconic-euro" viewBox="0 0 128 128">
  <g class="iconic-metadata">
    <title>Euro</title>
  </g>
  <defs>
    <clipPath id="iconic-size-lg-euro-clip-0">
      <path d="M6 64l4-16h102l-13.3 40-92.7-8 4-16z" />
    </clipPath>
    <clipPath id="iconic-size-lg-euro-clip-1">
      <path d="M120 96h-24l32-96h-104v128h96z" />
    </clipPath>
    <clipPath id="iconic-size-md-euro-clip-0">
      <path d="M24.7 22l3.3-10h-26l-1 4h1.5l-.5 1-1 4z" />
    </clipPath>
    <clipPath id="iconic-size-md-euro-clip-1">
      <path d="M30 24h-6l8-24h-26v32h24z" />
    </clipPath>
    <clipPath id="iconic-size-sm-euro-clip-0">
      <path d="M12.3 11l1.7-5h-13.5l-.5 2h.7l-.7 3z" />
    </clipPath>
    <clipPath id="iconic-size-sm-euro-clip-1">
      <path d="M15 12h-3l4-12h-13v16h12z" />
    </clipPath>
  </defs>
  <g data-width="152" data-height="128" class="iconic-container iconic-lg" display="inline" transform="translate(-12)">
    <path clip-path="url(#iconic-size-lg-euro-clip-0)" stroke="#000" stroke-width="8" stroke-miterlimit="10" class="iconic-euro-strike iconic-euro-strike-bottom iconic-property-accent iconic-property-stroke" d="M0 76h104" fill="none" />
    <path clip-path="url(#iconic-size-lg-euro-clip-0)" stroke="#000" stroke-width="8" stroke-miterlimit="10" class="iconic-euro-strike iconic-euro-strike-top iconic-property-accent iconic-property-stroke" d="M112 60h-112" fill="none" />
    <path clip-path="url(#iconic-size-lg-euro-clip-1)" stroke="#000" stroke-width="12" stroke-miterlimit="10" d="M146 64c0 32-26 58-58 58s-58-26-58-58 26-58 58-58 58 23.2 58 58z" class="iconic-euro-e iconic-property-stroke" fill="none" />
  </g>
  <g data-width="38" data-height="32" class="iconic-container iconic-md" display="none" transform="scale(4) translate(-3)">
    <path clip-path="url(#iconic-size-md-euro-clip-0)" stroke="#000" stroke-width="3" stroke-miterlimit="10" class="iconic-euro-strike iconic-euro-strike-bottom iconic-property-accent iconic-property-stroke" d="M0 19.5h26" fill="none" />
    <path clip-path="url(#iconic-size-md-euro-clip-0)" stroke="#000" stroke-width="3" stroke-miterlimit="10" class="iconic-euro-strike iconic-euro-strike-top iconic-property-accent iconic-property-stroke" d="M28 14.5h-28" fill="none" />
    <circle clip-path="url(#iconic-size-md-euro-clip-1)" stroke="#000" stroke-width="4" stroke-miterlimit="10" cx="22" cy="16" r="14" class="iconic-euro-e iconic-property-stroke" fill="none" />
  </g>
  <g data-width="19" data-height="16" class="iconic-container iconic-sm" display="none" transform="scale(8) translate(-2)">
    <path clip-path="url(#iconic-size-sm-euro-clip-0)" stroke="#000" stroke-width="2" stroke-miterlimit="10" class="iconic-euro-strike iconic-euro-strike-bottom iconic-property-accent iconic-property-stroke" d="M0 10h13" fill="none" />
    <path clip-path="url(#iconic-size-sm-euro-clip-0)" stroke="#000" stroke-width="2" stroke-miterlimit="10" class="iconic-euro-strike iconic-euro-strike-top iconic-property-accent iconic-property-stroke" d="M14 7h-14" fill="none" />
    <circle clip-path="url(#iconic-size-sm-euro-clip-1)" stroke="#000" stroke-width="2" stroke-miterlimit="10" cx="11" cy="8" r="7" class="iconic-euro-e iconic-property-stroke" fill="none" />
  </g>
</svg>