<svg version="1.1" xmlns="http://www.w3.org/2000/svg" width="32" height="32" data-icon="aperture" class="iconic iconic-aperture iconic-size-md" viewBox="0 0 32 32">
  <g class="iconic-metadata">
    <title>Aperture</title>
  </g>
  <g class="iconic-container" data-width="32" data-height="32">
    <path d="M12 21l-8.6-14.8c-2.1 2.7-3.4 6.1-3.4 9.8 0 1.7.3 3.4.8 5h11.2z" class="iconic-aperture-blade iconic-aperture-blade-6 iconic-property-fill" />
    <path d="M18.3 22h-17.1c2 4.9 6.3 8.6 11.6 9.7l5.5-9.7z" class="iconic-aperture-blade iconic-aperture-blade-5 iconic-property-fill" />
    <path d="M22.4 17l-8.6 14.8c.7.1 1.5.2 2.2.2 4.7 0 9-2.1 11.9-5.4l-5.5-9.6z" class="iconic-aperture-blade iconic-aperture-blade-4 iconic-property-fill" />
    <path d="M20 11l8.6 14.8c2.1-2.7 3.4-6.1 3.4-9.8 0-1.7-.3-3.4-.8-5h-11.2z" class="iconic-aperture-blade iconic-aperture-blade-3 iconic-property-fill" />
    <path d="M13.7 10h17.1c-2-4.9-6.3-8.6-11.6-9.7l-5.5 9.7z" class="iconic-aperture-blade iconic-aperture-blade-2 iconic-property-fill" />
    <path d="M9.6 15l8.6-14.8c-.7-.1-1.4-.2-2.2-.2-4.7 0-9 2.1-11.9 5.4l5.5 9.6z" class="iconic-aperture-blade iconic-aperture-blade-1 iconic-property-fill" />
  </g>
</svg>