<svg version="1.1" xmlns="http://www.w3.org/2000/svg" width="128" height="128" data-icon="aperture" class="iconic iconic-aperture iconic-size-lg" viewBox="0 0 128 128">
  <g class="iconic-metadata">
    <title>Aperture</title>
  </g>
  <g class="iconic-container" data-width="128" data-height="128">
    <path d="M49 86l-35.4-61.4c-8.5 10.9-13.6 24.5-13.6 39.4 0 7.7 1.4 15.1 3.9 22h45.1z" class="iconic-aperture-blade iconic-aperture-blade-6 iconic-property-fill" />
    <path d="M75.5 88h-70.8c8.2 20.2 26.3 35.2 48.3 39l22.5-39z" class="iconic-aperture-blade iconic-aperture-blade-5 iconic-property-fill" />
    <path d="M90.6 66l-35.4 61.4c2.8.4 5.8.6 8.8.6 19.7 0 37.4-8.9 49.1-23l-22.5-39z" class="iconic-aperture-blade iconic-aperture-blade-4 iconic-property-fill" />
    <path d="M79 42l35.4 61.4c8.5-10.9 13.6-24.5 13.6-39.4 0-7.7-1.4-15.1-3.9-22h-45.1z" class="iconic-aperture-blade iconic-aperture-blade-3 iconic-property-fill" />
    <path d="M52.5 40h70.9c-8.2-20.2-26.4-35.2-48.4-39l-22.5 39z" class="iconic-aperture-blade iconic-aperture-blade-2 iconic-property-fill" />
    <path d="M37.4 62l35.5-61.4c-2.9-.4-5.9-.6-8.9-.6-19.7 0-37.4 8.9-49.1 23l22.5 39z" class="iconic-aperture-blade iconic-aperture-blade-1 iconic-property-fill" />
  </g>
</svg>