<svg version="1.1" xmlns="http://www.w3.org/2000/svg" width="16" height="16" data-icon="aperture" class="iconic iconic-aperture iconic-size-sm" viewBox="0 0 16 16">
  <g class="iconic-metadata">
    <title>Aperture</title>
  </g>
  <g class="iconic-container" data-width="16" data-height="16">
    <path d="M5.7 10l-4-6.9c-1.1 1.3-1.7 3-1.7 4.9 0 .7.1 1.4.3 2h5.4z" class="iconic-aperture-blade iconic-aperture-blade-6 iconic-property-fill" />
    <path d="M8.6 11h-8c.9 2.3 2.9 4 5.3 4.7l2.7-4.7z" class="iconic-aperture-blade iconic-aperture-blade-5 iconic-property-fill" />
    <path d="M10.9 9l-4 6.9c.4.1.7.1 1.1.1 2.2 0 4.2-.9 5.6-2.3l-2.7-4.7z" class="iconic-aperture-blade iconic-aperture-blade-4 iconic-property-fill" />
    <path d="M14.3 12.9c1.1-1.3 1.7-3 1.7-4.9 0-.7-.1-1.4-.3-2h-5.4l4 6.9z" class="iconic-aperture-blade iconic-aperture-blade-3 iconic-property-fill" />
    <path d="M7.4 5h8c-.9-2.3-2.9-4-5.3-4.7l-2.7 4.7z" class="iconic-aperture-blade iconic-aperture-blade-2 iconic-property-fill" />
    <path d="M5.1 7l4-6.9c-.4-.1-.7-.1-1.1-.1-2.2 0-4.2.9-5.6 2.3l2.7 4.7z" class="iconic-aperture-blade iconic-aperture-blade-1 iconic-property-fill" />
  </g>
</svg>