<svg version="1.1" xmlns="http://www.w3.org/2000/svg" width="32" height="32" data-icon="basket" class="iconic iconic-basket iconic-size-md" viewBox="0 0 32 32">
  <g class="iconic-metadata">
    <title>Basket</title>
  </g>
  <defs>
    <clipPath id="iconic-size-md-basket-clip-0">
      <path d="M25.9 12c.2.9-.2 1.9-1 2.5-.4.3-.9.5-1.4.5-.8 0-1.5-.4-2-1l-1.4-2h-8.1l-1.4 2c-.5.7-1.3 1-2 1-.5 0-1-.2-1.5-.5-.8-.6-1.2-1.6-1-2.5h-6.1v18h32v-18h-6.1zm-17.3 15s-.1 0-.1 0c-.2 0-.4-.2-.5-.4l-2-8c-.1-.3.1-.5.4-.6.3-.1.5.1.6.4l2 8c.1.2-.1.5-.4.6zm5 0c-.1 0-.1 0 0 0-.3 0-.5-.2-.6-.4l-1-8c0-.3.2-.5.4-.6.3 0 .5.2.6.4l1 8c0 .3-.2.6-.4.6zm5.4-.4c0 .3-.2.4-.5.4 0 0 0 0-.1 0-.3 0-.5-.3-.4-.6l1-8c0-.3.3-.5.6-.4.3 0 .5.3.4.6l-1 8zm7-8l-2 8c-.1.2-.3.4-.5.4 0 0-.1 0-.1 0-.3-.1-.4-.3-.4-.6l2-8c.1-.3.3-.4.6-.4.3.1.5.4.4.6z"
      />
    </clipPath>
    <clipPath id="iconic-size-md-basket-clip-1">
      <path d="M18 0c.6.8.7 2 .1 2.9l-7.5 11c-.5.7-1.3 1.1-2.1 1.1h17.5v-15h-8z" />
    </clipPath>
  </defs>
  <g class="iconic-container" data-width="32" data-height="30" transform="translate(0 1)">
    <path clip-path="url(#iconic-size-md-basket-clip-0)" d="M25.5 30h-19c-.3 0-.6-.2-.6-.5l-3.8-15c0-.3.1-.5.4-.5h27c.3 0 .4.2.4.5l-3.8 15c0 .3-.3.5-.6.5z" class="iconic-basket-body iconic-property-fill" />
    <path clip-path="url(#iconic-size-md-basket-clip-0)" d="M31.5 15h-31c-.3 0-.5-.2-.5-.5v-2c0-.3.2-.5.5-.5h31c.3 0 .5.2.5.5v2c0 .3-.2.5-.5.5z" class="iconic-basket-lip iconic-property-fill" />
    <path clip-path="url(#iconic-size-md-basket-clip-1)" stroke="#000" stroke-width="3" stroke-linecap="round" stroke-miterlimit="10" class="iconic-basket-handle iconic-basket-handle-right iconic-property-accent iconic-property-stroke" fill="none" d="M23.5 12.5l-7.5-11"
    />
    <path stroke="#000" stroke-width="3" stroke-linecap="round" stroke-miterlimit="10" class="iconic-basket-handle iconic-basket-handle-left iconic-property-accent iconic-property-stroke" fill="none" d="M8.5 12.5l7.5-11" />
  </g>
</svg>