<svg version="1.1" xmlns="http://www.w3.org/2000/svg" width="16" height="16" data-icon="battery" class="iconic iconic-battery iconic-size-sm" viewBox="0 0 16 16">
  <g class="iconic-metadata">
    <title>Battery</title>
  </g>
  <defs>
    <clipPath id="iconic-size-sm-battery-clip-0">
      <path d="M0 0v10h14v-10h-14zm13 9h-12v-8h12v8z" />
    </clipPath>
  </defs>
  <g class="iconic-container" data-width="16" data-height="10" transform="translate(0 3)">
    <path d="M12.2 3h3.5c.2 0 .3.1.3.2v3.5c0 .2-.1.3-.2.3h-3.5c-.2 0-.3-.1-.3-.2v-3.6c0-.1.1-.2.2-.2z" class="iconic-battery-terminal iconic-property-fill" />
    <path class="iconic-battery-charge-amount iconic-property-fill" d="M1 1h12v8h-12z" />
    <path display="none" fill="#fff" class="iconic-battery-charge-indicator iconic-property-fill" d="M5 1l-3 5h2v3l3-5h-2z" />
    <path clip-path="url(#iconic-size-sm-battery-clip-0)" d="M13.8 10h-13.5c-.2 0-.3-.1-.3-.2v-9.6c0-.1.1-.2.3-.2h13.5c.1 0 .2.1.2.2v9.5c0 .2-.1.3-.2.3z" class="iconic-battery-casing iconic-property-fill" />
  </g>
</svg>