<svg version="1.1" xmlns="http://www.w3.org/2000/svg" width="128" height="128" data-icon="beaker" class="iconic iconic-beaker iconic-size-lg" viewBox="0 0 128 128">
  <g class="iconic-metadata">
    <title>Beaker</title>
  </g>
  <g class="iconic-container" data-width="128" data-height="128">
    <path d="M123.7 112.3l-21.4-30.3h-28.3c.6-.8 1-1.9 1-3 0-2.8-2.2-5-5-5s-5 2.2-5 5c0 1.1.4 2.2 1 3h-40l-21.7 30.3c-1.4 1.5-2.3 3.5-2.3 5.7s.9 4.2 2.3 5.7c1.4 1.4 3.4 2.3 5.7 2.3h108c2.2 0 4.2-.9 5.7-2.3 1.4-1.4 2.3-3.4 2.3-5.7 0-2.2-.9-4.2-2.3-5.7zm-62.7-12.3c-1.7 0-3-1.3-3-3s1.3-3 3-3 3 1.3 3 3-1.3 3-3 3zm8 12c-.6 0-1-.4-1-1s.4-1 1-1 1 .4 1 1-.4 1-1 1z"
    class="iconic-beaker-fluid iconic-property-fill" />
    <circle cx="60" cy="68" r="2" class="iconic-beaker-fluid iconic-beaker-fluid-bubble iconic-property-fill" />
    <path stroke="#000" stroke-width="2" stroke-linecap="round" stroke-miterlimit="10" class="iconic-beaker-measure-line iconic-beaker-measure-line-7 iconic-property-accent iconic-property-stroke" fill="none" d="M95 73h-10" />
    <path stroke="#000" stroke-width="2" stroke-linecap="round" stroke-miterlimit="10" class="iconic-beaker-measure-line iconic-beaker-measure-line-6 iconic-property-accent iconic-property-stroke" fill="none" d="M88 63h-9" />
    <path stroke="#000" stroke-width="2" stroke-linecap="round" stroke-miterlimit="10" class="iconic-beaker-measure-line iconic-beaker-measure-line-5 iconic-property-accent iconic-property-stroke" fill="none" d="M81 53h-8" />
    <path stroke="#000" stroke-width="2" stroke-linecap="round" stroke-miterlimit="10" class="iconic-beaker-measure-line iconic-beaker-measure-line-4 iconic-property-accent iconic-property-stroke" fill="none" d="M81 43h-8" />
    <path stroke="#000" stroke-width="2" stroke-linecap="round" stroke-miterlimit="10" class="iconic-beaker-measure-line iconic-beaker-measure-line-3 iconic-property-accent iconic-property-stroke" fill="none" d="M81 33h-8" />
    <path stroke="#000" stroke-width="2" stroke-linecap="round" stroke-miterlimit="10" class="iconic-beaker-measure-line iconic-beaker-measure-line-2 iconic-property-accent iconic-property-stroke" fill="none" d="M81 23h-8" />
    <path stroke="#000" stroke-width="2" stroke-linecap="round" stroke-miterlimit="10" class="iconic-beaker-measure-line iconic-beaker-measure-line-1 iconic-property-accent iconic-property-stroke" fill="none" d="M81 13h-8" />
    <path stroke="#000" stroke-width="4" stroke-miterlimit="10" d="M46 2v50.7l-41.7 59.6c-1.2 1.7-2.3 3.5-2.3 5.7s.9 4.2 2.3 5.7 3.5 2.3 5.7 2.3h108c2.2 0 4.2-.9 5.7-2.3s2.3-3.4 2.3-5.7-1.1-4-2.3-5.7l-41.7-59.6v-50.7h-36z" class="iconic-beaker-glass iconic-property-stroke"
    fill="none" />
    <path stroke="#000" stroke-width="4" stroke-linecap="round" stroke-miterlimit="10" class="iconic-beaker-glass iconic-beaker-glass-rim iconic-property-stroke" fill="none" d="M42 2h44" />
  </g>
</svg>