<svg version="1.1" xmlns="http://www.w3.org/2000/svg" width="32" height="32" data-icon="beaker" class="iconic iconic-beaker iconic-size-md" viewBox="0 0 32 32">
  <g class="iconic-metadata">
    <title>Beaker</title>
  </g>
  <g class="iconic-container" data-width="32" data-height="32">
    <path d="M30.6 26.4l-4.8-6.4h-7c.2-.3.3-.6.3-1 0-1.1-.9-2-2-2s-2 .9-2 2c0 .4.1.7.3 1h-9.6l-4.4 6.4c-.5.5-.9 1.3-.9 2.1s.3 1.6.9 2.1c.5.5 1.3.9 2.1.9h25c.8 0 1.6-.3 2.1-.9.5-.5.9-1.3.9-2.1s-.3-1.6-.9-2.1zm-17.6-1.4c-.6 0-1-.4-1-1s.4-1 1-1 1 .4 1 1-.4 1-1 1zm2.5 3c-.3 0-.5-.2-.5-.5s.2-.5.5-.5.5.2.5.5-.2.5-.5.5z"
    class="iconic-beaker-fluid iconic-property-fill" />
    <path stroke="#000" stroke-linecap="round" stroke-miterlimit="10" class="iconic-beaker-measure-line iconic-beaker-measure-line-4 iconic-property-accent iconic-property-stroke" fill="none" d="M23.5 16.5h-3" />
    <path stroke="#000" stroke-linecap="round" stroke-miterlimit="10" class="iconic-beaker-measure-line iconic-beaker-measure-line-3 iconic-property-accent iconic-property-stroke" fill="none" d="M20.5 12.5h-2" />
    <path stroke="#000" stroke-linecap="round" stroke-miterlimit="10" class="iconic-beaker-measure-line iconic-beaker-measure-line-2 iconic-property-accent iconic-property-stroke" fill="none" d="M20.5 8.5h-2" />
    <path stroke="#000" stroke-linecap="round" stroke-miterlimit="10" class="iconic-beaker-measure-line iconic-beaker-measure-line-1 iconic-property-accent iconic-property-stroke" fill="none" d="M20.5 4.5h-2" />
    <path stroke="#000" stroke-width="2" stroke-miterlimit="10" d="M3.5 31c-.7 0-1.3-.3-1.8-.7s-.7-1.1-.7-1.8.3-1.2.7-1.8l9.3-14.2v-11.5h10v11.5l9.3 14.3c.4.5.7 1.1.7 1.8s-.3 1.3-.7 1.8-1.1.6-1.8.6h-25z" class="iconic-beaker-glass iconic-property-stroke"
    fill="none" />
    <path stroke="#000" stroke-width="2" stroke-linecap="round" stroke-miterlimit="10" class="iconic-beaker-glass iconic-beaker-glass-rim iconic-property-stroke" fill="none" d="M9.5 1h13" />
  </g>
</svg>