<svg version="1.1" xmlns="http://www.w3.org/2000/svg" width="16" height="16" data-icon="beaker" class="iconic iconic-beaker iconic-size-sm" viewBox="0 0 16 16">
  <g class="iconic-metadata">
    <title>Beaker</title>
  </g>
  <g class="iconic-container" data-width="16" data-height="16">
    <path d="M14.9 12.1l-1.5-2.1h-3.4c0-.6-.4-1-1-1s-1 .4-1 1h-5.5l-1.5 2.1c-.4.4-.6.9-.6 1.4s.2 1 .6 1.4c.4.4.9.6 1.4.6h11c.5 0 1-.2 1.4-.6.4-.4.6-.9.6-1.4.1-.5-.1-1-.5-1.4z" class="iconic-beaker-fluid iconic-property-fill" />
    <path stroke="#000" stroke-miterlimit="10" d="M2.5 15.5c-.6 0-1.1-.2-1.4-.6-.4-.4-.6-.9-.6-1.4s.2-1.1.6-1.4l4.4-6.6v-5h5v5l4.4 6.6c.4.4.6.9.6 1.4s-.2 1.1-.6 1.4c-.4.4-.9.6-1.4.6h-11z" class="iconic-beaker-glass iconic-property-stroke" fill="none"
    />
    <path stroke="#000" stroke-linecap="round" stroke-miterlimit="10" class="iconic-beaker-glass iconic-beaker-glass-rim iconic-property-stroke" fill="none" d="M4.5.5h7" />
  </g>
</svg>