<svg version="1.1" xmlns="http://www.w3.org/2000/svg" width="128" height="128" data-icon="bitcoin-transaction" class="iconic iconic-bitcoin-transaction iconic-size-lg" viewBox="0 0 128 128">
  <g class="iconic-metadata">
    <title>Bitcoin Transaction</title>
  </g>
  <g class="iconic-container" data-width="116" data-height="128" transform="translate(6)">
    <path stroke="#000" stroke-width="8" stroke-miterlimit="10" class="iconic-bitcoin-transaction-strike iconic-bitcoin-transaction-strike-top iconic-bitcoin-transaction-strike-left iconic-property-accent iconic-property-stroke" fill="none" d="M32 0v18"
    />
    <path stroke="#000" stroke-width="8" stroke-miterlimit="10" class="iconic-bitcoin-transaction-strike iconic-bitcoin-transaction-strike-top iconic-bitcoin-transaction-strike-right iconic-property-accent iconic-property-stroke" fill="none" d="M48 0v18"
    />
    <path stroke="#000" stroke-width="8" stroke-miterlimit="10" class="iconic-bitcoin-transaction-strike iconic-bitcoin-transaction-strike-bottom iconic-bitcoin-transaction-strike-left iconic-property-accent iconic-property-stroke" fill="none" d="M32 110v18"
    />
    <path stroke="#000" stroke-width="8" stroke-miterlimit="10" class="iconic-bitcoin-transaction-strike iconic-bitcoin-transaction-strike-bottom iconic-bitcoin-transaction-strike-right iconic-property-accent iconic-property-stroke" fill="none" d="M48 110v18"
    />
    <path d="M63.4 58.4c5.2-4.4 8.6-11 8.6-18.4 0-12.7-9.8-23-22.3-23.9v-.1h-49.7v6h8c3.3 0 6 2.7 6 6v72c0 3.3-2.7 6-6 6h-8v6h53c15-.5 27-12.8 27-28 0-11.4-6.8-21.2-16.6-25.6zm-35.4-36.4h15c9.4 0 17 7.6 17 17s-7.6 17-17 17h-15v-34zm16.5 84h-16.5v-44h16.5c12.2 0 22 9.8 22 22s-9.8 22-22 22z"
    class="iconic-bitcoin-transaction-b iconic-property-fill" />
    <path stroke="#000" stroke-width="8" stroke-miterlimit="10" class="iconic-bitcoin-transaction-arrow iconic-bitcoin-transaction-arrow-bottom iconic-bitcoin-transaction-arrow-bottom-stem iconic-property-stroke" fill="none" d="M86 68h16" />
    <path class="iconic-bitcoin-transaction-arrow iconic-bitcoin-transaction-arrow-bottom iconic-bitcoin-transaction-arrow-bottom-head iconic-property-fill" d="M100 80v-24l16 12z" />
    <path stroke="#000" stroke-width="8" stroke-miterlimit="10" class="iconic-bitcoin-transaction-arrow iconic-bitcoin-transaction-arrow-top iconic-bitcoin-transaction-arrow-top-stem iconic-property-stroke" fill="none" d="M110 48h-16" />
    <path class="iconic-bitcoin-transaction-arrow iconic-bitcoin-transaction-arrow-top iconic-bitcoin-transaction-arrow-top-head iconic-property-fill" d="M96 36v24l-16-12z" />
  </g>
</svg>