<svg version="1.1" xmlns="http://www.w3.org/2000/svg" width="16" height="16" data-icon="bold" class="iconic iconic-bold iconic-size-sm" viewBox="0 0 16 16">
  <g class="iconic-metadata">
    <title>Bold</title>
  </g>
  <g class="iconic-container" data-width="14" data-height="16" transform="translate(1)">
    <path stroke="#000" stroke-width="2" stroke-linecap="square" stroke-miterlimit="10" d="M3 15" class="iconic-property-stroke" fill="none" />
    <path d="M11.2 7.3c1.1-.7 1.8-1.9 1.8-3.3 0-2.2-1.8-4-4-4h-9v1h1c.6 0 1 .4 1 1v12c0 .6-.4 1-1 1h-1v1h9.5c2.5 0 4.5-2 4.5-4.5 0-1.9-1.2-3.5-2.8-4.2zm-4.2-6.3c1.7 0 3 1.3 3 3s-1.3 3-3 3h-2v-6h2zm.5 14h-2.5v-7h2.5c1.9 0 3.5 1.6 3.5 3.5s-1.6 3.5-3.5 3.5z"
    class="iconic-property-fill" />
  </g>
</svg>