<svg version="1.1" xmlns="http://www.w3.org/2000/svg" width="32" height="32" data-icon="bold" class="iconic iconic-bold iconic-size-md" viewBox="0 0 32 32">
  <g class="iconic-metadata">
    <title>Bold</title>
  </g>
  <g class="iconic-container" data-width="26" data-height="32" transform="translate(3)">
    <path d="M20.4 14.7c2.2-1.5 3.6-3.9 3.6-6.7 0-4.4-3.6-8-8-8h-16v2h2c1.1 0 2 .9 2 2v24c0 1.1-.9 2-2 2h-2v2h17c5 0 9-4 9-9 0-3.8-2.3-7-5.6-8.3zm-9.7-12.7h2.3c3.3 0 6 2.7 6 6s-2.7 6-6 6h-4v-12h1.7zm3.3 28h-5v-14h5c3.9 0 7 3.1 7 7s-3.1 7-7 7z" class="iconic-property-fill"
    />
  </g>
</svg>