<svg version="1.1" xmlns="http://www.w3.org/2000/svg" width="16" height="16" data-icon="book" class="iconic iconic-book iconic-size-sm" viewBox="0 0 16 16">
  <g class="iconic-metadata">
    <title>Book</title>
  </g>
  <g class="iconic-container" data-width="15" data-height="16">
    <path d="M3 12h12v-2h-12c-1.7 0-3 1.3-3 3s1.3 3 3 3h12v-2h-12c-.6 0-1-.4-1-1s.4-1 1-1z" class="iconic-book-bottom iconic-property-fill" />
    <path d="M2 .2c-1.2.4-2 1.5-2 2.8v7.4c.5-.6 1.2-1 2-1.2v-9z" class="iconic-book-spine iconic-property-fill" />
    <path d="M14 0h-1v6l-2-2-2 2v-6h-6v9h12v-8c0-.6-.4-1-1-1z" class="iconic-book-cover iconic-property-fill" />
  </g>
</svg>