<svg version="1.1" xmlns="http://www.w3.org/2000/svg" width="32" height="32" data-icon="book" class="iconic iconic-book iconic-size-md" viewBox="0 0 32 32">
  <g class="iconic-metadata">
    <title>Book</title>
  </g>
  <g class="iconic-container" data-width="30" data-height="32" transform="translate(1)">
    <path d="M3.5 30c-.8 0-1.5-.7-1.5-1.5s.7-1.5 1.5-1.5h26.5v-2h-27.8c-1.2 0-2.2 1-2.2 2.2v2.2c0 1.5 1.1 2.6 2.5 2.6h27.5v-2h-26.5z" class="iconic-book-bottom iconic-property-fill" />
    <path d="M2 .1c-1.1.2-2 1.2-2 2.4v22.4c.5-.5 1.2-.8 2-.9v-23.9z" class="iconic-book-spine iconic-property-fill" />
    <path d="M28.5 0h-1.5v13l-2-2-2 2v-13h-20v24h27v-22.5c0-.8-.7-1.5-1.5-1.5z" class="iconic-book-cover iconic-property-fill" />
  </g>
</svg>