<svg version="1.1" xmlns="http://www.w3.org/2000/svg" width="16" height="16" data-icon="box" class="iconic iconic-box iconic-size-sm" viewBox="0 0 16 16">
  <g class="iconic-metadata">
    <title>Box</title>
  </g>
  <defs>
    <clipPath id="iconic-size-sm-box-clip-0">
      <path d="M0 3v12h16v-12h-16zm10 3.8c0 .1-.1.2-.2.2h-3.6c-.1 0-.2-.1-.2-.2v-1.6c0-.1.1-.2.2-.2h3.5c.2 0 .3.1.3.2v1.6z" />
    </clipPath>
  </defs>
  <g class="iconic-container" data-width="16" data-height="15">
    <path clip-path="url(#iconic-size-sm-box-clip-0)" d="M15.8 15h-15.6c-.1 0-.2-.1-.2-.2v-12.6c0-.1.1-.2.2-.2h15.5c.2 0 .3.1.3.2v12.5c0 .2-.1.3-.2.3z" class="iconic-box-shell iconic-property-fill" />
    <path class="iconic-box-lid iconic-property-fill" d="M0 0h16v2h-16z" />
  </g>
</svg>