<svg version="1.1" xmlns="http://www.w3.org/2000/svg" width="32" height="32" data-icon="brain" class="iconic iconic-brain iconic-size-md" viewBox="0 0 32 32">
  <g class="iconic-metadata">
    <title>Brain</title>
  </g>
  <g class="iconic-container" data-width="31" data-height="32">
    <path d="M13.5 17h-3c-.3 0-.5-.2-.5-.5s.2-.5.5-.5h3c.8 0 1.5-.7 1.5-1.5v-6c0-.8-.7-1.5-1.5-1.5-.3 0-.5-.2-.5-.5s.2-.5.5-.5c.8 0 1.5-.7 1.5-1.5v-2.5c0-1.1-.9-2-2-2-6.2 0-10.6 4.9-12.3 10.8.3.1.5.2.8.2.3 0 .5.2.5.5s-.2.5-.5.5c-.5 0-.9.2-1.2.6-.2 1.1-.3 2.3-.3 3.4 0 1.5.1 3 .3 4.4.3.4.7.6 1.2.6.3 0 .5.2.5.5s-.2.5-.5.5-.6.1-.8.2c1.3 5.5 4.4 9.8 10.3 9.8 2.2 0 4-1.8 4-4v-9.5c0-.8-.7-1.5-1.5-1.5zm-2-14c.3 0 .5-.2.5-.5s.2-.5.5-.5.5.2.5.5c0 .8-.7 1.5-1.5 1.5-1.4 0-2.5 1.1-2.5 2.5s1.1 2.5 2.5 2.5c.3 0 .5.2.5.5s-.2.5-.5.5c-1.9 0-3.5-1.6-3.5-3.5s1.6-3.5 3.5-3.5zm-3 10h3c.8 0 1.5-.7 1.5-1.5 0-.3.2-.5.5-.5s.5.2.5.5c0 1.4-1.1 2.5-2.5 2.5h-3c-1.4 0-2.5 1.1-2.5 2.5s1.1 2.5 2.5 2.5c.3 0 .5.2.5.5s-.2.5-.5.5c-1.9 0-3.5-1.6-3.5-3.5s1.6-3.5 3.5-3.5zm4 15c-.3 0-.5-.2-.5-.5s-.2-.5-.5-.5-.5.2-.5.5c0 1.4-1.1 2.5-2.5 2.5s-2.5-1.1-2.5-2.5c0-.3.2-.5.5-.5s.5.2.5.5c0 .8.7 1.5 1.5 1.5s1.5-.7 1.5-1.5.7-1.5 1.5-1.5 1.5.7 1.5 1.5c0 .3-.2.5-.5.5zm-1-4h-1.5c-.6 0-1 .4-1 1v1.5c0 .3-.2.5-.5.5s-.5-.2-.5-.5v-1.5c0-1.1.9-2 2-2h1.5c.8 0 1.5-.7 1.5-1.5s-.7-1.5-1.5-1.5c-.3 0-.5-.2-.5-.5s.2-.5.5-.5c1.4 0 2.5 1.1 2.5 2.5s-1.1 2.5-2.5 2.5z"
    class="iconic-brain-hemisphere iconic-brain-hemisphere-left iconic-property-fill" />
    <path d="M29.5 22c-.3 0-.5-.2-.5-.5s.2-.5.5-.5c.5 0 .9-.2 1.2-.6.2-1.4.3-2.9.3-4.4 0-1.1-.1-2.3-.3-3.4-.3-.4-.7-.6-1.2-.6-.3 0-.5-.2-.5-.5s.2-.5.5-.5.5-.1.8-.2c-1.7-5.9-6.1-10.8-12.3-10.8-1.1 0-2 .9-2 2v2.5c0 .8.7 1.5 1.5 1.5.3 0 .5.2.5.5s-.2.5-.5.5c-.8 0-1.5.7-1.5 1.5v6c0 .8.7 1.5 1.5 1.5h3c.3 0 .5.2.5.5s-.2.5-.5.5h-3c-.8 0-1.5.7-1.5 1.5v9.5c0 2.2 1.8 4 4 4 5.9 0 9-4.3 10.3-9.8-.2-.1-.5-.2-.8-.2zm-11-20c.3 0 .5.2.5.5s.2.5.5.5c1.9 0 3.5 1.6 3.5 3.5s-1.6 3.5-3.5 3.5c-.3 0-.5-.2-.5-.5s.2-.5.5-.5c1.4 0 2.5-1.1 2.5-2.5s-1.1-2.5-2.5-2.5c-.8 0-1.5-.7-1.5-1.5 0-.3.2-.5.5-.5zm-1.5 19.5c0-1.4 1.1-2.5 2.5-2.5.3 0 .5.2.5.5s-.2.5-.5.5c-.8 0-1.5.7-1.5 1.5s.7 1.5 1.5 1.5h1.5c1.1 0 2 .9 2 2v1.5c0 .3-.2.5-.5.5s-.5-.2-.5-.5v-1.5c0-.6-.4-1-1-1h-1.5c-1.4 0-2.5-1.1-2.5-2.5zm5.5 8.5c-1.4 0-2.5-1.1-2.5-2.5 0-.3-.2-.5-.5-.5s-.5.2-.5.5-.2.5-.5.5-.5-.2-.5-.5c0-.8.7-1.5 1.5-1.5s1.5.7 1.5 1.5.7 1.5 1.5 1.5 1.5-.7 1.5-1.5c0-.3.2-.5.5-.5s.5.2.5.5c0 1.4-1.1 2.5-2.5 2.5zm0-10c-.3 0-.5-.2-.5-.5s.2-.5.5-.5c1.4 0 2.5-1.1 2.5-2.5s-1.1-2.5-2.5-2.5h-3c-1.4 0-2.5-1.1-2.5-2.5 0-.3.2-.5.5-.5s.5.2.5.5c0 .8.7 1.5 1.5 1.5h3c1.9 0 3.5 1.6 3.5 3.5s-1.6 3.5-3.5 3.5z"
    class="iconic-brain-hemisphere iconic-brain-hemisphere-right iconic-property-fill" />
  </g>
</svg>