<svg version="1.1" xmlns="http://www.w3.org/2000/svg" width="16" height="16" data-icon="brain" class="iconic iconic-brain iconic-size-sm" viewBox="0 0 16 16">
  <g class="iconic-metadata">
    <title>Brain</title>
  </g>
  <g class="iconic-container" data-width="15" data-height="16">
    <path d="M6.5 8c-.3 0-.5-.2-.5-.5s.2-.5.5-.5h.5v-6c0-.6-.4-1-1-1-2.6 0-4.4 1.7-5.3 4.1.2 0 .3.2.3.4 0 .3-.2.5-.5.5 0 0-.1 0-.1 0-.3 1-.4 2-.4 3s.1 2 .2 2.9c.1.1.2.1.3.1.3 0 .5.2.5.5s-.2.5-.5.5c.6 2.3 1.9 4 4.5 4 1.1 0 2-.9 2-2v-6h-.5zm-1-7c.3 0 .5.2.5.5s-.2.5-.5.5c-.8 0-1.5.7-1.5 1.5 0 .3-.2.5-.5.5s-.5-.2-.5-.5c0-1.4 1.1-2.5 2.5-2.5zm-3 7c-.3 0-.5-.2-.5-.5 0-1.4 1.1-2.5 2.5-2.5.3 0 .5-.2.5-.5s.2-.5.5-.5.5.2.5.5c0 .8-.7 1.5-1.5 1.5s-1.5.7-1.5 1.5c0 .3-.2.5-.5.5zm2 7c-.8 0-1.5-.7-1.5-1.5 0-.3.2-.5.5-.5s.5.2.5.5.2.5.5.5.5-.2.5-.5.2-.5.5-.5.5.2.5.5c0 .8-.7 1.5-1.5 1.5zm0-3c-.3 0-.5-.2-.5-.5s.2-.5.5-.5.5-.2.5-.5-.2-.5-.5-.5-.5-.2-.5-.5.2-.5.5-.5c.8 0 1.5.7 1.5 1.5s-.7 1.5-1.5 1.5z"
    class="iconic-brain-hemisphere iconic-brain-hemisphere-left iconic-property-fill" />
    <path d="M14.5 12c-.3 0-.5-.2-.5-.5s.2-.5.5-.5c.1 0 .2 0 .3-.1.1-.9.2-1.9.2-2.9s-.1-2.1-.4-3c0 0-.1 0-.1 0-.3 0-.5-.2-.5-.5 0-.2.1-.4.3-.4-.9-2.4-2.7-4.1-5.3-4.1-.6 0-1 .4-1 1v6h.5c.3 0 .5.2.5.5s-.2.5-.5.5h-.5v6c0 1.1.9 2 2 2 2.6 0 3.9-1.7 4.5-4zm-5-11c1.4 0 2.5 1.1 2.5 2.5 0 .3-.2.5-.5.5s-.5-.2-.5-.5c0-.8-.7-1.5-1.5-1.5-.3 0-.5-.2-.5-.5s.2-.5.5-.5zm1 8c.3 0 .5.2.5.5s-.2.5-.5.5-.5.2-.5.5.2.5.5.5.5.2.5.5-.2.5-.5.5c-.8 0-1.5-.7-1.5-1.5s.7-1.5 1.5-1.5zm0 6c-.8 0-1.5-.7-1.5-1.5 0-.3.2-.5.5-.5s.5.2.5.5.2.5.5.5.5-.2.5-.5.2-.5.5-.5.5.2.5.5c0 .8-.7 1.5-1.5 1.5zm2-7c-.3 0-.5-.2-.5-.5 0-.8-.7-1.5-1.5-1.5s-1.5-.7-1.5-1.5c0-.3.2-.5.5-.5s.5.2.5.5.2.5.5.5c1.4 0 2.5 1.1 2.5 2.5 0 .3-.2.5-.5.5z"
    class="iconic-brain-hemisphere iconic-brain-hemisphere-right iconic-property-fill" />
  </g>
</svg>