<svg version="1.1" xmlns="http://www.w3.org/2000/svg" width="128" height="128" data-icon="briefcase" class="iconic iconic-briefcase iconic-size-lg" viewBox="0 0 128 128">
  <g class="iconic-metadata">
    <title>Briefcase</title>
  </g>
  <defs>
    <clipPath id="iconic-size-lg-briefcase-clip-0">
      <path d="M125 52h-51v1c0 1.7-1.3 3-3 3h-16c-1.7 0-3-1.3-3-3v-1h-49c-1.1 0-2.2-.4-3-1v57h128v-57c-.8.6-1.9 1-3 1z" />
    </clipPath>
    <clipPath id="iconic-size-lg-briefcase-clip-1">
      <path d="M3 50h49v-1c0-1.7 1.3-3 3-3h16c1.7 0 3 1.3 3 3v1h51c1.7 0 3-1.3 3-3v-35h-128v35c0 1.7 1.3 3 3 3z" />
    </clipPath>
  </defs>
  <g class="iconic-container" data-width="128" data-height="108" transform="translate(0 10)">
    <path stroke="#000" stroke-width="4" stroke-linecap="square" stroke-miterlimit="10" d="M78 14v-9c0-1.7-1.3-3-3-3h-24c-1.7 0-3 1.3-3 3v11" class="iconic-briefcase-handle iconic-property-stroke" fill="none" />
    <path d="M55 48c-.5 0-1 .5-1 1v4c0 .5.5 1 1 1h16c.5 0 1-.5 1-1v-4c0-.5-.5-1-1-1h-16z" class="iconic-briefcase-body iconic-briefcase-body-buckle iconic-property-fill" />
    <path clip-path="url(#iconic-size-lg-briefcase-clip-0)" d="M126.5 108h-125c-.8 0-1.5-.7-1.5-1.5v-63c0-.8.7-1.5 1.5-1.5h125c.8 0 1.5.7 1.5 1.5v63c0 .8-.7 1.5-1.5 1.5z" class="iconic-briefcase-body iconic-briefcase-body-bottom iconic-property-fill"
    />
    <path clip-path="url(#iconic-size-lg-briefcase-clip-1)" d="M126.5 58h-125c-.8 0-1.5-.7-1.5-1.5v-43c0-.8.7-1.5 1.5-1.5h125c.8 0 1.5.7 1.5 1.5v43c0 .8-.7 1.5-1.5 1.5z" class="iconic-briefcase-body iconic-briefcase-body-top iconic-property-fill" />
  </g>
</svg>