<svg version="1.1" xmlns="http://www.w3.org/2000/svg" width="128" height="128" data-icon="brush" class="iconic iconic-brush iconic-size-lg" viewBox="0 0 128 128">
  <g class="iconic-metadata">
    <title>Brush</title>
  </g>
  <defs>
    <clipPath id="iconic-size-lg-brush-clip-0">
      <path d="M40 0v76.7c.1 0 .3.1.4.1 6.1 1.7 10.9 5.9 13.5 11.2h74.1v-88h-88z" />
    </clipPath>
  </defs>
  <g class="iconic-container" data-width="128" data-height="126" transform="translate(0 1)">
    <path d="M5.1 124.8c-1.7-.5-3.4-1.1-5.1-1.8 10.6-6.6 18.5-17 21.9-29.2l.2-.7c2.2-6.6 9.3-10.5 16.1-8.6 7.1 1.9 11.3 9.2 9.3 16.2l-.3 1c-5.4 17.7-24.1 28-42.1 23.1z" class="iconic-brush-head iconic-property-accent iconic-property-fill" />
    <path clip-path="url(#iconic-size-lg-brush-clip-0)" d="M40.9 77.2l4.1-12.3c.5-1.6 2-3.7 3.3-4.7l73.2-56.3c1.3-1 2.8-1.4 3.4-.8s.2 2.1-.9 3.4l-56.1 71.1c-1 1.3-3.1 3-4.5 3.7l-10.6 5.3c-1.5.7-3.7.5-5-.5l-5.3-4.3c-1.5-1-2.1-3.1-1.6-4.6z" class="iconic-brush-stem iconic-property-fill"
    />
  </g>
</svg>