<svg version="1.1" xmlns="http://www.w3.org/2000/svg" width="16" height="16" data-icon="brush" class="iconic iconic-brush iconic-size-sm" viewBox="0 0 16 16">
  <g class="iconic-metadata">
    <title>Brush</title>
  </g>
  <defs>
    <clipPath id="iconic-size-sm-brush-clip-0">
      <path d="M7 0v6.3c1.2.5 2.2 1.5 2.7 2.7h6.3v-9h-9z" />
    </clipPath>
  </defs>
  <g class="iconic-container" data-width="16" data-height="16">
    <path d="M8 10.7c0-1.5-1.2-2.7-2.7-2.7-1.5 0-2.7 1.2-2.7 2.7 0 2-1.1 3.7-2.7 4.6.9.4 1.8.7 2.8.7 2.9 0 5.3-2.4 5.3-5.3z" class="iconic-brush-head iconic-property-accent iconic-property-fill" />
    <path clip-path="url(#iconic-size-sm-brush-clip-0)" d="M14.2.6l-5.4 3.8c-.4.3-1 1-1.3 1.5l-.1.2c-.2.5-.1 1.2.3 1.6l.6.6c.4.4 1.1.5 1.6.3l.2-.1c.5-.2 1.2-.8 1.5-1.3l3.8-5.4c.3-.4.4-1 .1-1.3s-.9-.2-1.3.1z" class="iconic-brush-stem iconic-property-fill"
    />
  </g>
</svg>