<svg version="1.1" xmlns="http://www.w3.org/2000/svg" width="32" height="32" data-icon="brush" class="iconic iconic-brush iconic-size-md" viewBox="0 0 32 32">
  <g class="iconic-metadata">
    <title>Brush</title>
  </g>
  <defs>
    <clipPath id="iconic-size-md-brush-clip-0">
      <path d="M10 0v15.9c.2 0 .5 0 .7 0 1.9.3 3.6 1.3 4.8 2.8.7 1 1.2 2.1 1.4 3.3h15.1v-22h-22z" />
    </clipPath>
  </defs>
  <g class="iconic-container" data-width="32" data-height="32">
    <path d="M3.2 31.9c-1.1-.2-2.2-.5-3.2-1 2.9-1.8 5-4.8 5.5-8.3v-.2c.4-2.2 2.5-3.8 4.8-3.5 2.3.3 4 2.5 3.7 4.8v.3c-.9 5.1-5.7 8.6-10.8 7.9z" class="iconic-brush-head iconic-property-accent iconic-property-fill" />
    <path clip-path="url(#iconic-size-md-brush-clip-0)" d="M29.8.9l-16.6 12.2c-.7.5-1.5 1.5-1.9 2.2l-1.7 3.3c-.4.7-.2 1.8.4 2.4l.9.9c.6.6 1.7.8 2.4.4l3.3-1.7c.7-.4 1.7-1.2 2.2-1.9l12.3-16.5c.5-.7.7-1.4.4-1.7s-1-.1-1.7.4z" class="iconic-brush-stem iconic-property-fill"
    />
  </g>
</svg>