<svg version="1.1" xmlns="http://www.w3.org/2000/svg" width="128" height="128" data-icon="bug" class="iconic iconic-bug iconic-size-lg" viewBox="0 0 128 128">
  <g class="iconic-metadata">
    <title>Bug</title>
  </g>
  <g class="iconic-container" data-width="116" data-height="128" transform="translate(6)">
    <path stroke="#000" stroke-width="2" stroke-linecap="round" stroke-linejoin="round" stroke-miterlimit="10" class="iconic-bug-leg iconic-bug-leg-right iconic-bug-leg-top iconic-bug-leg-top-right iconic-property-accent iconic-property-stroke" fill="none"
    d="M72 46l15-5v-12l12-8" />
    <path stroke="#000" stroke-width="2" stroke-linecap="round" stroke-linejoin="round" stroke-miterlimit="10" class="iconic-bug-leg iconic-bug-leg-right iconic-bug-leg-bottom iconic-bug-leg-bottom-right iconic-property-accent iconic-property-stroke"
    fill="none" d="M85 81l18 8-12 34 4 4" />
    <path stroke="#000" stroke-width="2" stroke-linecap="round" stroke-linejoin="round" stroke-miterlimit="10" class="iconic-bug-leg iconic-bug-leg-right iconic-bug-leg-middle iconic-bug-leg-middle-right iconic-property-accent iconic-property-stroke"
    fill="none" d="M79 57l12-4 12 20 12 4" />
    <path stroke="#000" stroke-width="2" stroke-linecap="round" stroke-linejoin="round" stroke-miterlimit="10" class="iconic-bug-leg iconic-bug-leg-left iconic-bug-leg-top iconic-bug-leg-top-left iconic-property-accent iconic-property-stroke" fill="none"
    d="M44 46l-15-5v-12l-12-8" />
    <path stroke="#000" stroke-width="2" stroke-linecap="round" stroke-linejoin="round" stroke-miterlimit="10" class="iconic-bug-leg iconic-bug-leg-left iconic-bug-leg-bottom iconic-bug-leg-bottom-left iconic-property-accent iconic-property-stroke" fill="none"
    d="M31 81l-18 8 12 34-4 4" />
    <path stroke="#000" stroke-width="2" stroke-linecap="round" stroke-linejoin="round" stroke-miterlimit="10" class="iconic-bug-leg iconic-bug-leg-left iconic-bug-leg-middle iconic-bug-leg-middle-left iconic-property-accent iconic-property-stroke" fill="none"
    d="M37 57l-12-4-12 20-12 4" />
    <path stroke="#000" stroke-width="2" stroke-linecap="round" stroke-miterlimit="10" d="M53.9 29.4s-4.1-28.4-20.3-28.4" class="iconic-bug-antenna iconic-bug-antenna-left iconic-property-accent iconic-property-stroke" fill="none" />
    <path stroke="#000" stroke-width="2" stroke-linecap="round" stroke-miterlimit="10" d="M62.1 29.4s4.1-28.4 20.3-28.4" class="iconic-bug-antenna iconic-bug-antenna-right iconic-property-accent iconic-property-stroke" fill="none" />
    <path d="M58.2 16c15.4 0 23.4 20.3 13.4 32h-27.1c-10.3-11.4-1.7-32 13.7-32z" class="iconic-bug-head iconic-property-fill" />
    <path d="M47.8 125.1c4.5-3.7 8.2-10 8.2-17.1v-50c0-1.1.9-2 2-2s2 .9 2 2v50c0 7.1 3.7 13.5 8.2 17.1 11.5-6.7 19.8-24.5 19.8-45.4 0-26.7-13.4-37.7-30-37.7s-30 11-30 37.7c0 20.9 8.3 38.7 19.8 45.4zm24.8-16.7c4.7-7.6 7.4-18.3 7.4-29.4 0-.6.4-1 1-1s1 .4 1 1c0 11.4-2.8 22.5-7.7 30.5-.2.3-.5.5-.9.5-.2 0-.4 0-.5-.2-.5-.3-.6-.9-.3-1.4zm-30.9 1.1c-4.9-7.9-7.7-19-7.7-30.5 0-.6.4-1 1-1s1 .4 1 1c0 11.1 2.7 21.8 7.4 29.4.3.5.1 1.1-.3 1.4-.2.1-.3.2-.5.2-.4-.1-.7-.2-.9-.5z"
    class="iconic-bug-thorax iconic-property-fill" />
  </g>
</svg>