<svg version="1.1" xmlns="http://www.w3.org/2000/svg" width="32" height="32" data-icon="bug" class="iconic iconic-bug iconic-size-md" viewBox="0 0 32 32">
  <g class="iconic-metadata">
    <title>Bug</title>
  </g>
  <g class="iconic-container" data-width="29" data-height="32" transform="translate(1)">
    <path stroke="#000" stroke-linecap="round" stroke-miterlimit="10" class="iconic-bug-leg iconic-bug-leg-right iconic-bug-leg-top iconic-bug-leg-top-right iconic-property-accent iconic-property-stroke" fill="none" d="M18.5 11.5l3-1v-3l3-2" />
    <path stroke="#000" stroke-linecap="round" stroke-linejoin="round" stroke-miterlimit="10" class="iconic-bug-leg iconic-bug-leg-right iconic-bug-leg-bottom iconic-bug-leg-bottom-right iconic-property-accent iconic-property-stroke" fill="none" d="M20.5 20.5l5 2-3 8 1 1"
    />
    <path stroke="#000" stroke-linecap="round" stroke-linejoin="round" stroke-miterlimit="10" class="iconic-bug-leg iconic-bug-leg-right iconic-bug-leg-middle iconic-bug-leg-middle-right iconic-property-accent iconic-property-stroke" fill="none" d="M19.5 14.5l3-1 3 5 3 1"
    />
    <path stroke="#000" stroke-linecap="round" stroke-miterlimit="10" class="iconic-bug-leg iconic-bug-leg-left iconic-bug-leg-top iconic-bug-leg-top-left iconic-property-accent iconic-property-stroke" fill="none" d="M10.5 11.5l-3-1v-3l-3-2" />
    <path stroke="#000" stroke-linecap="round" stroke-linejoin="round" stroke-miterlimit="10" class="iconic-bug-leg iconic-bug-leg-left iconic-bug-leg-bottom iconic-bug-leg-bottom-left iconic-property-accent iconic-property-stroke" fill="none" d="M8.5 20.5l-5 2 3 8-1 1"
    />
    <path stroke="#000" stroke-linecap="round" stroke-linejoin="round" stroke-miterlimit="10" class="iconic-bug-leg iconic-bug-leg-left iconic-bug-leg-middle iconic-bug-leg-middle-left iconic-property-accent iconic-property-stroke" fill="none" d="M9.5 14.5l-3-1-3 5-3 1"
    />
    <path stroke="#000" stroke-linecap="round" stroke-miterlimit="10" d="M12.5 7.5s-1-7-5-7" class="iconic-bug-antenna iconic-bug-antenna-left iconic-property-accent iconic-property-stroke" fill="none" />
    <path stroke="#000" stroke-linecap="round" stroke-miterlimit="10" d="M15.5 7.5s1-7 5-7" class="iconic-bug-antenna iconic-bug-antenna-right iconic-property-accent iconic-property-stroke" fill="none" />
    <path d="M14.5 3.5c3.8 0 5.9 5.7 3.4 8.5h-6.8c-2.5-2.7-.4-8.5 3.4-8.5z" class="iconic-bug-head iconic-property-fill" />
    <path d="M11.8 31.3c1.2-.9 2.2-2.5 2.2-4.3v-12.5c0-.3.2-.5.5-.5s.5.2.5.5v12.5c0 1.8 1 3.4 2.2 4.3 2.8-1.6 4.8-5.6 4.8-10.3 0-6.1-3.4-11-7.5-11s-7.5 4.9-7.5 11c0 4.7 2 8.7 4.8 10.3z" class="iconic-bug-thorax iconic-property-fill" />
  </g>
</svg>