<svg version="1.1" xmlns="http://www.w3.org/2000/svg" width="16" height="16" data-icon="bug" class="iconic iconic-bug iconic-size-sm" viewBox="0 0 16 16">
  <g class="iconic-metadata">
    <title>Bug</title>
  </g>
  <g class="iconic-container" data-width="15" data-height="15">
    <path stroke="#000" stroke-linecap="round" stroke-miterlimit="10" class="iconic-bug-leg iconic-bug-leg-right iconic-bug-leg-top iconic-bug-leg-top-right iconic-property-accent iconic-property-stroke" fill="none" d="M9.5 6.5l3-2" />
    <path stroke="#000" stroke-linecap="round" stroke-miterlimit="10" class="iconic-bug-leg iconic-bug-leg-right iconic-bug-leg-bottom iconic-bug-leg-bottom-right iconic-property-accent iconic-property-stroke" fill="none" d="M10.5 9.5l3 4" />
    <path stroke="#000" stroke-linecap="round" stroke-miterlimit="10" class="iconic-bug-leg iconic-bug-leg-right iconic-bug-leg-middle iconic-bug-leg-middle-right iconic-property-accent iconic-property-stroke" fill="none" d="M10.5 7.5l4 2" />
    <path stroke="#000" stroke-linecap="round" stroke-miterlimit="10" class="iconic-bug-leg iconic-bug-leg-left iconic-bug-leg-top iconic-bug-leg-top-left iconic-property-accent iconic-property-stroke" fill="none" d="M5.5 6.5l-3-2" />
    <path stroke="#000" stroke-linecap="round" stroke-miterlimit="10" class="iconic-bug-leg iconic-bug-leg-left iconic-bug-leg-bottom iconic-bug-leg-bottom-left iconic-property-accent iconic-property-stroke" fill="none" d="M4.5 9.5l-3 4" />
    <path stroke="#000" stroke-linecap="round" stroke-miterlimit="10" class="iconic-bug-leg iconic-bug-leg-left iconic-bug-leg-middle iconic-bug-leg-middle-left iconic-property-accent iconic-property-stroke" fill="none" d="M4.5 7.5l-4 2" />
    <path stroke="#000" stroke-linecap="round" stroke-miterlimit="10" d="M6.5 4s-.5-3.5-2.5-3.5" class="iconic-bug-antenna iconic-bug-antenna-left iconic-property-accent iconic-property-stroke" fill="none" />
    <path stroke="#000" stroke-linecap="round" stroke-miterlimit="10" d="M8 4s.5-3.5 2.5-3.5" class="iconic-bug-antenna iconic-bug-antenna-right iconic-property-accent iconic-property-stroke" fill="none" />
    <path d="M7.5 2c2 0 3.3 2.6 2 4h-4c-1.3-1.4 0-4 2-4z" class="iconic-bug-head iconic-property-fill" />
    <path d="M7.5 5c-2.5 0-4.5 2.5-4.5 5.5 0 2.3 1.2 4.3 2.9 5.1.6-.4 1.1-1.2 1.1-2.1v-6c0-.3.2-.5.5-.5s.5.2.5.5v6c0 .9.5 1.7 1.1 2.1 1.7-.8 2.9-2.8 2.9-5.1 0-3-2-5.5-4.5-5.5z" class="iconic-bug-thorax iconic-property-fill" />
  </g>
</svg>