<svg version="1.1" xmlns="http://www.w3.org/2000/svg" width="16" height="16" data-icon="bullhorn" class="iconic iconic-bullhorn iconic-size-sm" viewBox="0 0 16 16">
  <g class="iconic-metadata">
    <title>Bullhorn</title>
  </g>
  <defs>
    <clipPath id="iconic-size-sm-bullhorn-clip-0">
      <path d="M0 0h13v11h-13z" />
    </clipPath>
    <clipPath id="iconic-size-sm-bullhorn-clip-1">
      <path d="M14 0h2v11h-2z" />
    </clipPath>
  </defs>
  <g class="iconic-container" data-width="16" data-height="15">
    <path d="M6.9 13.4l-1.9-4.4c-.1-.4.2-.9.7-.8l.3-1.2h-4v1l2.8 6.3c.3.6.9.8 1.5.6.6-.3.9-.9.6-1.5z" class="iconic-bullhorn-handle iconic-property-fill" />
    <path clip-path="url(#iconic-size-sm-bullhorn-clip-0)" class="iconic-bullhorn-body iconic-property-fill" d="M0 8v-5h5l8.7-3h2.3v11h-2.3l-8.7-3z" />
    <path d="M13.2 0h2.5c.2 0 .3.1.3.2v10.5c0 .1-.1.2-.2.2h-2.5c-.1 0-.2-.1-.2-.2v-10.5c-.1-.1 0-.2.1-.2z" clip-path="url(#iconic-size-sm-bullhorn-clip-1)" class="iconic-bullhorn-body iconic-bullhorn-body-front-lip iconic-property-fill" />
  </g>
</svg>