<svg version="1.1" xmlns="http://www.w3.org/2000/svg" width="128" height="128" data-icon="bullhorn" class="iconic iconic-bullhorn iconic-size-lg" viewBox="0 0 128 128">
  <g class="iconic-metadata">
    <title>Bullhorn</title>
  </g>
  <defs>
    <clipPath id="iconic-size-lg-bullhorn-clip-0">
      <path d="M4 0h114v92h-114z" />
    </clipPath>
    <clipPath id="iconic-size-lg-bullhorn-clip-1">
      <path d="M120 0h8v92h-8z" />
    </clipPath>
  </defs>
  <g class="iconic-container" data-width="128" data-height="122" transform="translate(0 3)">
    <path d="M41.7 68.3l5.6 10.4c.4.7 0 1.3-.8 1.3h-9c-.8 0-1.5-.7-1.5-1.5l.2-6c0-.8.6-1.9 1.2-2.5l2.4-2c.7-.6 1.5-.4 1.9.3z" class="iconic-bullhorn-handle iconic-bullhorn-handle-trigger iconic-property-fill" />
    <path d="M59.6 121.1l-19-47.6c-1.1-2.7 3.2-7.5 7.5-6.1l-.1-11.4h-28v10h1.6l22 55.1c.2.5.8.9 1.4.9h14c.5 0 .8-.4.6-.9z" class="iconic-bullhorn-handle iconic-property-fill" />
    <path d="M10.5 62h-9c-.8 0-1.5-.7-1.5-1.5v-29c0-.8.7-1.5 1.5-1.5h9c.8 0 1.5.7 1.5 1.5v29c0 .8-.7 1.5-1.5 1.5z" class="iconic-bullhorn-body iconic-bullhorn-body-back iconic-property-fill" />
    <path d="M4 64.5v-37c0-.8.7-1.5 1.5-1.5h37c.8 0 2.1-.2 2.9-.5l70.9-25c.8-.3 2.1-.5 2.9-.5h7.3c.8 0 1.5.7 1.5 1.5v89c0 .8-.7 1.5-1.5 1.5h-7.3c-.8 0-2.1-.2-2.9-.5l-70.9-25c-.8-.3-2.1-.5-2.9-.5h-37c-.8 0-1.5-.7-1.5-1.5z" clip-path="url(#iconic-size-lg-bullhorn-clip-0)"
    class="iconic-bullhorn-body iconic-property-fill" />
    <path d="M119.5 0h7c.8 0 1.5.7 1.5 1.5v89c0 .8-.7 1.5-1.5 1.5h-7c-.8 0-1.5-.7-1.5-1.5v-89c0-.8.7-1.5 1.5-1.5z" clip-path="url(#iconic-size-lg-bullhorn-clip-1)" class="iconic-bullhorn-body iconic-bullhorn-body-front-lip iconic-property-fill" />
  </g>
</svg>