<svg version="1.1" xmlns="http://www.w3.org/2000/svg" width="32" height="32" data-icon="bullhorn" class="iconic iconic-bullhorn iconic-size-md" viewBox="0 0 32 32">
  <g class="iconic-metadata">
    <title>Bullhorn</title>
  </g>
  <defs>
    <clipPath id="iconic-size-md-bullhorn-clip-0">
      <path d="M2 0h26v22h-26z" />
    </clipPath>
    <clipPath id="iconic-size-md-bullhorn-clip-1">
      <path d="M29 0h3v22h-3z" />
    </clipPath>
  </defs>
  <g class="iconic-container" data-width="32" data-height="30" transform="translate(0 1)">
    <path d="M14.8 29.5l-4.7-11.7c-.3-.7.3-1.7 1.4-1.4l-.5-2.4-6-1v3h.4l5.4 13.5c.1.3.4.5.7.5h3c.3 0 .4-.2.3-.5z" class="iconic-bullhorn-handle iconic-property-fill" />
    <path d="M2.5 15h-2c-.3 0-.5-.2-.5-.5v-7c0-.3.2-.5.5-.5h2c.3 0 .5.2.5.5v7c0 .3-.2.5-.5.5z" class="iconic-bullhorn-body iconic-bullhorn-body-back iconic-property-fill" />
    <path d="M2 15.5v-9c0-.3.2-.5.5-.5h7c.3 0 .7-.1 1-.2l17.5-5.6c.3-.1.7-.2 1-.2h2.6c.2 0 .4.2.4.5v21c0 .3-.2.5-.5.5h-2.6c-.3 0-.7-.1-1-.2l-17.5-5.7c-.3-.1-.7-.2-1-.2h-7c-.2.1-.4-.1-.4-.4z" clip-path="url(#iconic-size-md-bullhorn-clip-0)" class="iconic-bullhorn-body iconic-property-fill"
    />
    <path d="M28.5 0h3c.3 0 .5.2.5.5v21c0 .3-.2.5-.5.5h-3c-.3 0-.5-.2-.5-.5v-21c0-.3.2-.5.5-.5z" clip-path="url(#iconic-size-md-bullhorn-clip-1)" class="iconic-bullhorn-body iconic-bullhorn-body-front-lip iconic-property-fill" />
  </g>
</svg>