<svg version="1.1" xmlns="http://www.w3.org/2000/svg" width="128" height="128" data-icon="calculator" class="iconic iconic-calculator iconic-size-lg" viewBox="0 0 128 128">
  <g class="iconic-metadata">
    <title>Calculator</title>
  </g>
  <defs>
    <clipPath id="iconic-size-lg-calculator-clip-0">
      <path d="M0 128h100v-128h-100v128zm28-12.5c0 .3-.2.5-.5.5h-15c-.3 0-.5-.2-.5-.5v-15c0-.3.2-.5.5-.5h15c.3 0 .5.2.5.5v15zm0-20c0 .3-.2.5-.5.5h-15c-.3 0-.5-.2-.5-.5v-15c0-.3.2-.5.5-.5h15c.3 0 .5.2.5.5v15zm0-20c0 .3-.2.5-.5.5h-15c-.3 0-.5-.2-.5-.5v-15c0-.3.2-.5.5-.5h15c.3 0 .5.2.5.5v15zm0-20c0 .3-.2.5-.5.5h-15c-.3 0-.5-.2-.5-.5v-3c0-.3.2-.5.5-.5h15c.3 0 .5.2.5.5v3zm20 60c0 .3-.2.5-.5.5h-15c-.3 0-.5-.2-.5-.5v-15c0-.3.2-.5.5-.5h15c.3 0 .5.2.5.5v15zm0-20c0 .3-.2.5-.5.5h-15c-.3 0-.5-.2-.5-.5v-15c0-.3.2-.5.5-.5h15c.3 0 .5.2.5.5v15zm0-20c0 .3-.2.5-.5.5h-15c-.3 0-.5-.2-.5-.5v-15c0-.3.2-.5.5-.5h15c.3 0 .5.2.5.5v15zm0-20c0 .3-.2.5-.5.5h-15c-.3 0-.5-.2-.5-.5v-3c0-.3.2-.5.5-.5h15c.3 0 .5.2.5.5v3zm20 60c0 .3-.2.5-.5.5h-15c-.3 0-.5-.2-.5-.5v-15c0-.3.2-.5.5-.5h15c.3 0 .5.2.5.5v15zm0-20c0 .3-.2.5-.5.5h-15c-.3 0-.5-.2-.5-.5v-15c0-.3.2-.5.5-.5h15c.3 0 .5.2.5.5v15zm0-20c0 .3-.2.5-.5.5h-15c-.3 0-.5-.2-.5-.5v-15c0-.3.2-.5.5-.5h15c.3 0 .5.2.5.5v15zm0-20c0 .3-.2.5-.5.5h-15c-.3 0-.5-.2-.5-.5v-3c0-.3.2-.5.5-.5h15c.3 0 .5.2.5.5v3zm20 60c0 .3-.2.5-.5.5h-15c-.3 0-.5-.2-.5-.5v-35c0-.3.2-.5.5-.5h15c.3 0 .5.2.5.5v35zm0-40c0 .3-.2.5-.5.5h-15c-.3 0-.5-.2-.5-.5v-15c0-.3.2-.5.5-.5h15c.3 0 .5.2.5.5v15zm0-20c0 .3-.2.5-.5.5h-15c-.3 0-.5-.2-.5-.5v-3c0-.3.2-.5.5-.5h15c.3 0 .5.2.5.5v3zm0-10c0 .3-.2.5-.5.5h-75c-.3 0-.5-.2-.5-.5v-1c0-.3.2-.5.5-.5h75c.3 0 .5.2.5.5v1zm0-10c0 .3-.2.5-.5.5h-75c-.3 0-.5-.2-.5-.5v-23c0-.3.2-.5.5-.5h75c.3 0 .5.2.5.5v23z"
      />
    </clipPath>
  </defs>
  <g class="iconic-container" data-width="100" data-height="128" transform="translate(14)">
    <path clip-path="url(#iconic-size-lg-calculator-clip-0)" d="M97 128h-94c-1.7 0-3-1.3-3-3v-122c0-1.7 1.3-3 3-3h94c1.7 0 3 1.3 3 3v122c0 1.7-1.3 3-3 3z" class="iconic-calculator-body iconic-property-fill" />
  </g>
</svg>