<svg version="1.1" xmlns="http://www.w3.org/2000/svg" width="16" height="16" data-icon="calculator" class="iconic iconic-calculator iconic-size-sm" viewBox="0 0 16 16">
  <g class="iconic-metadata">
    <title>Calculator</title>
  </g>
  <defs>
    <clipPath id="iconic-size-sm-calculator-clip-0">
      <path d="M0 0v16h15v-16h-15zm4 14h-2v-2h2v2zm0-3h-2v-2h2v2zm0-3h-2v-2h2v2zm3 6h-2v-2h2v2zm0-3h-2v-2h2v2zm0-3h-2v-2h2v2zm3 6h-2v-2h2v2zm0-3h-2v-2h2v2zm0-3h-2v-2h2v2zm3 6h-2v-5h2v5zm0-6h-2v-2h2v2zm0-3h-11v-3h11v3z" />
    </clipPath>
  </defs>
  <g class="iconic-container" data-width="15" data-height="16">
    <path clip-path="url(#iconic-size-sm-calculator-clip-0)" d="M14.8 16h-14.6c-.1 0-.2-.1-.2-.2v-15.6c0-.1.1-.2.2-.2h14.5c.2 0 .3.1.3.2v15.5c0 .2-.1.3-.2.3z" class="iconic-calculator-body iconic-property-fill" />
  </g>
</svg>