<svg version="1.1" xmlns="http://www.w3.org/2000/svg" width="16" height="16" data-icon="calendar" class="iconic iconic-calendar iconic-size-sm" viewBox="0 0 16 16">
  <g class="iconic-metadata">
    <title>Calendar</title>
  </g>
  <defs>
    <clipPath id="iconic-size-sm-calendar-clip-0">
      <path d="M0 4v12h15v-12h-15zm4 10h-2v-2h2v2zm0-3h-2v-2h2v2zm3 3h-2v-2h2v2zm0-3h-2v-2h2v2zm0-3h-2v-2h2v2zm3 6h-2v-2h2v2zm0-3h-2v-2h2v2zm0-3h-2v-2h2v2zm3 3h-2v-2h2v2zm0-3h-2v-2h2v2z" />
    </clipPath>
    <clipPath id="iconic-size-sm-calendar-clip-1">
      <path d="M0 0h15v3h-15z" />
    </clipPath>
  </defs>
  <g class="iconic-container" data-width="15" data-height="16">
    <path clip-path="url(#iconic-size-sm-calendar-clip-0)" class="iconic-calendar-body iconic-property-fill" d="M0 0h15v16h-15z" />
    <path clip-path="url(#iconic-size-sm-calendar-clip-1)" class="iconic-calendar-top iconic-property-accent iconic-property-fill" d="M0 0h15v16h-15z" />
  </g>
</svg>