<svg version="1.1" xmlns="http://www.w3.org/2000/svg" width="32" height="32" data-icon="camera-slr" class="iconic iconic-camera-slr iconic-size-md" viewBox="0 0 32 32">
  <g class="iconic-metadata">
    <title>Camera Slr</title>
  </g>
  <defs>
    <clipPath id="iconic-size-md-camera-slr-clip-0">
      <path d="M0 0v30h32v-30h-32zm5 12c-.6 0-1-.4-1-1s.4-1 1-1 1 .4 1 1-.4 1-1 1zm22 7c-.6 3.9-3.9 7-8 7-4.4 0-8-3.6-8-8s3.6-8 8-8c4.1 0 7.4 3.1 7.9 7 0 0 0 0 .1 0 .6 0 1 .4 1 1s-.4 1-1 1z" />
    </clipPath>
  </defs>
  <g class="iconic-container" data-width="32" data-height="30" transform="translate(0 1)">
    <path clip-path="url(#iconic-size-md-camera-slr-clip-0)" d="M26.7 5.6l-3.4-5.2c-.2-.2-.5-.4-.8-.4h-7c-.3 0-.6.2-.8.4l-3.4 5.2c-.2.2-.5.4-.8.4h-4.5c-3.3 0-6 2.7-6 6v17.5c0 .3.2.5.5.5h31c.3 0 .5-.2.5-.5v-23c0-.3-.2-.5-.5-.5h-4c-.3 0-.6-.2-.8-.4z" class="iconic-camera-slr-body iconic-property-fill"
    />
    <path d="M19 12c-3.3 0-6 2.7-6 6s2.7 6 6 6 6-2.7 6-6-2.7-6-6-6zm0 2c-2.2 0-4 1.8-4 4 0 .3-.2.5-.5.5s-.5-.2-.5-.5c0-2.8 2.2-5 5-5 .3 0 .5.2.5.5s-.2.5-.5.5z" class="iconic-camera-slr-lens iconic-property-accent iconic-property-fill" />
  </g>
</svg>