<svg version="1.1" xmlns="http://www.w3.org/2000/svg" width="128" height="128" data-icon="camera-slr" class="iconic iconic-camera-slr iconic-size-lg" viewBox="0 0 128 128">
  <g class="iconic-metadata">
    <title>Camera Slr</title>
  </g>
  <defs>
    <clipPath id="iconic-size-lg-camera-slr-clip-0">
      <path d="M0 112h128v6h-128v-6zm128-112v110h-128v-110h128zm-112 38c0 2.2 1.8 4 4 4s4-1.8 4-4-1.8-4-4-4-4 1.8-4 4zm24-1c0-.6-.4-1-1-1s-1 .4-1 1v3c0 1.4-.9 3.4-1.8 4.4l-1.8 1.8c-1 1-3 1.8-4.4 1.8h-24c-.6 0-1 .4-1 1s.4 1 1 1h24c.8 0 1.6-.2 2.5-.5-.3.9-.5 1.7-.5 2.5v9c0 .6.4 1 1 1s1-.4 1-1v-9c0-1.4.9-3.4 1.8-4.4l1.8-1.8c1.4-1.4 2.4-3.9 2.4-5.8v-3zm78 33c0-3.3-2.7-6-6-6-1.7 0-3.2.7-4.3 1.8-2-14.6-14.6-25.8-29.7-25.8-16.5 0-30 13.5-30 30s13.5 30 30 30c15.1 0 27.7-11.2 29.7-25.8 1.1 1.1 2.6 1.8 4.3 1.8 3.3 0 6-2.7 6-6z"
      />
    </clipPath>
  </defs>
  <g class="iconic-container" data-width="128" data-height="118" transform="translate(0 5)">
    <circle cx="112" cy="70" r="4" class="iconic-camera-slr-lens-release iconic-property-fill" />
    <path d="M78 44c-14.4 0-26 11.6-26 26s11.6 26 26 26 26-11.6 26-26-11.6-26-26-26zm0 49.6c-13 0-23.6-10.6-23.6-23.6s10.6-23.6 23.6-23.6 23.6 10.6 23.6 23.6-10.6 23.6-23.6 23.6z" class="iconic-camera-slr-lens iconic-camera-slr-lens-barrel iconic-property-fill"
    />
    <path class="iconic-camera-slr-flash-mount iconic-property-fill" d="M72 0h14v3h-14z" />
    <path d="M78 48c-12.1 0-22 9.9-22 22s9.9 22 22 22 22-9.9 22-22-9.9-22-22-22zm0 5c-9.4 0-17 7.6-17 17 0 .6-.4 1-1 1s-1-.4-1-1c0-10.5 8.5-19 19-19 .6 0 1 .4 1 1s-.4 1-1 1z" class="iconic-camera-slr-lens iconic-camera-slr-lens-glass iconic-property-accent iconic-property-fill"
    />
    <path clip-path="url(#iconic-size-lg-camera-slr-clip-0)" d="M108.1 19.7l-12.2-15.4c-1.1-1.3-3.2-2.3-4.9-2.3h-26c-1.7 0-3.8 1-4.9 2.3l-12.2 15.4c-1.1 1.3-3.2 2.3-4.9 2.3h-19c-13.3 0-24 10.7-24 24v69c0 1.7 1.3 3 3 3h122c1.7 0 3-1.3 3-3v-90c0-1.7-1.3-3-3-3h-12c-1.7 0-3.8-1-4.9-2.3z"
    class="iconic-camera-slr-body iconic-property-fill" />
  </g>
</svg>