<svg version="1.1" xmlns="http://www.w3.org/2000/svg" width="32" height="32" data-icon="camera-rangefinder" class="iconic iconic-camera-rangefinder iconic-size-md" viewBox="0 0 32 32">
  <g class="iconic-metadata">
    <title>Camera Rangefinder</title>
  </g>
  <defs>
    <clipPath id="iconic-size-md-camera-rangefinder-clip-0">
      <path d="M12 0v1h-12v19h32v-20h-20zm6 2.1s.1-.1.1-.1h3.8s.1.1.1.1v1.8s-.1.1-.1.1h-3.8s-.1-.1-.1-.1v-1.8zm0 15.9c-3 0-5.4-2.2-5.9-5 0 0-.1 0-.1 0h-1c-.6 0-1-.4-1-1s.4-1 1-1h1s.1 0 .1 0c.5-2.8 2.9-5 5.9-5 3.3 0 6 2.7 6 6s-2.7 6-6 6zm11-13.1s-.1.1-.1.1h-4.8s-.1-.1-.1-.1v-3.8s.1-.1.1-.1h4.8s.1.1.1.1v3.8z"
      />
    </clipPath>
  </defs>
  <g class="iconic-container" data-width="32" data-height="20" transform="translate(0 6)">
    <path class="iconic-camera-rangefinder-controls iconic-camera-rangefinder-controls-shutter-release iconic-property-fill" d="M3 0h3v1h-3z" />
    <path class="iconic-camera-rangefinder-controls iconic-camera-rangefinder-controls-shutter-speed-dial iconic-property-fill" d="M7 0h4v1h-4z" />
    <path d="M31 20h-30c-.6 0-1-.4-1-1v-17c0-.6.4-1 1-1h10c.6 0 1-.2 1-.5s.4-.5 1-.5h18c.6 0 1 .4 1 1v18c0 .6-.4 1-1 1z" clip-path="url(#iconic-size-md-camera-rangefinder-clip-0)" class="iconic-camera-rangefinder-body iconic-property-fill" />
    <path d="M18 7c-2.8 0-5 2.2-5 5s2.2 5 5 5 5-2.2 5-5-2.2-5-5-5zm0 2c-1.7 0-3 1.3-3 3 0 .3-.2.5-.5.5s-.5-.2-.5-.5c0-2.2 1.8-4 4-4 .3 0 .5.2.5.5s-.2.5-.5.5z" class="iconic-camera-rangefinder-lens iconic-camera-rangefinder-lens-glass iconic-property-accent iconic-property-fill"
    />
  </g>
</svg>