<svg version="1.1" xmlns="http://www.w3.org/2000/svg" width="128" height="128" data-icon="cart" class="iconic iconic-cart iconic-size-lg" viewBox="0 0 128 128">
  <g class="iconic-metadata">
    <title>Cart</title>
  </g>
  <defs>
    <clipPath id="iconic-size-lg-cart-clip-0">
      <path d="M0 0v106h22.7c-2.8-2-4.7-5.3-4.7-9 0-6.1 4.9-11 11-11s11 4.9 11 11c0 3.7-1.9 7-4.7 9h61.4c-2.8-2-4.7-5.3-4.7-9 0-6.1 4.9-11 11-11s11 4.9 11 11c0 3.7-1.9 7-4.7 9h18.7v-106h-128z" />
    </clipPath>
  </defs>
  <g class="iconic-container" data-width="128" data-height="106" transform="translate(0 11)">
    <path d="M31.2 65.1l-14.4-50.2c-.4-1.6.5-2.9 2.2-2.9h106c1.7 0 2.7 1.3 2.4 2.9l-10.7 50.1c-.3 1.6-2 2.9-3.6 2.9h-78.1c-1.7.1-3.4-1.2-3.8-2.8z" class="iconic-cart-basket iconic-property-fill" />
    <circle cx="29" cy="97" r="9" class="iconic-cart-wheel iconic-cart-wheel-back iconic-property-fill" />
    <circle cx="103" cy="97" r="9" class="iconic-cart-wheel iconic-cart-wheel-front iconic-property-fill" />
    <path clip-path="url(#iconic-size-lg-cart-clip-0)" stroke="#000" stroke-width="4" stroke-miterlimit="10" d="M106 92h-81.2c-.4 0-.6-.3-.5-.7l9.4-22.6c.2-.4.2-1 .1-1.4l-18.6-64.6c-.1-.4-.5-.7-1-.7h-11.2" class="iconic-cart-body iconic-property-stroke"
    fill="none" />
    <circle cx="3" cy="3" r="3" class="iconic-cart-handle iconic-property-fill" />
  </g>
</svg>