<svg version="1.1" xmlns="http://www.w3.org/2000/svg" width="32" height="32" data-icon="cart" class="iconic iconic-cart iconic-size-md" viewBox="0 0 32 32">
  <g class="iconic-metadata">
    <title>Cart</title>
  </g>
  <defs>
    <clipPath id="iconic-size-md-cart-clip-0">
      <path d="M0 0v28h5.1c-.7-.6-1.1-1.5-1.1-2.5 0-1.9 1.6-3.5 3.5-3.5s3.5 1.6 3.5 3.5c0 1-.4 1.9-1.1 2.5h14.1c-.7-.6-1.1-1.5-1.1-2.5 0-1.9 1.6-3.5 3.5-3.5s3.5 1.6 3.5 3.5c0 1-.4 1.9-1.1 2.5h3.2v-28h-32z" />
    </clipPath>
  </defs>
  <g class="iconic-container" data-width="32" data-height="28" transform="translate(0 2)">
    <path d="M8.7 17l-3.4-13c-.2-.6.1-1 .7-1h25c.6 0 .9.4.8 1l-2.6 13c-.1.5-.6 1-1.2 1h-18c-.6 0-1.1-.4-1.3-1z" class="iconic-cart-basket iconic-property-fill" />
    <circle cx="7.5" cy="25.5" r="2.5" class="iconic-cart-wheel iconic-cart-wheel-back iconic-property-fill" />
    <circle cx="26.5" cy="25.5" r="2.5" class="iconic-cart-wheel iconic-cart-wheel-front iconic-property-fill" />
    <path clip-path="url(#iconic-size-md-cart-clip-0)" stroke="#000" stroke-miterlimit="10" d="M27 24.5h-20c-.3 0-.4-.2-.3-.5l2.1-5.6c.1-.3.1-.7.1-1l-4.3-16.4c0-.3-.3-.5-.6-.5h-3" class="iconic-cart-body iconic-property-stroke" fill="none" />
    <circle cx="1" cy="1" r="1" class="iconic-cart-handle iconic-property-fill" />
  </g>
</svg>