<svg version="1.1" xmlns="http://www.w3.org/2000/svg" width="32" height="32" data-icon="chat" class="iconic iconic-chat iconic-size-md" viewBox="0 0 32 32">
  <g class="iconic-metadata">
    <title>Chat</title>
  </g>
  <defs>
    <clipPath id="iconic-size-md-chat-clip-0">
      <path d="M11 18.9h-11v-18.9h22v6h-11z" />
    </clipPath>
  </defs>
  <g class="iconic-container" data-width="32" data-height="26" transform="translate(0 3)">
    <path d="M12 7.5v14c0 .3.2.5.5.5h15c.3 0 .7.2.9.4l3.3 3.3c.2.2.4.1.4-.1v-18c-.1-.4-.3-.6-.6-.6h-19c-.3 0-.5.2-.5.5z" class="iconic-chat-bubble iconic-chat-bubble-front iconic-property-fill" />
    <path d="M0 .5v18c0 .3.2.3.4.1l3.3-3.3c.1-.1.5-.3.8-.3h15c.3 0 .5-.2.5-.5v-14c0-.3-.2-.5-.5-.5h-19c-.3 0-.5.2-.5.5z" clip-path="url(#iconic-size-md-chat-clip-0)" class="iconic-chat-bubble iconic-chat-bubble-back iconic-property-accent iconic-property-fill"
    />
  </g>
</svg>