<svg version="1.1" xmlns="http://www.w3.org/2000/svg" data-icon="cloud-transfer-upload" width="16" height="16" class="iconic iconic-cloud-transfer iconic-size-sm iconic-cloud-transfer-upload" viewBox="0 0 16 16">
  <g>
    <title>Cloud Transfer Upload</title>
  </g>
  <defs>
    <clipPath id="iconic-size-sm-cloud-upload-clip-0">
      <path d="M0 0v12h4l4-4 4 4h4v-12z"></path>
    </clipPath>
  </defs>
  <g data-width="16" data-height="16" class="iconic-container iconic-cloud-upload" transform="scale(1 1 ) translate(0 ) ">
    <path d="M13 6v-1c0-2.8-2.2-5-5-5-2.5 0-4.5 1.8-4.9 4.1-1.8.4-3.1 2-3.1 3.9 0 2.2 1.8 4 4 4h9c1.7 0 3-1.3 3-3s-1.3-3-3-3z" clip-path="url(#iconic-size-sm-cloud-upload-clip-0)" class="iconic-cloud-upload-cloud iconic-property-fill"></path>
    <path stroke="#000" stroke-width="2" stroke-linecap="round" stroke-linejoin="round" stroke-miterlimit="10" class="iconic-cloud-upload-arrow iconic-cloud-upload-arrow-line iconic-property-accent iconic-property-stroke" d="M8 12v3" fill="none"></path>
    <path class="iconic-cloud-upload-arrow iconic-cloud-upload-arrow-head iconic-property-accent iconic-property-fill" d="M5 13l3-3 3 3z"></path>
  </g>
</svg>