<svg version="1.1" xmlns="http://www.w3.org/2000/svg" data-icon="cloud-transfer-download" width="32" height="32" class="iconic iconic-cloud-transfer iconic-size-md iconic-cloud-transfer-download" viewBox="0 0 32 32">
  <g>
    <title>Cloud Transfer Download</title>
  </g>
  <defs>
    <clipPath id="iconic-size-md-cloud-download-clip-0">
      <path d="M0 0v22h12v-2.1c-.6-.6-1-1.5-1-2.4 0-1.9 1.6-3.5 3.5-3.5s3.5 1.6 3.5 3.5c0 1-.4 1.8-1 2.4v2.1h15v-22h-32z"></path>
    </clipPath>
  </defs>
  <g data-width="32" data-height="32" class="iconic-container iconic-cloud-download" transform="scale(1 1 ) translate(0 ) ">
    <path stroke="#000" stroke-width="3" stroke-miterlimit="10" class="iconic-cloud-download-arrow iconic-cloud-download-arrow-line iconic-property-accent iconic-property-stroke" d="M14.5 17.5v10" fill="none"></path>
    <circle cx="14.5" cy="17.5" r="2.5" class="iconic-cloud-download-arrow iconic-cloud-download-arrow-starting-point iconic-property-accent iconic-property-fill"></circle>
    <path d="M18.7 26.4l-3.9 5.2c-.2.2-.4.2-.6 0l-3.9-5.2c-.2-.2-.1-.4.2-.4h8c.3 0 .4.2.2.4z" class="iconic-cloud-download-arrow iconic-cloud-download-arrow-head iconic-property-accent iconic-property-fill"></path>
    <path d="M27 12c-.4-2-2.1-3.5-4-3.9-.5-4.5-4.3-8.1-9-8.1s-8.6 3.4-9 8c-2.9.9-5 3.8-5 7 0 3.5 2.6 6.5 6 7h21c2.8 0 5-2.2 5-5s-2.2-5-5-5z" clip-path="url(#iconic-size-md-cloud-download-clip-0)" class="iconic-cloud-download-cloud iconic-property-fill"></path>
  </g>
</svg>