<svg version="1.1" xmlns="http://www.w3.org/2000/svg" data-icon="cloud-transfer-download" width="128" height="128" class="iconic iconic-cloud-transfer iconic-size-lg iconic-cloud-transfer-download" viewBox="0 0 128 128">
  <g>
    <title>Cloud Transfer Download</title>
  </g>
  <defs>
    <clipPath id="iconic-size-lg-cloud-download-clip-0">
      <path d="M0 0v86h50v-7.1c-2.4-2.2-4-5.4-4-8.9 0-6.6 5.4-12 12-12s12 5.4 12 12c0 3.5-1.6 6.7-4 8.9v7.1h62v-86h-128z"></path>
    </clipPath>
  </defs>
  <g data-width="128" data-height="128" class="iconic-container iconic-cloud-download" transform="translate(0 ) scale(1 1 ) ">
    <path stroke="#000" stroke-width="8" stroke-linecap="round" stroke-linejoin="round" stroke-miterlimit="10" class="iconic-cloud-download-arrow iconic-cloud-download-arrow-line iconic-property-accent iconic-property-stroke" d="M58 70v38" fill="none"></path>
    <circle cx="58" cy="70" r="8" class="iconic-cloud-download-arrow iconic-cloud-download-arrow-starting-point iconic-property-accent iconic-property-fill"></circle>
    <path d="M71.2 104.7l-12.4 22c-.4.7-1.1.7-1.5 0l-12.4-22c-.4-.7-.1-1.3.8-1.3h24.8c.7 0 1.1.6.7 1.3z" class="iconic-cloud-download-arrow iconic-cloud-download-arrow-head iconic-property-accent iconic-property-fill"></path>
    <path d="M110 50l-2.1.1c-.9-8.4-7.6-15.1-16-16-.9-19-16.7-34.1-35.9-34.1-18.8 0-34.3 14.5-35.9 32.9-11.5 3-20.1 13.6-20.1 26.1 0 14.6 11.6 26.4 26 27h84c9.9 0 18-8.1 18-18s-8.1-18-18-18z" clip-path="url(#iconic-size-lg-cloud-download-clip-0)" class="iconic-property-fill"></path>
  </g>
</svg>