<svg version="1.1" xmlns="http://www.w3.org/2000/svg" width="16" height="16" data-icon="cloudy" class="iconic iconic-cloudy iconic-size-sm" viewBox="0 0 16 16">
  <g class="iconic-metadata">
    <title>Cloudy</title>
  </g>
  <defs>
    <clipPath id="iconic-size-sm-cloudy-clip-0">
      <path d="M2.2 7.3c.8-2.5 3.1-4.3 5.8-4.3.7 0 1.4.1 2 .4v-3.4h-10v9c.6-.7 1.3-1.3 2.2-1.7z" />
    </clipPath>
  </defs>
  <g class="iconic-container" data-width="16" data-height="16">
    <circle cx="5" cy="5" r="5" clip-path="url(#iconic-size-sm-cloudy-clip-0)" class="iconic-cloudy-sun iconic-property-accent iconic-property-fill" />
    <path d="M13 10v-1c0-2.8-2.2-5-5-5-2.5 0-4.5 1.8-4.9 4.1-1.8.4-3.1 2-3.1 3.9 0 2.2 1.8 4 4 4h9c1.7 0 3-1.3 3-3s-1.3-3-3-3z" class="iconic-cloudy-cloud iconic-property-fill" />
  </g>
</svg>