<svg version="1.1" xmlns="http://www.w3.org/2000/svg" width="32" height="32" data-icon="cloudy" class="iconic iconic-cloudy iconic-size-md" viewBox="0 0 32 32">
  <g class="iconic-metadata">
    <title>Cloudy</title>
  </g>
  <defs>
    <clipPath id="iconic-size-md-cloudy-clip-0">
      <path d="M3.2 15.6c1-5 5.4-8.6 10.8-8.6 2.2 0 4.2.6 5.9 1.7-.6-4.9-4.8-8.7-9.9-8.7-5.5 0-10 4.5-10 10 0 2.3.8 4.5 2.1 6.2.4-.3.7-.5 1.1-.6z" />
    </clipPath>
  </defs>
  <g class="iconic-container" data-width="32" data-height="31">
    <circle cx="10" cy="10" r="10" clip-path="url(#iconic-size-md-cloudy-clip-0)" class="iconic-cloudy-sun iconic-property-accent iconic-property-fill" />
    <path d="M27 21c-.4-2-2.1-3.5-4-3.9-.5-4.5-4.3-8.1-9-8.1s-8.6 3.4-9 8c-2.9.9-5 3.8-5 7 0 3.5 2.6 6.5 6 7 4.3 0 20.9 0 21 0 2.8 0 5-2.2 5-5s-2.2-5-5-5z" class="iconic-cloudy-cloud iconic-property-fill" />
  </g>
</svg>