<svg version="1.1" xmlns="http://www.w3.org/2000/svg" data-icon="cloud-transfer-upload" width="32" height="32" class="iconic iconic-cloud-transfer iconic-size-md iconic-cloud-transfer-upload" viewBox="0 0 32 32">
  <g>
    <title>Cloud Transfer Upload</title>
  </g>
  <defs>
    <clipPath id="iconic-size-md-cloud-upload-clip-0">
      <path d="M0 0v22h9.5l5-6.5 5 6.5h12.5v-22z"></path>
    </clipPath>
  </defs>
  <g data-width="32" data-height="32" class="iconic-container iconic-cloud-upload" transform="scale(1 1 ) translate(0 ) ">
    <path d="M27 12c-.4-2-2.1-3.5-4-3.9-.5-4.5-4.3-8.1-9-8.1s-8.6 3.4-9 8c-2.9.9-5 3.8-5 7 0 3.5 2.6 6.5 6 7h21c2.8 0 5-2.2 5-5s-2.2-5-5-5z" clip-path="url(#iconic-size-md-cloud-upload-clip-0)" class="iconic-cloud-upload-cloud iconic-property-fill"></path>
    <path stroke="#000" stroke-width="3" stroke-linecap="square" stroke-linejoin="round" stroke-miterlimit="10" class="iconic-cloud-upload-arrow iconic-cloud-upload-arrow-line iconic-property-accent iconic-property-stroke" d="M14.5 29.5v-7.5" fill="none"></path>
    <path class="iconic-cloud-upload-arrow iconic-cloud-upload-arrow-head iconic-property-accent iconic-property-fill" d="M10 24l4.5-6 4.5 6z"></path>
    <circle cx="14.5" cy="29.5" r="2.5" class="iconic-cloud-upload-arrow iconic-cloud-upload-arrow-starting-point iconic-property-accent iconic-property-fill"></circle>
  </g>
</svg>