<svg version="1.1" xmlns="http://www.w3.org/2000/svg" data-icon="cloud-transfer-upload" width="128" height="128" class="iconic iconic-cloud-transfer iconic-size-lg iconic-cloud-transfer-upload" viewBox="0 0 128 128">
  <g>
    <title>Cloud Transfer Upload</title>
  </g>
  <defs>
    <clipPath id="iconic-size-lg-cloud-upload-clip-0">
      <path d="M0 0v86h42.7l15.3-26 15.3 26h54.7v-86z"></path>
    </clipPath>
  </defs>
  <g data-width="128" data-height="128" class="iconic-container iconic-cloud-upload" transform="translate(0 ) scale(1 1 ) ">
    <path stroke="#000" stroke-width="8" stroke-linecap="square" stroke-linejoin="round" stroke-miterlimit="10" class="iconic-cloud-upload-arrow iconic-cloud-upload-arrow-line iconic-property-accent iconic-property-stroke" d="M58 120v-32.1" fill="none"></path>
    <path class="iconic-cloud-upload-arrow iconic-cloud-upload-arrow-head iconic-property-accent iconic-property-fill" d="M58 68l-14 24h28z"></path>
    <circle cx="58" cy="120" r="8" class="iconic-cloud-upload-arrow iconic-cloud-upload-arrow-starting-point iconic-property-accent iconic-property-fill"></circle>
    <path d="M110 50l-2.1.1c-.9-8.4-7.6-15.1-16-16-.9-19-16.7-34.1-35.9-34.1-18.8 0-34.3 14.5-35.9 32.9-11.5 3-20.1 13.6-20.1 26.1 0 14.6 11.6 26.4 26 27h84c9.9 0 18-8.1 18-18s-8.1-18-18-18z" clip-path="url(#iconic-size-lg-cloud-upload-clip-0)" class="iconic-cloud-upload-cloud iconic-property-fill"></path>
  </g>
</svg>