<svg version="1.1" xmlns="http://www.w3.org/2000/svg" width="128" height="128" data-icon="cloudy" class="iconic iconic-cloudy iconic-size-lg" viewBox="0 0 128 128">
  <g class="iconic-metadata">
    <title>Cloudy</title>
  </g>
  <defs>
    <clipPath id="iconic-size-lg-cloudy-clip-0">
      <path d="M16.3 58c3-19.2 19.9-34 39.7-34 10.7 0 20.5 4.2 27.7 11.1-3.3-19.9-20.7-35.1-41.5-35.1-23.3 0-42.2 18.9-42.2 42.2 0 8 2.2 15.5 6.1 21.9 3-2.7 6.4-4.8 10.2-6.1z" />
    </clipPath>
  </defs>
  <g class="iconic-container" data-width="128" data-height="114" transform="translate(0 7)">
    <circle cx="42" cy="42" r="42" clip-path="url(#iconic-size-lg-cloudy-clip-0)" class="iconic-cloudy-sun iconic-property-accent iconic-property-fill" />
    <path d="M110 78c-.7 0-1.3-.1-2 0-.9-8.4-7.6-15.1-16-16-1-19-16.8-34-36-34-18.8 0-34.4 14.6-36 33-11.6 3-20 13.5-20 26 0 14.6 11.6 26.5 26 27h84c9.9 0 18-8.1 18-18s-8.1-18-18-18z" class="iconic-cloudy-cloud iconic-property-fill" />
  </g>
</svg>