<svg version="1.1" xmlns="http://www.w3.org/2000/svg" width="128" height="128" data-icon="cog" class="iconic iconic-cog iconic-size-lg" viewBox="0 0 128 128">
  <g class="iconic-metadata">
    <title>Cog</title>
  </g>
  <g class="iconic-container" data-width="128" data-height="128">
    <path d="M128 73.9v-19.9l-14.3-3.6c-1.2-4.2-2.8-8.3-5-12l7.5-12.7-14.1-14.1-12.7 7.6c-3.7-2.1-7.8-3.8-12-5l-3.5-14.2h-19.9l-3.6 14.3c-4.2 1.2-8.3 2.8-12 5l-12.7-7.5-14 14 7.6 12.7c-2.1 3.7-3.8 7.8-5 12l-14.3 3.6v19.9l14.3 3.6c1.2 4.2 2.8 8.3 5 12l-7.5 12.7 14.1 14.1 12.7-7.6c3.7 2.1 7.8 3.8 12 5l3.7 14.3h19.7l3.6-14.3c4.2-1.2 8.3-2.8 12-5l12.7 7.5 14.1-14.1-7.6-12.7c2.1-3.7 3.8-7.8 5-12l14.2-3.6zm-64 24.1c-18.8 0-34-15.2-34-34s15.2-34 34-34 34 15.2 34 34-15.2 34-34 34z"
    class="iconic-cog-body iconic-property-fill" />
  </g>
</svg>