<svg version="1.1" xmlns="http://www.w3.org/2000/svg" width="32" height="32" data-icon="cog" class="iconic iconic-cog iconic-size-md" viewBox="0 0 32 32">
  <g class="iconic-metadata">
    <title>Cog</title>
  </g>
  <g class="iconic-container" data-width="32" data-height="32">
    <path d="M32 18v-4l-4-1.3c-.3-1-.7-2-1.2-2.9l1.8-3.7-2.8-2.8-3.7 1.9c-.9-.5-1.9-.9-2.9-1.2l-1.2-4h-4l-1.3 4c-1 .3-2 .7-2.9 1.2l-3.7-1.9-2.8 2.8 1.9 3.7c-.5.9-.9 1.9-1.2 2.9l-4 1.3v4l4 1.3c.3 1 .7 2 1.2 2.9l-1.8 3.7 2.8 2.8 3.7-1.9c.9.5 1.9.9 2.9 1.2l1.3 4h4l1.3-4c1-.3 2-.7 2.9-1.2l3.7 1.8 2.8-2.8-1.9-3.7c.5-.9.9-1.9 1.2-2.9l3.9-1.2zm-16 5c-3.9 0-7-3.1-7-7s3.1-7 7-7 7 3.1 7 7-3.1 7-7 7z"
    class="iconic-cog-body iconic-property-fill" />
  </g>
</svg>