<svg version="1.1" xmlns="http://www.w3.org/2000/svg" width="32" height="32" data-icon="credit-card" class="iconic iconic-credit-card iconic-size-md" viewBox="0 0 32 32">
  <g class="iconic-metadata">
    <title>Credit Card</title>
  </g>
  <defs>
    <clipPath id="iconic-size-md-credit-card-clip-0">
      <path d="M0 0v20h32v-20h-32zm8 16.8c0 .1-.1.2-.2.2h-4.6c-.1 0-.2-.1-.2-.2v-2.5c0-.2.1-.3.2-.3h4.5c.2 0 .3.1.3.2v2.6zm15-6c0 .1-.1.2-.2.2h-19.6c-.1 0-.2-.1-.2-.2v-1.6c0-.1.1-.2.2-.2h19.5c.2 0 .3.1.3.2v1.6zm5 0c0 .1-.1.2-.2.2h-3.5c-.1 0-.2-.1-.2-.2v-1.6c-.1-.1 0-.2.1-.2h3.5c.2 0 .3.1.3.2v1.6zm3-4.8h-30v-3h30v3z"
      />
    </clipPath>
  </defs>
  <g class="iconic-container" data-width="32" data-height="20" transform="translate(0 6)">
    <path clip-path="url(#iconic-size-md-credit-card-clip-0)" d="M31 20h-30c-.6 0-1-.4-1-1v-18c0-.6.4-1 1-1h30c.6 0 1 .4 1 1v18c0 .6-.4 1-1 1z" class="iconic-credit-card-body iconic-property-fill" />
  </g>
</svg>