<svg version="1.1" xmlns="http://www.w3.org/2000/svg" width="32" height="32" data-icon="dashboard" class="iconic iconic-dashboard iconic-size-md" viewBox="0 0 32 32">
  <g class="iconic-metadata">
    <title>Dashboard</title>
  </g>
  <defs>
    <clipPath id="iconic-size-md-dashboard-clip-0">
      <path d="M0 0v30h32v-30h-32zm19.6 19.6c-.9.9-2.1 1.4-3.3 1.4-1.3 0-2.4-.5-3.3-1.4-1.1-1.1-5.7-8.5-7.7-11.6-.5-.7-.4-1.8.3-2.4.4-.4.9-.6 1.4-.6.4 0 .7.1 1.1.3 3.1 2 10.5 6.6 11.6 7.7 1.7 1.8 1.7 4.8-.1 6.6z" />
    </clipPath>
  </defs>
  <g class="iconic-container" data-width="32" data-height="30" transform="translate(0 1)">
    <path stroke="#000" stroke-width="3" stroke-miterlimit="10" d="M9 28.5c-4.5-2.4-7.5-7-7.5-12.5 0-8 6.5-14.5 14.5-14.5s14.5 6.5 14.5 14.5c0 5.5-3 10.1-7.5 12.5h-14z" class="iconic-dashboard-body iconic-property-stroke" fill="none" />
    <path d="M14.4 18.2c1 1 2.7 1 3.8 0s1-2.8 0-3.8-11.2-7.4-11.2-7.4 6.4 10.2 7.4 11.2z" class="iconic-dashboard-needle iconic-property-fill" />
    <path clip-path="url(#iconic-size-md-dashboard-clip-0)" stroke="#000" stroke-linecap="round" stroke-miterlimit="10" d="M9.3 22.7c-1.7-1.7-2.8-4.1-2.8-6.7s1.1-5 2.8-6.7 4.1-2.8 6.7-2.8 5 1.1 6.7 2.8 2.8 4.1 2.8 6.7-1.1 5-2.8 6.7" class="iconic-dashboard-values iconic-property-accent iconic-property-stroke"
    fill="none" />
  </g>
</svg>