<svg version="1.1" xmlns="http://www.w3.org/2000/svg" width="32" height="32" data-icon="delete" class="iconic iconic-delete iconic-size-md" viewBox="0 0 32 32">
  <g class="iconic-metadata">
    <title>Delete</title>
  </g>
  <defs>
    <clipPath id="iconic-size-md-delete-clip-0">
      <path d="M0 0v18h32v-18h-32zm23.6 12l-2.1 2.1-3-3-3 3-2.1-2.1 3-3-3-3 2.1-2.1 3 3 3-3 2.1 2.1-3 3 3 3z" />
    </clipPath>
  </defs>
  <g class="iconic-container" data-width="32" data-height="18" transform="translate(0 7)">
    <path d="M5.7.4l-5.4 8.2c-.2.2-.2.6 0 .8l5.4 8.2c.2.2.5.4.8.4h25c.3 0 .5-.2.5-.5v-17c0-.3-.2-.5-.5-.5h-25c-.3 0-.6.2-.8.4z" clip-path="url(#iconic-size-md-delete-clip-0)" class="iconic-delete-body iconic-property-fill" />
  </g>
</svg>