<svg version="1.1" xmlns="http://www.w3.org/2000/svg" width="32" height="32" data-icon="document" class="iconic iconic-document iconic-size-md" viewBox="0 0 32 32">
  <g class="iconic-metadata">
    <title>Document</title>
  </g>
  <defs>
    <clipPath id="iconic-size-md-document-clip-0">
      <path d="M17 8v-8h-17v32h25v-24h-8zm-14 7h15v1h-15v-1zm0 8h17v1h-17v-1zm19 5h-19v-1h19v1zm0-8h-19v-1h19v1zm0-8h-19v-1h19v1z" />
    </clipPath>
  </defs>
  <g class="iconic-container" data-width="25" data-height="32" transform="translate(3)">
    <path clip-path="url(#iconic-size-md-document-clip-0)" d="M24.5 32h-24c-.3 0-.5-.2-.5-.5v-31c0-.3.2-.5.5-.5h24c.3 0 .5.2.5.5v31c0 .3-.2.5-.5.5z" class="iconic-document-page iconic-property-fill" />
    <path class="iconic-document-flap iconic-property-fill" d="M25 7l-7-7v7z" />
  </g>
</svg>