<svg version="1.1" xmlns="http://www.w3.org/2000/svg" data-icon="double-quote-serif-right" width="32" height="32" class="iconic iconic-double-quote-serif iconic-size-md iconic-double-quote-serif-right" viewBox="0 0 32 32">
  <g>
    <title>Double Quote Serif Right</title>
  </g>
  <g data-width="32" data-height="28" class="iconic-container iconic-double-quote-serif-right" transform="scale(1 1 ) translate(0 2 ) ">
    <path stroke="#000" stroke-width="5" stroke-miterlimit="10" d="M0 25.5c6.4 0 11.5-5.1 11.5-11.5v-5" class="iconic-double-quote-serif-right-left iconic-double-quote-serif-right-curl iconic-property-stroke" fill="none"></path>
    <path d="M.5 0h13c.3 0 .5.2.5.5v13c0 .3-.2.5-.5.5h-13c-.3 0-.5-.2-.5-.5v-13c0-.3.2-.5.5-.5z" class="iconic-double-quote-serif-right-left iconic-double-quote-serif-right-block iconic-property-fill"></path>
    <path stroke="#000" stroke-width="5" stroke-miterlimit="10" d="M18 25.5c6.4 0 11.5-5.1 11.5-11.5v-5" class="iconic-double-quote-serif-right-right iconic-double-quote-serif-right-curl iconic-property-stroke" fill="none"></path>
    <path d="M18.5 0h13c.3 0 .5.2.5.5v13c0 .3-.2.5-.5.5h-13c-.3 0-.5-.2-.5-.5v-13c0-.3.2-.5.5-.5z" class="iconic-double-quote-serif-right-right iconic-double-quote-serif-right-block iconic-property-fill"></path>
  </g>
</svg>