<svg version="1.1" xmlns="http://www.w3.org/2000/svg" data-icon="double-quote-sans-right" width="128" height="128" class="iconic iconic-double-quote-sans iconic-size-lg iconic-double-quote-sans-right" viewBox="0 0 128 128">
  <g>
    <title>Double Quote Sans Right</title>
  </g>
  <g data-width="108" data-height="80" class="iconic-container iconic-double-quote-sans-right" transform="translate(10 24 ) scale(1 1 ) ">
    <path d="M64 1.5v77c0 .8.5 1 1.1.5l41.8-38c.6-.6 1.1-1.7 1.1-2.5v-37c0-.8-.7-1.5-1.5-1.5h-41c-.8 0-1.5.7-1.5 1.5z" class="iconic-double-quote-sans-right-second iconic-property-fill"></path>
    <path d="M0 1.5v77c0 .8.5 1 1.1.5l41.8-38c.6-.6 1.1-1.7 1.1-2.5v-37c0-.8-.7-1.5-1.5-1.5h-41c-.8 0-1.5.7-1.5 1.5z" class="iconic-double-quote-sans-right-first iconic-property-fill"></path>
  </g>
</svg>