<svg version="1.1" xmlns="http://www.w3.org/2000/svg" data-icon="double-quote-serif-left" width="128" height="128" class="iconic iconic-double-quote-serif iconic-size-lg iconic-double-quote-serif-left" viewBox="0 0 128 128">
  <g>
    <title>Double Quote Serif Left</title>
  </g>
  <g data-width="128" data-height="112" class="iconic-container iconic-double-quote-serif-left" transform="translate(0 8 ) scale(1 1 ) ">
    <path stroke="#000" stroke-width="16" stroke-miterlimit="10" d="M56 8c-26.5 0-48 21.5-48 48v12" class="iconic-double-quote-serif-left-left iconic-double-quote-serif-left-curl iconic-property-stroke" fill="none"></path>
    <path d="M54.5 112h-53c-.8 0-1.5-.7-1.5-1.5v-53c0-.8.7-1.5 1.5-1.5h53c.8 0 1.5.7 1.5 1.5v53c0 .8-.7 1.5-1.5 1.5z" class="iconic-double-quote-serif-left-left iconic-double-quote-serif-left-block iconic-property-fill"></path>
    <path stroke="#000" stroke-width="16" stroke-miterlimit="10" d="M128 8c-26.5 0-48 21.5-48 48v12" class="iconic-double-quote-serif-left-right iconic-double-quote-serif-left-curl iconic-property-stroke" fill="none"></path>
    <path d="M126.5 112h-53c-.8 0-1.5-.7-1.5-1.5v-53c0-.8.7-1.5 1.5-1.5h53c.8 0 1.5.7 1.5 1.5v53c0 .8-.7 1.5-1.5 1.5z" class="iconic-double-quote-serif-left-right iconic-double-quote-serif-left-block iconic-property-fill"></path>
  </g>
</svg>