<svg version="1.1" xmlns="http://www.w3.org/2000/svg" width="32" height="32" data-icon="ellipses" class="iconic iconic-ellipses iconic-size-md" viewBox="0 0 32 32">
  <g class="iconic-metadata">
    <title>Ellipses</title>
  </g>
  <g class="iconic-container" data-width="32" data-height="8" transform="translate(0 12)">
    <path d="M7.5 8h-7c-.3 0-.5-.2-.5-.5v-7c0-.3.2-.5.5-.5h7c.3 0 .5.2.5.5v7c0 .3-.2.5-.5.5z" class="iconic-ellipses-dot iconic-ellipses-dot-1 iconic-property-fill" />
    <path d="M19.5 8h-7c-.3 0-.5-.2-.5-.5v-7c0-.3.2-.5.5-.5h7c.3 0 .5.2.5.5v7c0 .3-.2.5-.5.5z" class="iconic-ellipses-dot iconic-ellipses-dot-2 iconic-property-fill" />
    <path d="M31.5 8h-7c-.3 0-.5-.2-.5-.5v-7c0-.3.2-.5.5-.5h7c.3 0 .5.2.5.5v7c0 .3-.2.5-.5.5z" class="iconic-ellipses-dot iconic-ellipses-dot-3 iconic-property-fill" />
  </g>
</svg>