<svg version="1.1" xmlns="http://www.w3.org/2000/svg" data-icon="envelope-closed" width="32" height="32" class="iconic iconic-envelope iconic-size-md iconic-envelope-closed" viewBox="0 0 32 32">
  <g>
    <title>Envelope Closed</title>
  </g>
  <g data-width="32" data-height="22" class="iconic-container iconic-envelope-closed" transform="scale(1 1 ) translate(0 5 ) ">
    <path d="M16.4 10.8l15.1-7.6c.3-.1.5-.4.5-.7v-2c0-.3-.2-.5-.5-.5h-31c-.3 0-.5.2-.5.5v2c0 .3.2.6.4.7l15.1 7.6c.3.1.7.1.9 0z" class="iconic-envelope-closed-envelope-flap iconic-property-accent iconic-property-fill"></path>
    <path d="M15.6 13.8l-15.2-7.6c-.2-.1-.4 0-.4.3v15c0 .3.2.5.5.5h31c.3 0 .5-.2.5-.5v-15c0-.3-.2-.4-.4-.3l-15.1 7.6c-.3.1-.7.1-.9 0z" class="iconic-envelope-closed-envelope-body iconic-property-fill"></path>
  </g>
</svg>