<svg version="1.1" xmlns="http://www.w3.org/2000/svg" width="32" height="32" data-icon="eye" class="iconic iconic-eye iconic-size-md" viewBox="0 0 32 32">
  <g class="iconic-metadata">
    <title>Eye</title>
  </g>
  <g class="iconic-container" data-width="32" data-height="20" transform="translate(0 6)">
    <path d="M16.1 0c-10.1 0-16.1 10-16.1 10s6 10 16.1 10c9.9 0 15.9-10 15.9-10s-6-10-15.9-10zm-.1 17c-3.9 0-7-3.1-7-7s3.1-7 7-7 7 3.1 7 7-3.1 7-7 7z" class="iconic-eye-eyeball iconic-property-fill" />
    <path d="M18.5 9c-.8 0-1.5-.7-1.5-1.5 0-.5.2-.9.6-1.2-.5-.2-1-.3-1.6-.3-2.2 0-4 1.8-4 4s1.8 4 4 4 4-1.8 4-4c0-.6-.1-1.1-.3-1.6-.3.4-.7.6-1.2.6z" class="iconic-eye-pupil iconic-property-fill" />
  </g>
</svg>