<svg version="1.1" xmlns="http://www.w3.org/2000/svg" width="32" height="32" data-icon="eyedropper" class="iconic iconic-eyedropper iconic-size-md" viewBox="0 0 32 32">
  <g class="iconic-metadata">
    <title>Eyedropper</title>
  </g>
  <g class="iconic-container" data-width="32" data-height="32">
    <path class="iconic-property-fill" d="M3.7 23.3l4.7 5-3.4 3.2h-4.5v-4.4z" />
    <path stroke="#000" stroke-linejoin="round" stroke-miterlimit="10" d="M19.6 7.7l-18.8 19c-.2.2-.4.6-.4.9v3.4c0 .3.2.5.5.5h3.4c.3 0 .7-.2.9-.4l18.9-18.9" class="iconic-eyedropper-tube iconic-property-stroke" fill="none" />
    <path d="M20 7l6-6c1.4-1.4 3.6-1.4 4.9 0 1.4 1.4 1.4 3.6 0 4.9l-6.2 6.2-4.7-5.1z" class="iconic-eyedropper-top iconic-eyedropper-top-suction iconic-property-fill" />
    <path transform="matrix(.707 -.707 .707 .707 -.127 18.692)" class="iconic-eyedropper-top iconic-eyedropper-top-lip iconic-property-fill" d="M21.1 3.1h2.8v12.7h-2.8z" />
  </g>
</svg>