<svg version="1.1" class="iconic iconic-file iconic-size-md iconic-file-html" data-icon="file-html" xmlns="http://www.w3.org/2000/svg" width="32" height="32" viewBox="0 0 32 32">
  <g>
    <title>File Html</title>
  </g>
  <defs>
    <clipPath id="file-clip-page-md-0" data-clip="primary-md">
      <path d="M-0.782,28.123C-0.902,28.055-0.887,28-0.75,28h27.5c0.138,0,0.152,0.055,0.032,0.123l-0.564,0.317 C26.098,28.507,26,28.675,26,28.813v2.937c0,0.138-0.112,0.25-0.25,0.25H0.25C0.112,32,0,31.888,0,31.75v-2.937 c0-0.138-0.098-0.305-0.218-0.373L-0.782,28.123z M18-0.75c0-0.137-0.08-0.17-0.177-0.073l-0.646,0.646 C17.08-0.08,16.888,0,16.75,0H0.25C0.112,0,0,0.113,0,0.25v14.844c0,0.137-0.094,0.312-0.209,0.387l-0.582,0.382 C-0.906,15.938-0.887,16-0.75,16h27.5c0.138,0,0.149-0.05,0.026-0.112l-0.553-0.276C26.101,15.551,26,15.388,26,15.25V8.958 c0-0.137,0.092-0.315,0.204-0.394l0.592-0.419C26.908,8.065,26.888,8,26.75,8h-8.5C18.112,8,18,7.887,18,7.75V-0.75z"></path>
    </clipPath>
  </defs>
  <g class="iconic-container" transform="scale(1 1 ) translate(3 0 ) " data-width="25" data-height="32">
    <polygon class="iconic-file-page iconic-property-fill" clip-path="url(#file-clip-page-md-0)" points="19,0 0,0 0,32 26,32 26,7"></polygon>
    <polygon class="iconic-file-flap iconic-property-fill" clip-path="url(#file-clip-flap-md-1)" points="26,7 19,7 19,0"></polygon>
    <text class="iconic-file-extension iconic-property-text" x="2" y="25" font-family="sans-serif" font-weight="bold" font-size="8" display="inline">HTML</text>
  </g>
</svg>