<svg version="1.1" xmlns="http://www.w3.org/2000/svg" width="16" height="16" data-icon="firefly" class="iconic iconic-firefly iconic-size-sm" viewBox="0 0 16 16">
  <g class="iconic-metadata">
    <title>Firefly</title>
  </g>
  <g class="iconic-container" data-width="15" data-height="16">
    <path d="M9 5s1.9-1.1 4.1-2c1.6-.6 1.9-.1 1.9.5.1 3.6-5 3.5-7 3.5l1-2z" class="iconic-firefly-wing iconic-firefly-wing-right iconic-firefly-wing-front iconic-firefly-wing-front-right iconic-property-fill" />
    <path d="M12.8 7.5c-1.4.4-3 .5-4.2.5-.1 0-.2 0-.3 0 2.9 2.4 5.7 2.6 5.7.8 0-.5-.5-1-1.2-1.3z" class="iconic-firefly-wing iconic-firefly-wing-right iconic-firefly-wing-back iconic-firefly-wing-back-right iconic-property-fill" />
    <path d="M6 5s-1.9-1.1-4.1-2c-1.6-.6-1.9-.1-1.9.5-.1 3.6 5 3.5 7 3.5l-1-2z" class="iconic-firefly-wing iconic-firefly-wing-left iconic-firefly-wing-front iconic-firefly-wing-front-left iconic-property-fill" />
    <path d="M6.4 8c-1.2 0-2.8-.1-4.2-.5-.7.3-1.2.8-1.2 1.3 0 1.8 2.8 1.7 5.7-.8-.1 0-.2 0-.3 0z" class="iconic-firefly-wing iconic-firefly-wing-left iconic-firefly-wing-back iconic-firefly-wing-back-left iconic-property-fill" />
    <path stroke="#000" stroke-linecap="round" stroke-miterlimit="10" d="M8.5 4.5s.5-4 3-4" class="iconic-firefly-antenna iconic-firefly-antenna-right iconic-property-stroke" fill="none" />
    <path stroke="#000" stroke-linecap="round" stroke-miterlimit="10" d="M6.5 4.5s-.5-4-3-4" class="iconic-firefly-antenna iconic-firefly-antenna-left iconic-property-stroke" fill="none" />
    <path d="M9 4.5c0 .8.1 8.5-1.5 8.5-1.5 0-1.5-7.7-1.5-8.5s.7-1.5 1.5-1.5 1.5.7 1.5 1.5z" class="iconic-firefly-body iconic-property-fill" />
    <circle cx="10.5" cy="12.5" r=".5" class="iconic-firefly-light-beam iconic-firefly-light-beam-5 iconic-property-fill" />
    <circle cx="9.5" cy="14.5" r=".5" class="iconic-firefly-light-beam iconic-firefly-light-beam-4 iconic-property-fill" />
    <circle cx="7.5" cy="15.5" r=".5" class="iconic-firefly-light-beam iconic-firefly-light-beam-3 iconic-property-fill" />
    <circle cx="5.5" cy="14.5" r=".5" class="iconic-firefly-light-beam iconic-firefly-light-beam-2 iconic-property-fill" />
    <circle cx="4.5" cy="12.5" r=".5" class="iconic-firefly-light-beam iconic-firefly-light-beam-1 iconic-property-fill" />
  </g>
</svg>