<svg version="1.1" xmlns="http://www.w3.org/2000/svg" width="128" height="128" data-icon="firefly" class="iconic iconic-firefly iconic-size-lg" viewBox="0 0 128 128">
  <g class="iconic-metadata">
    <title>Firefly</title>
  </g>
  <g class="iconic-container" data-width="126" data-height="128" transform="translate(1)">
    <path d="M72 38.5s20-9.8 38.3-17c13.2-5.2 15.6-1 15.7 3.4.5 29.8-33.9 29.1-56 29.1l2-15.5z" class="iconic-firefly-wing iconic-firefly-wing-right iconic-firefly-wing-front iconic-firefly-wing-front-right iconic-property-fill" />
    <path d="M98.2 54.6c-8.7 1.4-17.7 1.4-25 1.4h-1.7l-15.3-2.5c26.1 26 53.8 28.5 53.8 12.6 0-4.8-4.9-8.6-11.8-11.5z" class="iconic-firefly-wing iconic-firefly-wing-right iconic-firefly-wing-back iconic-firefly-wing-back-right iconic-property-fill" />
    <path d="M54 37.7s-20-9-38.3-16.2c-13.2-5.2-15.6-1-15.7 3.4-.5 29.8 34 29.1 56 29.1l-2-16.3z" class="iconic-firefly-wing iconic-firefly-wing-left iconic-firefly-wing-front iconic-firefly-wing-front-left iconic-property-fill" />
    <path d="M54.4 56h-1.7c-7.2 0-16.3 0-25-1.4-6.8 2.9-11.7 6.7-11.7 11.5 0 15.9 27.7 13.4 53.7-12.6l-15.3 2.5z" class="iconic-firefly-wing iconic-firefly-wing-left iconic-firefly-wing-back iconic-firefly-wing-back-left iconic-property-fill" />
    <path stroke="#000" stroke-width="2" stroke-linecap="round" stroke-miterlimit="10" d="M66.3 34.1s-1.3-33.1 19.7-33.1" class="iconic-firefly-antenna iconic-firefly-antenna-right iconic-property-stroke" fill="none" />
    <path stroke="#000" stroke-width="2" stroke-linecap="round" stroke-miterlimit="10" d="M59.7 34.1s1.3-33.1-19.7-33.1" class="iconic-firefly-antenna iconic-firefly-antenna-left iconic-property-stroke" fill="none" />
    <path d="M72 33c0 5 0 79-9 79s-9-74-9-79 4-9 9-9 9 4 9 9z" class="iconic-firefly-body iconic-property-fill" />
    <path stroke="#000" stroke-width="2" stroke-linecap="round" stroke-miterlimit="10" class="iconic-firefly-light-beam iconic-firefly-light-beam-5 iconic-property-stroke" fill="none" d="M81 109h-6" />
    <path stroke="#000" stroke-width="2" stroke-linecap="round" stroke-miterlimit="10" class="iconic-firefly-light-beam iconic-firefly-light-beam-4 iconic-property-stroke" fill="none" d="M75 121l-4-4" />
    <path stroke="#000" stroke-width="2" stroke-linecap="round" stroke-miterlimit="10" class="iconic-firefly-light-beam iconic-firefly-light-beam-3 iconic-property-stroke" fill="none" d="M63 121v6" />
    <path stroke="#000" stroke-width="2" stroke-linecap="round" stroke-miterlimit="10" class="iconic-firefly-light-beam iconic-firefly-light-beam-2 iconic-property-stroke" fill="none" d="M51 121l4-4" />
    <path stroke="#000" stroke-width="2" stroke-linecap="round" stroke-miterlimit="10" class="iconic-firefly-light-beam iconic-firefly-light-beam-1 iconic-property-stroke" fill="none" d="M51 109h-6" />
  </g>
</svg>