<svg version="1.1" xmlns="http://www.w3.org/2000/svg" width="128" height="128" data-icon="fire" class="iconic iconic-fire iconic-size-lg" viewBox="0 0 128 128">
  <g class="iconic-metadata">
    <title>Fire</title>
  </g>
  <g class="iconic-container" data-width="100" data-height="128" transform="translate(14)">
    <path d="M32 0s32 16 32 48-47.8 48.2-32 80c0 0-32-16-32-48s48-48 32-80z" class="iconic-fire-flame iconic-fire-flame-large iconic-property-fill" />
    <path d="M68 38s32 16 32 48c0 15.1-10.6 26.7-20.2 38-1.1 1.3-4 4-7.8 4s-34 0-34 0-1.4-2.5-1.8-6c-.2-1.3-.2-2.6-.2-4 0-32 48-48 32-80z" class="iconic-fire-flame iconic-fire-flame-small iconic-property-accent iconic-property-fill" />
  </g>
</svg>