<svg version="1.1" xmlns="http://www.w3.org/2000/svg" width="32" height="32" data-icon="firefly" class="iconic iconic-firefly iconic-size-md" viewBox="0 0 32 32">
  <g class="iconic-metadata">
    <title>Firefly</title>
  </g>
  <g class="iconic-container" data-width="31" data-height="32">
    <path d="M18 10s4.5-2.4 9.1-4.3c3.3-1.3 3.9-.2 3.9.9.1 7.5-7 7.4-14 7.4l1-4z" class="iconic-firefly-wing iconic-firefly-wing-right iconic-firefly-wing-front iconic-firefly-wing-front-right iconic-property-fill" />
    <path d="M24.9 14.6c-2.3.4-5 .4-7.5.4l-2.8-.6c6.5 6.5 13.4 7.1 13.4 3.2 0-1.3-1.3-2.3-3.1-3z" class="iconic-firefly-wing iconic-firefly-wing-right iconic-firefly-wing-back iconic-firefly-wing-back-right iconic-property-fill" />
    <path d="M13 9.8s-4.5-2.2-9.1-4.1c-3.3-1.3-3.9-.2-3.9.9-.1 7.5 6 7.4 14 7.4l-1-4.2z" class="iconic-firefly-wing iconic-firefly-wing-left iconic-firefly-wing-front iconic-firefly-wing-front-left iconic-property-fill" />
    <path d="M13.6 15c-2.8 0-5.4 0-7.6-.4-1.7.7-3 1.7-3 2.9 0 4 6.9 3.4 13.4-3.2l-2.8.7z" class="iconic-firefly-wing iconic-firefly-wing-left iconic-firefly-wing-back iconic-firefly-wing-back-left iconic-property-fill" />
    <path stroke="#000" stroke-linecap="round" stroke-miterlimit="10" d="M16.6 8.8s.9-8.3 6.2-8.3" class="iconic-firefly-antenna iconic-firefly-antenna-right iconic-property-stroke" fill="none" />
    <path stroke="#000" stroke-linecap="round" stroke-miterlimit="10" d="M14.4 8.8s-.9-8.3-6.2-8.3" class="iconic-firefly-antenna iconic-firefly-antenna-left iconic-property-stroke" fill="none" />
    <path d="M18 8.5c0 1.4 0 19.5-2.5 19.5s-2.5-18.1-2.5-19.5 1.1-2.5 2.5-2.5 2.5 1.1 2.5 2.5z" class="iconic-firefly-body iconic-property-fill" />
    <path stroke="#000" stroke-linecap="round" stroke-miterlimit="10" class="iconic-firefly-light-beam iconic-firefly-light-beam-5 iconic-property-stroke" fill="none" d="M19.5 26.5h1" />
    <path stroke="#000" stroke-linecap="round" stroke-miterlimit="10" class="iconic-firefly-light-beam iconic-firefly-light-beam-4 iconic-property-stroke" fill="none" d="M18.5 29.5l1 1" />
    <path stroke="#000" stroke-linecap="round" stroke-miterlimit="10" class="iconic-firefly-light-beam iconic-firefly-light-beam-3 iconic-property-stroke" fill="none" d="M15.5 31.5v-1" />
    <path stroke="#000" stroke-linecap="round" stroke-miterlimit="10" class="iconic-firefly-light-beam iconic-firefly-light-beam-2 iconic-property-stroke" fill="none" d="M12.5 29.5l-1 1" />
    <path stroke="#000" stroke-linecap="round" stroke-miterlimit="10" class="iconic-firefly-light-beam iconic-firefly-light-beam-1 iconic-property-stroke" fill="none" d="M10.5 26.5h1" />
  </g>
</svg>