<svg version="1.1" xmlns="http://www.w3.org/2000/svg" width="32" height="32" data-icon="flag" class="iconic iconic-flag iconic-size-md" viewBox="0 0 32 32">
  <g class="iconic-metadata">
    <title>Flag</title>
  </g>
  <g class="iconic-container" data-width="27" data-height="32" transform="translate(2)">
    <path stroke="#000" stroke-width="3" stroke-linecap="square" stroke-miterlimit="10" class="iconic-flag-mast iconic-property-stroke" fill="none" d="M1.5 3.5v27" />
    <path d="M0 1c0-.6.7-1 1.5-1s1.5.4 1.5 1h-3z" class="iconic-flag-mast iconic-flag-mast-top iconic-property-fill" />
    <path d="M13 4.5s0-.1 0-.1 0-.1 0-.1c0-.2.1-.4.2-.5l.6-.4c.1-.3.2-.4.2-.6s-.1-.4-.2-.5-.3-.3-.6-.3h-9.2v14h9v-11.5z" class="iconic-flag-back iconic-property-accent iconic-property-fill" />
    <path class="iconic-flag-front iconic-property-fill" d="M27 5h-13v14h13l-5-6.9z" />
  </g>
</svg>