<svg version="1.1" xmlns="http://www.w3.org/2000/svg" width="128" height="128" data-icon="flag" class="iconic iconic-flag iconic-size-lg" viewBox="0 0 128 128">
  <g class="iconic-metadata">
    <title>Flag</title>
  </g>
  <g class="iconic-container" data-width="98" data-height="128" transform="translate(15)">
    <path stroke="#000" stroke-width="8" stroke-linecap="square" stroke-miterlimit="10" class="iconic-flag-mast iconic-property-stroke" fill="none" d="M4 12v112" />
    <path d="M0 4c0-2.2 1.8-4 4-4s4 1.8 4 4v2h-8v-2z" class="iconic-flag-mast iconic-flag-mast-top iconic-property-fill" />
    <path d="M42 13s0-.1 0 0c0-.1 0-.1 0-.2 0-.3.2-.6.3-.8l1.3-2c.3-.3.4-.5.4-.8 0-.3-.1-.6-.3-.8-.3-.3-.5-.4-.9-.4h-32.8v52h32v-47z" class="iconic-flag-back iconic-property-accent iconic-property-fill" />
    <path d="M98 14h-54v51c0 .6.4 1 1 1h53l-14-26.1 14-25.9z" class="iconic-flag-front iconic-property-fill" />
  </g>
</svg>