<svg version="1.1" xmlns="http://www.w3.org/2000/svg" width="128" height="128" data-icon="folder" class="iconic iconic-folder iconic-size-lg" viewBox="0 0 128 128">
  <g class="iconic-metadata">
    <title>Folder</title>
  </g>
  <defs>
    <clipPath id="iconic-size-lg-folder-clip-0">
      <path d="M0 26h128v78h-128z" />
    </clipPath>
  </defs>
  <g class="iconic-container" data-width="128" data-height="104" transform="translate(0 12)">
    <path d="M40.5 14h-39c-.8 0-1.5-.7-1.5-1.5v-11c0-.8.7-1.5 1.5-1.5h39c.8 0 1.5.7 1.5 1.5v11c0 .8-.7 1.5-1.5 1.5z" class="iconic-folder-top iconic-folder-top-tag iconic-property-fill" />
    <path class="iconic-folder-top iconic-property-fill" d="M0 10h128v12h-128z" />
    <path clip-path="url(#iconic-size-lg-folder-clip-0)" d="M125 104h-122c-1.7 0-3-1.3-3-3v-76c0-1.7 1.3-3 3-3h122c1.7 0 3 1.3 3 3v76c0 1.7-1.3 3-3 3z" class="iconic-folder-bottom iconic-property-fill" />
  </g>
</svg>