<svg version="1.1" xmlns="http://www.w3.org/2000/svg" width="16" height="16" data-icon="fork" class="iconic iconic-fork iconic-size-sm" viewBox="0 0 16 16">
  <g class="iconic-metadata">
    <title>Fork</title>
  </g>
  <defs>
    <clipPath id="iconic-size-sm-fork-clip-0">
      <path d="M8 7c-1.7 0-3-1.3-3-3s1.3-3 3-3c.8 0 1.5.3 2 .8v-1.8h-5.8c.5.5.8 1.2.8 2 0 1.7-1.3 3-3 3-.8 0-1.5-.3-2-.8v7.6c.5-.5 1.2-.8 2-.8 1.7 0 3 1.3 3 3 0 .8-.3 1.5-.8 2h5.8v-9.8c-.5.5-1.2.8-2 .8z" />
    </clipPath>
  </defs>
  <g class="iconic-container" data-width="10" data-height="16" transform="translate(3)">
    <path stroke="#000" stroke-width="2" stroke-miterlimit="10" d="M2 14v-2c0-1.1.9-2.1 2-2.3l2-.4c1.1-.2 2-1.2 2-2.3v-3" clip-path="url(#iconic-size-sm-fork-clip-0)" class="iconic-fork-line-fork iconic-property-stroke" fill="none" />
    <path clip-path="url(#iconic-size-sm-fork-clip-0)" stroke="#000" stroke-width="2" stroke-miterlimit="10" class="iconic-fork-line-trunk iconic-property-stroke" fill="none" d="M2 4v8" />
    <circle cx="2" cy="14" r="2" class="iconic-fork-point-trunk-start iconic-property-accent iconic-property-fill" />
    <circle cx="2" cy="2" r="2" class="iconic-fork-point-trunk-end iconic-property-accent iconic-property-fill" />
    <circle cx="8" cy="4" r="2" class="iconic-fork-point-fork iconic-property-accent iconic-property-fill" />
  </g>
</svg>