<svg version="1.1" xmlns="http://www.w3.org/2000/svg" data-icon="fullscreen-exit" width="32" height="32" class="iconic iconic-fullscreen iconic-orientation-square iconic-size-md iconic-fullscreen-exit" viewBox="0 0 32 32">
  <g>
    <title>Fullscreen Exit</title>
  </g>
  <g data-width="32" data-height="32" class="iconic-container iconic-fullscreen-exit" transform="scale(1 1 ) translate(0 ) ">
    <path stroke="#000" stroke-width="3" stroke-miterlimit="10" class="iconic-fullscreen-exit-line iconic-fullscreen-exit-line-bottom iconic-property-stroke" d="M21 21l10 10" fill="none"></path>
    <path d="M18.5 18.1l6 .9c.3 0 .3.2.1.4l-5.3 5.3c-.2.2-.4.1-.4-.1l-.9-6c0-.4.2-.6.5-.5z" class="iconic-fullscreen-exit-arrowhead iconic-fullscreen-exit-arrowhead-bottom iconic-property-fill"></path>
    <path stroke="#000" stroke-width="3" stroke-miterlimit="10" class="iconic-fullscreen-exit-line iconic-fullscreen-exit-line-top iconic-property-stroke" d="M11 11l-10-10" fill="none"></path>
    <path d="M13.5 13.9l-6-.9c-.3 0-.3-.2-.1-.4l5.3-5.3c.2-.2.4-.1.4.1l.9 6c0 .4-.2.6-.5.5z" class="iconic-fullscreen-exit-arrowhead iconic-fullscreen-exit-arrowhead-top iconic-property-fill"></path>
  </g>
</svg>