<svg version="1.1" xmlns="http://www.w3.org/2000/svg" data-icon="fullscreen-exit" width="128" height="128" class="iconic iconic-fullscreen iconic-orientation-square iconic-size-lg iconic-fullscreen-exit" viewBox="0 0 128 128">
  <g>
    <title>Fullscreen Exit</title>
  </g>
  <g data-width="128" data-height="127" class="iconic-container iconic-fullscreen-exit" transform="translate(0 ) scale(1 1 ) ">
    <path stroke="#000" stroke-width="8" stroke-linecap="square" stroke-miterlimit="10" class="iconic-fullscreen-exit-line iconic-fullscreen-exit-line-bottom iconic-property-stroke" d="M83.5 83.5l38.5 38.5" fill="none"></path>
    <path d="M74.3 75.5l5.4 25.1c.2.8.8 1 1.4.4l19.9-19.9c.6-.6.4-1.2-.4-1.4l-25.1-5.4c-.8-.2-1.4.4-1.2 1.2z" class="iconic-fullscreen-exit-arrowhead iconic-fullscreen-exit-arrowhead-bottom iconic-property-fill"></path>
    <path stroke="#000" stroke-width="8" stroke-linecap="square" stroke-miterlimit="10" class="iconic-fullscreen-exit-line iconic-fullscreen-exit-line-top iconic-property-stroke" d="M44.5 44.5l-38.5-38.5" fill="none"></path>
    <path d="M53.7 52.5l-5.4-25.1c-.2-.8-.8-1-1.4-.4l-19.8 19.9c-.6.6-.4 1.2.4 1.4l25.1 5.4c.7.2 1.3-.4 1.1-1.2z" class="iconic-fullscreen-exit-arrowhead iconic-fullscreen-exit-arrowhead-top iconic-property-fill"></path>
  </g>
</svg>