<svg version="1.1" xmlns="http://www.w3.org/2000/svg" width="16" height="16" data-icon="globe" class="iconic iconic-globe iconic-size-sm" viewBox="0 0 16 16">
  <g class="iconic-metadata">
    <title>Globe</title>
  </g>
  <g class="iconic-container" data-width="16" data-height="16">
    <path d="M15 10.7v-5.4c-.7-1.9-2.2-3.5-4.1-4.3-.1.1-.2.2-.2.4s-.2.4-.4.4-.4.2-.4.4-.2.6-.4.8l-.3.3c-.2.2-.2.3.1.3.2 0 .6 0 .9-.1.2 0 .3.1.1.3l-.2.2c-.2.2-.3.6-.3.9v.2c0 .3.3.4.5.3l1.5-.6c.3-.1.6-.4.8-.6l.3-.2c.2-.2.3-.2.3.1 0 .2.2.6.3.8l.2.1c.2.2.2.4-.1.4s-.4.2-.4.4-.2.5-.4.5-.4-.2-.4-.4-.2-.3-.4-.2l-.2.1c-.3 0-.7.2-.8.3-.2.1-.5.3-.7.5l-.2.2c-.2.2-.5.5-.7.7l-.1.1c-.2.2-.4.6-.4.9v.8c-.1.2.1.5.4.7l.9.4c.2.1.7.2.9.2.3 0 .6 0 .9 0s.6.2.8.3l.2.2c.2.2.2.5 0 .7l-.3.2c-.2.2-.4.6-.4.8v.7c0 .1.1.3.1.4 1.2-.8 2.1-1.9 2.6-3.2zM1 5.3v3.9c0 .3 0 .7 0 1v.4c.5 1.4 1.5 2.6 2.7 3.4h1.2c.3 0 .7-.2.8-.4l.2-.2c.2-.2.4-.6.4-.9v-.7c0-.3-.2-.5-.5-.5h-.8c-.3 0-.6-.2-.7-.4l-.4-.9c-.2-.1-.5-.3-.8-.3h-.7c-.3 0-.5-.2-.5-.5v-.8c0-.2.2-.4.4-.4s.6.2.8.4l.2.2c.2.2.3.2.3-.1 0-.2-.2-.6-.3-.8l-.2-.2c-.2-.2-.4-.6-.3-.8s0-.6 0-.9.1-.4.3-.4c.2 0 .4-.2.4-.4.1-.2.4-.4.6-.4h.5c.3 0 .7-.2.8-.4l.3-.2c.2-.2.1-.5-.1-.6l-.7-.4c-.2-.1-.4-.4-.4-.7 0-.2.2-.3.4-.1l.1.2c.2.2.5.2.7 0l.2-.2c.2-.2.4-.5.4-.8 0-.2.1-.4.4-.4h-1.4c-2 .8-3.5 2.3-4.3 4.3zM8.9 1h-2.2c.2 0 .4.2.4.4 0 .3-.1.6-.3.8l-.2.2c-.2.2-.2.4.1.4s.6-.2.8-.4l.2-.2c.1-.2.4-.5.6-.7l.6-.5z"
    class="iconic-globe-land-mass iconic-property-fill" />
    <circle stroke="#000" stroke-miterlimit="10" cx="8" cy="8" r="7.5" class="iconic-globe-border iconic-property-stroke" fill="none" />
  </g>
</svg>