<svg version="1.1" xmlns="http://www.w3.org/2000/svg" width="32" height="32" data-icon="globe" class="iconic iconic-globe iconic-size-md" viewBox="0 0 32 32">
  <g class="iconic-metadata">
    <title>Globe</title>
  </g>
  <g class="iconic-container" data-width="32" data-height="32">
    <path d="M31 19.8v-7.7c-1.2-4.5-4.3-8.3-8.5-10.2h-.1c-.4 0-.8.2-.8.5s-.2.5-.5.5-.7 0-.9 0-.3.2 0 .5.5.7.5.9.2.5.5.5.4.4.4.8v.4c0 .4-.2.5-.5.3s-.7-.7-1-.9-.7-.5-1-.5-.5.2-.5.5 0 .7 0 .9.2.5.5.5.7 0 .9 0 .5.2.5.5.2.7.5.9.3.7 0 .9-.7.5-.9.5-.4.2-.4.5.2.7.5.9.7.2 1-.1l.8-.9c.3-.3.5-.7.5-1s.2-.5.5-.5.8.2 1.1.4l.5.3c.4.2.7.6.7.8s.2.2.5 0 .2-.6-.2-.8l-.6-.3c-.4-.2-.5-.3-.2-.3s.7.2 1 .5.7.3.9 0 .5-.3.5 0 .2.5.5.5.7.2.9.5.2.7 0 1-.7.5-1 .4-.7.2-.9.5-.7.5-.9.5-.5-.2-.5-.5-.3-.4-.7-.3l-2.3.6c-.4.1-.9.4-1.2.6s-.7.7-.9.9-.7.7-.9.9-.5.7-.5.9-.2.7-.5.9-.3.7 0 .9.5.8.5 1.2v.3c0 .4.2 1 .5 1.3l1.8 1.8c.3.3.7.3 1 0s.7-.5.9-.5.7-.2.9-.5.8-.3 1.2-.1l.5.3c.4.2.7.5.7.8s0 .8 0 1.2v.4c0 .4-.1 1-.3 1.4l-.3.5c-.2.4-.3 1-.3 1.4v.4c0 .3.2.5.4.6 2.5-1.9 4.4-4.8 5.2-8.1zM16.4 1.5c.3.3.7.3 1 0s.1-.5-.3-.5h-5c-5.4 1.4-9.7 5.7-11.1 11.2v3.1c0 .4.2 1.1.3 1.4l.3.5c.2.4.3 1 .3 1.4v.4c0 .4.1 1.1.2 1.5l.5 1.4c.1.4.4 1 .7 1.3l1.1 1.6c.2.3.4.8.4 1.1s.2.7.5.9.7.7 1.1.9l2.5 1.9c.3.2.6.2.6 0s.2-.7.5-.9.7-.5 1-.5.5-.2.5-.5.2-.7.5-.9.5-.7.4-.9-.2-.7-.5-.9-.7-.5-.9-.4-.8-.2-1.1-.4l-1.7-1.2c-.3-.2-.6-.6-.6-.9s-.2-.7-.5-.9-.7-.7-1-.9-.7-.7-.9-.9-.7-.7-1-1l-.8-.8c-.3-.3-.7-.5-1-.5s-.5-.3-.5-.8v-.3c0-.4.3-.6.7-.4l.6.3c.3 0 .8.1 1.1.1s.2-.3-.1-.6l-1.7-1.7c-.3-.3-.5-.9-.5-1.3v-.4c0-.4.2-1 .5-1.2s.5-.1.5.3v.4c0 .4.2.5.5.3s.5-.7.5-1 .2-.5.5-.5.5-.2.5-.5.2-.7.5-1l.8-.8c.3-.3.7-.3 1-.1s.4.6.7.6.5-.2.5-.5-.2-.7-.5-.9-.1-.5.3-.5h.4c.4 0 .9-.3 1.1-.7l.2-.5c.2-.4.1-.9-.1-1.1s-.7-.3-1 0-.7.5-.9.5-.2-.3.1-.6l.8-.8c.3-.3.7-.3 1 0s.7.5.9.5.7-.2.9-.5.5-.7.5-.9.2-.5.5-.4.3.3.1.7l-.3.5c-.2.4-.3.9-.3 1.1s.2.5.5.5.7-.2.9-.5.8-.7 1.1-.8l.5-.3c.5-.3.8-.7.8-.9s0-.7 0-.9.2-.3.4 0z"
    class="iconic-globe-land-mass iconic-property-fill" />
    <circle stroke="#000" stroke-width="2" stroke-miterlimit="10" cx="16" cy="16" r="15" class="iconic-globe-border iconic-property-stroke" fill="none" />
  </g>
</svg>