<svg version="1.1" xmlns="http://www.w3.org/2000/svg" width="128" height="128" data-icon="globe" class="iconic iconic-globe iconic-size-lg" viewBox="0 0 128 128">
  <g class="iconic-metadata">
    <title>Globe</title>
  </g>
  <g class="iconic-container" data-width="128" data-height="128">
    <path d="M77.7 22.6c-1.4-.9-2.1-2.1-1.5-2.6s1.4-.5 1.9 0 1.4 1.4 1.9 1.9 1.4 1.4 1.9 1.9 1.4 1.4 1.9 1.9-.2 1.7-1.6 2.6l-.6.4c-1.4.9-2.1.4-1.6-1.1s-.2-3.5-1.5-4.5l-.8-.5zM75.2 26.5c0 1 .8 1 1.9 0s1.5-2.3.9-2.8-1.4-.5-1.9 0-.9 1.8-.9 2.8zM105.2 31.1c0 .5.4 1.3.9 1.9s1.4.6 1.9.1 1.3-1 1.8-1 .9-.4 1-.9-.7-1.3-1.7-1.9-2.3-1.4-2.8-2-1-.1-1 .9c0 1.2-.1 2.4-.1 2.9zM68.9 13.4c-1.7 0-3.4.5-3.9 1s-.1 1.4.9 1.9 2.3.4 2.8-.1.9-1.7.9-2.6c0 0 0 0 0-.2h-.7zM9.6 54.5c0 1.1.4 2.4.9 2.9s1.4.9 1.9.9.2-1.1-.7-2.5l-.5-.7c-.8-1.4-1.6-1.6-1.6-.6zM12.4 61.2c-.5.5 0 1.4 1 1.9s1.9.1 1.9-.9-.5-1.9-1-1.9-1.5.4-1.9.9zM19 66.8c0 1.5.4 2.8.9 2.8s.9-.4.9-.9-.4-1.8-.9-2.8-.9-.6-.9.9zM124 79.7v-31.4c-4.7-18-17.3-32.9-33.9-40.6h-.6c-1.7 0-3 .4-3 .9s.4 1.4.9 1.9.1.5-.9 0-2.7-.9-3.8-.9-1.9.8-1.9 1.9.4 2.3.9 2.8.5 1.4 0 1.9 0 1.8 1.1 2.8 2.3 1.5 2.8.9.9-.1.9.9.4 2.3.9 2.8.5.9 0 .9-1.7 1.1-2.6 2.5l-.4.6c-.9 1.4-2.1 2.5-2.6 2.5s-.5.4 0 .9 1.4 1 1.9 1.1c.5.1 1.4 1 1.9 1.9.5.9-.4 1.7-2.1 1.7h-1.5c-1.7 0-2.6 1.3-2.1 2.8s.5 2.8 0 2.8-.5.8 0 1.9 1.8 1.9 2.8 1.9 1.9.1 1.9.2 1.1-.6 2.4-1.6l.8-.6c1.3-1 2.4-2.6 2.4-3.6s-.1-2.3-.1-2.9.5-1 1.1-.9 1.5-.3 2-.9 1.7-.5 2.7 0 2.7 1.4 3.7 1.9 1.9 1.8 1.9 2.8.4 1.8.9 1.8 1-.8.9-1.8-.5-2.3-1.1-2.8-1.8-1.3-2.8-1.9-2.2-1.4-2.7-1.9-.6-1-.1-1.1 2 .7 3.3 1.6l.7.5c1.3 1 2.9 2.2 3.4 2.7s1 1.3 1 1.8.5.9 1.1.9c.6 0 1-.8 1-1.8s.8-1 1.8 0 2.3 1.4 2.9.9 1.4-.1 1.9.9.8 2.7.8 3.6-1.3 1.4-2.8.9-3.2-.4-3.8.2-.5 1.4 0 1.9.1.9-.9.9-2.3-.4-2.8-1-1.3-.5-1.9 0-1.4.5-1.9 0-.9-1.8-.9-2.9-.4-1.9-1-1.9-1.4.4-1.8.9-1.7.9-2.8.9-2.3.5-2.9 1c-.5.5-1.4 1.3-1.9 1.8s-1.8 1.1-2.8 1.3-1.9.6-1.9.9-.8 1-1.9 1.5-1.9 1.8-1.9 2.8-.6 3.4-1.6 4.4-2.5 3.1-3.2 4.6l-1.1 2.1c-.7 1.5-1.3 3.1-1.3 3.6s.4 1.8.9 2.8.5 2.7 0 3.8-.9 2.3-.9 2.8.4 1.4.9 1.9.9 1.4.9 1.9.4 1.4.9 1.9 1.8 1.4 2.8 1.9 1.9 1.4 1.9 1.9 1.1 1.7 2.5 2.6l.6.4c1.4.9 3.3.8 4.4-.2s2.7-1.9 3.8-1.9 3-.7 4.4-1.7l.6-.4c1.4-.9 2.9-1.2 3.4-.7s1.8.9 2.8.9 1.9.8 1.9 1.9-.4 2.3-.9 2.8-.1 1.8.9 2.8 1.9 2.3 1.9 2.8-.4 1.4-.9 1.9-.9 1.4-.9 1.9-.7 2.1-1.7 3.4l-.4.6c-.9 1.4-.7 3.3.5 4.4 0 0 0 0-.3 0s-2.2 3.1-2.2 3.1c-.8 1.3-.3 2.4 1.1 2.5 10.5-8.3 18.2-19.9 21.7-33.1zM64.9 10.6c.5-.5.9-1.8.9-2.8s1.3-1.9 2.8-1.9 3.2-.4 3.8-.9-.4-1-2-1h-22c-21.7 5.6-38.8 22.7-44.4 44.3v8.9c0 1.6.4 3.8.9 4.9s.9 3.1.9 4.7.4 3.2.9 3.8 1.4 1.8 1.9 2.8.5 2.3 0 2.9-.9 1.4-.9 1.9 0 1.7 0 2.8-.1 3.2-.3 4.9l-.3 3c5.5 12.6 15.1 23.1 27.1 29.7h.5c1.7 0 3.4-.4 3.9-.9s.9-1.4.9-1.9 1.3-.9 2.8-.9 3.2-.8 3.8-1.9.9-2.7.9-3.7.8-2.3 1.9-2.8 1.9-1.9 1.9-2.9-.8-2.3-1.9-2.8-2.3-1.4-2.8-1.9-2.2-1.3-3.8-1.8-4-1.5-5.5-2.3l-2.2-1.1c-1.5-.8-2.7-1.8-2.7-2.3s-.4-1.4-.9-1.9-1.4-1.8-1.9-2.8-2.1-2.6-3.4-3.5l-.6-.4c-1.4-.9-3.1-2.9-3.8-4.3l-1.1-2.1c-.7-1.5-2.2-2.7-3.2-2.7s-2.6-1.1-3.6-2.5l-.4-.6c-.9-1.4-2.1-2.1-2.6-1.6s-1.3.5-1.9 0-.9-2.3-.9-3.9v-1.5c0-1.7-.4-3.4-.9-3.9s-.5-1.8 0-2.8.9-2.7.9-3.8-.4-1.5-.9-.9-.7-.4-.4-2l.9-5.4c.3-1.6.9-3 1.4-3s.9.4.9.9.4.9.9.9.6 1.3.2 2.9l-.2 1.5c-.4 1.6 0 2.9.8 2.9 0 0 0 0 .4 0s1.3-4.6 1.3-4.6c.3-1.6 1.7-3.7 3.1-4.5l.5-.3c1.4-.9 2.5-2.1 2.5-2.6s.4-1 .9-1 .9-.4.9-.9.4-1.4.9-1.9 1.4-.5 1.9 0 .9.5.9 0 .4-1.4.9-1.9 1.4-.9 1.9-.9.9.4.9.9.4.9.9.9 1.8-.4 2.8-.9 1.9-1.4 1.9-1.9-.4-.9-.9-.9-.9-.4-.9-.9 0-1.4 0-1.9.4-.5.9 0 1.8.5 2.8 0 1.5-.5.9 0-.9 1.4-.9 1.9.4 1.4.9 1.9 1.4.9 1.9.9.9-.8.9-1.9-.4-1.9-.9-1.9-.5-.4 0-.9 1.4-1.8 1.9-2.8.5-1.9 0-1.9-.9-.4-.9-.9.4-1.4.9-1.9.9-1.4.9-1.9-.9-.5-1.9 0-1.4.1-.9-.9.5-1.9 0-1.9-1.8.4-2.9 1-1.9 1.4-2 1.9-1.1 1.6-2.5 2.5l-.3.2c-1.4.9-2 .9-1.5-.2s.9-2.3.9-2.8 1.1-1.7 2.5-2.6l.6-.4c1.4-.9 3.8-1.7 5.3-1.7s2.8.4 2.8.9.4.9.9.9 2.1-.7 3.4-1.7l.6-.4c1.4-.9 2.9-2.1 3.4-2.6s.5-.9 0-.9-.7-.3-.7-.8.8-1.4 1.9-1.9 2.3-.5 2.8 0 .5 1.4 0 1.9-1.7 2.1-2.6 3.4l-.4.6c-.9 1.4-1.7 2.9-1.7 3.4s.4 1.4.9 1.9 1.4.9 1.9.9 1.4-.4 1.9-.9 2.1-1.7 3.4-2.6l.6-.4c1.4-.9 3.3-1.7 4.4-1.7s1.9-.3 1.9-.9.4-1.3.9-1.8z"
    class="iconic-globe-land-mass iconic-property-fill" />
    <circle stroke="#000" stroke-width="4" stroke-miterlimit="10" cx="64" cy="64" r="62" class="iconic-globe-border iconic-property-stroke" fill="none" />
  </g>
</svg>