<svg version="1.1" xmlns="http://www.w3.org/2000/svg" data-icon="grid-three-up" width="32" height="32" class="iconic iconic-grid iconic-orientation-square iconic-size-md iconic-grid-three-up" viewBox="0 0 32 32">
  <g>
    <title>Grid Three Up</title>
  </g>
  <g data-width="32" data-height="32" class="iconic-container iconic-grid-three-up" transform="scale(1 1 ) translate(0 ) ">
    <path d="M31.5 32h-7c-.3 0-.5-.2-.5-.5v-7c0-.3.2-.5.5-.5h7c.3 0 .5.2.5.5v7c0 .3-.2.5-.5.5z" class="iconic-grid-three-up-item iconic-grid-three-up-item-9 iconic-grid-three-up-row-3 iconic-grid-three-up-column-3 iconic-property-fill"></path>
    <path d="M19.5 32h-7c-.3 0-.5-.2-.5-.5v-7c0-.3.2-.5.5-.5h7c.3 0 .5.2.5.5v7c0 .3-.2.5-.5.5z" class="iconic-grid-three-up-item iconic-grid-three-up-item-8 iconic-grid-three-up-row-3 iconic-grid-three-up-column-2 iconic-property-fill"></path>
    <path d="M7.5 32h-7c-.3 0-.5-.2-.5-.5v-7c0-.3.2-.5.5-.5h7c.3 0 .5.2.5.5v7c0 .3-.2.5-.5.5z" class="iconic-grid-three-up-item iconic-grid-three-up-item-7 iconic-grid-three-up-row-3 iconic-grid-three-up-column-1 iconic-property-fill"></path>
    <path d="M31.5 20h-7c-.3 0-.5-.2-.5-.5v-7c0-.3.2-.5.5-.5h7c.3 0 .5.2.5.5v7c0 .3-.2.5-.5.5z" class="iconic-grid-three-up-item iconic-grid-three-up-item-6 iconic-grid-three-up-row-2 iconic-grid-three-up-column-3 iconic-property-fill"></path>
    <path d="M19.5 20h-7c-.3 0-.5-.2-.5-.5v-7c0-.3.2-.5.5-.5h7c.3 0 .5.2.5.5v7c0 .3-.2.5-.5.5z" class="iconic-grid-three-up-item iconic-grid-three-up-item-5 iconic-grid-three-up-row-2 iconic-grid-three-up-column-2 iconic-property-fill"></path>
    <path d="M7.5 20h-7c-.3 0-.5-.2-.5-.5v-7c0-.3.2-.5.5-.5h7c.3 0 .5.2.5.5v7c0 .3-.2.5-.5.5z" class="iconic-grid-three-up-item iconic-grid-three-up-item-4 iconic-grid-three-up-row-2 iconic-grid-three-up-column-1 iconic-property-fill"></path>
    <path d="M31.5 8h-7c-.3 0-.5-.2-.5-.5v-7c0-.3.2-.5.5-.5h7c.3 0 .5.2.5.5v7c0 .3-.2.5-.5.5z" class="iconic-grid-three-up-item iconic-grid-three-up-item-3 iconic-grid-three-up-row-1 iconic-grid-three-up-column-3 iconic-property-fill"></path>
    <path d="M19.5 8h-7c-.3 0-.5-.2-.5-.5v-7c0-.3.2-.5.5-.5h7c.3 0 .5.2.5.5v7c0 .3-.2.5-.5.5z" class="iconic-grid-three-up-item iconic-grid-three-up-item-2 iconic-grid-three-up-row-1 iconic-grid-three-up-column-2 iconic-property-fill"></path>
    <path d="M7.5 8h-7c-.3 0-.5-.2-.5-.5v-7c0-.3.2-.5.5-.5h7c.3 0 .5.2.5.5v7c0 .3-.2.5-.5.5z" class="iconic-grid-three-up-item iconic-grid-three-up-item-1 iconic-grid-three-up-row-1 iconic-grid-three-up-column-1 iconic-property-fill"></path>
  </g>
</svg>