<svg version="1.1" xmlns="http://www.w3.org/2000/svg" data-icon="grid-four-up" width="128" height="128" class="iconic iconic-grid iconic-orientation-square iconic-size-lg iconic-grid-four-up" viewBox="0 0 128 128">
  <g>
    <title>Grid Four Up</title>
  </g>
  <g data-width="128" data-height="128" class="iconic-container iconic-grid-four-up" transform="translate(0 ) scale(1 1 ) ">
    <path d="M126.5 128h-17c-.8 0-1.5-.7-1.5-1.5v-17c0-.8.7-1.5 1.5-1.5h17c.8 0 1.5.7 1.5 1.5v17c0 .8-.7 1.5-1.5 1.5z" class="iconic-grid-four-up-item iconic-grid-four-up-item-16 iconic-grid-four-up-row-4 iconic-grid-four-up-column-4 iconic-property-fill"></path>
    <path d="M90.5 128h-17c-.8 0-1.5-.7-1.5-1.5v-17c0-.8.7-1.5 1.5-1.5h17c.8 0 1.5.7 1.5 1.5v17c0 .8-.7 1.5-1.5 1.5z" class="iconic-grid-four-up-item iconic-grid-four-up-item-15 iconic-grid-four-up-row-5 iconic-grid-four-up-column-3 iconic-property-fill"></path>
    <path d="M54.5 128h-17c-.8 0-1.5-.7-1.5-1.5v-17c0-.8.7-1.5 1.5-1.5h17c.8 0 1.5.7 1.5 1.5v17c0 .8-.7 1.5-1.5 1.5z" class="iconic-grid-four-up-item iconic-grid-four-up-item-14 iconic-grid-four-up-row-4 iconic-grid-four-up-column-2 iconic-property-fill"></path>
    <path d="M18.5 128h-17c-.8 0-1.5-.7-1.5-1.5v-17c0-.8.7-1.5 1.5-1.5h17c.8 0 1.5.7 1.5 1.5v17c0 .8-.7 1.5-1.5 1.5z" class="iconic-grid-four-up-item iconic-grid-four-up-item-13 iconic-grid-four-up-row-4 iconic-grid-four-up-column-1 iconic-property-fill"></path>
    <path d="M126.5 92h-17c-.8 0-1.5-.7-1.5-1.5v-17c0-.8.7-1.5 1.5-1.5h17c.8 0 1.5.7 1.5 1.5v17c0 .8-.7 1.5-1.5 1.5z" class="iconic-grid-four-up-item iconic-grid-four-up-item-12 iconic-grid-four-up-row-3 iconic-grid-four-up-column-4 iconic-property-fill"></path>
    <path d="M90.5 92h-17c-.8 0-1.5-.7-1.5-1.5v-17c0-.8.7-1.5 1.5-1.5h17c.8 0 1.5.7 1.5 1.5v17c0 .8-.7 1.5-1.5 1.5z" class="iconic-grid-four-up-item iconic-grid-four-up-item-11 iconic-grid-four-up-row-3 iconic-grid-four-up-column-3 iconic-property-fill"></path>
    <path d="M54.5 92h-17c-.8 0-1.5-.7-1.5-1.5v-17c0-.8.7-1.5 1.5-1.5h17c.8 0 1.5.7 1.5 1.5v17c0 .8-.7 1.5-1.5 1.5z" class="iconic-grid-four-up-item iconic-grid-four-up-item-10 iconic-grid-four-up-row-3 iconic-grid-four-up-column-2 iconic-property-fill"></path>
    <path d="M18.5 92h-17c-.8 0-1.5-.7-1.5-1.5v-17c0-.8.7-1.5 1.5-1.5h17c.8 0 1.5.7 1.5 1.5v17c0 .8-.7 1.5-1.5 1.5z" class="iconic-grid-four-up-item iconic-grid-four-up-item-9 iconic-grid-four-up-row-3 iconic-grid-four-up-column-1 iconic-property-fill"></path>
    <path d="M126.5 56h-17c-.8 0-1.5-.7-1.5-1.5v-17c0-.8.7-1.5 1.5-1.5h17c.8 0 1.5.7 1.5 1.5v17c0 .8-.7 1.5-1.5 1.5z" class="iconic-grid-four-up-item iconic-grid-four-up-item-8 iconic-grid-four-up-row-2 iconic-grid-four-up-column-4 iconic-property-fill"></path>
    <path d="M90.5 56h-17c-.8 0-1.5-.7-1.5-1.5v-17c0-.8.7-1.5 1.5-1.5h17c.8 0 1.5.7 1.5 1.5v17c0 .8-.7 1.5-1.5 1.5z" class="iconic-grid-four-up-item iconic-grid-four-up-item-7 iconic-grid-four-up-row-2 iconic-grid-four-up-column-3 iconic-property-fill"></path>
    <path d="M54.5 56h-17c-.8 0-1.5-.7-1.5-1.5v-17c0-.8.7-1.5 1.5-1.5h17c.8 0 1.5.7 1.5 1.5v17c0 .8-.7 1.5-1.5 1.5z" class="iconic-grid-four-up-item iconic-grid-four-up-item-6 iconic-grid-four-up-row-2 iconic-grid-four-up-column-2 iconic-property-fill"></path>
    <path d="M18.5 56h-17c-.8 0-1.5-.7-1.5-1.5v-17c0-.8.7-1.5 1.5-1.5h17c.8 0 1.5.7 1.5 1.5v17c0 .8-.7 1.5-1.5 1.5z" class="iconic-grid-four-up-item iconic-grid-four-up-item-5 iconic-grid-four-up-row-2 iconic-grid-four-up-column-1 iconic-property-fill"></path>
    <path d="M126.5 20h-17c-.8 0-1.5-.7-1.5-1.5v-17c0-.8.7-1.5 1.5-1.5h17c.8 0 1.5.7 1.5 1.5v17c0 .8-.7 1.5-1.5 1.5z" class="iconic-grid-four-up-item iconic-grid-four-up-item-4 iconic-grid-four-up-row-1 iconic-grid-four-up-column-4 iconic-property-fill"></path>
    <path d="M90.5 20h-17c-.8 0-1.5-.7-1.5-1.5v-17c0-.8.7-1.5 1.5-1.5h17c.8 0 1.5.7 1.5 1.5v17c0 .8-.7 1.5-1.5 1.5z" class="iconic-grid-four-up-item iconic-grid-four-up-item-3 iconic-grid-four-up-row-1 iconic-grid-four-up-column-3 iconic-property-fill"></path>
    <path d="M54.5 20h-17c-.8 0-1.5-.7-1.5-1.5v-17c0-.8.7-1.5 1.5-1.5h17c.8 0 1.5.7 1.5 1.5v17c0 .8-.7 1.5-1.5 1.5z" class="iconic-grid-four-up-item iconic-grid-four-up-item-2 iconic-grid-four-up-row-1 iconic-grid-four-up-column-2 iconic-property-fill"></path>
    <path d="M18.5 20h-17c-.8 0-1.5-.7-1.5-1.5v-17c0-.8.7-1.5 1.5-1.5h17c.8 0 1.5.7 1.5 1.5v17c0 .8-.7 1.5-1.5 1.5z" class="iconic-grid-four-up-item iconic-grid-four-up-item-1 iconic-grid-four-up-row-1 iconic-grid-four-up-column-1 iconic-property-fill"></path>
  </g>
</svg>