<svg version="1.1" xmlns="http://www.w3.org/2000/svg" width="16" height="16" data-icon="hard-drive" class="iconic iconic-hard-drive iconic-size-sm" viewBox="0 0 16 16">
  <g class="iconic-metadata">
    <title>Hard Drive</title>
  </g>
  <defs>
    <clipPath id="iconic-size-sm-hard-drive-clip-0">
      <path d="M0 0v10.5c0 .3.2.5.5.5h12c.3 0 .5-.2.5-.5v-10.5h-13zm6.5 9c-.3 0-.5 0-.7-.1-.2.2-.3.4-.4.5-.4.4-.9.6-1.4.6-.5 0-1-.2-1.4-.6s-.6-.9-.6-1.4.2-1 .6-1.4c.1-.1.3-.2.5-.4-.1-.2-.1-.4-.1-.7 0-1.9 1.6-3.5 3.5-3.5s3.5 1.6 3.5 3.5-1.6 3.5-3.5 3.5z"
      />
    </clipPath>
    <clipPath id="iconic-size-sm-hard-drive-clip-1">
      <path d="M12.5 12h-12c-.2 0-.3 0-.5-.1v4.1h13v-4.1c-.2.1-.3.1-.5.1zm-9.5 3h-1v-2h1v2zm2 0h-1v-2h1v2zm5 0c-.6 0-1-.4-1-1s.4-1 1-1 1 .4 1 1-.4 1-1 1z" />
    </clipPath>
  </defs>
  <g class="iconic-container" data-width="13" data-height="16" transform="translate(1)">
    <path clip-path="url(#iconic-size-sm-hard-drive-clip-0)" d="M0 .5v15c0 .3.2.5.5.5h12c.3 0 .5-.2.5-.5v-15c0-.3-.2-.5-.5-.5h-12c-.3 0-.5.2-.5.5z" class="iconic-hard-drive-casing iconic-hard-drive-casing-top iconic-property-fill" />
    <path clip-path="url(#iconic-size-sm-hard-drive-clip-1)" d="M0 .5v15c0 .3.2.5.5.5h12c.3 0 .5-.2.5-.5v-15c0-.3-.2-.5-.5-.5h-12c-.3 0-.5.2-.5.5z" class="iconic-hard-drive-casing iconic-hard-drive-casing-bottom iconic-property-fill" />
    <path d="M4.7 8.7c-.4.4-1 .4-1.4 0s-.4-1 0-1.4 2.7-1.3 2.7-1.3-.9 2.3-1.3 2.7z" class="iconic-hard-drive-plate iconic-hard-drive-plate-needle iconic-property-accent iconic-property-fill" />
    <path d="M6.5 5c-.3 0-.5.2-.5.5s.2.5.5.5.5-.2.5-.5-.2-.5-.5-.5z" class="iconic-hard-drive-plate iconic-hard-drive-plate-axis iconic-property-accent iconic-property-fill" />
  </g>
</svg>