<svg version="1.1" xmlns="http://www.w3.org/2000/svg" width="32" height="32" data-icon="hard-drive" class="iconic iconic-hard-drive iconic-size-md" viewBox="0 0 32 32">
  <g class="iconic-metadata">
    <title>Hard Drive</title>
  </g>
  <defs>
    <clipPath id="iconic-size-md-hard-drive-clip-0">
      <path d="M0 0v23c0 .6.4 1 1 1h22c.6 0 1-.4 1-1v-23h-24zm12 20c-1.5 0-2.8-.4-4-1.1-.8 1.2-1.5 2.1-1.8 2.3-.4.5-1.1.8-1.7.8-.7 0-1.3-.3-1.8-.7-.5-.5-.7-1.1-.7-1.8s.3-1.3.7-1.8c.2-.2 1.2-.9 2.4-1.8-.7-1.1-1.1-2.5-1.1-3.9 0-4.4 3.6-8 8-8s8 3.6 8 8-3.6 8-8 8z"
      />
    </clipPath>
    <clipPath id="iconic-size-md-hard-drive-clip-1">
      <path d="M23 26h-22c-.4 0-.7-.1-1-.2v6.2h24v-6.2c-.3.1-.6.2-1 .2zm-19 5h-1v-4h1v4zm2 0h-1v-4h1v4zm2 0h-1v-4h1v4zm2 0h-1v-4h1v4zm10-1c-.6 0-1-.4-1-1s.4-1 1-1 1 .4 1 1-.4 1-1 1z" />
    </clipPath>
  </defs>
  <g class="iconic-container" data-width="24" data-height="32" transform="translate(4)">
    <path clip-path="url(#iconic-size-md-hard-drive-clip-0)" d="M0 1v30c0 .6.4 1 1 1h22c.6 0 1-.4 1-1v-30c0-.6-.4-1-1-1h-22c-.6 0-1 .4-1 1z" class="iconic-hard-drive-casing iconic-hard-drive-casing-top iconic-property-fill" />
    <path clip-path="url(#iconic-size-md-hard-drive-clip-1)" d="M0 1v30c0 .6.4 1 1 1h22c.6 0 1-.4 1-1v-30c0-.6-.4-1-1-1h-22c-.6 0-1 .4-1 1z" class="iconic-hard-drive-casing iconic-hard-drive-casing-bottom iconic-property-fill" />
    <path d="M5.5 20.6c-.6.6-1.5.6-2.1 0-.6-.6-.6-1.5 0-2.1.6-.6 7.6-5.5 7.6-5.5s-4.9 7-5.5 7.6z" class="iconic-hard-drive-plate iconic-hard-drive-plate-needle iconic-property-accent iconic-property-fill" />
    <path stroke="#000" stroke-miterlimit="10" d="M11.3 14.4c.2.1.5.1.7.1 1.4 0 2.5-1.1 2.5-2.5s-1.1-2.5-2.5-2.5-2.5 1.1-2.5 2.5c0 .3.1.5.1.7" class="iconic-hard-drive-plate iconic-hard-drive-plate-inner-rim iconic-property-accent iconic-property-stroke"
    fill="none" />
  </g>
</svg>