<svg version="1.1" xmlns="http://www.w3.org/2000/svg" width="16" height="16" data-icon="headphones" class="iconic iconic-headphones iconic-size-sm" viewBox="0 0 16 16">
  <g class="iconic-metadata">
    <title>Headphones</title>
  </g>
  <g class="iconic-container" data-width="14" data-height="16" transform="translate(1)">
    <path stroke="#000" stroke-miterlimit="10" class="iconic-headphones-connector iconic-headphones-connector-left iconic-property-stroke" fill="none" d="M1.5 6v7" />
    <path stroke="#000" stroke-miterlimit="10" class="iconic-headphones-connector iconic-headphones-connector-right iconic-property-stroke" fill="none" d="M12.5 6v7" />
    <path d="M12.5 15c.8 0 1.5-.7 1.5-1.5s-.7-1.5-1.5-1.5h-1.5v3h1.5z" class="iconic-headphones-speaker iconic-headphones-speaker-back iconic-headphones-speaker-back-right iconic-property-fill" />
    <path d="M1.5 12c-.8 0-1.5.7-1.5 1.5s.7 1.5 1.5 1.5h1.5v-3h-1.5z" class="iconic-headphones-speaker iconic-headphones-speaker-back iconic-headphones-speaker-back-left iconic-property-fill" />
    <path d="M3.8 16h-1.6c-.1 0-.2-.1-.2-.2v-4.5c0-.2.1-.3.2-.3h1.5c.2 0 .3.1.3.2v4.5c0 .2-.1.3-.2.3z" class="iconic-headphones-speaker iconic-headphones-speaker-earpeice iconic-headphones-speaker-earpeice-left iconic-property-fill" />
    <path d="M11.8 16h-1.5c-.1 0-.2-.1-.2-.2v-4.5c0-.1.1-.2.2-.2h1.5c.1 0 .2.1.2.2v4.5c0 .1-.1.2-.2.2z" class="iconic-headphones-speaker iconic-headphones-speaker-earpeice iconic-headphones-speaker-earpeice-right iconic-property-fill" />
    <path stroke="#000" stroke-width="2" stroke-linecap="round" stroke-linejoin="round" stroke-miterlimit="10" d="M13 7c0-3.3-2.7-6-6-6s-6 2.7-6 6" class="iconic-headphones-top iconic-property-stroke" fill="none" />
  </g>
</svg>