<svg version="1.1" xmlns="http://www.w3.org/2000/svg" width="128" height="128" data-icon="heart" class="iconic iconic-heart iconic-size-lg" viewBox="0 0 128 128">
  <g class="iconic-metadata">
    <title>Heart</title>
  </g>
  <g class="iconic-container" data-width="128" data-height="112" transform="translate(0 8)">
    <path d="M118 10c-6.2-6.2-14.7-10-24-10-9.4 0-17.9 3.8-24 10-2.4 2.4-4.4 5.1-6 8-1.6-3-3.6-5.7-6-8-6.1-6.2-14.6-10-24-10s-17.9 3.8-24 10c-6.2 6.1-10 14.6-10 24s3.8 17.9 10 24l54 54 54-54c6.2-6.2 10-14.7 10-24 0-9.4-3.8-17.9-10-24z" class="iconic-property-fill"
    />
  </g>
</svg>