<svg version="1.1" xmlns="http://www.w3.org/2000/svg" width="16" height="16" data-icon="heart" class="iconic iconic-heart iconic-size-sm" viewBox="0 0 16 16">
  <g class="iconic-metadata">
    <title>Heart</title>
  </g>
  <g class="iconic-container" data-width="16" data-height="14" transform="translate(0 1)">
    <path d="M14.8 1.2c-.7-.8-1.7-1.2-2.8-1.2s-2.1.4-2.8 1.2c-.8.7-1.1 1.5-1.2 1.8-.1-.3-.4-1.1-1.2-1.8-.7-.8-1.7-1.2-2.8-1.2s-2.1.4-2.8 1.2c-.8.7-1.2 1.7-1.2 2.8 0 1.1.4 2.1 1.2 2.8l6.8 6.9 6.8-6.8c.8-.8 1.2-1.8 1.2-2.9 0-1.1-.4-2.1-1.2-2.8z" class="iconic-property-fill"
    />
  </g>
</svg>