<svg version="1.1" xmlns="http://www.w3.org/2000/svg" width="32" height="32" data-icon="home" class="iconic iconic-home iconic-size-md" viewBox="0 0 32 32">
  <g class="iconic-metadata">
    <title>Home</title>
  </g>
  <defs>
    <clipPath id="iconic-size-md-home-clip-0">
      <path d="M16 5l-11 10v14h9v-6h4v6h9v-14z" />
    </clipPath>
  </defs>
  <g class="iconic-container" data-width="32" data-height="32">
    <path clip-path="url(#iconic-size-md-home-clip-0)" d="M5.5 32h21c.3 0 .5-.2.5-.5v-16c0-.3-.2-.7-.4-.8l-10.2-9.4c-.2-.2-.5-.2-.7 0l-10.3 9.4c-.2.1-.4.5-.4.8v16c0 .3.2.5.5.5z" class="iconic-home-wall iconic-property-fill" />
    <path d="M.4 14.7l15.2-14.4c.2-.2.5-.2.7 0l15.3 14.3c.2.2.1.3-.1.3h-2c-.3 0-.7-.2-.9-.3l-12.2-11.3c-.2-.2-.5-.2-.7 0l-12.3 11.4c-.2.1-.6.3-.9.3h-2c-.3 0-.3-.2-.1-.3z" class="iconic-home-roof iconic-property-fill" />
  </g>
</svg>