<svg version="1.1" xmlns="http://www.w3.org/2000/svg" data-icon="image-portrait" width="128" height="128" class="iconic iconic-image iconic-orientation-square iconic-size-lg iconic-image-portrait" viewBox="0 0 128 128">
  <title>Image Portrait</title>
  <defs>
    <clipPath id="iconic-size-lg-image-portrait-clip-0">
      <path d="M90 68h4v-32h-66l62 77.5z"></path>
    </clipPath>
    <clipPath id="iconic-size-lg-image-portrait-clip-1">
      <path d="M6 36h84v86h-84z"></path>
    </clipPath>
  </defs>
  <g data-width="96" data-height="128" class="iconic-container iconic-image-portrait" transform="translate(16 0 ) scale(1 1 ) ">
    <path clip-path="url(#iconic-size-lg-image-portrait-clip-0)" d="M135.1 126.8l-62.2-77.6c-.5-.6-1.4-.6-1.9 0l-62.1 77.6c-.5.6-.3 1.2.6 1.2h125c.8 0 1.1-.5.6-1.2z" class="iconic-image-portrait-mountain iconic-image-portrait-mountain-back iconic-property-accent iconic-property-fill"></path>
    <path clip-path="url(#iconic-size-lg-image-portrait-clip-1)" d="M93.5 122.8l-68.6-85.6c-.5-.6-1.4-.6-1.9 0l-68.5 85.7c-.5.6-.3 1.2.6 1.2h137.8c.8-.1 1.1-.6.6-1.3z" class="iconic-image-portrait-mountain iconic-image-portrait-mountain-front iconic-property-fill"></path>
    <path stroke="#000" stroke-width="4" stroke-miterlimit="10" class="iconic-image-portrait-frame iconic-property-stroke" d="M2 2h92v124h-92z" fill="none"></path>
  </g>
</svg>