<svg version="1.1" xmlns="http://www.w3.org/2000/svg" width="16" height="16" data-icon="inbox" class="iconic iconic-inbox iconic-size-sm" viewBox="0 0 16 16">
  <g class="iconic-metadata">
    <title>Inbox</title>
  </g>
  <defs>
    <clipPath id="iconic-size-sm-inbox-clip-0">
      <path d="M0 0v14.9h16v-14.9h-16zm14 14.5h-12v-11.5h12v11.5z" />
    </clipPath>
    <clipPath id="iconic-size-sm-inbox-clip-1">
      <path d="M0 12h5l1 2h4l1-2h5v4h-16z" />
    </clipPath>
  </defs>
  <g class="iconic-container" data-width="16" data-height="16">
    <path clip-path="url(#iconic-size-sm-inbox-clip-0)" d="M15 14.9h-14c-.6 0-1-.4-1-1v-12.9c0-.6.4-1 1-1h14c.6 0 1 .4 1 1v12.9c0 .6-.4 1-1 1z" class="iconic-inbox-back iconic-property-fill" />
    <path clip-path="url(#iconic-size-sm-inbox-clip-1)" d="M15 16h-14c-.6 0-1-.4-1-1v-4c0-.6.4-1 1-1h14c.6 0 1 .4 1 1v4c0 .6-.4 1-1 1z" class="iconic-inbox-front iconic-property-fill" />
  </g>
</svg>