<svg version="1.1" xmlns="http://www.w3.org/2000/svg" width="32" height="32" data-icon="info" class="iconic iconic-info iconic-size-md" viewBox="0 0 32 32">
  <g class="iconic-metadata">
    <title>Info</title>
  </g>
  <g class="iconic-container" data-width="10" data-height="32" transform="translate(11)">
    <circle cx="7.5" cy="2.5" r="2.5" class="iconic-info-dot iconic-property-fill" />
    <path d="M0 28c0 2.2 1.8 4 4 4s4-1.8 4-4v-1h-1v1c0 .8-.7 1.5-1.5 1.5s-1.5-.7-1.5-1.5 4-15 4-17-1.8-4-4-4-4 1.8-4 4v1h1v-1c0-.8.7-1.5 1.5-1.5s1.5.8 1.5 1.5-4 14.8-4 17z" class="iconic-info-vertical-line iconic-property-fill" />
  </g>
</svg>