<svg version="1.1" xmlns="http://www.w3.org/2000/svg" width="128" height="128" data-icon="iphone" class="iconic iconic-iphone iconic-size-lg" viewBox="0 0 128 128">
  <g class="iconic-metadata">
    <title>Iphone</title>
  </g>
  <defs>
    <clipPath id="iconic-size-lg-iphone-clip-0">
      <path d="M0 0v128h62v-128h-62zm31 4.1c.5 0 .9.4.9.9s-.4.9-.9.9-.9-.4-.9-.9.4-.9.9-.9zm-4 5.9h8c.6 0 1 .4 1 1s-.4 1-1 1h-8c-.6 0-1-.4-1-1s.4-1 1-1zm-4.1.2c.5 0 .9.4.9.9s-.4.9-.9.9-.9-.4-.9-.9.4-.9.9-.9zm8.1 113.8c-2.8 0-5-2.2-5-5s2.2-5 5-5 5 2.2 5 5-2.2 5-5 5zm27-14h-54v-92h54v92z"
      />
    </clipPath>
  </defs>
  <g class="iconic-container" data-width="62" data-height="128" transform="translate(33)">
    <path clip-path="url(#iconic-size-lg-iphone-clip-0)" d="M53 0h-44c-5 0-9 4-9 9v110c0 5 4 9 9 9h44c5 0 9-4 9-9v-110c0-5-4-9-9-9z" class="iconic-iphone-body iconic-property-fill" />
    <path d="M32.5 122h-3c-.8 0-1.5-.7-1.5-1.5v-3c0-.8.7-1.5 1.5-1.5h3c.8 0 1.5.7 1.5 1.5v3c0 .8-.7 1.5-1.5 1.5zm-3-5c-.3 0-.5.2-.5.5v3c0 .3.2.5.5.5h3c.3 0 .5-.2.5-.5v-3c0-.3-.2-.5-.5-.5h-3z" class="iconic-iphone-button iconic-iphone-button-home iconic-property-fill"
    />
  </g>
</svg>