<svg version="1.1" xmlns="http://www.w3.org/2000/svg" width="16" height="16" data-icon="iphone" class="iconic iconic-iphone iconic-size-sm" viewBox="0 0 16 16">
  <g class="iconic-metadata">
    <title>Iphone</title>
  </g>
  <defs>
    <clipPath id="iconic-size-sm-iphone-clip-0">
      <path d="M0 0v16h9v-16h-9zm3.5 1h2c.3 0 .5.2.5.5s-.2.5-.5.5h-2c-.3 0-.5-.2-.5-.5s.2-.5.5-.5zm1 14c-.3 0-.5-.2-.5-.5s.2-.5.5-.5.5.2.5.5-.2.5-.5.5zm3.5-2h-7v-10h7v10z" />
    </clipPath>
  </defs>
  <g class="iconic-container" data-width="9" data-height="16" transform="translate(3)">
    <path clip-path="url(#iconic-size-sm-iphone-clip-0)" d="M8 0h-7c-.6 0-1 .4-1 1v14c0 .6.4 1 1 1h7c.6 0 1-.4 1-1v-14c0-.6-.4-1-1-1z" class="iconic-iphone-body iconic-property-fill" />
  </g>
</svg>