<svg version="1.1" xmlns="http://www.w3.org/2000/svg" width="16" height="16" data-icon="key" class="iconic iconic-key iconic-size-sm" viewBox="0 0 16 16">
  <g class="iconic-metadata">
    <title>Key</title>
  </g>
  <g class="iconic-container" data-width="16" data-height="16">
    <path d="M11.5 0c-2.5 0-4.5 2-4.5 4.5 0 .5.1.9.2 1.3l-7.2 7.2v3h3v-2h2v-2h2v-2h2l1.2-1.2c.4.1.8.2 1.3.2 2.5 0 4.5-2 4.5-4.5s-2-4.5-4.5-4.5zm1.5 4c-.6 0-1-.4-1-1s.4-1 1-1 1 .4 1 1-.4 1-1 1z" class="iconic-property-fill" />
  </g>
</svg>