<svg version="1.1" xmlns="http://www.w3.org/2000/svg" width="32" height="32" data-icon="keyboard" class="iconic iconic-keyboard iconic-size-md" viewBox="0 0 32 32">
  <g class="iconic-metadata">
    <title>Keyboard</title>
  </g>
  <defs>
    <clipPath id="iconic-size-md-keyboard-clip-0">
      <path d="M0 0v15h31v-15h-31zm26 5.2v1.5c0 .2-.1.3-.2.3h-1.5c-.2 0-.3-.1-.3-.2v-1.6c0-.1.1-.2.2-.2h1.5c.2 0 .3.1.3.2zm-3-2.9c0-.2.1-.3.2-.3h1.5c.2 0 .3.1.3.3v1.5c0 .1-.1.2-.2.2h-1.5c-.2 0-.3-.1-.3-.2v-1.5zm0 2.9v1.5c0 .2-.1.3-.2.3h-1.5c-.2 0-.3-.1-.3-.2v-1.6c0-.1.1-.2.2-.2h1.5c.2 0 .3.1.3.2zm-3-2.9c0-.2.1-.3.2-.3h1.5c.2 0 .3.1.3.3v1.5c0 .1-.1.2-.2.2h-1.5c-.2 0-.3-.1-.3-.2v-1.5zm1 5.9v1.5c0 .1-.1.2-.2.2h-1.5c-.2.1-.3 0-.3-.1v-1.6c0-.1.1-.2.2-.2h1.5c.2 0 .3.1.3.2zm-1-3v1.5c0 .2-.1.3-.2.3h-1.5c-.2 0-.3-.1-.3-.2v-1.6c0-.1.1-.2.2-.2h1.5c.2 0 .3.1.3.2zm-3-2.9c0-.2.1-.3.2-.3h1.5c.2 0 .3.1.3.3v1.5c0 .1-.1.2-.2.2h-1.5c-.2 0-.3-.1-.3-.2v-1.5zm1 5.9v1.5c0 .1-.1.2-.2.2h-1.5c-.2.1-.3 0-.3-.1v-1.6c0-.1.1-.2.2-.2h1.5c.2 0 .3.1.3.2zm-1-3v1.5c0 .2-.1.3-.2.3h-1.5c-.2 0-.3-.1-.3-.2v-1.6c0-.1.1-.2.2-.2h1.5c.2 0 .3.1.3.2zm-3-2.9c0-.2.1-.3.2-.3h1.5c.2 0 .3.1.3.3v1.5c0 .1-.1.2-.2.2h-1.5c-.2 0-.3-.1-.3-.2v-1.5zm1 5.9v1.5c0 .1-.1.2-.2.2h-1.5c-.2.1-.3 0-.3-.1v-1.6c0-.1.1-.2.2-.2h1.5c.2 0 .3.1.3.2zm-1-3v1.5c0 .2-.1.3-.2.3h-1.5c-.2 0-.3-.1-.3-.2v-1.6c0-.1.1-.2.2-.2h1.5c.2 0 .3.1.3.2zm-3-2.9c0-.2.1-.3.2-.3h1.5c.2 0 .3.1.3.3v1.5c0 .1-.1.2-.2.2h-1.5c-.2 0-.3-.1-.3-.2v-1.5zm1 5.9v1.5c0 .1-.1.2-.2.2h-1.5c-.2.1-.3 0-.3-.1v-1.6c0-.1.1-.2.2-.2h1.5c.2 0 .3.1.3.2zm-1-3v1.5c0 .2-.1.3-.2.3h-1.6c-.1 0-.2-.1-.2-.2v-1.6c0-.1.1-.2.2-.2h1.5c.2 0 .3.1.3.2zm-3-2.9c0-.2.1-.3.2-.3h1.5c.2 0 .3.1.3.3v1.5c0 .1-.1.2-.2.2h-1.6c-.1 0-.2-.1-.2-.2v-1.5zm0 2.9v1.5c0 .2-.1.3-.2.3h-1.6c-.1 0-.2-.1-.2-.2v-1.6c0-.1.1-.2.2-.2h1.5c.2 0 .3.1.3.2zm-3-2.9c0-.2.1-.3.2-.3h1.5c.2 0 .3.1.3.3v1.5c0 .1-.1.2-.2.2h-1.6c-.1 0-.2-.1-.2-.2v-1.5zm-3 0c0-.2.1-.3.2-.3h1.5c.2 0 .3.1.3.3v1.5c0 .1-.1.2-.2.2h-1.6c-.1 0-.2-.1-.2-.2v-1.5zm0 2.9c0-.1.1-.2.2-.2h2.5c.2 0 .3.1.3.2v1.5c0 .2-.1.3-.2.3h-2.6c-.1 0-.2-.1-.2-.2v-1.6zm0 3c0-.1.1-.2.2-.2h3.5c.2 0 .3.1.3.2v1.5c0 .2-.1.3-.2.3h-3.6c-.1 0-.2-.1-.2-.2v-1.6zm2 4.6c0 .1-.1.2-.2.2h-1.6c-.1 0-.2-.1-.2-.2v-1.5c0-.2.1-.3.2-.3h1.5c.2 0 .3.1.3.2v1.6zm3 0c0 .1-.1.2-.2.2h-1.6c-.1 0-.2-.1-.2-.2v-1.5c0-.2.1-.3.2-.3h1.5c.2 0 .3.1.3.2v1.6zm0-3v-1.6c0-.1.1-.2.2-.2h1.5c.2 0 .3.1.3.2v1.5c0 .2-.1.3-.2.3h-1.6c-.1 0-.2-.1-.2-.2zm16 3c0 .1-.1.2-.2.2h-14.6c-.1 0-.2-.1-.2-.2v-1.5c0-.2.1-.3.2-.3h14.5c.1 0 .2.1.2.2v1.6zm.8-2.8h-1.5c-.2 0-.3-.1-.3-.2v-1.6c0-.1.1-.2.2-.2h1.5c.2 0 .3.1.3.2v1.5c0 .2-.1.3-.2.3zm2.2 2.8c0 .1-.1.2-.2.2h-1.5c-.1 0-.2-.1-.2-.2v-1.5c0-.1.1-.2.2-.2h1.5c.1 0 .2.1.2.2v1.5zm3 0c0 .1-.1.2-.2.2h-1.5c-.1 0-.2-.1-.2-.2v-1.5c0-.1.1-.2.2-.2h1.5c.1 0 .2.1.2.2v1.5zm0-3c0 .1-.1.2-.2.2h-3.5c-.2 0-.3-.1-.3-.2v-1.6c0-.1.1-.2.2-.2h3.5c.2 0 .3.1.3.2v1.6zm0-3c0 .1-.1.2-.2.2h-1.5c-.2 0-.3-.1-.3-.2v-1.6c0-.1.1-.2.2-.2h1.5c.2 0 .3.1.3.2v1.6zm0-3c0 .1-.1.2-.2.2h-2.5c-.2 0-.3-.1-.3-.2v-1.5c0-.2.1-.3.2-.3h2.5c.2 0 .3.1.3.3v1.5z"
      />
    </clipPath>
  </defs>
  <g class="iconic-container" data-width="31" data-height="15" transform="translate(0 8)">
    <path clip-path="url(#iconic-size-md-keyboard-clip-0)" d="M30.5 15h-30c-.3 0-.5-.2-.5-.5v-14c0-.3.2-.5.5-.5h30c.3 0 .5.2.5.5v14c0 .3-.2.5-.5.5z" class="iconic-property-fill" />
  </g>
</svg>