<svg version="1.1" xmlns="http://www.w3.org/2000/svg" width="32" height="32" data-icon="laptop" class="iconic iconic-laptop iconic-size-md" viewBox="0 0 32 32">
  <g class="iconic-metadata">
    <title>Laptop</title>
  </g>
  <defs>
    <clipPath id="iconic-size-md-laptop-clip-0">
      <path d="M29 0h-26v19h26v-19zm-11 18.5c0 .3-.2.5-.5.5h-3c-.3 0-.5-.2-.5-.5v-.5h4v.5zm9-1.5h-22v-15h22v15z" />
    </clipPath>
    <clipPath id="iconic-size-md-laptop-clip-1">
      <path d="M0 18v2h32v-2h-14v.5c0 .3-.2.5-.5.5h-3c-.3 0-.5-.2-.5-.5v-.5h-14z" />
    </clipPath>
  </defs>
  <g class="iconic-container" data-width="32" data-height="20" transform="translate(0 6)">
    <path clip-path="url(#iconic-size-md-laptop-clip-0)" stroke="#000" stroke-width="2" stroke-miterlimit="10" d="M27.5 18h-23c-.3 0-.5-.2-.5-.5v-16c0-.3.2-.5.5-.5h23c.3 0 .5.2.5.5v16c0 .3-.2.5-.5.5z" class="iconic-laptop-screen-border iconic-property-stroke"
    fill="none" />
    <path clip-path="url(#iconic-size-md-laptop-clip-1)" d="M31.5 20h-31c-.3 0-.5-.2-.5-.5v-3c0-.3.2-.5.5-.5h31c.3 0 .5.2.5.5v3c0 .3-.2.5-.5.5z" class="iconic-laptop-base iconic-property-fill" />
  </g>
</svg>