<svg version="1.1" xmlns="http://www.w3.org/2000/svg" width="128" height="128" data-icon="laptop" class="iconic iconic-laptop iconic-size-lg" viewBox="0 0 128 128">
  <g class="iconic-metadata">
    <title>Laptop</title>
  </g>
  <defs>
    <clipPath id="iconic-size-lg-laptop-clip-0">
      <path d="M120 0h-112v74h112v-74zm-52 74h-8c-1.1 0-2-.9-2-2h12c0 1.1-.9 2-2 2zm48-4h-104v-66h104v66zm3 6c-.6 0-1-.4-1-1s.4-1 1-1 1 .4 1 1-.4 1-1 1z" />
    </clipPath>
    <clipPath id="iconic-size-lg-laptop-clip-1">
      <path d="M0 72v6h128v-6h-58c0 1.1-.9 2-2 2h-8c-1.1 0-2-.9-2-2h-58zm119 4c-.6 0-1-.4-1-1s.4-1 1-1 1 .4 1 1-.4 1-1 1z" />
    </clipPath>
  </defs>
  <g class="iconic-container" data-width="128" data-height="78" transform="translate(0 25)">
    <path clip-path="url(#iconic-size-lg-laptop-clip-0)" stroke="#231F20" stroke-width="4" stroke-miterlimit="10" d="M116.5 72h-105c-.8 0-1.5-.7-1.5-1.5v-67c0-.8.7-1.5 1.5-1.5h105c.8 0 1.5.7 1.5 1.5v67c0 .8-.7 1.5-1.5 1.5z" class="iconic-laptop-screen-border iconic-property-stroke"
    fill="none" />
    <path clip-path="url(#iconic-size-lg-laptop-clip-1)" fill="#231F20" d="M126.5 78h-125c-.8 0-1.5-.7-1.5-1.5v-7c0-.8.7-1.5 1.5-1.5h125c.8 0 1.5.7 1.5 1.5v7c0 .8-.7 1.5-1.5 1.5z" class="iconic-laptop-base iconic-property-fill" />
  </g>
</svg>