<svg version="1.1" xmlns="http://www.w3.org/2000/svg" width="16" height="16" data-icon="laptop" class="iconic iconic-laptop iconic-size-sm" viewBox="0 0 16 16">
  <g class="iconic-metadata">
    <title>Laptop</title>
  </g>
  <defs>
    <clipPath id="iconic-size-sm-laptop-clip-0">
      <path d="M2 0v10h4.5c-.3 0-.5-.2-.5-.5v-.5h4v.5c0 .3-.2.5-.5.5h4.5v-10h-12zm11 8h-10v-7h10v7z" />
    </clipPath>
    <clipPath id="iconic-size-sm-laptop-clip-1">
      <path d="M10 9v.5c0 .3-.2.5-.5.5h-3c-.3 0-.5-.2-.5-.5v-.5h-6v2h16v-2h-6z" />
    </clipPath>
  </defs>
  <g class="iconic-container" data-width="16" data-height="11" transform="translate(0 2)">
    <path clip-path="url(#iconic-size-sm-laptop-clip-0)" d="M13.8 10h-11.6c-.1 0-.2-.1-.2-.2v-9.6c0-.1.1-.2.2-.2h11.5c.2 0 .3.1.3.2v9.5c0 .2-.1.3-.2.3z" class="iconic-laptop-screen-border iconic-property-fill" />
    <path clip-path="url(#iconic-size-sm-laptop-clip-1)" d="M15.8 11h-15.5c-.2 0-.3-.1-.3-.2v-3.6c0-.1.1-.2.3-.2h15.5c.1 0 .2.1.2.2v3.5c0 .2-.1.3-.2.3z" class="iconic-laptop-base iconic-property-fill" />
  </g>
</svg>