<svg version="1.1" xmlns="http://www.w3.org/2000/svg" width="128" height="128" data-icon="lightning" class="iconic iconic-lightning iconic-size-lg" viewBox="0 0 128 128">
  <g class="iconic-metadata">
    <title>Lightning</title>
  </g>
  <defs>
    <clipPath id="iconic-size-lg-lightning-clip-0">
      <path d="M0 0v86h24.1l13.8-20h35.8l-16 16h17.3l-4.8 4h57.8v-86z" />
    </clipPath>
  </defs>
  <g class="iconic-container" data-width="128" data-height="126" transform="translate(0 1)">
    <path class="iconic-lightning-lightning-bolt iconic-property-accent iconic-property-fill" d="M40 70l-18 26h15l-21 30 48-40h-16l16-16z" />
    <path d="M110 50c-.7 0-1.3-.1-2 0-.9-8.4-7.6-15.1-16-16-1-19-16.8-34-36-34-18.8 0-34.4 14.6-36 33-11.6 3-20 13.5-20 26 0 14.6 11.6 26.5 26 27h84c9.9 0 18-8.1 18-18s-8.1-18-18-18z" clip-path="url(#iconic-size-lg-lightning-clip-0)" class="iconic-lightning-cloud iconic-property-fill"
    />
  </g>
</svg>