<svg version="1.1" xmlns="http://www.w3.org/2000/svg" width="32" height="32" data-icon="lightning" class="iconic iconic-lightning iconic-size-md" viewBox="0 0 32 32">
  <g class="iconic-metadata">
    <title>Lightning</title>
  </g>
  <defs>
    <clipPath id="iconic-size-md-lightning-clip-0">
      <path d="M0 0v22h5.7l4.3-6h10.4l-3.5 4h4.3l-2.2 2h13v-22z" />
    </clipPath>
  </defs>
  <g class="iconic-container" data-width="32" data-height="32">
    <path class="iconic-lightning-lightning-bolt iconic-property-accent iconic-property-fill" d="M11 18l-5 7h3.5l-4.5 7 11-10h-3.5l3.5-4z" />
    <path d="M27 12c-.4-2-2.1-3.5-4-3.9-.5-4.5-4.3-8.1-9-8.1s-8.6 3.4-9 8c-2.9.9-5 3.8-5 7 0 3.5 2.6 6.5 6 7 4.3 0 20.9 0 21 0 2.8 0 5-2.2 5-5s-2.2-5-5-5z" clip-path="url(#iconic-size-md-lightning-clip-0)" class="iconic-lightning-cloud iconic-property-fill"
    />
  </g>
</svg>