<svg version="1.1" xmlns="http://www.w3.org/2000/svg" width="16" height="16" data-icon="lightning" class="iconic iconic-lightning iconic-size-sm" viewBox="0 0 16 16">
  <g class="iconic-metadata">
    <title>Lightning</title>
  </g>
  <defs>
    <clipPath id="iconic-size-sm-lightning-clip-0">
      <path d="M0 0v12h1.8l.4-.6 3-4 .3-.4h5.9l-1.7 1.7-.3.3h2.3l-2 1.8-1.5 1.2h7.8v-12z" />
    </clipPath>
  </defs>
  <g class="iconic-container" data-width="16" data-height="16">
    <path class="iconic-lightning-lightning-bolt iconic-property-accent iconic-property-fill" d="M6 8l-3 4h2l-3 4 7-6h-2l2-2z" />
    <path d="M13 6v-1c0-2.8-2.2-5-5-5-2.5 0-4.5 1.8-4.9 4.1-1.8.4-3.1 2-3.1 3.9 0 2.2 1.8 4 4 4h9c1.7 0 3-1.3 3-3s-1.3-3-3-3z" clip-path="url(#iconic-size-sm-lightning-clip-0)" class="iconic-lightning-cloud iconic-property-fill" />
  </g>
</svg>