<svg version="1.1" xmlns="http://www.w3.org/2000/svg" width="128" height="128" data-icon="lightbulb" class="iconic iconic-lightbulb iconic-size-lg" viewBox="0 0 128 128">
  <g class="iconic-metadata">
    <title>Lightbulb</title>
  </g>
  <defs>
    <clipPath id="iconic-size-lg-lightbulb-clip-0">
      <path d="M16.6 94h33.4v2.7l-39.1 6.3-.3-6.4z" />
    </clipPath>
    <clipPath id="iconic-size-lg-lightbulb-clip-1">
      <path d="M64 57l-14.5 8.2v16.8h-34.3l-1.4-16 50.2-23z" />
    </clipPath>
  </defs>
  <g class="iconic-container" data-width="64" data-height="128" transform="translate(32)">
    <path stroke="#000" stroke-width="4" stroke-linecap="round" stroke-linejoin="round" stroke-miterlimit="10" class="iconic-lightbulb-screw iconic-lightbulb-screw-4 iconic-property-accent iconic-property-stroke" d="M44 122l-23.8 4" />
    <path stroke="#000" stroke-width="4" stroke-linecap="round" stroke-miterlimit="10" class="iconic-lightbulb-screw iconic-lightbulb-screw-3 iconic-property-accent iconic-property-stroke" fill="none" d="M48 112l-32 6" />
    <path stroke="#000" stroke-width="4" stroke-linecap="round" stroke-miterlimit="10" class="iconic-lightbulb-screw iconic-lightbulb-screw-2 iconic-property-accent iconic-property-stroke" fill="none" d="M48 102l-32 6" />
    <path clip-path="url(#iconic-size-lg-lightbulb-clip-0)" stroke="#000" stroke-width="4" stroke-linecap="round" stroke-miterlimit="10" class="iconic-lightbulb-screw iconic-lightbulb-screw-1 iconic-property-accent iconic-property-stroke" fill="none"
    d="M48 92.5l-32 6" />
    <path clip-path="url(#iconic-size-lg-lightbulb-clip-1)" stroke="#000" stroke-width="8" stroke-linecap="round" stroke-linejoin="round" stroke-miterlimit="10" class="iconic-lightbulb-coil iconic-lightbulb-coil-6 iconic-property-stroke" fill="none" d="M60 54l-20 9v18.8"
    />
    <path clip-path="url(#iconic-size-lg-lightbulb-clip-1)" stroke="#000" stroke-width="8" stroke-linecap="round" stroke-linejoin="round" stroke-miterlimit="10" class="iconic-lightbulb-coil iconic-lightbulb-coil-5 iconic-property-stroke" fill="none" d="M24 68v13.8"
    />
    <path d="M47 94h-30c-1.7 0-3.2-1.3-3.5-3l-1-6.1c-.3-1.6.8-3 2.5-3h34c1.7 0 2.8 1.3 2.5 3l-1 6.1c-.3 1.7-1.8 3-3.5 3z" class="iconic-lightbulb-base iconic-property-fill" />
    <path stroke="#000" stroke-width="8" stroke-linecap="round" stroke-linejoin="round" stroke-miterlimit="10" class="iconic-lightbulb-coil iconic-lightbulb-coil-4 iconic-property-stroke" fill="none" d="M60 38l-56 26" />
    <path stroke="#000" stroke-width="8" stroke-linecap="round" stroke-linejoin="round" stroke-miterlimit="10" class="iconic-lightbulb-coil iconic-lightbulb-coil-3 iconic-property-stroke" fill="none" d="M60 22l-56 26" />
    <path stroke="#000" stroke-width="8" stroke-linecap="round" stroke-linejoin="round" stroke-miterlimit="10" class="iconic-lightbulb-coil iconic-lightbulb-coil-2 iconic-property-stroke" fill="none" d="M60 6l-56 26" />
    <path stroke="#000" stroke-width="8" stroke-linecap="round" stroke-linejoin="round" stroke-miterlimit="10" class="iconic-lightbulb-coil iconic-lightbulb-coil-1 iconic-property-stroke" fill="none" d="M30 4.1l-26 11.9" />
  </g>
</svg>