<svg version="1.1" xmlns="http://www.w3.org/2000/svg" data-icon="link-intact" width="128" height="128" class="iconic iconic-link iconic-size-lg iconic-link-intact" viewBox="0 0 128 128">
  <g>
    <title>Link Intact</title>
  </g>
  <defs>
    <clipPath id="iconic-size-lg-link-clip-0">
      <path d="M59.9 56.1c0 3.2 1.2 6.2 3.5 8.5l-11.3 11.3c-5.3-5.3-8.2-12.3-8.2-19.8 0-2.8.4-5.5 1.2-8.1h-45.1v80h80v-80h-16.9c-2.1 2.2-3.2 5.1-3.2 8.1z"></path>
    </clipPath>
    <clipPath id="iconic-size-lg-link-clip-1">
      <path d="M48 0v80h16.9c2-2.2 3.1-5.1 3.1-8.1 0-3.2-1.2-6.2-3.5-8.5l11.3-11.3c5.3 5.3 8.2 12.3 8.2 19.8 0 2.8-.4 5.5-1.2 8.1h45.2v-80h-80z"></path>
    </clipPath>
  </defs>
  <g data-width="128" data-height="128" class="iconic-container iconic-link-intact" stroke="#000" stroke-linejoin="round" stroke-miterlimit="10" fill="none" transform="translate(0 ) scale(1 1 ) ">
    <path stroke-width="8" clip-path="url(#iconic-size-lg-link-clip-0)" d="M38.1 118.1c-7.8 7.8-20.5 7.8-28.3 0s-7.8-20.4.1-28.2l32.1-32.1c7.8-7.8 20.5-7.8 28.3 0s7.8 20.5 0 28.3l-32.2 32z" class="iconic-link-link iconic-link-link-bottom iconic-property-stroke"></path>
    <path stroke-width="8" clip-path="url(#iconic-size-lg-link-clip-1)" d="M86.1 70.2c-7.8 7.8-20.5 7.8-28.3 0s-7.8-20.5 0-28.3l32.1-32c7.8-7.8 20.5-7.8 28.3 0s7.8 20.5 0 28.3l-32.1 32z" class="iconic-link-link iconic-link-link-top iconic-property-stroke"></path>
  </g>
</svg>