<svg version="1.1" xmlns="http://www.w3.org/2000/svg" data-icon="link-intact" width="16" height="16" class="iconic iconic-link iconic-size-sm iconic-link-intact" viewBox="0 0 16 16">
  <g>
    <title>Link Intact</title>
  </g>
  <g data-width="16" data-height="16" class="iconic-container iconic-link-intact" transform="scale(1 1 ) translate(0 ) " stroke="#000" stroke-linejoin="round" stroke-miterlimit="10" fill="none">
    <path stroke-width="2" d="M9.5 6.5c-.8-.8-2.1-1.1-3.1-.7-.4.1-1.7 1.2-2 1.6l-2.5 2.5c-1.2 1.2-1.2 3.1 0 4.2.8.9 2 1.1 3.1.7.4-.1.8-.4 1.1-.7l.9-.9" class="iconic-link-link iconic-link-link-bottom iconic-property-stroke"></path>
    <path stroke-width="2" d="M6.5 9.5c.6.6 1.3.8 2 .9.8 0 1.6-.3 2.2-.9l3.3-3.3c1.2-1.2 1.2-3.1 0-4.2-.7-1-1.9-1.2-3-.8-.4.1-.8.4-1.1.7l-.9.9" class="iconic-link-link iconic-link-link-top iconic-property-stroke"></path>
  </g>
</svg>