<svg version="1.1" xmlns="http://www.w3.org/2000/svg" width="128" height="128" data-icon="loop" class="iconic iconic-loop iconic-size-lg" viewBox="0 0 128 128">
  <g class="iconic-metadata">
    <title>Loop</title>
  </g>
  <g class="iconic-container" data-width="112" data-height="72" transform="translate(8 28)">
    <path stroke="#000" stroke-width="8" stroke-linecap="square" stroke-miterlimit="10" d="M46 58h59c1.7 0 3-1.3 3-3v-38c0-1.7-1.3-3-3-3h-5" class="iconic-loop-line iconic-loop-line-bottom iconic-property-stroke" fill="none" />
    <path d="M25.3 58.8l21.4 12.5c.7.4 1.3.1 1.3-.7v-25c0-.8-.6-1.2-1.3-.7l-21.4 12.3c-.7.5-.7 1.1 0 1.6z" class="iconic-loop-arrowhead iconic-loop-arrowhead-bottom iconic-property-fill" />
    <path stroke="#000" stroke-width="8" stroke-linecap="square" stroke-miterlimit="10" d="M72 14h-65c-1.7 0-3 1.3-3 3v38c0 1.7 1.3 3 3 3h5" class="iconic-loop-line iconic-loop-line-top iconic-property-stroke" fill="none" />
    <path d="M86.7 13.2l-21.4-12.4c-.7-.5-1.3-.1-1.3.7v25c0 .8.6 1.2 1.3.7l21.4-12.5c.7-.4.7-1 0-1.5z" class="iconic-loop-arrowhead iconic-loop-arrowhead-top iconic-property-fill" />
  </g>
</svg>