<svg version="1.1" xmlns="http://www.w3.org/2000/svg" width="128" height="128" data-icon="loop-square" class="iconic iconic-loop-square iconic-size-lg" viewBox="0 0 128 128">
  <g class="iconic-metadata">
    <title>Loop Square</title>
  </g>
  <g class="iconic-container" data-width="128" data-height="96" transform="translate(0 16)">
    <path stroke="#000" stroke-width="8" stroke-miterlimit="10" d="M114 60v27.5c0 2.5-2 4.5-4.5 4.5h-91c-2.5 0-4.5-2-4.5-4.5v-27.5" class="iconic-loop-square-line iconic-loop-square-line-bottom iconic-property-stroke" fill="none" />
    <path d="M13.2 43.3l-12.4 21.4c-.5.7-.1 1.3.7 1.3h25c.8 0 1.2-.6.7-1.3l-12.4-21.4c-.5-.7-1.1-.7-1.6 0z" class="iconic-loop-square-arrowhead iconic-loop-square-arrowhead-bottom iconic-property-fill" />
    <path stroke="#000" stroke-width="8" stroke-miterlimit="10" d="M14 36v-27.5c0-2.5 2-4.5 4.5-4.5h91c2.5 0 4.5 2 4.5 4.5v27.5" class="iconic-loop-square-line iconic-loop-square-line-top iconic-property-stroke" fill="none" />
    <path d="M114.8 52.7l12.5-21.4c.4-.7.1-1.3-.7-1.3h-25c-.8 0-1.2.6-.7 1.3l12.5 21.4c.3.7.9.7 1.4 0z" class="iconic-loop-square-arrowhead iconic-loop-square-arrowhead-top iconic-property-fill" />
  </g>
</svg>