<svg version="1.1" xmlns="http://www.w3.org/2000/svg" width="32" height="32" data-icon="loop-square" class="iconic iconic-loop-square iconic-size-md" viewBox="0 0 32 32">
  <g class="iconic-metadata">
    <title>Loop Square</title>
  </g>
  <g class="iconic-container" data-width="32" data-height="24" transform="translate(0 4)">
    <path stroke="#000" stroke-width="3" stroke-miterlimit="10" d="M27.5 16v5c0 .8-.7 1.5-1.5 1.5h-20c-.8 0-1.5-.7-1.5-1.5v-6" class="iconic-loop-square-line iconic-loop-square-line-bottom iconic-property-stroke" fill="none" />
    <path d="M4.8 10.4l3.9 5.2c.2.2.1.4-.2.4h-8c-.3 0-.4-.2-.2-.4l3.9-5.2c.2-.2.4-.2.6 0z" class="iconic-loop-square-arrowhead iconic-loop-square-arrowhead-bottom iconic-property-fill" />
    <path stroke="#000" stroke-width="3" stroke-miterlimit="10" d="M4.5 8v-5c0-.8.7-1.5 1.5-1.5h20c.8 0 1.5.7 1.5 1.5v6" class="iconic-loop-square-line iconic-loop-square-line-top iconic-property-stroke" fill="none" />
    <path d="M27.2 13.6l-3.9-5.2c-.2-.2-.1-.4.2-.4h8c.3 0 .4.2.2.4l-3.9 5.2c-.2.2-.4.2-.6 0z" class="iconic-loop-square-arrowhead iconic-loop-square-arrowhead-top iconic-property-fill" />
  </g>
</svg>