<svg version="1.1" xmlns="http://www.w3.org/2000/svg" width="32" height="32" data-icon="magic-wand" class="iconic iconic-magic-wand iconic-size-md" viewBox="0 0 32 32">
  <g class="iconic-metadata">
    <title>Magic Wand</title>
  </g>
  <g class="iconic-container" data-width="32" data-height="32">
    <path d="M20.4 9.4l2.3 2.3c.2.2.2.5 0 .7l-19.3 19.2c-.2.2-.5.2-.7 0l-2.3-2.3c-.2-.2-.2-.5 0-.7l19.2-19.2c.2-.2.6-.2.8 0z" class="iconic-magic-wand-shaft iconic-magic-wand-shaft-handle iconic-property-fill" />
    <path d="M23.6 5.4l-2.3 2.3c-.2.2-.2.5 0 .7l2.3 2.3c.2.2.5.2.7 0l2.3-2.3c.2-.2.2-.5 0-.7l-2.3-2.3c-.1-.2-.5-.2-.7 0z" class="iconic-magic-wand-shaft iconic-magic-wand-shaft-tip iconic-property-fill" />
    <path stroke="#000" stroke-linecap="round" stroke-miterlimit="10" class="iconic-magic-wand-ray iconic-magic-wand-ray-minor iconic-magic-wand-ray-7 iconic-property-stroke" fill="none" d="M24.5 13.5v2" />
    <path stroke="#000" stroke-linecap="round" stroke-miterlimit="10" class="iconic-magic-wand-ray iconic-magic-wand-ray-major iconic-magic-wand-ray-6 iconic-property-stroke" fill="none" d="M27.5 11.5l4 4" />
    <path stroke="#000" stroke-linecap="round" stroke-miterlimit="10" class="iconic-magic-wand-ray iconic-magic-wand-ray-minor iconic-magic-wand-ray-5 iconic-property-stroke" fill="none" d="M31.5 7.5h-2" />
    <path stroke="#000" stroke-linecap="round" stroke-miterlimit="10" class="iconic-magic-wand-ray iconic-magic-wand-ray-major iconic-magic-wand-ray-4 iconic-property-stroke" fill="none" d="M31.5.5l-4 4" />
    <path stroke="#000" stroke-linecap="round" stroke-miterlimit="10" class="iconic-magic-wand-ray iconic-magic-wand-ray-minor iconic-magic-wand-ray-3 iconic-property-stroke" fill="none" d="M24.5.5v2" />
    <path stroke="#000" stroke-linecap="round" stroke-miterlimit="10" class="iconic-magic-wand-ray iconic-magic-wand-ray-major iconic-magic-wand-ray-2 iconic-property-stroke" fill="none" d="M17 .5l4 4" />
    <path stroke="#000" stroke-linecap="round" stroke-miterlimit="10" class="iconic-magic-wand-ray iconic-magic-wand-ray-minor iconic-magic-wand-ray-1 iconic-property-stroke" fill="none" d="M18.5 7.5h-2" />
  </g>
</svg>