<svg version="1.1" xmlns="http://www.w3.org/2000/svg" width="128" height="128" data-icon="medal" class="iconic iconic-medal iconic-size-lg" viewBox="0 0 128 128">
  <g class="iconic-metadata">
    <title>Medal</title>
  </g>
  <defs>
    <clipPath id="iconic-size-lg-medal-clip-0">
      <path d="M19.4 6l-3.4-6h92l-3.4 6h-85.2zm31.6 72.2c3.4-1.4 7.1-2.2 11-2.2s7.6.8 11 2.2l44.7-78.2h-7.7l-24 42h-2l18.3-32h-80.6l18.3 32h-2l-24-42h-7.7l44.7 78.2zm69-78.2l1.7 1-45.2 79.1c1.8 1.1 3.5 2.4 5 3.9h42.5v-84h-4zm-72.5 80.1l-45.2-79.1 1.7-1h-4v84h42.4c1.6-1.5 3.2-2.8 5.1-3.9z"
      />
    </clipPath>
  </defs>
  <g class="iconic-container" data-width="124" data-height="128" transform="translate(2)">
    <path clip-path="url(#iconic-size-lg-medal-clip-0)" d="M108.5 0h-93c-.8 0-2 .4-2.7.9l-11.6 8.2c-.7.5-.9 1.5-.5 2.2l46.5 81.4c.4.7 1.3.9 2 .4l11.6-8.3c.7-.5.9-1.5.5-2.2l-37.4-65.3c-.4-.7-.1-1.3.8-1.3h74.7c.8 0 1.2.6.8 1.3l-37.5 65.4c-.4.7-.2 1.7.5 2.2l11.6 8.3c.7.5 1.6.3 2-.4l46.5-81.4c.4-.7.2-1.7-.5-2.2l-11.6-8.3c-.7-.5-1.9-.9-2.7-.9z"
    class="iconic-medal-band iconic-property-fill" />
    <circle cx="62" cy="104" r="24" class="iconic-medal-medal iconic-property-fill" />
  </g>
</svg>