<svg version="1.1" xmlns="http://www.w3.org/2000/svg" width="32" height="32" data-icon="medical-cross" class="iconic iconic-medical-cross iconic-size-md" viewBox="0 0 32 32">
  <g class="iconic-metadata">
    <title>Medical Cross</title>
  </g>
  <g class="iconic-container" data-width="32" data-height="32">
    <path d="M31.5 11h-10c-.3 0-.5-.2-.5-.5v-10c0-.3-.2-.5-.5-.5h-9c-.3 0-.5.2-.5.5v10c0 .3-.2.5-.5.5h-10c-.3 0-.5.2-.5.5v9c0 .3.2.5.5.5h10c.3 0 .5.2.5.5v10c0 .3.2.5.5.5h9c.3 0 .5-.2.5-.5v-10c0-.3.2-.5.5-.5h10c.3 0 .5-.2.5-.5v-9c0-.3-.2-.5-.5-.5z" class="iconic-property-fill"
    />
  </g>
</svg>