<svg version="1.1" xmlns="http://www.w3.org/2000/svg" width="32" height="32" data-icon="microphone" class="iconic iconic-microphone iconic-size-md" viewBox="0 0 32 32">
  <g class="iconic-metadata">
    <title>Microphone</title>
  </g>
  <g class="iconic-container" data-width="16" data-height="32" transform="translate(8)">
    <path d="M13 30h-4v-5.6h-2v5.6h-4c-1.1 0-2 .9-2 2h14c0-1.1-.9-2-2-2z" class="iconic-microphone-base iconic-property-fill" />
    <path stroke="#000" stroke-linecap="round" stroke-miterlimit="10" d="M.5 15.4v1.6c0 4.1 3.4 7.5 7.5 7.5s7.5-3.4 7.5-7.5v-2.5" class="iconic-microphone-hinge iconic-property-stroke" fill="none" />
    <path d="M3 17c0 2.8 2.2 5 5 5s5-2.2 5-5v-1h-10v1z" class="iconic-microphone-head iconic-microphone-head-bottom iconic-property-fill" />
    <path d="M8 0c-2.8 0-5 2.2-5 5v10h10v-10c0-2.8-2.2-5-5-5zm-2 12c-.6 0-1-.4-1-1s.4-1 1-1 1 .4 1 1-.4 1-1 1zm0-4c-.6 0-1-.4-1-1s.4-1 1-1 1 .4 1 1-.4 1-1 1zm2-4c-.6 0-1-.4-1-1s.4-1 1-1 1 .4 1 1-.4 1-1 1zm2 8c-.6 0-1-.4-1-1s.4-1 1-1 1 .4 1 1-.4 1-1 1zm0-4c-.6 0-1-.4-1-1s.4-1 1-1 1 .4 1 1-.4 1-1 1z"
    class="iconic-microphone-head iconic-microphone-head-top iconic-property-fill" />
  </g>
</svg>