<svg version="1.1" xmlns="http://www.w3.org/2000/svg" width="128" height="128" data-icon="move" class="iconic iconic-move iconic-size-lg" viewBox="0 0 128 128">
  <g class="iconic-metadata">
    <title>Move</title>
  </g>
  <g class="iconic-container" data-width="128" data-height="128">
    <path stroke="#000" stroke-width="8" stroke-linecap="square" stroke-miterlimit="10" class="iconic-move-axis iconic-move-axis-vertical iconic-property-stroke" fill="none" d="M64 15v97" />
    <path stroke="#000" stroke-width="8" stroke-linecap="square" stroke-miterlimit="10" class="iconic-move-axis iconic-move-axis-horizontal iconic-property-stroke" fill="none" d="M117 64h-105" />
    <path d="M63.2 1.3l-12.4 21.4c-.4.7-.1 1.3.7 1.3h25c.8 0 1.2-.6.7-1.3l-12.4-21.4c-.5-.7-1.1-.7-1.6 0z" class="iconic-move-arrowhead iconic-move-arrowhead-top iconic-property-fill" />
    <path d="M64.8 126.7l12.5-21.4c.4-.7.1-1.3-.7-1.3h-25c-.8 0-1.2.6-.7 1.3l12.5 21.4c.3.7.9.7 1.4 0z" class="iconic-move-arrowhead iconic-move-arrowhead-bottom iconic-property-fill" />
    <path d="M126.7 63.2l-21.4-12.5c-.7-.4-1.3-.1-1.3.7v25c0 .8.6 1.2 1.3.7l21.4-12.5c.7-.3.7-.9 0-1.4z" class="iconic-move-arrowhead iconic-move-arrowhead-right iconic-property-fill" />
    <path d="M1.3 64.8l21.4 12.5c.7.4 1.3.1 1.3-.7v-25c0-.8-.6-1.2-1.3-.7l-21.4 12.3c-.7.5-.7 1.1 0 1.6z" class="iconic-move-arrowhead iconic-move-arrowhead-left iconic-property-fill" />
  </g>
</svg>