<svg version="1.1" xmlns="http://www.w3.org/2000/svg" width="32" height="32" data-icon="musical-note" class="iconic iconic-musical-note iconic-size-md" viewBox="0 0 32 32">
  <g class="iconic-metadata">
    <title>Musical Note</title>
  </g>
  <g class="iconic-container" data-width="31" data-height="32">
    <path d="M7 4v18.4c-.6-.2-1.3-.4-2-.4-2.8 0-5 2.2-5 5s2.2 5 5 5 5-2.2 5-5v-18.5c2.9-1 8.3-2.2 18-2.4v14.4c-.6-.3-1.3-.4-2-.4-2.8 0-5 2.2-5 5s2.2 5 5 5 5-2.2 5-5v-25.1c-20 0-24 4-24 4z" class="iconic-property-fill" />
  </g>
</svg>