<svg version="1.1" xmlns="http://www.w3.org/2000/svg" width="16" height="16" data-icon="musical-note" class="iconic iconic-musical-note iconic-size-sm" viewBox="0 0 16 16">
  <g class="iconic-metadata">
    <title>Musical Note</title>
  </g>
  <g class="iconic-container" data-width="16" data-height="16">
    <path d="M4 2v8.2c-.3-.1-.6-.2-1-.2-1.7 0-3 1.3-3 3s1.3 3 3 3 3-1.3 3-3v-7.9c1.5-.5 4-.9 8-1v5.2c-.3-.2-.6-.3-1-.3-1.7 0-3 1.3-3 3s1.3 3 3 3 3-1.3 3-3v-12c-10 0-12 2-12 2z" class="iconic-property-fill" />
  </g>
</svg>