<svg version="1.1" xmlns="http://www.w3.org/2000/svg" width="128" height="128" data-icon="musical-note" class="iconic iconic-musical-note iconic-size-lg" viewBox="0 0 128 128">
  <g class="iconic-metadata">
    <title>Musical Note</title>
  </g>
  <g class="iconic-container" data-width="118" data-height="128" transform="translate(5)">
    <path d="M28 16v79c-2.9-1.9-6.3-3-10-3-9.9 0-18 8.1-18 18s8.1 18 18 18 18-8.1 18-18v-74.2c10.5-4.5 32.8-10.9 74-11.7v61c-2.9-1.9-6.3-3-10-3-9.9 0-18 8.1-18 18s8.1 18 18 18 18-8.1 18-18v-100.1c-70 0-90 16-90 16z" class="iconic-property-fill" />
  </g>
</svg>