<svg version="1.1" xmlns="http://www.w3.org/2000/svg" width="16" height="16" data-icon="pen" class="iconic iconic-pen iconic-size-sm" viewBox="0 0 16 16">
  <g class="iconic-metadata">
    <title>Pen</title>
  </g>
  <g class="iconic-container" data-width="16" data-height="16">
    <path transform="matrix(-.707 -.707 .707 -.707 22.485 13.314)" class="iconic-pen-button iconic-property-accent iconic-property-fill" d="M13.3-.1h1.4v4.2h-1.4z" />
    <path transform="matrix(.707 -.707 .707 .707 -7.814 6.136)" class="iconic-pen-body iconic-pen-body-bottom iconic-property-fill" d="M2.1 11.8h2.8v1.4h-2.8z" />
    <path transform="matrix(-.707 .707 -.707 -.707 18.814 9.207)" class="iconic-pen-body iconic-pen-body-middle iconic-property-fill" d="M2.6 7.1h9.9v2.8h-9.9z" />
    <path transform="matrix(-.707 .707 -.707 -.707 24.814 -5.278)" class="iconic-pen-body iconic-pen-body-top iconic-property-accent iconic-property-fill" d="M12.8 1.1h1.4v2.8h-1.4z" />
    <path class="iconic-pen-clip iconic-property-accent iconic-property-fill" d="M10 0l-5 5v2l5-5 3 3 1-1z" />
    <path class="iconic-pen-head iconic-property-accent iconic-property-fill" d="M0 15v1h1l1-1-1-1z" />
  </g>
</svg>