<svg version="1.1" xmlns="http://www.w3.org/2000/svg" width="32" height="32" data-icon="pencil" class="iconic iconic-pencil iconic-size-md" viewBox="0 0 32 32">
  <g class="iconic-metadata">
    <title>Pencil</title>
  </g>
  <defs>
    <clipPath id="iconic-size-md-pencil-clip-0">
      <path transform="matrix(-.707 -.707 .707 -.707 44.971 26.627)" d="M24.5 1.9h7.1v4.2h-7.1z" />
    </clipPath>
  </defs>
  <g class="iconic-container" data-width="32" data-height="32">
    <path class="iconic-pencil-shaft iconic-property-fill" d="M2 27l1-3 19-19 5 5-19 19-3 1" />
    <path clip-path="url(#iconic-size-md-pencil-clip-0)" d="M27.4.4l4.3 4.3c.2.2.2.5 0 .7l-3.3 3.3c-.2.2-.5.2-.7 0l-4.3-4.3c-.2-.2-.2-.5 0-.7l3.3-3.3c.1-.2.5-.2.7 0z" class="iconic-pencil-eraser iconic-property-fill" />
    <path class="iconic-pencil-tip iconic-property-fill" d="M1 29l-1 3 3-1z" />
  </g>
</svg>