<svg version="1.1" xmlns="http://www.w3.org/2000/svg" width="128" height="128" data-icon="pencil" class="iconic iconic-pencil iconic-size-lg" viewBox="0 0 128 128">
  <g class="iconic-metadata">
    <title>Pencil</title>
  </g>
  <defs>
    <clipPath id="iconic-size-lg-pencil-clip-0">
      <path transform="matrix(-.707 -.707 .707 -.707 189.539 102.51)" d="M104.7 6.3h22.6v11.3h-22.6z" />
    </clipPath>
  </defs>
  <g class="iconic-container" data-width="128" data-height="128">
    <path d="M106.7 22.7l-77 77c-.2.2-.5.3-.7.3s-.5-.1-.7-.3c-.4-.4-.4-1 0-1.4l77-77-7.3-7.3-82.3 82.3c.1.1.2.2.2.4l1.8 5.5 5.5 1.8c.3.1.5.3.6.6l1.8 5.5 5.5 1.8c.2.1.3.1.4.2l82.5-82.1-7.3-7.3z" class="iconic-pencil-shaft iconic-property-fill" />
    <path d="M24.7 111.9c-.3-.1-.5-.3-.6-.6l-1.8-5.5-5.5-1.8c-.3-.1-.5-.3-.6-.6l-1.7-5-8.5 17.6 6.3 6.3 17.6-8.5-5.2-1.9z" class="iconic-pencil-exposed-wood iconic-property-fill" />
    <path class="iconic-pencil-tip iconic-property-fill" d="M4.6 118.6l-4.6 9.4 9.4-4.6z" />
    <path clip-path="url(#iconic-size-lg-pencil-clip-0)" d="M114.1 2.1l11.8 11.8c1.2 1.2 1.2 3.1 0 4.2l-5.8 5.8c-1.2 1.2-3.1 1.2-4.2 0l-11.8-11.8c-1.2-1.2-1.2-3.1 0-4.2l5.8-5.8c1.2-1.2 3-1.2 4.2 0z" class="iconic-pencil-eraser iconic-property-fill" />
    <path transform="matrix(-.707 .707 -.707 -.707 199.51 -44.64)" class="iconic-pencil-eraser-border iconic-property-fill" d="M107.6 7.7h2.8v22.6h-2.8z" />
  </g>
</svg>