<svg version="1.1" xmlns="http://www.w3.org/2000/svg" width="32" height="32" data-icon="people" class="iconic iconic-people iconic-size-md" viewBox="0 0 32 32">
  <g class="iconic-metadata">
    <title>People</title>
  </g>
  <g class="iconic-container" data-width="32" data-height="15" transform="translate(0 8)">
    <path d="M7.3 11.4c.1-.3.1-.5 0-.4-.1 0-.1 0-.2 0-1.2 0-2.3-.6-3.1-1.6-.2-.2-.4-.4-.4-.4h-.1c-1.9 0-3.5 1.6-3.5 3.5v1c0 .3.2.5.5.5h6c.3 0 .5-.2.5-.5v-.5c0-.5.1-1.1.3-1.6z" class="iconic-people-person iconic-people-person-body iconic-people-person-left iconic-people-person-body-left iconic-property-accent iconic-property-fill"
    />
    <path d="M10.5 5.2c0 2.5-1.6 4.8-3.5 4.8s-3.5-2.3-3.5-4.8 1.6-4.2 3.5-4.2 3.5 1.8 3.5 4.2z" class="iconic-people-person iconic-people-person-head iconic-people-person-left iconic-people-person-head-left iconic-property-accent iconic-property-fill"
    />
    <path d="M28.4 9s-.2.2-.4.4c-.8 1-1.9 1.6-3.1 1.6-.1 0-.1 0-.2 0s-.1.2 0 .4c.2.5.3 1 .3 1.6v.5c0 .3.2.5.5.5h6c.3 0 .5-.2.5-.5v-1c0-1.9-1.6-3.5-3.6-3.5.1 0 .1 0 0 0z" class="iconic-people-person iconic-people-person-body iconic-people-person-right iconic-people-person-body-right iconic-property-accent iconic-property-fill"
    />
    <path d="M28.5 5.2c0 2.5-1.6 4.8-3.5 4.8s-3.5-2.3-3.5-4.8 1.6-4.2 3.5-4.2 3.5 1.8 3.5 4.2z" class="iconic-people-person iconic-people-person-head iconic-people-person-right iconic-people-person-head-right iconic-property-accent iconic-property-fill"
    />
    <path d="M19.8 9c-.1 0-.4.2-.5.4-.8 1-1.9 1.6-3.2 1.6s-2.4-.6-3.2-1.6c-.3-.2-.5-.4-.7-.4h-.2c-2.2 0-4 1.8-4 4v1.5c0 .3.2.5.5.5h15c.3 0 .5-.2.5-.5v-1.5c0-2.2-1.8-4-4-4 0 0-.1 0-.2 0z" class="iconic-people-person iconic-people-person-body iconic-people-person-center iconic-people-person-body-center iconic-property-fill"
    />
    <path d="M20 4.5c0 2.8-1.8 5.5-4 5.5s-4-2.7-4-5.5 1.8-4.5 4-4.5 4 1.7 4 4.5z" class="iconic-people-person iconic-people-person-head iconic-people-person-center iconic-people-person-head-center iconic-property-fill" />
  </g>
</svg>