<svg version="1.1" xmlns="http://www.w3.org/2000/svg" data-icon="person-male" width="16" height="16" class="iconic iconic-person iconic-size-sm iconic-person-male" viewBox="0 0 16 16">
  <g>
    <title>Person Male</title>
  </g>
  <g data-width="16" data-height="16" class="iconic-container iconic-person-male" transform="scale(1 1 ) translate(0 ) ">
    <path d="M12.5 10c-1 1.3-2.6 2-4.5 2s-3.4-.7-4.5-2c-2 .3-3.5 2-3.5 4v2h16v-2c0-2-1.5-3.7-3.5-4z" class="iconic-person-male-body iconic-property-fill"></path>
    <path d="M10 1c-.1-.9-1.2-1-2-1-4 0-4.8 3.2-4 5 0 2.8 1 5 4 5s4-2.2 4-5c1-3-1-4-2-4z" class="iconic-person-male-head iconic-property-fill"></path>
  </g>
</svg>