<svg version="1.1" xmlns="http://www.w3.org/2000/svg" data-icon="person-genderless" width="128" height="128" class="iconic iconic-person iconic-size-lg iconic-person-genderless" viewBox="0 0 128 128">
  <g>
    <title>Person Genderless</title>
  </g>
  <g data-width="128" data-height="128" class="iconic-container iconic-person-genderless" transform="translate(0 ) scale(1 1 ) ">
    <path d="M87.9 80c-.8 0-2 .4-2.7.9-6.1 4.6-13.3 7.1-21.2 7.1-7.5 0-14.5-2.5-20.5-7.1-.7-.5-1.8-.9-2.7-.9h-8.8c-17.7 0-32 14.3-32 32v14.5c0 .8.7 1.5 1.5 1.5h125c.8 0 1.5-.7 1.5-1.5v-14.5c0-17.7-14.3-32-32-32h-8.1z" class="iconic-person-body iconic-property-fill"></path>
    <path d="M96 35c0 22.1-10.1 45-32 45-20.1 0-32-22.9-32-45s14.3-35 32-35 32 12.9 32 35z" class="iconic-person-head iconic-property-fill"></path>
  </g>
</svg>