<svg version="1.1" xmlns="http://www.w3.org/2000/svg" data-icon="person-genderless" width="32" height="32" class="iconic iconic-person iconic-size-md iconic-person-genderless" viewBox="0 0 32 32">
  <g>
    <title>Person Genderless</title>
  </g>
  <g data-width="32" data-height="32" class="iconic-container iconic-person-genderless" transform="scale(1 1 ) translate(0 ) ">
    <path d="M23.6 20c-.2 0-.6.2-.8.3-1.8 1.7-4.2 2.7-6.8 2.7s-5-1-6.8-2.7c-.2-.1-.5-.3-.8-.3h-.4c-4.4 0-8 3.6-8 8v3.5c0 .3.2.5.5.5h31c.3 0 .5-.2.5-.5v-3.5c0-4.4-3.6-8-8-8h-.4z" class="iconic-person-body iconic-property-fill"></path>
    <path d="M24 9c0 5.5-2.6 11-8 11-5.5 0-8-5.5-8-11s3.6-9 8-9 8 3.5 8 9z" class="iconic-person-head iconic-property-fill"></path>
  </g>
</svg>