<svg version="1.1" xmlns="http://www.w3.org/2000/svg" data-icon="person-female" width="16" height="16" class="iconic iconic-person iconic-size-sm iconic-person-female" viewBox="0 0 16 16">
  <g>
    <title>Person Female</title>
  </g>
  <g data-width="16" data-height="16" class="iconic-container iconic-person-female" transform="scale(1 1 ) translate(0 ) ">
    <path d="M11.8 10.2c-1.2 1.1-2.5 1.8-3.8 1.8s-2.6-.7-3.8-1.8c-1.5.5-4.2 2.3-4.2 4.8v1h16v-1c0-2.5-2.7-4.3-4.2-4.8z" class="iconic-person-female-body iconic-property-fill"></path>
    <path d="M14 8c-1 0-2-.7-2-3 0-2.8-1.8-5-4-5s-4 2.2-4 5c0 2.3-1 3-2 3 0 0 1.5.8 3.3.3.8 1 1.9 1.7 2.7 1.7.8 0 1.9-.7 2.8-1.7 1.7.5 3.2-.3 3.2-.3z" class="iconic-person-female-head iconic-property-fill"></path>
  </g>
</svg>