<svg version="1.1" xmlns="http://www.w3.org/2000/svg" data-icon="person-female" width="32" height="32" class="iconic iconic-person iconic-size-md iconic-person-female" viewBox="0 0 32 32">
  <g>
    <title>Person Female</title>
  </g>
  <g data-width="28" data-height="32" class="iconic-container iconic-person-female" transform="scale(1 1 ) translate(2 ) ">
    <path d="M20.6 20.5c-2 2.1-4.3 3.5-6.6 3.5s-4.6-1.4-6.6-3.5c-.2-.2-.5-.3-.8-.2-2.5 1.2-6.6 4.7-6.6 9.7v1.5c0 .3.2.5.5.5h27c.3 0 .5-.2.5-.5v-1.5c0-5-4.1-8.5-6.6-9.6-.3-.2-.7-.1-.8.1z" class="iconic-person-female-body iconic-property-fill"></path>
    <path d="M26 17c-2 0-4-2.3-4-7 0-5.5-3.6-10-8-10s-8 4.5-8 10c0 4.7-2 7-4 7 0 0 2.9.7 6.3-.2 1.7 2.5 4 4.2 5.7 4.2 1.7 0 4.1-1.8 5.8-4.3 3.3 1 6.2.3 6.2.3z" class="iconic-person-female-head iconic-property-fill"></path>
  </g>
</svg>