<svg version="1.1" xmlns="http://www.w3.org/2000/svg" data-icon="person-male" width="32" height="32" class="iconic iconic-person iconic-size-md iconic-person-male" viewBox="0 0 32 32">
  <g>
    <title>Person Male</title>
  </g>
  <g data-width="32" data-height="32" class="iconic-container iconic-person-male" transform="scale(1 1 ) translate(0 ) ">
    <path d="M23.9 20.4c-1.9 2.3-4.6 3.6-7.9 3.6s-6-1.3-7.9-3.6c-.2-.2-.5-.4-.8-.4-4.1.4-7.3 3.8-7.3 8v3.5c0 .3.2.5.5.5h31c.3 0 .5-.2.5-.5v-3.5c0-4.2-3.2-7.6-7.3-8-.3 0-.6.2-.8.4z" class="iconic-person-male-body iconic-property-fill"></path>
    <path d="M20 2c-.1-1.9-2.3-2-4-2-7.9 0-9.6 6.5-8 10 0 5.5 1.9 11 8 11 5.9 0 8-5.5 8-11 1.9-5.9-2.1-8-4-8z" class="iconic-person-male-head iconic-property-fill"></path>
  </g>
</svg>