<svg version="1.1" xmlns="http://www.w3.org/2000/svg" width="128" height="128" data-icon="power-standby" class="iconic iconic-power-standby iconic-size-lg" viewBox="0 0 128 128">
  <g class="iconic-metadata">
    <title>Power Standby</title>
  </g>
  <g class="iconic-container" data-width="112" data-height="126" transform="translate(8 1)">
    <path stroke="#000" stroke-width="8" stroke-miterlimit="10" d="M71.5 20.3c1.6.5 3.2 1.1 4.8 1.7 1.6.7 3.1 1.4 4.5 2.2s2.9 1.7 4.3 2.6c1.4.9 2.7 1.9 4 3 1.3 1.1 2.5 2.2 3.7 3.4 1.2 1.2 2.3 2.4 3.4 3.7 1.1 1.3 2.1 2.6 3 4 .9 1.4 1.8 2.8 2.6 4.3s1.5 3 2.2 4.5 1.2 3.1 1.7 4.8c.5 1.6.9 3.3 1.3 5 .3 1.7.6 3.4.8 5.2.2 1.7.3 3.5.3 5.3s-.1 3.6-.3 5.3c-.2 1.7-.4 3.5-.8 5.2s-.8 3.4-1.3 5-1.1 3.2-1.7 4.8-1.4 3.1-2.2 4.5c-.8 1.5-1.7 2.9-2.6 4.3s-1.9 2.7-3 4c-1.1 1.3-2.2 2.5-3.4 3.7s-2.4 2.3-3.7 3.4c-1.3 1.1-2.6 2.1-4 3s-2.8 1.8-4.3 2.6-3 1.5-4.5 2.2-3.1 1.2-4.8 1.7-3.3.9-5 1.3-3.4.6-5.2.8c-1.7.2-3.5.3-5.3.3s-3.6-.1-5.3-.3c-1.7-.2-3.5-.4-5.2-.8-1.7-.3-3.4-.8-5-1.3s-3.2-1.1-4.8-1.7-3.1-1.4-4.5-2.2c-1.5-.8-2.9-1.7-4.3-2.6s-2.7-1.9-4-3c-1.3-1.1-2.5-2.2-3.7-3.4-1.2-1.2-2.3-2.4-3.4-3.7s-2.1-2.6-3-4-1.8-2.8-2.6-4.3-1.5-3-2.2-4.5c-.7-1.6-1.2-3.1-1.7-4.8s-.9-3.3-1.3-5c-.3-1.7-.6-3.4-.8-5.2-.1-1.7-.2-3.5-.2-5.3s.1-3.6.3-5.3c.2-1.7.4-3.5.8-5.2.3-1.7.8-3.4 1.3-5s1.1-3.2 1.7-4.8c.7-1.6 1.4-3.1 2.2-4.5s1.7-2.9 2.6-4.3c.9-1.4 1.9-2.7 3-4s2.2-2.5 3.4-3.7c1.2-1.2 2.4-2.3 3.7-3.4 1.3-1.1 2.6-2.1 4-3 1.4-.9 2.8-1.8 4.3-2.6s3-1.5 4.5-2.2c1.6-.7 3.1-1.2 4.8-1.7"
    class="iconic-power-standby-circle iconic-property-stroke" fill="none" />
    <path stroke="#000" stroke-width="8" stroke-linecap="square" stroke-miterlimit="10" class="iconic-power-standby-line iconic-property-accent iconic-property-stroke" fill="none" d="M56 4v32" />
  </g>
</svg>