<svg version="1.1" xmlns="http://www.w3.org/2000/svg" width="32" height="32" data-icon="power-standby" class="iconic iconic-power-standby iconic-size-md" viewBox="0 0 32 32">
  <g class="iconic-metadata">
    <title>Power Standby</title>
  </g>
  <g class="iconic-container" data-width="27" data-height="31" transform="translate(2)">
    <path stroke="#000" stroke-width="3" stroke-miterlimit="10" d="M18.2 6.4c1.4.7 2.7 1.5 3.8 2.6s2 2.4 2.6 3.8.9 3 .9 4.7-.3 3.2-.9 4.7c-.6 1.4-1.5 2.7-2.6 3.8s-2.4 2-3.8 2.6c-1.4.6-3 .9-4.7.9s-3.2-.3-4.7-.9-2.7-1.5-3.8-2.6-2-2.4-2.6-3.8c-.6-1.4-.9-3-.9-4.7s.3-3.2.9-4.7 1.5-2.7 2.6-3.8 2.4-2 3.8-2.6"
    class="iconic-power-standby-circle iconic-property-stroke" fill="none" />
    <path stroke="#000" stroke-width="3" stroke-linecap="square" stroke-miterlimit="10" class="iconic-power-standby-line iconic-property-accent iconic-property-stroke" fill="none" d="M13.5 1.5v9" />
  </g>
</svg>