<svg version="1.1" xmlns="http://www.w3.org/2000/svg" width="128" height="128" data-icon="print" class="iconic iconic-print iconic-size-lg" viewBox="0 0 128 128">
  <g class="iconic-metadata">
    <title>Print</title>
  </g>
  <defs>
    <clipPath id="iconic-size-lg-print-clip-0">
      <path d="M0 30v50h26v-7c0-.6.4-1 1-1s1 .4 1 1v7h2v-20h68v20h2v-7c0-.6.4-1 1-1s1 .4 1 1v7h26v-50h-128zm117 24c-.6 0-1-.4-1-1s.4-1 1-1 1 .4 1 1-.4 1-1 1zm0-4c-.6 0-1-.4-1-1s.4-1 1-1 1 .4 1 1-.4 1-1 1zm0-4c-1.7 0-3-1.3-3-3s1.3-3 3-3 3 1.3 3 3-1.3 3-3 3z"
      />
    </clipPath>
    <clipPath id="iconic-size-lg-print-clip-1">
      <path d="M32 62v32h20v-6h22v6h22v-32z" />
    </clipPath>
  </defs>
  <g class="iconic-container" data-width="128" data-height="98" transform="translate(0 15)">
    <path class="iconic-print-tray iconic-print-tray-top iconic-print-tray-top-border-left iconic-property-fill" d="M28 10h2v32h-2z" />
    <path class="iconic-print-tray iconic-print-tray-top iconic-print-tray-top-border-right iconic-property-fill" d="M98 10h2v32h-2z" />
    <path class="iconic-print-tray iconic-print-tray-bottom iconic-print-tray-bottom-left iconic-property-fill" d="M28 76h2v21h-2z" />
    <path class="iconic-print-tray iconic-print-tray-bottom iconic-print-tray-bottom-right iconic-property-fill" d="M98 76h2v21h-2z" />
    <path class="iconic-print-tray iconic-print-tray-bottom iconic-print-tray-bottom-lip iconic-property-fill" d="M54 90h18v7h-18z" />
    <path class="iconic-print-tray iconic-print-tray-bottom-front iconic-property-fill" d="M28 96h72v2h-72z" />
    <path d="M125 80h-122c-1.7 0-3-1.3-3-3v-44c0-1.7 1.3-3 3-3h122c1.7 0 3 1.3 3 3v44c0 1.7-1.3 3-3 3z" clip-path="url(#iconic-size-lg-print-clip-0)" class="iconic-print-body iconic-property-fill" />
    <path clip-path="url(#iconic-size-lg-print-clip-1)" class="iconic-print-paper iconic-print-paper-bottom iconic-property-accent iconic-property-fill" d="M32 62h64v32h-64z" />
    <path class="iconic-print-paper iconic-print-paper-top iconic-property-accent iconic-property-fill" d="M32 0h64v28h-64z" />
  </g>
</svg>