<svg version="1.1" xmlns="http://www.w3.org/2000/svg" width="32" height="32" data-icon="rainy" class="iconic iconic-rainy iconic-size-md" viewBox="0 0 32 32">
  <g class="iconic-metadata">
    <title>Rainy</title>
  </g>
  <defs>
    <clipPath id="iconic-size-md-rainy-clip-0">
      <path d="M0 0v22h7v-.5c0-1.4 1.1-2.5 2.5-2.5.2 0 .4 0 .5.1.2-1.2 1.2-2.1 2.5-2.1s2.2.9 2.5 2.1c.2 0 .4-.1.5-.1s.4 0 .5.1c.2-1.2 1.2-2.1 2.5-2.1s2.2.9 2.5 2.1c.2 0 .4-.1.5-.1 1.4 0 2.5 1.1 2.5 2.5v.5h8v-22h-32z" />
    </clipPath>
  </defs>
  <g class="iconic-container" data-width="32" data-height="28" transform="translate(0 2)">
    <path stroke="#000" stroke-linecap="round" class="iconic-rainy-rain-droplet iconic-rainy-rain-droplet-5 iconic-property-accent iconic-property-stroke" fill="none" d="M9.5 21.5v5" />
    <path stroke="#000" stroke-linecap="round" class="iconic-rainy-rain-droplet iconic-rainy-rain-droplet-4 iconic-property-accent iconic-property-stroke" fill="none" d="M12.5 19.5v8" />
    <path stroke="#000" stroke-linecap="round" class="iconic-rainy-rain-droplet iconic-rainy-rain-droplet-3 iconic-property-accent iconic-property-stroke" fill="none" d="M15.5 21.5v5" />
    <path stroke="#000" stroke-linecap="round" class="iconic-rainy-rain-droplet iconic-rainy-rain-droplet-2 iconic-property-accent iconic-property-stroke" fill="none" d="M18.5 19.5v8" />
    <path stroke="#000" stroke-linecap="round" class="iconic-rainy-rain-droplet iconic-rainy-rain-droplet-1 iconic-property-accent iconic-property-stroke" fill="none" d="M21.5 21.5v5" />
    <path d="M27 12c-.4-2-2.1-3.5-4-3.9-.5-4.5-4.3-8.1-9-8.1s-8.6 3.4-9 8c-2.9.9-5 3.8-5 7 0 3.5 2.6 6.5 6 7 4.3 0 20.9 0 21 0 2.8 0 5-2.2 5-5s-2.2-5-5-5z" clip-path="url(#iconic-size-md-rainy-clip-0)" class="iconic-rainy-cloud iconic-property-fill" />
  </g>
</svg>