<svg version="1.1" xmlns="http://www.w3.org/2000/svg" width="128" height="128" data-icon="rainy" class="iconic iconic-rainy iconic-size-lg" viewBox="0 0 128 128">
  <g class="iconic-metadata">
    <title>Rainy</title>
  </g>
  <defs>
    <clipPath id="iconic-size-lg-rainy-clip-0">
      <path d="M0 0v86h30v-2c0-4.4 3.6-8 8-8 1.5 0 2.8.4 4 1.1v-1.1c0-4.4 3.6-8 8-8s8 3.6 8 8v1.1c1.2-.7 2.5-1.1 4-1.1s2.8.4 4 1.1v-1.1c0-4.4 3.6-8 8-8s8 3.6 8 8v.3c.6-.2 1.3-.3 2-.3 4.4 0 8 3.6 8 8v2h36v-86h-128z" />
    </clipPath>
  </defs>
  <g class="iconic-container" data-width="128" data-height="114" transform="translate(0 7)">
    <path stroke="#000" stroke-width="4" stroke-linecap="round" class="iconic-rainy-rain-droplet iconic-rainy-rain-droplet-5 iconic-property-accent iconic-property-stroke" fill="none" d="M38 84v22" />
    <path stroke="#000" stroke-width="4" stroke-linecap="round" class="iconic-rainy-rain-droplet iconic-rainy-rain-droplet-4 iconic-property-accent iconic-property-stroke" fill="none" d="M50 76v36" />
    <path stroke="#000" stroke-width="4" stroke-linecap="round" class="iconic-rainy-rain-droplet iconic-rainy-rain-droplet-3 iconic-property-accent iconic-property-stroke" fill="none" d="M62 84v24" />
    <path stroke="#000" stroke-width="4" stroke-linecap="round" class="iconic-rainy-rain-droplet iconic-rainy-rain-droplet-2 iconic-property-accent iconic-property-stroke" fill="none" d="M74 76v36" />
    <path stroke="#000" stroke-width="4" stroke-linecap="round" class="iconic-rainy-rain-droplet iconic-rainy-rain-droplet-1 iconic-property-accent iconic-property-stroke" fill="none" d="M84 84v22" />
    <path d="M110 86c9.9 0 18-8.1 18-18s-8.1-18-18-18c-.7 0-1.3-.1-2 0-.9-8.4-7.6-15.1-16-16-1-19-16.8-34-36-34-18.8 0-34.4 14.6-36 33-11.6 3-20 13.5-20 26 0 14.6 11.6 26.5 26 27h84z" clip-path="url(#iconic-size-lg-rainy-clip-0)" class="iconic-rainy-cloud iconic-property-fill"
    />
  </g>
</svg>