<svg version="1.1" xmlns="http://www.w3.org/2000/svg" width="128" height="128" data-icon="random" class="iconic iconic-random iconic-size-lg" viewBox="0 0 128 128">
  <g class="iconic-metadata">
    <title>Random</title>
  </g>
  <defs>
    <clipPath id="iconic-size-lg-random-clip-0">
      <path d="M0 0v98h128v-98h-128zm60 68l-22-22 14-14 21.8 21.9-13.8 14.1z" />
    </clipPath>
  </defs>
  <g class="iconic-container" data-width="128" data-height="98" transform="translate(0 15)">
    <path stroke="#000" stroke-width="8" stroke-linecap="square" stroke-miterlimit="10" d="M108 82h-17c-1.7 0-3.9-.9-5.1-2.1l-59.8-59.8c-1.2-1.2-3.4-2.1-5.1-2.1h-17" class="iconic-random-line iconic-random-line-bottom iconic-property-stroke" fill="none"
    />
    <path stroke="#000" stroke-width="8" stroke-linecap="square" stroke-miterlimit="10" d="M108 18h-17c-1.7 0-3.9.9-5.1 2.1l-59.8 59.8c-1.2 1.2-3.4 2.1-5.1 2.1h-17" clip-path="url(#iconic-size-lg-random-clip-0)" class="iconic-random-line iconic-random-line-top iconic-property-accent iconic-property-stroke"
    fill="none" />
    <path d="M126.7 81.2l-21.4-12.5c-.7-.4-1.3-.1-1.3.7v25c0 .8.6 1.2 1.3.7l21.4-12.5c.7-.3.7-.9 0-1.4z" class="iconic-random-arrowhead iconic-random-arrowhead-bottom iconic-property-fill" />
    <path d="M126.7 17.2l-21.4-12.4c-.7-.4-1.3-.1-1.3.7v25c0 .8.6 1.2 1.3.7l21.4-12.5c.7-.4.7-1 0-1.5z" class="iconic-random-arrowhead iconic-random-arrowhead-top iconic-property-accent iconic-property-fill" />
  </g>
</svg>