<svg version="1.1" xmlns="http://www.w3.org/2000/svg" width="32" height="32" data-icon="random" class="iconic iconic-random iconic-size-md" viewBox="0 0 32 32">
  <g class="iconic-metadata">
    <title>Random</title>
  </g>
  <defs>
    <clipPath id="iconic-size-md-random-clip-0">
      <path d="M0 0v25h32v-25h-32zm15 18l-6-6 5-5 6 6-5 5z" />
    </clipPath>
  </defs>
  <g class="iconic-container" data-width="32" data-height="25" transform="translate(0 3)">
    <path stroke="#000" stroke-width="3" stroke-linecap="square" stroke-miterlimit="10" d="M27.5 20.5h-4c-.6 0-1.3-.3-1.7-.7l-14.6-14.6c-.4-.4-1.1-.7-1.7-.7h-4" class="iconic-random-line iconic-random-line-bottom iconic-property-stroke" fill="none" />
    <path clip-path="url(#iconic-size-md-random-clip-0)" stroke="#000" stroke-width="3" stroke-linecap="square" stroke-miterlimit="10" d="M27.5 4.5h-4c-.6 0-1.3.3-1.7.7l-14.6 14.6c-.4.4-1.2.7-1.7.7h-4" class="iconic-random-line iconic-random-line-top iconic-property-accent iconic-property-stroke"
    fill="none" />
    <path d="M31.6 20.8l-5.2 3.9c-.2.2-.4.1-.4-.2v-8c0-.3.2-.4.4-.2l5.2 3.9c.2.2.2.4 0 .6z" class="iconic-random-arrowhead iconic-random-arrowhead-bottom iconic-property-fill" />
    <path d="M31.6 4.8l-5.2 3.9c-.2.2-.4.1-.4-.2v-8c0-.3.2-.4.4-.2l5.2 3.9c.2.2.2.4 0 .6z" class="iconic-random-arrowhead iconic-random-arrowhead-top iconic-property-accent iconic-property-fill" />
  </g>
</svg>