<svg version="1.1" xmlns="http://www.w3.org/2000/svg" width="128" height="128" data-icon="reload" class="iconic iconic-reload iconic-size-lg" viewBox="0 0 128 128">
  <g class="iconic-metadata">
    <title>Reload</title>
  </g>
  <g class="iconic-container" data-width="128" data-height="127">
    <path stroke="#000" stroke-width="8" stroke-miterlimit="10" d="M124 64c0 22.5-13.1 43.6-33.2 53.7-20.8 10.4-46.4 7.6-64.4-7-17.8-14.3-26-38-20.9-60.1 5-22 22.6-39.7 44.5-45 20.1-4.8 41.7 1.3 56.4 15.9" class="iconic-reload-line iconic-property-stroke"
    fill="none" />
    <path d="M121.6 36.4l-5.4-24.9c-.2-.8-.8-1-1.4-.4l-19.8 19.9c-.6.6-.4 1.2.4 1.4l25.1 5.3c.8.1 1.3-.5 1.1-1.3z" class="iconic-reload-arrowhead iconic-property-fill" />
  </g>
</svg>