<svg version="1.1" xmlns="http://www.w3.org/2000/svg" data-icon="resize-both" width="128" height="128" class="iconic iconic-resize iconic-size-lg iconic-resize-both" viewBox="0 0 128 128">
  <g>
    <title>Resize Both</title>
  </g>
  <g data-width="128" data-height="128" class="iconic-container iconic-resize-both" transform="translate(0 ) scale(1 1 ) ">
    <path stroke="#000" stroke-width="8" stroke-linecap="square" stroke-miterlimit="10" class="iconic-resize-both-line iconic-property-stroke" d="M116 12l-102.5 102.5" fill="none"></path>
    <path d="M126.5.3l-25.1 5.4c-.8.2-1 .8-.4 1.4l19.9 19.9c.6.6 1.2.4 1.4-.4l5.4-25.1c.2-.8-.4-1.4-1.2-1.2z" class="iconic-resize-both-arrowhead iconic-resize-both-arrowhead-top-right iconic-property-fill"></path>
    <path d="M1.5 127.7l25.1-5.4c.8-.2 1-.8.4-1.4l-19.9-19.8c-.6-.6-1.2-.4-1.4.4l-5.4 25.1c-.2.7.4 1.3 1.2 1.1z" class="iconic-resize-both-arrowhead iconic-resize-both-arrowhead-bottom-left iconic-property-fill"></path>
  </g>
</svg>