<svg version="1.1" xmlns="http://www.w3.org/2000/svg" width="32" height="32" data-icon="script" class="iconic iconic-script iconic-size-md" viewBox="0 0 32 32">
  <g class="iconic-metadata">
    <title>Script</title>
  </g>
  <defs>
    <clipPath id="iconic-size-md-script-clip-0">
      <path d="M0 0v32h29v-32h-29zm4 28.5c0 .3-.2.5-.5.5s-.5-.2-.5-.5v-9.5c0-.3.2-.5.5-.5s.5.2.5.5v9.5zm23-19.5h-21v-5.5c0-.3.2-.5.5-.5s.5.2.5.5v4.5h20c.3 0 .5.2.5.5s-.2.5-.5.5z" />
    </clipPath>
  </defs>
  <g class="iconic-container" data-width="29" data-height="32" transform="translate(1)">
    <path clip-path="url(#iconic-size-md-script-clip-0)" d="M26 0h-19c-1.7 0-3 1.3-3 3v20h-3v6c0 1.7 1.3 3 3 3h19c1.7 0 3-1.3 3-3v-21h3v-5c0-1.7-1.3-3-3-3z" class="iconic-script-body iconic-property-fill" />
  </g>
</svg>