<svg version="1.1" xmlns="http://www.w3.org/2000/svg" width="128" height="128" data-icon="script" class="iconic iconic-script iconic-size-lg" viewBox="0 0 128 128">
  <g class="iconic-metadata">
    <title>Script</title>
  </g>
  <defs>
    <clipPath id="iconic-size-lg-script-clip-0">
      <path d="M0 0v128h104v-128h-104zm8 119c0 .6-.4 1-1 1s-1-.4-1-1v-43c0-.6.4-1 1-1s1 .4 1 1v43zm92-83h-86v-27c0-.6.4-1 1-1s1 .4 1 1v25h84c.6 0 1 .4 1 1s-.4 1-1 1z" />
    </clipPath>
  </defs>
  <g class="iconic-container" data-width="104" data-height="128" transform="translate(12)">
    <path clip-path="url(#iconic-size-lg-script-clip-0)" d="M96 0h-80c-4.4 0-8 3.6-8 8v86h-8v26c0 4.4 3.6 8 8 8h80c4.4 0 8-3.6 8-8v-86h8v-26c0-4.4-3.6-8-8-8z" class="iconic-script-body iconic-property-fill" />
  </g>
</svg>