<svg version="1.1" xmlns="http://www.w3.org/2000/svg" width="128" height="128" data-icon="settings" class="iconic iconic-settings iconic-size-lg" viewBox="0 0 128 128">
  <g class="iconic-metadata">
    <title>Settings</title>
  </g>
  <defs>
    <clipPath id="iconic-size-lg-settings-clip-0">
      <path d="M94 58.2c-9 0-16.2-7.3-16.2-16.2s7.2-16.2 16.2-16.2c8 0 14.7 5.9 16 13.5v-39.3h-110v30.3c2.7-5 8-8.3 14-8.3 8.8 0 16 7.2 16 16s-7.2 16-16 16c-6 0-11.3-3.3-14-8.3v82.3h110v-83.3c-1.3 7.7-8 13.5-16 13.5zm-40 51.8c-8.8 0-16-7.2-16-16s7.2-16 16-16 16 7.2 16 16-7.2 16-16 16z"
      />
    </clipPath>
  </defs>
  <g class="iconic-container" data-width="110" data-height="128" transform="translate(9)">
    <path stroke="#000" stroke-width="8" stroke-linecap="round" stroke-miterlimit="10" clip-path="url(#iconic-size-lg-settings-clip-0)" class="iconic-settings-line iconic-settings-line-1 iconic-property-accent iconic-property-stroke" fill="none" d="M14 4v120"
    />
    <path stroke="#000" stroke-width="8" stroke-linecap="round" stroke-miterlimit="10" clip-path="url(#iconic-size-lg-settings-clip-0)" class="iconic-settings-line iconic-settings-line-2 iconic-property-accent iconic-property-stroke" fill="none" d="M54 4v120"
    />
    <path stroke="#000" stroke-width="8" stroke-linecap="round" stroke-miterlimit="10" clip-path="url(#iconic-size-lg-settings-clip-0)" class="iconic-settings-line iconic-settings-line-3 iconic-property-accent iconic-property-stroke" fill="none" d="M94 4v120"
    />
    <path d="M94 28c-7.7 0-14 6.3-14 14s6.3 14 14 14 14-6.3 14-14-6.3-14-14-14z" class="iconic-settings-knob iconic-settings-knob-3 iconic-property-fill" />
    <path d="M54 80c-7.7 0-14 6.3-14 14s6.3 14 14 14 14-6.3 14-14-6.3-14-14-14z" class="iconic-settings-knob iconic-settings-knob-2 iconic-property-fill" />
    <path d="M14 24c-7.7 0-14 6.3-14 14s6.3 14 14 14 14-6.3 14-14-6.3-14-14-14z" class="iconic-settings-knob iconic-settings-knob-1 iconic-property-fill" />
  </g>
</svg>