<svg version="1.1" xmlns="http://www.w3.org/2000/svg" width="32" height="32" data-icon="tags" class="iconic iconic-tags iconic-size-md" viewBox="0 0 32 32">
  <g class="iconic-metadata">
    <title>Tags</title>
  </g>
  <defs>
    <clipPath id="iconic-size-md-tags-clip-0">
      <path d="M32 16l-17-16h-3l17 16-8.5 8.5 1.5 1.5z" />
    </clipPath>
    <clipPath id="iconic-size-md-tags-clip-1">
      <path d="M10 0h-10v10l17 16 10-10-17-16zm-4 8c-1.1 0-2-.9-2-2s.9-2 2-2 2 .9 2 2-.9 2-2 2z" />
    </clipPath>
  </defs>
  <g class="iconic-container" data-width="32" data-height="26" transform="translate(0 3)">
    <path d="M5 .5v9c0 .3.2.7.4.8l16.3 15.3c.2.2.5.2.7 0l9.3-9.3c.2-.2.2-.5 0-.7l-16.3-15.3c-.2-.1-.6-.3-.9-.3h-9c-.3 0-.5.2-.5.5z" clip-path="url(#iconic-size-md-tags-clip-0)" class="iconic-tags-back iconic-property-accent iconic-property-fill" />
    <path d="M9.5 0h-9c-.3 0-.5.2-.5.5v9c0 .3.2.7.4.8l16.3 15.3c.2.2.5.2.7 0l9.3-9.3c.2-.2.2-.5 0-.7l-16.3-15.3c-.2-.1-.6-.3-.9-.3z" clip-path="url(#iconic-size-md-tags-clip-1)" class="iconic-tags-front iconic-property-fill" />
  </g>
</svg>