<svg version="1.1" xmlns="http://www.w3.org/2000/svg" width="128" height="128" data-icon="thermometer" class="iconic iconic-thermometer iconic-size-lg" viewBox="0 0 128 128">
  <g class="iconic-metadata">
    <title>Thermometer</title>
  </g>
  <g class="iconic-container" data-width="44" data-height="128" transform="translate(42)">
    <path stroke="#000" stroke-width="2" stroke-linecap="round" stroke-miterlimit="10" class="iconic-thermometer-tick iconic-thermometer-tick-6 iconic-property-stroke" fill="none" d="M28 75h2" />
    <path stroke="#000" stroke-width="2" stroke-linecap="round" stroke-miterlimit="10" class="iconic-thermometer-tick iconic-thermometer-tick-5 iconic-property-stroke" fill="none" d="M28 63h2" />
    <path stroke="#000" stroke-width="2" stroke-linecap="round" stroke-miterlimit="10" class="iconic-thermometer-tick iconic-thermometer-tick-4 iconic-property-stroke" fill="none" d="M28 51h2" />
    <path stroke="#000" stroke-width="2" stroke-linecap="round" stroke-miterlimit="10" class="iconic-thermometer-tick iconic-thermometer-tick-3 iconic-property-stroke" fill="none" d="M28 39h2" />
    <path stroke="#000" stroke-width="2" stroke-linecap="round" stroke-miterlimit="10" class="iconic-thermometer-tick iconic-thermometer-tick-2 iconic-property-stroke" fill="none" d="M28 27h2" />
    <path stroke="#000" stroke-width="2" stroke-linecap="round" stroke-miterlimit="10" class="iconic-thermometer-tick iconic-thermometer-tick-1 iconic-property-stroke" fill="none" d="M28 15h2" />
    <path stroke="#000" stroke-width="2" stroke-linecap="round" stroke-miterlimit="10" d="M14 86.6c-7.6 3.1-13 10.6-13 19.4 0 11.6 9.4 21 21 21s21-9.4 21-21c0-8.8-5.4-16.3-13-19.4v-77.6c0-4.4-3.6-8-8-8s-8 3.6-8 8v77.6z" class="iconic-thermometer-body iconic-property-stroke"
    fill="none" />
    <path stroke="#000" stroke-width="6" stroke-linecap="round" stroke-miterlimit="10" class="iconic-thermometer-shaft iconic-property-stroke" fill="none" d="M22 9v101" />
    <circle cx="22" cy="106" r="16" class="iconic-thermometer-well iconic-property-fill" />
  </g>
</svg>