<svg version="1.1" xmlns="http://www.w3.org/2000/svg" data-icon="thumb-down" width="128" height="128" class="iconic iconic-thumb iconic-size-lg iconic-thumb-down" viewBox="0 0 128 128">
  <g>
    <title>Thumb Down</title>
  </g>
  <g data-width="126" data-height="128" class="iconic-container iconic-thumbs-down" transform="translate(1 ) scale(1 1 ) ">
    <path d="M10 0l-10 76h32v-76h-22zm16 8c-1.1 0-2-.9-2-2s.9-2 2-2 2 .9 2 2-.9 2-2 2z" class="iconic-thumbs-down-cuff iconic-property-accent iconic-property-fill"></path>
    <path d="M125.4 62c-3.1-12.4-18.1-54.5-18.1-54.5-1.4-3.2-4.6-5.5-8.3-5.5h-43l-20 4v68c5 0 9.4 1.9 12.7 5.3 7.7 7.5 19.3 22.6 19.3 34.7v11c0 1.7 1.3 3 3 3h6c5 0 9-4 9-9v-5c0-16-5-26.5-5-31s4-9 9-9h27c5 0 9-3.9 9-9 0-.5-.2-1.6-.6-3z" class="iconic-thumbs-down-hand iconic-property-fill"></path>
  </g>
</svg>