<svg version="1.1" xmlns="http://www.w3.org/2000/svg" data-icon="thumb-down" width="16" height="16" class="iconic iconic-thumb iconic-size-sm iconic-thumb-down" viewBox="0 0 16 16">
  <g>
    <title>Thumb Down</title>
  </g>
  <g data-width="14" data-height="14" class="iconic-container iconic-thumbs-down" transform="scale(1 1 ) translate(1 1 ) ">
    <path class="iconic-thumbs-down-cuff iconic-property-accent iconic-property-fill" d="M0 0h3v8h-3z"></path>
    <path d="M11.9.6c-.1-.3-.5-.6-.9-.6h-7v8c.6 0 1 .2 1.4.6.4.4 2.3 4.2 2.6 4.7.3.5.8.8 1.3.7.5-.2.8-.7.7-1.3-.2-.5-1-3.2-1-3.7s.4-1 1-1h3c.6 0 1-.4 1-1l-2.1-6.4z" class="iconic-thumbs-down-hand iconic-property-fill"></path>
  </g>
</svg>