<svg version="1.1" xmlns="http://www.w3.org/2000/svg" data-icon="thumb-up" width="32" height="32" class="iconic iconic-thumb iconic-size-md iconic-thumb-up" viewBox="0 0 32 32">
  <g>
    <title>Thumb Up</title>
  </g>
  <g data-width="32" data-height="32" class="iconic-container iconic-thumbs-up" transform="scale(1 1 ) translate(0 ) ">
    <path d="M0 13l2 19h5v-19h-7zm5 18c-.6 0-1-.4-1-1s.4-1 1-1 1 .4 1 1-.4 1-1 1z" class="iconic-thumbs-up-cuff iconic-property-accent iconic-property-fill"></path>
    <path d="M29.7 13h-7.2c-1.2 0-2.2-1.1-2.2-2.3s1.7-3.7 1.7-6.7v-1.5c0-1.4-1.1-2.5-2.5-2.5h-1.8c-.4 0-.7.3-.7.8v2.8c0 3-2.9 6.3-4.8 8.2-.9.7-2 1.2-3.2 1.2v17s2 1 5 1h11.2c.9 0 1.7-.6 2.1-1.4 0 0 3.8-10.5 4.5-13.6.1-.4.1-.6.1-.8.1-1.2-.9-2.2-2.2-2.2z" class="iconic-thumbs-up-hand iconic-property-fill"></path>
  </g>
</svg>