<svg version="1.1" xmlns="http://www.w3.org/2000/svg" data-icon="thumb-down" width="32" height="32" class="iconic iconic-thumb iconic-size-md iconic-thumb-down" viewBox="0 0 32 32">
  <g>
    <title>Thumb Down</title>
  </g>
  <g data-width="32" data-height="32" class="iconic-container iconic-thumbs-down" transform="scale(1 1 ) translate(0 ) ">
    <path d="M2 0l-2 19h7v-19h-5zm3 3c-.6 0-1-.4-1-1s.4-1 1-1 1 .4 1 1-.4 1-1 1z" class="iconic-thumbs-down-cuff iconic-property-accent iconic-property-fill"></path>
    <path d="M31.9 16c-.8-3.1-4.5-13.6-4.5-13.6-.4-.8-1.2-1.4-2.1-1.4h-11.3l-5 1v17c1.2 0 2.3.5 3.2 1.3 1.9 1.9 4.8 5.1 4.8 8.2v2.8c0 .4.3.8.8.8h1.8c1.4 0 2.5-1.1 2.5-2.5v-1.5c0-3-1.7-5.6-1.7-6.7s1.4-2.4 2.6-2.4h6.8c1.2 0 2.2-1 2.2-2.2 0-.2 0-.4-.1-.8z" class="iconic-thumbs-down-hand iconic-property-fill"></path>
  </g>
</svg>