<svg version="1.1" xmlns="http://www.w3.org/2000/svg" width="128" height="128" data-icon="timer" class="iconic iconic-timer iconic-size-lg" viewBox="0 0 128 128">
  <g class="iconic-metadata">
    <title>Timer</title>
  </g>
  <g class="iconic-container" data-width="116" data-height="128" transform="translate(6)">
    <path d="M52.3 64.3c-3.1 3.1-3.1 8.2 0 11.3 3.1 3.1 8.2 3.1 11.3 0 3.2-3.1 26.4-35.6 26.4-35.6s-34.5 21.2-37.7 24.3zm5.7 9.7c-2.2 0-4-1.8-4-4s1.8-4 4-4 4 1.8 4 4-1.8 4-4 4z" class="iconic-timer-needle iconic-property-fill" />
    <path class="iconic-timer-stop-button iconic-timer-stop-button-base iconic-property-fill" d="M52 4h12v12.1h-12z" />
    <path class="iconic-timer-stop-button iconic-timer-stop-button-top iconic-property-fill" d="M48 0h20v2h-20z" />
    <circle stroke="#000" stroke-width="8" stroke-miterlimit="10" cx="58" cy="70" r="54" class="iconic-timer-body iconic-property-stroke" fill="none" />
  </g>
</svg>