<svg version="1.1" xmlns="http://www.w3.org/2000/svg" width="32" height="32" data-icon="tools" class="iconic iconic-tools iconic-size-md" viewBox="0 0 32 32">
  <g class="iconic-metadata">
    <title>Tools</title>
  </g>
  <defs>
    <clipPath id="iconic-size-md-tools-clip-0">
      <path d="M0 0v32h32v-32h-32zm20 21l-1 1-17-17 1-1 2-2 17 17-2 2z" />
    </clipPath>
  </defs>
  <g class="iconic-container" data-width="32" data-height="32">
    <path class="iconic-tools-screwdriver iconic-tools-screwdriver-head iconic-property-accent iconic-property-fill" d="M4 5l16 16 1-1-16-16-1-2-3-2-1 1 2 3z" />
    <path d="M31 27l-9-9h-1l-1-1-3 3 1 1v1l9 9c.5.6 1.3 1 2.2 1 1.6 0 2.8-1.3 2.8-2.8 0-.9-.4-1.7-1-2.2z" class="iconic-tools-screwdriver iconic-tools-screwdriver-handle iconic-property-accent iconic-property-fill" />
    <path d="M31 7c-1-1-1 0-2-1s0-1-1-2-1-1-1-1c-3-3-4-3-10-3 7 3 5 6 4 7l-9 9 2 2 9-9c1-1 2-1 3 0s0 1 1 2 1 1 1 1l4-4s0 0-1-1z" clip-path="url(#iconic-size-md-tools-clip-0)" class="iconic-tools-hammer iconic-tools-hammer-head iconic-property-fill" />
    <path d="M14.5 13.2l-2.1.7c-.3.1-.6.3-.8.5l-11.2 11.2c-.2.2-.3.6-.1.8l2.6 5.1c.1.2.3.3.5 0l1.5-2.2c.2-.2.4-.6.6-.8l10.3-10.3c.2-.2.4-.6.5-.8l.7-2c.1-.3.3-.6.5-.8l.3-.3c.2-.2.2-.5 0-.7l-1.3-1.3c-.2-.2-.5-.2-.7 0l-.3.3c-.3.2-.7.5-1 .6z" clip-path="url(#iconic-size-md-tools-clip-0)"
    class="iconic-tools-hammer iconic-tools-hammer-handle iconic-property-fill" />
  </g>
</svg>