<svg version="1.1" xmlns="http://www.w3.org/2000/svg" width="128" height="128" data-icon="tools" class="iconic iconic-tools iconic-size-lg" viewBox="0 0 128 128">
  <g class="iconic-metadata">
    <title>Tools</title>
  </g>
  <defs>
    <clipPath id="iconic-size-lg-tools-clip-0">
      <path d="M0 0v128h128v-128h-128zm76.5 84.6l-68.4-68.5 4-4 68.5 68.5-4.1 4zm4.1-4.1l-64.5-64.4 4-4 64.5 64.5-4 3.9z" />
    </clipPath>
  </defs>
  <g class="iconic-container" data-width="128" data-height="128">
    <path class="iconic-tools-screwdriver iconic-tools-screwdriver-head iconic-property-accent iconic-property-fill" d="M16.1 20.1l57.5 57.5 4-4-57.5-57.5-2-8-14.1-8.1-4 4 8.1 14.1z" />
    <path d="M124 108l-36-36h-4l-2-2v-2l-2-2-14 14 2 2h2l2 2v4l36 36c2.1 2.5 5.2 4 8.6 4 6.3 0 11.3-5.1 11.3-11.3.1-3.5-1.5-6.6-3.9-8.7zm-12.3 13.7c-.2.2-.5.3-.7.3s-.5-.1-.7-.3l-34-34c-.4-.4-.4-1 0-1.4s1-.4 1.4 0l34 34c.4.4.4 1 0 1.4zm6-4c-.2.2-.5.3-.7.3s-.5-.1-.7-.3l-34-34c-.4-.4-.4-1 0-1.4s1-.4 1.4 0l34 34c.4.4.4 1 0 1.4zm4-6c-.2.2-.5.3-.7.3s-.5-.1-.7-.3l-34-34c-.4-.4-.4-1 0-1.4s1-.4 1.4 0l34 34c.4.4.4 1 0 1.4z"
    class="iconic-tools-screwdriver iconic-tools-screwdriver-handle iconic-property-accent iconic-property-fill" />
    <path clip-path="url(#iconic-size-lg-tools-clip-0)" d="M127.6 31.6l-1.3-1.3c-.7-.7-1.7-1.7-2.4-2.4-4-4-6 0-10-4s-2-8-6-12c-11.9-11.9-15.9-11.9-39.9-11.9 28 12.1 19.9 24.1 16 28l-36 36 8 8 36-36c5.9-5.9 7.9-6.1 12-2s0 6 4 10c1 1 3 3 3 3l.6.6c.2.2.5.2.7 0l15.3-15.3c.2-.1.2-.5 0-.7z"
    class="iconic-tools-hammer iconic-tools-hammer-head iconic-property-fill" />
    <path d="M57.2 52.9l-6.3 2.1c-1.6.5-3.8 1.9-5 3.1l-43.8 43.8c-1.2 1.2-1.5 3.3-.8 4.8l9.3 18.6c.7 1.5 2.1 1.6 3 .2l4.7-7.1c.9-1.4 2.6-3.4 3.8-4.6l39.7-39.7c1.2-1.2 2.5-3.4 3.1-5l2-6.2c.5-1.6 1.9-3.8 3-4.9s1.1-3-.1-4.2l-3.8-3.8c-1.2-1.2-3-1.2-4.1-.1s-3.2 2.5-4.7 3z"
    clip-path="url(#iconic-size-lg-tools-clip-0)" class="iconic-tools-hammer iconic-tools-hammer-handle iconic-property-fill" />
  </g>
</svg>