<svg version="1.1" xmlns="http://www.w3.org/2000/svg" width="128" height="128" data-icon="transfer" class="iconic iconic-transfer iconic-size-lg" viewBox="0 0 128 128">
  <g class="iconic-metadata">
    <title>Transfer</title>
  </g>
  <g class="iconic-container" data-width="128" data-height="60" transform="translate(0 34)">
    <path stroke="#000" stroke-width="8" stroke-linecap="square" stroke-miterlimit="10" class="iconic-transfer-line iconic-transfer-line-bottom iconic-property-accent iconic-property-stroke" fill="none" d="M124 46h-100" />
    <path d="M1.3 46.8l21.4 12.5c.7.4 1.3.1 1.3-.7v-25c0-.8-.6-1.2-1.3-.7l-21.4 12.3c-.7.5-.7 1.1 0 1.6z" class="iconic-transfer-arrowhead iconic-transfer-arrowhead-bottom iconic-property-accent iconic-property-fill" />
    <path stroke="#000" stroke-width="8" stroke-linecap="square" stroke-miterlimit="10" class="iconic-transfer-line iconic-transfer-line-top iconic-property-stroke" fill="none" d="M4 14h100" />
    <path d="M126.7 13.2l-21.4-12.4c-.7-.4-1.3-.1-1.3.7v25c0 .8.6 1.2 1.3.7l21.4-12.5c.7-.4.7-1 0-1.5z" class="iconic-transfer-arrowhead iconic-transfer-arrowhead-top iconic-property-fill" />
  </g>
</svg>