<svg version="1.1" xmlns="http://www.w3.org/2000/svg" width="32" height="32" data-icon="transfer" class="iconic iconic-transfer iconic-size-md" viewBox="0 0 32 32">
  <g class="iconic-metadata">
    <title>Transfer</title>
  </g>
  <g class="iconic-container" data-width="32" data-height="18" transform="translate(0 7)">
    <path stroke="#000" stroke-width="3" stroke-linecap="square" stroke-miterlimit="10" class="iconic-transfer-line iconic-transfer-line-bottom iconic-property-accent iconic-property-stroke" fill="none" d="M30.5 13.5h-25" />
    <path d="M.4 13.2l5.2-3.9c.2-.2.4-.1.4.2v8c0 .3-.2.4-.4.2l-5.2-3.9c-.2-.2-.2-.4 0-.6z" class="iconic-transfer-arrowhead iconic-transfer-arrowhead-bottom iconic-property-accent iconic-property-fill" />
    <path stroke="#000" stroke-width="3" stroke-linecap="square" stroke-miterlimit="10" class="iconic-transfer-line iconic-transfer-line-bottom iconic-property-stroke" fill="none" d="M1.5 4.5h25" />
    <path d="M31.6 4.8l-5.2 3.9c-.2.2-.4.1-.4-.2v-8c0-.3.2-.4.4-.2l5.2 3.9c.2.2.2.4 0 .6z" class="iconic-transfer-arrowhead iconic-transfer-arrowhead-top iconic-property-fill" />
  </g>
</svg>