<svg version="1.1" xmlns="http://www.w3.org/2000/svg" width="128" height="128" data-icon="trash" class="iconic iconic-trash iconic-size-lg" viewBox="0 0 128 128">
  <g class="iconic-metadata">
    <title>Trash</title>
  </g>
  <defs>
    <clipPath id="iconic-size-lg-trash-clip-0">
      <path d="M88 20v93c0 1.1-.9 2-2 2s-2-.9-2-2v-93h-12v93c0 1.1-.9 2-2 2s-2-.9-2-2v-93h-12v93c0 1.1-.9 2-2 2s-2-.9-2-2v-93h-12v93c0 1.1-.9 2-2 2s-2-.9-2-2v-93h-12v93c0 1.1-.9 2-2 2s-2-.9-2-2v-93h-12v108h92v-108h-12z" />
    </clipPath>
  </defs>
  <g class="iconic-container" data-width="108" data-height="128" transform="translate(10)">
    <path clip-path="url(#iconic-size-lg-trash-clip-0)" d="M97 128h-86c-1.7 0-3-1.3-3-3v-106c0-1.7 1.3-3 3-3h86c1.7 0 3 1.3 3 3v106c0 1.7-1.3 3-3 3z" class="iconic-trash-can iconic-property-fill" />
    <path stroke="#000" stroke-width="2" stroke-miterlimit="10" d="M41 15.3v-11.3c0-1.7 1.3-3 3-3h20c1.7 0 3 1.3 3 3v11.3" class="iconic-trash-lid iconic-trash-lid-handle iconic-property-accent iconic-property-stroke" fill="none" />
    <path d="M104 10c-.1 0-.2 0-.2 0h-15.8c0-1.1-.9-2-2-2h-63.9s0 0-.1 0c-1.1 0-2 .9-2 2h-16c-2.2 0-4 1.8-4 4v4h108v-4c0-2.2-1.8-4-4-4z" class="iconic-trash-lid iconic-property-fill" />
  </g>
</svg>