<svg version="1.1" xmlns="http://www.w3.org/2000/svg" data-icon="vertical-align-bottom" width="128" height="128" class="iconic iconic-vertical-align iconic-size-lg iconic-vertical-align-bottom" viewBox="0 0 128 128">
  <g>
    <title>Vertical Align Bottom</title>
  </g>
  <g data-width="128" data-height="90" class="iconic-container iconic-vertical-align-bottom" transform="translate(0 19 ) scale(1 1 ) ">
    <path d="M98.5 86h-17c-.8 0-1.5-.7-1.5-1.5v-67c0-.8.7-1.5 1.5-1.5h17c.8 0 1.5.7 1.5 1.5v67c0 .8-.7 1.5-1.5 1.5z" class="iconic-vertical-align-bottom-element iconic-vertical-align-bottom-element-3 iconic-property-fill"></path>
    <path d="M72.5 86h-17c-.8 0-1.5-.7-1.5-1.5v-47c0-.8.7-1.5 1.5-1.5h17c.8 0 1.5.7 1.5 1.5v47c0 .8-.7 1.5-1.5 1.5z" class="iconic-vertical-align-bottom-element iconic-vertical-align-bottom-element-2 iconic-property-fill"></path>
    <path d="M46.5 86h-17c-.8 0-1.5-.7-1.5-1.5v-83c0-.8.7-1.5 1.5-1.5h17c.8 0 1.5.7 1.5 1.5v83c0 .8-.7 1.5-1.5 1.5z" class="iconic-vertical-align-bottom-element iconic-vertical-align-bottom-element-1 iconic-property-fill"></path>
    <path stroke="#000" stroke-width="2" stroke-miterlimit="10" class="iconic-vertical-align-bottom-alignment-line iconic-property-accent iconic-property-stroke" d="M0 89h128" fill="none"></path>
  </g>
</svg>