<svg version="1.1" xmlns="http://www.w3.org/2000/svg" data-icon="volume-low" width="32" height="32" class="iconic iconic-volume iconic-size-md iconic-volume-low" viewBox="0 0 32 32">
  <g>
    <title>Volume Low</title>
  </g>
  <g data-width="20" data-height="24" class="iconic-container iconic-volume-low" transform="scale(1 1 ) translate(6 4 ) ">
    <path d="M12.6.3l-7.2 6.4c-.2.2-.6.3-.9.3h-4c-.3 0-.5.2-.5.5v9c0 .3.2.5.5.5h4c.3 0 .7.1.9.3l7.2 6.3c.2.2.6.3.9.3.3 0 .5-.2.5-.5v-23c0-.2-.2-.4-.5-.4s-.7.1-.9.3z" class="iconic-volume-low-speaker iconic-property-fill"></path>
    <path stroke="#000" stroke-width="2" d="M17.5 8.5c.9.9 1.5 2.1 1.5 3.5s-.6 2.6-1.5 3.5" class="iconic-volume-low-wave iconic-property-accent iconic-property-stroke" fill="none"></path>
  </g>
</svg>