<svg version="1.1" xmlns="http://www.w3.org/2000/svg" data-icon="volume-off" width="128" height="128" class="iconic iconic-volume iconic-size-lg iconic-volume-off" viewBox="0 0 128 128">
  <g>
    <title>Volume Off</title>
  </g>
  <g data-width="104" data-height="96" class="iconic-container iconic-volume-off" transform="translate(12 16 ) scale(1 1 ) ">
    <path d="M52.9 1l-31.8 28c-.6.5-1.8 1-2.6 1h-17c-.8 0-1.5.7-1.5 1.5v33c0 .8.7 1.5 1.5 1.5h17c.8 0 2 .4 2.6 1l31.8 28c.6.5 1.6 1 2.1 1s1-.7 1-1.5v-93c0-.8-.4-1.5-1-1.5s-1.5.4-2.1 1z" class="iconic-volume-off-speaker iconic-property-fill"></path>
    <path stroke="#000" stroke-width="8" stroke-linejoin="round" class="iconic-volume-off-mute iconic-property-accent iconic-property-stroke" d="M100 32l-32 32m32 0l-32-32" fill="none"></path>
  </g>
</svg>