<svg version="1.1" xmlns="http://www.w3.org/2000/svg" data-icon="volume-medium" width="128" height="128" class="iconic iconic-volume iconic-size-lg iconic-volume-medium" viewBox="0 0 128 128">
  <g>
    <title>Volume Medium</title>
  </g>
  <g data-width="104" data-height="96" class="iconic-container iconic-volume-medium" transform="translate(12 16 ) scale(1 1 ) ">
    <path d="M52.9 1l-31.8 28c-.6.5-1.8 1-2.6 1h-17c-.8 0-1.5.7-1.5 1.5v33c0 .8.7 1.5 1.5 1.5h17c.8 0 2 .4 2.6 1l31.8 28c.6.5 1.6 1 2.1 1s1-.7 1-1.5v-93c0-.8-.4-1.5-1-1.5s-1.5.4-2.1 1z" class="iconic-volume-medium-speaker iconic-property-fill"></path>
    <path stroke="#000" stroke-width="8" d="M70.1 33.9c3.7 3.6 5.9 8.6 5.9 14.1s-2.2 10.5-5.9 14.1" class="iconic-volume-medium-wave iconic-volume-medium-wave-inner iconic-property-accent iconic-property-stroke" fill="none"></path>
    <path stroke="#000" stroke-width="8" d="M87.1 16.9c8 8 12.9 19 12.9 31.1s-4.9 23.2-12.9 31.1" class="iconic-volume-medium-wave iconic-volume-medium-wave-middle iconic-property-accent iconic-property-stroke" fill="none"></path>
  </g>
</svg>