<svg version="1.1" xmlns="http://www.w3.org/2000/svg" data-icon="volume-high" width="32" height="32" class="iconic iconic-volume iconic-size-md iconic-volume-high" viewBox="0 0 32 32">
  <g>
    <title>Volume High</title>
  </g>
  <g data-width="32" data-height="26" class="iconic-container iconic-volume-high" transform="scale(1 1 ) translate(0 3 ) ">
    <path d="M12.6 1.3l-7.2 6.4c-.2.2-.6.3-.9.3h-4c-.3 0-.5.2-.5.5v9c0 .3.2.5.5.5h4c.3 0 .7.1.9.3l7.2 6.3c.2.2.6.3.9.3.3 0 .5-.2.5-.5v-23c0-.2-.2-.4-.5-.4s-.7.1-.9.3z" class="iconic-volume-high-speaker iconic-property-fill"></path>
    <path stroke="#000" stroke-width="2" d="M17.5 9.5c.9.9 1.5 2.2 1.5 3.5s-.6 2.6-1.5 3.5" class="iconic-volume-high-wave iconic-volume-high-wave-inner iconic-property-accent iconic-property-stroke" fill="none"></path>
    <path stroke="#000" stroke-width="2" d="M21.8 5.2c2 2 3.2 4.7 3.2 7.8s-1.2 5.8-3.2 7.8" class="iconic-volume-high-wave iconic-volume-high-wave-middle iconic-property-accent iconic-property-stroke" fill="none"></path>
    <path stroke="#000" stroke-width="2" d="M26 1c3.1 3.1 5 7.3 5 12s-1.9 8.9-5 12" class="iconic-volume-high-wave iconic-volume-high-wave-outer iconic-property-accent iconic-property-stroke" fill="none"></path>
  </g>
</svg>