<svg version="1.1" xmlns="http://www.w3.org/2000/svg" width="16" height="16" data-icon="warning" class="iconic iconic-warning iconic-size-sm" viewBox="0 0 16 16">
  <g class="iconic-metadata">
    <title>Warning</title>
  </g>
  <defs>
    <clipPath id="iconic-size-sm-warning-clip-0">
      <path d="M0 0v16h16v-16h-16zm8 14c-.6 0-1-.4-1-1s.4-1 1-1 1 .4 1 1-.4 1-1 1zm1-5l-1 1-1-1v-4h2v4z" />
    </clipPath>
  </defs>
  <g class="iconic-container" data-width="16" data-height="16">
    <path d="M0 15.8v-1.5c0-.1.1-.4.1-.5l6.8-13.6c0-.1.2-.2.3-.2h1.5c.1 0 .3.1.4.2l6.8 13.6c.1.1.1.3.1.5v1.5c0 .1-.1.2-.2.2h-15.5c-.2 0-.3-.1-.3-.2z" clip-path="url(#iconic-size-sm-warning-clip-0)" class="iconic-warning-body iconic-property-fill" />
  </g>
</svg>