<svg version="1.1" xmlns="http://www.w3.org/2000/svg" width="128" height="128" data-icon="warning" class="iconic iconic-warning iconic-size-lg" viewBox="0 0 128 128">
  <g class="iconic-metadata">
    <title>Warning</title>
  </g>
  <defs>
    <clipPath id="iconic-size-lg-warning-clip-0">
      <path d="M0 0v118h128v-118h-128zm64 98c-2.2 0-4-1.8-4-4s1.8-4 4-4 4 1.8 4 4-1.8 4-4 4zm4-29.8l-2 13.8h-4l-2-13.9v-18.1h8v18.2z" />
    </clipPath>
  </defs>
  <g class="iconic-container" data-width="128" data-height="118" transform="translate(0 5)">
    <path d="M.7 116.7l62.6-115.4c.4-.7 1-.7 1.4 0l62.6 115.4c.4.7 0 1.3-.8 1.3h-125c-.8 0-1.2-.6-.8-1.3z" clip-path="url(#iconic-size-lg-warning-clip-0)" class="iconic-warning-body iconic-property-fill" />
  </g>
</svg>