<svg version="1.1" xmlns="http://www.w3.org/2000/svg" width="32" height="32" data-icon="wrench" class="iconic iconic-wrench iconic-size-md" viewBox="0 0 32 32">
  <g class="iconic-metadata">
    <title>Wrench</title>
  </g>
  <g class="iconic-container" data-width="32" data-height="32">
    <path d="M31.7 5.3l-3.7 3.7h-5v-5l3.7-3.7c-.7-.2-1.4-.3-2.2-.3-4.1 0-7.5 3.4-7.5 7.5 0 2.2-.9 4.1-2.3 5.5l-13.8 13.9c-1.2 1.2-1.2 3.1 0 4.2.6.6 1.3.9 2.1.9s1.5-.3 2.1-.9l13.9-13.8c1.4-1.4 3.3-2.3 5.5-2.3 4.1 0 7.5-3.4 7.5-7.5 0-.8-.1-1.5-.3-2.2zm-28.7 25.2c-.8 0-1.5-.7-1.5-1.5s.7-1.5 1.5-1.5 1.5.7 1.5 1.5-.7 1.5-1.5 1.5z"
    class="iconic-property-fill" />
  </g>
</svg>